solid 2020_Bed_Mount_Clip_left
facet normal 0.0 0.0 -1.0
  outer loop
    vertex 18.6061449189646 32.2500000000017 4.22994972382185e-015
    vertex 7.19193135659197 29.7499999999999 4.22994972382185e-015
    vertex 7.19193135659162 31.7499999999999 4.22994972382185e-015
  endloop
endfacet
facet normal 0.0 0.0 -1.0
  outer loop
    vertex 7.19193135659197 29.7499999999999 4.22994972382185e-015
    vertex 18.6061449189646 32.2500000000017 4.22994972382185e-015
    vertex 10.1919313565919 30.2500000000004 4.22994972382185e-015
  endloop
endfacet
facet normal 0.0 0.0 -1.0
  outer loop
    vertex 7.19193135659197 29.7499999999999 4.22994972382185e-015
    vertex 10.1919313565919 30.2500000000004 4.22994972382185e-015
    vertex 7.91604023986392 29.1425774325689 4.22994972382185e-015
  endloop
endfacet
facet normal 0.0 0.0 -1.0
  outer loop
    vertex 7.91604023986392 29.1425774325689 4.22994972382185e-015
    vertex 10.1919313565919 30.2500000000004 4.22994972382185e-015
    vertex 8.85409351875425 29.0270270270272 4.22994972382185e-015
  endloop
endfacet
facet normal 0.0 0.0 -1.0
  outer loop
    vertex 8.85409351875425 29.0270270270272 4.22994972382185e-015
    vertex 10.1919313565919 30.2500000000004 4.22994972382185e-015
    vertex 9.703965407799 29.4405649605584 4.22994972382185e-015
  endloop
endfacet
facet normal 0.0 0.0 -1.0
  outer loop
    vertex 10.1919313565919 30.2500000000004 4.22994972382185e-015
    vertex 18.6061449189646 32.2500000000017 4.22994972382185e-015
    vertex 17.9919313565919 30.2500000000016 4.22994972382185e-015
  endloop
endfacet
facet normal 0.0 0.0 -1.0
  outer loop
    vertex 17.9919313565919 30.2500000000016 4.22994972382185e-015
    vertex 18.6061449189646 32.2500000000017 4.22994972382185e-015
    vertex 18.5244474742993 30.5825161177092 4.22994972382185e-015
  endloop
endfacet
facet normal 0.0 0.0 -1.0
  outer loop
    vertex 18.5244474742993 30.5825161177092 4.22994972382185e-015
    vertex 18.6061449189646 32.2500000000017 4.22994972382185e-015
    vertex 18.524447474303 9.41748388229422 4.22994972382185e-015
  endloop
endfacet
facet normal 0.0 0.0 -1.0
  outer loop
    vertex 24.1919313565884 50.6642135623758 4.22994972382183e-015
    vertex 20.1919313565918 30.6642135623751 4.22994972382185e-015
    vertex 20.1919313565884 50.6642135623751 4.22994972382183e-015
  endloop
endfacet
facet normal 0.0 0.0 -1.0
  outer loop
    vertex 20.1919313565918 30.6642135623751 4.22994972382185e-015
    vertex 24.1919313565884 50.6642135623758 4.22994972382183e-015
    vertex 20.1919313565955 9.33578643762894 4.22994972382185e-015
  endloop
endfacet
facet normal 0.0 0.0 -1.0
  outer loop
    vertex 20.1919313565955 9.33578643762894 4.22994972382185e-015
    vertex 24.1919313565884 50.6642135623758 4.22994972382183e-015
    vertex 24.1919313565955 9.33578643762963 4.22994972382185e-015
  endloop
endfacet
facet normal 0.0 0.0 -1.0
  outer loop
    vertex 7.91604023986704 10.8574225674311 4.22994972382185e-015
    vertex 7.19193135659566 8.24999999999992 4.22994972382185e-015
    vertex 7.1919313565953 10.2499999999999 4.22994972382185e-015
  endloop
endfacet
facet normal 0.0 0.0 -1.0
  outer loop
    vertex 7.19193135659566 8.24999999999992 4.22994972382185e-015
    vertex 7.91604023986704 10.8574225674311 4.22994972382185e-015
    vertex 10.1919313565954 9.75000000000045 4.22994972382185e-015
  endloop
endfacet
facet normal 0.0 0.0 -1.0
  outer loop
    vertex 7.19193135659566 8.24999999999992 4.22994972382185e-015
    vertex 10.1919313565954 9.75000000000045 4.22994972382185e-015
    vertex 18.6061449189688 7.75000000000174 4.22994972382185e-015
  endloop
endfacet
facet normal 0.0 0.0 -1.0
  outer loop
    vertex 10.1919313565954 9.75000000000045 4.22994972382185e-015
    vertex 7.91604023986704 10.8574225674311 4.22994972382185e-015
    vertex 8.85409351875733 10.9729729729732 4.22994972382185e-015
  endloop
endfacet
facet normal 0.0 0.0 -1.0
  outer loop
    vertex 10.1919313565954 9.75000000000045 4.22994972382185e-015
    vertex 8.85409351875733 10.9729729729732 4.22994972382185e-015
    vertex 9.70396540780222 10.5594350394422 4.22994972382185e-015
  endloop
endfacet
facet normal 0.0 0.0 -1.0
  outer loop
    vertex 18.6061449189688 7.75000000000174 4.22994972382185e-015
    vertex 10.1919313565954 9.75000000000045 4.22994972382185e-015
    vertex 17.9919313565954 9.75000000000163 4.22994972382185e-015
  endloop
endfacet
facet normal 0.0 0.0 -1.0
  outer loop
    vertex 18.6061449189688 7.75000000000174 4.22994972382185e-015
    vertex 17.9919313565954 9.75000000000163 4.22994972382185e-015
    vertex 18.524447474303 9.41748388229422 4.22994972382185e-015
  endloop
endfacet
facet normal 0.0 0.0 -1.0
  outer loop
    vertex 18.6061449189688 7.75000000000174 4.22994972382185e-015
    vertex 18.524447474303 9.41748388229422 4.22994972382185e-015
    vertex 18.6061449189646 32.2500000000017 4.22994972382185e-015
  endloop
endfacet
facet normal 0.0 0.0 -1.0
  outer loop
    vertex 18.6061449189688 7.75000000000174 4.22994972382185e-015
    vertex 18.6061449189646 32.2500000000017 4.22994972382185e-015
    vertex 20.1919313565918 30.6642135623751 4.22994972382185e-015
  endloop
endfacet
facet normal 0.0 0.0 -1.0
  outer loop
    vertex 18.6061449189688 7.75000000000174 4.22994972382185e-015
    vertex 20.1919313565918 30.6642135623751 4.22994972382185e-015
    vertex 20.1919313565955 9.33578643762894 4.22994972382185e-015
  endloop
endfacet
facet normal 0.0 0.0 -1.0
  outer loop
    vertex 18.5244474742993 30.5825161177092 4.22994972382185e-015
    vertex 18.1919313565954 9.95000000000167 4.22994972382185e-015
    vertex 18.1919313565919 30.0500000000016 4.22994972382185e-015
  endloop
endfacet
facet normal 0.0 0.0 -1.0
  outer loop
    vertex 18.1919313565954 9.95000000000167 4.22994972382185e-015
    vertex 18.5244474742993 30.5825161177092 4.22994972382185e-015
    vertex 18.524447474303 9.41748388229422 4.22994972382185e-015
  endloop
endfacet
facet normal 0.707106781186674 -0.707106781186421 -0.0
  outer loop
    vertex 20.1919313565955 9.33578643762894 4.22994972382185e-015
    vertex 18.6061449189688 7.75000000000174 20.0
    vertex 18.6061449189688 7.75000000000174 4.22994972382185e-015
  endloop
endfacet
facet normal 0.707106781186674 -0.707106781186421 -0.0
  outer loop
    vertex 18.6061449189688 7.75000000000174 20.0
    vertex 20.1919313565955 9.33578643762894 4.22994972382185e-015
    vertex 20.1919313565955 9.33578643762894 20.0
  endloop
endfacet
facet normal 0.707106781186421 0.707106781186675 -1.4057655742864e-032
  outer loop
    vertex 18.6061449189646 32.2500000000017 20.0
    vertex 20.1919313565918 30.6642135623751 4.22994972382185e-015
    vertex 18.6061449189646 32.2500000000017 4.22994972382185e-015
  endloop
endfacet
facet normal 0.707106781186421 0.707106781186675 -1.4057655742864e-032
  outer loop
    vertex 20.1919313565918 30.6642135623751 4.22994972382185e-015
    vertex 18.6061449189646 32.2500000000017 20.0
    vertex 20.1919313565918 30.6642135623751 20.0
  endloop
endfacet
facet normal -0.0437630649136619 0.999041938133411 -0.0
  outer loop
    vertex 7.19193135659162 31.7499999999999 20.0
    vertex 18.6061449189646 32.2500000000017 4.22994972382185e-015
    vertex 7.19193135659162 31.7499999999999 4.22994972382185e-015
  endloop
endfacet
facet normal -0.0437630649136619 0.999041938133411 -0.0
  outer loop
    vertex 18.6061449189646 32.2500000000017 4.22994972382185e-015
    vertex 7.19193135659162 31.7499999999999 20.0
    vertex 18.6061449189646 32.2500000000017 20.0
  endloop
endfacet
facet normal -1.0 -1.74837921917969e-013 0.0
  outer loop
    vertex 7.19193135659162 31.7499999999999 20.0
    vertex 7.19193135659197 29.7499999999999 4.22994972382185e-015
    vertex 7.19193135659197 29.7499999999999 20.0
  endloop
endfacet
facet normal -1.0 -1.74837921917969e-013 0.0
  outer loop
    vertex 7.19193135659197 29.7499999999999 4.22994972382185e-015
    vertex 7.19193135659162 31.7499999999999 20.0
    vertex 7.19193135659162 31.7499999999999 4.22994972382185e-015
  endloop
endfacet
facet normal -0.398862413497273 -0.917010782433408 0.0
  outer loop
    vertex 7.91604023986392 29.1425774325689 20.0
    vertex 7.19193135659197 29.7499999999999 4.22994972382185e-015
    vertex 7.91604023986392 29.1425774325689 4.22994972382185e-015
  endloop
endfacet
facet normal -0.642677750458682 -0.766136612534193 0.0
  outer loop
    vertex 7.19193135659197 29.7499999999999 4.22994972382185e-015
    vertex 7.91604023986392 29.1425774325689 20.0
    vertex 7.19193135659197 29.7499999999999 20.0
  endloop
endfacet
facet normal 0.16439898730553 -0.986393923832115 0.0
  outer loop
    vertex 8.85409351875425 29.0270270270272 20.0
    vertex 7.91604023986392 29.1425774325689 4.22994972382185e-015
    vertex 8.85409351875425 29.0270270270272 4.22994972382185e-015
  endloop
endfacet
facet normal -0.398862413497273 -0.917010782433408 0.0
  outer loop
    vertex 7.91604023986392 29.1425774325689 4.22994972382185e-015
    vertex 8.85409351875425 29.0270270270272 20.0
    vertex 7.91604023986392 29.1425774325689 20.0
  endloop
endfacet
facet normal 0.674711185449056 -0.738081849275491 0.0
  outer loop
    vertex 9.703965407799 29.4405649605584 20.0
    vertex 8.85409351875425 29.0270270270272 4.22994972382185e-015
    vertex 9.703965407799 29.4405649605584 4.22994972382185e-015
  endloop
endfacet
facet normal 0.16439898730553 -0.986393923832115 0.0
  outer loop
    vertex 8.85409351875425 29.0270270270272 4.22994972382185e-015
    vertex 9.703965407799 29.4405649605584 20.0
    vertex 8.85409351875425 29.0270270270272 20.0
  endloop
endfacet
facet normal 0.856415151796514 -0.516287795491385 -0.0
  outer loop
    vertex 10.1919313565919 30.2500000000004 4.22994972382185e-015
    vertex 9.703965407799 29.4405649605584 20.0
    vertex 9.703965407799 29.4405649605584 4.22994972382185e-015
  endloop
endfacet
facet normal 0.674711185449056 -0.738081849275491 0.0
  outer loop
    vertex 9.703965407799 29.4405649605584 20.0
    vertex 10.1919313565919 30.2500000000004 4.22994972382185e-015
    vertex 10.1919313565919 30.2500000000004 20.0
  endloop
endfacet
facet normal 1.54736622375704e-013 -1.0 0.0
  outer loop
    vertex 17.9919313565919 30.2500000000016 20.0
    vertex 10.1919313565919 30.2500000000004 4.22994972382185e-015
    vertex 17.9919313565919 30.2500000000016 4.22994972382185e-015
  endloop
endfacet
facet normal 1.54736622375704e-013 -1.0 0.0
  outer loop
    vertex 10.1919313565919 30.2500000000004 4.22994972382185e-015
    vertex 17.9919313565919 30.2500000000016 20.0
    vertex 10.1919313565919 30.2500000000004 20.0
  endloop
endfacet
facet normal 0.529647874137945 -0.848217619140958 0.0
  outer loop
    vertex 18.5244474742993 30.5825161177092 20.0
    vertex 17.9919313565919 30.2500000000016 4.22994972382185e-015
    vertex 18.5244474742993 30.5825161177092 4.22994972382185e-015
  endloop
endfacet
facet normal 0.529647874137945 -0.848217619140958 0.0
  outer loop
    vertex 17.9919313565919 30.2500000000016 4.22994972382185e-015
    vertex 18.5244474742993 30.5825161177092 20.0
    vertex 17.9919313565919 30.2500000000016 20.0
  endloop
endfacet
facet normal -0.848217619141155 0.529647874137631 0.0
  outer loop
    vertex 18.5244474742993 30.5825161177092 20.0
    vertex 18.1919313565919 30.0500000000016 4.22994972382185e-015
    vertex 18.1919313565919 30.0500000000016 20.0
  endloop
endfacet
facet normal -0.848217619141155 0.529647874137631 0.0
  outer loop
    vertex 18.1919313565919 30.0500000000016 4.22994972382185e-015
    vertex 18.5244474742993 30.5825161177092 20.0
    vertex 18.5244474742993 30.5825161177092 4.22994972382185e-015
  endloop
endfacet
facet normal -1.0 -1.71162144711863e-013 0.0
  outer loop
    vertex 18.1919313565954 9.95000000000167 20.0
    vertex 18.191931356594 17.8311598875099 12.4871937130925
    vertex 18.1919313565954 9.95000000000167 4.22994972382185e-015
  endloop
endfacet
facet normal -1.0 -1.71162144711863e-013 0.0
  outer loop
    vertex 18.191931356594 17.8311598875099 12.4871937130925
    vertex 18.1919313565954 9.95000000000167 20.0
    vertex 18.1919313565919 30.0500000000016 20.0
  endloop
endfacet
facet normal -1.0 -1.71162144711863e-013 0.0
  outer loop
    vertex 18.1919313565954 9.95000000000167 4.22994972382185e-015
    vertex 18.191931356594 17.8311598875099 12.4871937130925
    vertex 18.1919313565942 16.7616070040847 9.36532622238164
  endloop
endfacet
facet normal -1.0 -1.71162144711863e-013 0.0
  outer loop
    vertex 18.191931356594 17.8311598875099 12.4871937130925
    vertex 18.1919313565919 30.0500000000016 20.0
    vertex 18.1919313565935 21.0695528834268 13.1218674907108
  endloop
endfacet
facet normal -1.0 -1.71162144711863e-013 0.0
  outer loop
    vertex 18.1919313565935 21.0695528834268 13.1218674907108
    vertex 18.1919313565919 30.0500000000016 20.0
    vertex 18.1919313565931 23.2383929959185 10.6346737776184
  endloop
endfacet
facet normal -1.0 -1.71162144711863e-013 0.0
  outer loop
    vertex 18.1919313565954 9.95000000000167 4.22994972382185e-015
    vertex 18.1919313565938 18.9304471165765 6.87813250928919
    vertex 18.1919313565919 30.0500000000016 4.22994972382185e-015
  endloop
endfacet
facet normal -1.0 -1.71162144711863e-013 0.0
  outer loop
    vertex 18.1919313565938 18.9304471165765 6.87813250928919
    vertex 18.1919313565954 9.95000000000167 4.22994972382185e-015
    vertex 18.1919313565942 16.7616070040847 9.36532622238164
  endloop
endfacet
facet normal -1.0 -1.71162144711863e-013 0.0
  outer loop
    vertex 18.1919313565919 30.0500000000016 4.22994972382185e-015
    vertex 18.1919313565938 18.9304471165765 6.87813250928919
    vertex 18.1919313565933 22.1688401124934 7.51280628690756
  endloop
endfacet
facet normal -1.0 -1.71162144711863e-013 0.0
  outer loop
    vertex 18.1919313565919 30.0500000000016 4.22994972382185e-015
    vertex 18.1919313565933 22.1688401124934 7.51280628690756
    vertex 18.1919313565931 23.2383929959185 10.6346737776184
  endloop
endfacet
facet normal -1.0 -1.71162144711863e-013 0.0
  outer loop
    vertex 18.1919313565919 30.0500000000016 4.22994972382185e-015
    vertex 18.1919313565931 23.2383929959185 10.6346737776184
    vertex 18.1919313565919 30.0500000000016 20.0
  endloop
endfacet
facet normal -0.848217619140969 -0.529647874137928 0.0
  outer loop
    vertex 18.1919313565954 9.95000000000167 20.0
    vertex 18.524447474303 9.41748388229422 4.22994972382185e-015
    vertex 18.524447474303 9.41748388229422 20.0
  endloop
endfacet
facet normal -0.848217619140969 -0.529647874137928 0.0
  outer loop
    vertex 18.524447474303 9.41748388229422 4.22994972382185e-015
    vertex 18.1919313565954 9.95000000000167 20.0
    vertex 18.1919313565954 9.95000000000167 4.22994972382185e-015
  endloop
endfacet
facet normal 0.529647874137646 0.848217619141145 -0.0
  outer loop
    vertex 17.9919313565954 9.75000000000163 20.0
    vertex 18.524447474303 9.41748388229422 4.22994972382185e-015
    vertex 17.9919313565954 9.75000000000163 4.22994972382185e-015
  endloop
endfacet
facet normal 0.529647874137646 0.848217619141145 -0.0
  outer loop
    vertex 18.524447474303 9.41748388229422 4.22994972382185e-015
    vertex 17.9919313565954 9.75000000000163 20.0
    vertex 18.524447474303 9.41748388229422 20.0
  endloop
endfacet
facet normal -1.51844349060271e-013 1.0 -0.0
  outer loop
    vertex 10.1919313565954 9.75000000000045 20.0
    vertex 17.9919313565954 9.75000000000163 4.22994972382185e-015
    vertex 10.1919313565954 9.75000000000045 4.22994972382185e-015
  endloop
endfacet
facet normal -1.51844349060271e-013 1.0 -0.0
  outer loop
    vertex 17.9919313565954 9.75000000000163 4.22994972382185e-015
    vertex 10.1919313565954 9.75000000000045 20.0
    vertex 17.9919313565954 9.75000000000163 20.0
  endloop
endfacet
facet normal 0.674711185448789 0.738081849275736 0.0
  outer loop
    vertex 9.70396540780222 10.5594350394422 4.22994972382185e-015
    vertex 10.1919313565954 9.75000000000045 20.0
    vertex 10.1919313565954 9.75000000000045 4.22994972382185e-015
  endloop
endfacet
facet normal 0.85641515179633 0.51628779549169 -0.0
  outer loop
    vertex 10.1919313565954 9.75000000000045 20.0
    vertex 9.70396540780222 10.5594350394422 4.22994972382185e-015
    vertex 9.70396540780222 10.5594350394422 20.0
  endloop
endfacet
facet normal 0.164398987305179 0.986393923832173 0.0
  outer loop
    vertex 8.85409351875733 10.9729729729732 20.0
    vertex 9.70396540780222 10.5594350394422 4.22994972382185e-015
    vertex 8.85409351875733 10.9729729729732 4.22994972382185e-015
  endloop
endfacet
facet normal 0.674711185448789 0.738081849275736 0.0
  outer loop
    vertex 9.70396540780222 10.5594350394422 4.22994972382185e-015
    vertex 8.85409351875733 10.9729729729732 20.0
    vertex 9.70396540780222 10.5594350394422 20.0
  endloop
endfacet
facet normal -0.398862413497587 0.917010782433271 0.0
  outer loop
    vertex 7.91604023986704 10.8574225674311 20.0
    vertex 8.85409351875733 10.9729729729732 4.22994972382185e-015
    vertex 7.91604023986704 10.8574225674311 4.22994972382185e-015
  endloop
endfacet
facet normal 0.164398987305179 0.986393923832173 0.0
  outer loop
    vertex 8.85409351875733 10.9729729729732 4.22994972382185e-015
    vertex 7.91604023986704 10.8574225674311 20.0
    vertex 8.85409351875733 10.9729729729732 20.0
  endloop
endfacet
facet normal -0.642677750458944 0.766136612533973 -0.0
  outer loop
    vertex 7.1919313565953 10.2499999999999 20.0
    vertex 7.91604023986704 10.8574225674311 4.22994972382185e-015
    vertex 7.1919313565953 10.2499999999999 4.22994972382185e-015
  endloop
endfacet
facet normal -0.398862413497587 0.917010782433271 0.0
  outer loop
    vertex 7.91604023986704 10.8574225674311 4.22994972382185e-015
    vertex 7.1919313565953 10.2499999999999 20.0
    vertex 7.91604023986704 10.8574225674311 20.0
  endloop
endfacet
facet normal -1.0 -1.77657888400517e-013 0.0
  outer loop
    vertex 7.1919313565953 10.2499999999999 20.0
    vertex 7.19193135659566 8.24999999999992 4.22994972382185e-015
    vertex 7.19193135659566 8.24999999999992 20.0
  endloop
endfacet
facet normal -1.0 -1.77657888400517e-013 0.0
  outer loop
    vertex 7.19193135659566 8.24999999999992 4.22994972382185e-015
    vertex 7.1919313565953 10.2499999999999 20.0
    vertex 7.1919313565953 10.2499999999999 4.22994972382185e-015
  endloop
endfacet
facet normal -0.0437630649133425 -0.999041938133425 0.0
  outer loop
    vertex 18.6061449189688 7.75000000000174 20.0
    vertex 7.19193135659566 8.24999999999992 4.22994972382185e-015
    vertex 18.6061449189688 7.75000000000174 4.22994972382185e-015
  endloop
endfacet
facet normal -0.0437630649133425 -0.999041938133425 0.0
  outer loop
    vertex 7.19193135659566 8.24999999999992 4.22994972382185e-015
    vertex 18.6061449189688 7.75000000000174 20.0
    vertex 7.19193135659566 8.24999999999992 20.0
  endloop
endfacet
facet normal 1.0 1.71352371180797e-013 2.5549316336015e-045
  outer loop
    vertex 24.1919313565955 9.33578643762963 4.22994972382185e-015
    vertex 24.1919313565939 18.7320150738556 9.1085325429026
    vertex 24.1919313565955 9.33578643762963 20.0
  endloop
endfacet
facet normal 1.0 1.71352371180797e-013 2.5549316336015e-045
  outer loop
    vertex 24.1919313565939 18.7320150738556 9.1085325429026
    vertex 24.1919313565955 9.33578643762963 4.22994972382185e-015
    vertex 24.1919313565938 19.0059493684779 8.8107299121036
  endloop
endfacet
facet normal 1.0 1.71352371180797e-013 2.5549316336015e-045
  outer loop
    vertex 24.1919313565938 19.0059493684779 8.8107299121036
    vertex 24.1919313565955 9.33578643762963 4.22994972382185e-015
    vertex 24.1919313565938 19.3476265708923 8.59397407243299
  endloop
endfacet
facet normal 1.0 1.71352371180797e-013 2.5549316336015e-045
  outer loop
    vertex 24.1919313565938 19.3476265708923 8.59397407243299
    vertex 24.1919313565955 9.33578643762963 4.22994972382185e-015
    vertex 24.1919313565937 19.7337619444024 8.47303657615836
  endloop
endfacet
facet normal 1.0 1.71352371180797e-013 2.5549316336015e-045
  outer loop
    vertex 24.1919313565937 19.7337619444024 8.47303657615836
    vertex 24.1919313565955 9.33578643762963 4.22994972382185e-015
    vertex 24.1919313565884 50.6642135623758 4.22994972382183e-015
  endloop
endfacet
facet normal 1.0 1.71352371180797e-013 2.5549316336015e-045
  outer loop
    vertex 24.1919313565955 9.33578643762963 20.0
    vertex 24.1919313565939 18.7320150738556 9.1085325429026
    vertex 24.1919313565939 18.544491856506 9.46708720768317
  endloop
endfacet
facet normal 1.0 1.71352371180797e-013 2.5549316336015e-045
  outer loop
    vertex 24.1919313565955 9.33578643762963 20.0
    vertex 24.1919313565939 18.544491856506 9.46708720768317
    vertex 24.1919313565939 18.4561591137949 9.86195899858009
  endloop
endfacet
facet normal 1.0 1.71352371180797e-013 2.5549316336015e-045
  outer loop
    vertex 24.1919313565937 19.7337619444024 8.47303657615836
    vertex 24.1919313565884 50.6642135623758 4.22994972382183e-015
    vertex 24.1919313565936 20.1380410014226 8.45615911379218
  endloop
endfacet
facet normal 1.0 1.71352371180797e-013 2.5549316336015e-045
  outer loop
    vertex 24.1919313565936 20.1380410014226 8.45615911379218
    vertex 24.1919313565884 50.6642135623758 4.22994972382183e-015
    vertex 24.1919313565936 20.5329127923195 8.54449185650336
  endloop
endfacet
facet normal 1.0 1.71352371180797e-013 2.5549316336015e-045
  outer loop
    vertex 24.1919313565936 20.5329127923195 8.54449185650336
    vertex 24.1919313565884 50.6642135623758 4.22994972382183e-015
    vertex 24.1919313565935 20.8914674571001 8.73201507385291
  endloop
endfacet
facet normal 1.0 1.71352371180797e-013 2.5549316336015e-045
  outer loop
    vertex 24.1919313565935 20.8914674571001 8.73201507385291
    vertex 24.1919313565884 50.6642135623758 4.22994972382183e-015
    vertex 24.1919313565934 21.1892700878991 9.00594936847521
  endloop
endfacet
facet normal 1.0 1.71352371180797e-013 2.5549316336015e-045
  outer loop
    vertex 24.1919313565934 21.1892700878991 9.00594936847521
    vertex 24.1919313565884 50.6642135623758 4.22994972382183e-015
    vertex 24.1919313565934 21.4060259275697 9.34762657088959
  endloop
endfacet
facet normal 1.0 1.71352371180797e-013 2.5549316336015e-045
  outer loop
    vertex 24.1919313565934 21.4060259275697 9.34762657088959
    vertex 24.1919313565884 50.6642135623758 4.22994972382183e-015
    vertex 24.1919313565934 21.5269634238443 9.73376194439977
  endloop
endfacet
facet normal 1.0 1.71352371180797e-013 2.5549316336015e-045
  outer loop
    vertex 24.1919313565934 21.5269634238443 9.73376194439977
    vertex 24.1919313565884 50.6642135623758 4.22994972382183e-015
    vertex 24.1919313565934 21.5438408862105 10.1380410014199
  endloop
endfacet
facet normal 1.0 1.71352371180797e-013 2.5549316336015e-045
  outer loop
    vertex 24.1919313565955 9.33578643762963 20.0
    vertex 24.1919313565937 19.4670872076858 11.4555081434967
    vertex 24.1919313565884 50.6642135623758 20.0
  endloop
endfacet
facet normal 1.0 1.71352371180797e-013 2.5549316336015e-045
  outer loop
    vertex 24.1919313565937 19.4670872076858 11.4555081434967
    vertex 24.1919313565955 9.33578643762963 20.0
    vertex 24.1919313565938 19.1085325429053 11.2679849261471
  endloop
endfacet
facet normal 1.0 1.71352371180797e-013 2.5549316336015e-045
  outer loop
    vertex 24.1919313565938 19.1085325429053 11.2679849261471
    vertex 24.1919313565955 9.33578643762963 20.0
    vertex 24.1919313565939 18.8107299121063 10.9940506315248
  endloop
endfacet
facet normal 1.0 1.71352371180797e-013 2.5549316336015e-045
  outer loop
    vertex 24.1919313565939 18.8107299121063 10.9940506315248
    vertex 24.1919313565955 9.33578643762963 20.0
    vertex 24.1919313565939 18.5939740724357 10.6523734291104
  endloop
endfacet
facet normal 1.0 1.71352371180797e-013 2.5549316336015e-045
  outer loop
    vertex 24.1919313565939 18.5939740724357 10.6523734291104
    vertex 24.1919313565955 9.33578643762963 20.0
    vertex 24.1919313565939 18.473036576161 10.2662380556002
  endloop
endfacet
facet normal 1.0 1.71352371180797e-013 2.5549316336015e-045
  outer loop
    vertex 24.1919313565939 18.473036576161 10.2662380556002
    vertex 24.1919313565955 9.33578643762963 20.0
    vertex 24.1919313565939 18.4561591137949 9.86195899858009
  endloop
endfacet
facet normal 1.0 1.71352371180797e-013 2.5549316336015e-045
  outer loop
    vertex 24.1919313565884 50.6642135623758 20.0
    vertex 24.1919313565937 19.4670872076858 11.4555081434967
    vertex 24.1919313565937 19.8619589985828 11.5438408862078
  endloop
endfacet
facet normal 1.0 1.71352371180797e-013 2.5549316336015e-045
  outer loop
    vertex 24.1919313565884 50.6642135623758 20.0
    vertex 24.1919313565937 19.8619589985828 11.5438408862078
    vertex 24.1919313565936 20.2662380556029 11.5269634238417
  endloop
endfacet
facet normal 1.0 1.71352371180797e-013 2.5549316336015e-045
  outer loop
    vertex 24.1919313565884 50.6642135623758 20.0
    vertex 24.1919313565936 20.2662380556029 11.5269634238417
    vertex 24.1919313565935 20.6523734291131 11.406025927567
  endloop
endfacet
facet normal 1.0 1.71352371180797e-013 2.5549316336015e-045
  outer loop
    vertex 24.1919313565884 50.6642135623758 20.0
    vertex 24.1919313565935 20.6523734291131 11.406025927567
    vertex 24.1919313565935 20.9940506315275 11.1892700878964
  endloop
endfacet
facet normal 1.0 1.71352371180797e-013 2.5549316336015e-045
  outer loop
    vertex 24.1919313565884 50.6642135623758 20.0
    vertex 24.1919313565935 20.9940506315275 11.1892700878964
    vertex 24.1919313565934 21.2679849261498 10.8914674570974
  endloop
endfacet
facet normal 1.0 1.71352371180797e-013 2.5549316336015e-045
  outer loop
    vertex 24.1919313565884 50.6642135623758 20.0
    vertex 24.1919313565934 21.2679849261498 10.8914674570974
    vertex 24.1919313565934 21.4555081434993 10.5329127923169
  endloop
endfacet
facet normal 1.0 1.71352371180797e-013 2.5549316336015e-045
  outer loop
    vertex 24.1919313565884 50.6642135623758 20.0
    vertex 24.1919313565934 21.4555081434993 10.5329127923169
    vertex 24.1919313565934 21.5438408862105 10.1380410014199
  endloop
endfacet
facet normal 1.0 1.71352371180797e-013 2.5549316336015e-045
  outer loop
    vertex 24.1919313565884 50.6642135623758 20.0
    vertex 24.1919313565934 21.5438408862105 10.1380410014199
    vertex 24.1919313565884 50.6642135623758 4.22994972382183e-015
  endloop
endfacet
facet normal 1.71312963814785e-013 -1.0 -3.31228224590632e-031
  outer loop
    vertex 24.1919313565955 9.33578643762963 20.0
    vertex 20.1919313565955 9.33578643762894 4.22994972382185e-015
    vertex 24.1919313565955 9.33578643762963 4.22994972382185e-015
  endloop
endfacet
facet normal 1.71312963814785e-013 -1.0 -3.31228224590632e-031
  outer loop
    vertex 20.1919313565955 9.33578643762894 4.22994972382185e-015
    vertex 24.1919313565955 9.33578643762963 20.0
    vertex 20.1919313565955 9.33578643762894 20.0
  endloop
endfacet
facet normal 7.34417149727058e-014 -0.420886083297049 -0.907113501656143
  outer loop
    vertex 24.1919313565935 20.6523734291131 11.406025927567
    vertex 21.1919313565936 20.2662380556024 11.5269634238417
    vertex 21.1919313565935 20.6523734291126 11.406025927567
  endloop
endfacet
facet normal 3.04205543856339e-014 -0.171766487484024 -0.985137692801063
  outer loop
    vertex 21.1919313565936 20.2662380556024 11.5269634238417
    vertex 24.1919313565935 20.6523734291131 11.406025927567
    vertex 24.1919313565936 20.2662380556029 11.5269634238417
  endloop
endfacet
facet normal 1.1145794405256e-013 -0.641322988080518 -0.767271024449299
  outer loop
    vertex 24.1919313565935 20.9940506315275 11.1892700878964
    vertex 21.1919313565935 20.6523734291126 11.406025927567
    vertex 21.1919313565935 20.994050631527 11.1892700878964
  endloop
endfacet
facet normal 7.34417149727057e-014 -0.420886083297049 -0.907113501656143
  outer loop
    vertex 21.1919313565935 20.6523734291126 11.406025927567
    vertex 24.1919313565935 20.9940506315275 11.1892700878964
    vertex 24.1919313565935 20.6523734291131 11.406025927567
  endloop
endfacet
facet normal 1.41878498438194e-013 -0.818054791062649 -0.575140294901553
  outer loop
    vertex 24.1919313565934 21.2679849261498 10.8914674570974
    vertex 21.1919313565935 20.994050631527 11.1892700878964
    vertex 21.1919313565934 21.2679849261493 10.8914674570974
  endloop
endfacet
facet normal 1.1145794405256e-013 -0.641322988080518 -0.767271024449299
  outer loop
    vertex 21.1919313565935 20.994050631527 11.1892700878964
    vertex 24.1919313565934 21.2679849261498 10.8914674570974
    vertex 24.1919313565935 20.9940506315275 11.1892700878964
  endloop
endfacet
facet normal 1.62630267620569e-013 -0.939037511933322 -0.343814704720545
  outer loop
    vertex 24.1919313565934 21.4555081434993 10.5329127923169
    vertex 21.1919313565934 21.2679849261493 10.8914674570974
    vertex 21.1919313565934 21.4555081434988 10.5329127923169
  endloop
endfacet
facet normal 1.41878498438194e-013 -0.818054791062649 -0.575140294901554
  outer loop
    vertex 21.1919313565934 21.2679849261493 10.8914674570974
    vertex 24.1919313565934 21.4555081434993 10.5329127923169
    vertex 24.1919313565934 21.2679849261498 10.8914674570974
  endloop
endfacet
facet normal 1.72299052823828e-013 -0.996026378198602 -0.0890587105934947
  outer loop
    vertex 24.1919313565934 21.5438408862105 10.1380410014199
    vertex 21.1919313565934 21.4555081434988 10.5329127923169
    vertex 21.1919313565934 21.54384088621 10.1380410014199
  endloop
endfacet
facet normal 1.62630267620569e-013 -0.939037511933322 -0.343814704720545
  outer loop
    vertex 21.1919313565934 21.4555081434988 10.5329127923169
    vertex 24.1919313565934 21.5438408862105 10.1380410014199
    vertex 24.1919313565934 21.4555081434993 10.5329127923169
  endloop
endfacet
facet normal 1.7022594231479e-013 -0.985137692801063 0.171766487484024
  outer loop
    vertex 24.1919313565934 21.5269634238443 9.73376194439977
    vertex 21.1919313565934 21.54384088621 10.1380410014199
    vertex 21.1919313565934 21.5269634238438 9.73376194439977
  endloop
endfacet
facet normal 1.72299052823828e-013 -0.996026378198602 -0.0890587105934939
  outer loop
    vertex 21.1919313565934 21.54384088621 10.1380410014199
    vertex 24.1919313565934 21.5269634238443 9.73376194439977
    vertex 24.1919313565934 21.5438408862105 10.1380410014199
  endloop
endfacet
facet normal 1.5655221514867e-013 -0.907113501656143 0.420886083297048
  outer loop
    vertex 24.1919313565934 21.4060259275697 9.34762657088959
    vertex 21.1919313565934 21.5269634238438 9.73376194439977
    vertex 21.1919313565934 21.4060259275692 9.34762657088958
  endloop
endfacet
facet normal 1.7022594231479e-013 -0.985137692801063 0.171766487484024
  outer loop
    vertex 21.1919313565934 21.5269634238438 9.73376194439977
    vertex 24.1919313565934 21.4060259275697 9.34762657088959
    vertex 24.1919313565934 21.5269634238443 9.73376194439977
  endloop
endfacet
facet normal 1.32209713234935e-013 -0.767271024449298 0.641322988080518
  outer loop
    vertex 24.1919313565934 21.1892700878991 9.00594936847521
    vertex 21.1919313565934 21.4060259275692 9.34762657088958
    vertex 21.1919313565934 21.1892700878986 9.00594936847521
  endloop
endfacet
facet normal 1.5655221514867e-013 -0.907113501656144 0.420886083297048
  outer loop
    vertex 21.1919313565934 21.4060259275692 9.34762657088958
    vertex 24.1919313565934 21.1892700878991 9.00594936847521
    vertex 24.1919313565934 21.4060259275697 9.34762657088959
  endloop
endfacet
facet normal 9.88573378511223e-014 -0.575140294901555 0.818054791062648
  outer loop
    vertex 21.1919313565935 20.8914674570996 8.7320150738529
    vertex 24.1919313565934 21.1892700878991 9.00594936847521
    vertex 21.1919313565934 21.1892700878986 9.00594936847521
  endloop
endfacet
facet normal 1.32209713234935e-013 -0.767271024449298 0.641322988080518
  outer loop
    vertex 24.1919313565934 21.1892700878991 9.00594936847521
    vertex 21.1919313565935 20.8914674570996 8.7320150738529
    vertex 24.1919313565935 20.8914674571001 8.73201507385291
  endloop
endfacet
facet normal 5.876799826223e-014 -0.343814704720545 0.939037511933322
  outer loop
    vertex 21.1919313565936 20.532912792319 8.54449185650336
    vertex 24.1919313565935 20.8914674571001 8.73201507385291
    vertex 21.1919313565935 20.8914674570996 8.7320150738529
  endloop
endfacet
facet normal 9.88573378511223e-014 -0.575140294901555 0.818054791062648
  outer loop
    vertex 24.1919313565935 20.8914674571001 8.73201507385291
    vertex 21.1919313565936 20.532912792319 8.54449185650336
    vertex 24.1919313565936 20.5329127923195 8.54449185650336
  endloop
endfacet
facet normal 1.46737167104759e-014 -0.0890587105934959 0.996026378198602
  outer loop
    vertex 21.1919313565936 20.1380410014221 8.45615911379218
    vertex 24.1919313565936 20.5329127923195 8.54449185650336
    vertex 21.1919313565936 20.532912792319 8.54449185650336
  endloop
endfacet
facet normal 5.876799826223e-014 -0.343814704720546 0.939037511933322
  outer loop
    vertex 24.1919313565936 20.5329127923195 8.54449185650336
    vertex 21.1919313565936 20.1380410014221 8.45615911379218
    vertex 24.1919313565936 20.1380410014226 8.45615911379218
  endloop
endfacet
facet normal -3.0420554385634e-014 0.171766487484024 0.985137692801062
  outer loop
    vertex 21.1919313565937 19.7337619444019 8.47303657615836
    vertex 24.1919313565936 20.1380410014226 8.45615911379218
    vertex 21.1919313565936 20.1380410014221 8.45615911379218
  endloop
endfacet
facet normal 1.46737167104759e-014 -0.0890587105934958 0.996026378198602
  outer loop
    vertex 24.1919313565936 20.1380410014226 8.45615911379218
    vertex 21.1919313565937 19.7337619444019 8.47303657615836
    vertex 24.1919313565937 19.7337619444024 8.47303657615836
  endloop
endfacet
facet normal -7.34417149727058e-014 0.420886083297049 0.907113501656143
  outer loop
    vertex 21.1919313565938 19.3476265708917 8.59397407243299
    vertex 24.1919313565937 19.7337619444024 8.47303657615836
    vertex 21.1919313565937 19.7337619444019 8.47303657615836
  endloop
endfacet
facet normal -3.04205543856339e-014 0.171766487484024 0.985137692801062
  outer loop
    vertex 24.1919313565937 19.7337619444024 8.47303657615836
    vertex 21.1919313565938 19.3476265708917 8.59397407243299
    vertex 24.1919313565938 19.3476265708923 8.59397407243299
  endloop
endfacet
facet normal -1.1145794405256e-013 0.641322988080518 0.767271024449298
  outer loop
    vertex 21.1919313565938 19.0059493684774 8.81072991210359
    vertex 24.1919313565938 19.3476265708923 8.59397407243299
    vertex 21.1919313565938 19.3476265708917 8.59397407243299
  endloop
endfacet
facet normal -7.34417149727057e-014 0.420886083297049 0.907113501656143
  outer loop
    vertex 24.1919313565938 19.3476265708923 8.59397407243299
    vertex 21.1919313565938 19.0059493684774 8.81072991210359
    vertex 24.1919313565938 19.0059493684779 8.8107299121036
  endloop
endfacet
facet normal -1.41878498438194e-013 0.818054791062649 0.575140294901553
  outer loop
    vertex 21.1919313565939 18.7320150738551 9.1085325429026
    vertex 24.1919313565938 19.0059493684779 8.8107299121036
    vertex 21.1919313565938 19.0059493684774 8.81072991210359
  endloop
endfacet
facet normal -1.1145794405256e-013 0.641322988080518 0.767271024449298
  outer loop
    vertex 24.1919313565938 19.0059493684779 8.8107299121036
    vertex 21.1919313565939 18.7320150738551 9.1085325429026
    vertex 24.1919313565939 18.7320150738556 9.1085325429026
  endloop
endfacet
facet normal -1.62630267620569e-013 0.939037511933322 0.343814704720545
  outer loop
    vertex 21.1919313565939 18.5444918565055 9.46708720768316
    vertex 24.1919313565939 18.7320150738556 9.1085325429026
    vertex 21.1919313565939 18.7320150738551 9.1085325429026
  endloop
endfacet
facet normal -1.41878498438194e-013 0.818054791062649 0.575140294901554
  outer loop
    vertex 24.1919313565939 18.7320150738556 9.1085325429026
    vertex 21.1919313565939 18.5444918565055 9.46708720768316
    vertex 24.1919313565939 18.544491856506 9.46708720768317
  endloop
endfacet
facet normal -1.72299052823828e-013 0.996026378198602 0.089058710593494
  outer loop
    vertex 21.1919313565939 18.4561591137943 9.86195899858009
    vertex 24.1919313565939 18.544491856506 9.46708720768317
    vertex 21.1919313565939 18.5444918565055 9.46708720768316
  endloop
endfacet
facet normal -1.62630267620569e-013 0.939037511933322 0.343814704720545
  outer loop
    vertex 24.1919313565939 18.544491856506 9.46708720768317
    vertex 21.1919313565939 18.4561591137943 9.86195899858009
    vertex 24.1919313565939 18.4561591137949 9.86195899858009
  endloop
endfacet
facet normal -1.7022594231479e-013 0.985137692801063 -0.171766487484024
  outer loop
    vertex 21.1919313565939 18.4730365761605 10.2662380556002
    vertex 24.1919313565939 18.4561591137949 9.86195899858009
    vertex 21.1919313565939 18.4561591137943 9.86195899858009
  endloop
endfacet
facet normal -1.72299052823828e-013 0.996026378198602 0.0890587105934938
  outer loop
    vertex 24.1919313565939 18.4561591137949 9.86195899858009
    vertex 21.1919313565939 18.4730365761605 10.2662380556002
    vertex 24.1919313565939 18.473036576161 10.2662380556002
  endloop
endfacet
facet normal -1.5655221514867e-013 0.907113501656144 -0.420886083297047
  outer loop
    vertex 21.1919313565939 18.5939740724351 10.6523734291104
    vertex 24.1919313565939 18.473036576161 10.2662380556002
    vertex 21.1919313565939 18.4730365761605 10.2662380556002
  endloop
endfacet
facet normal -1.7022594231479e-013 0.985137692801063 -0.171766487484023
  outer loop
    vertex 24.1919313565939 18.473036576161 10.2662380556002
    vertex 21.1919313565939 18.5939740724351 10.6523734291104
    vertex 24.1919313565939 18.5939740724357 10.6523734291104
  endloop
endfacet
facet normal -1.32209713234935e-013 0.767271024449298 -0.641322988080518
  outer loop
    vertex 21.1919313565939 18.8107299121058 10.9940506315248
    vertex 24.1919313565939 18.5939740724357 10.6523734291104
    vertex 21.1919313565939 18.5939740724351 10.6523734291104
  endloop
endfacet
facet normal -1.5655221514867e-013 0.907113501656144 -0.420886083297048
  outer loop
    vertex 24.1919313565939 18.5939740724357 10.6523734291104
    vertex 21.1919313565939 18.8107299121058 10.9940506315248
    vertex 24.1919313565939 18.8107299121063 10.9940506315248
  endloop
endfacet
facet normal -9.88573378511221e-014 0.575140294901554 -0.818054791062648
  outer loop
    vertex 24.1919313565938 19.1085325429053 11.2679849261471
    vertex 21.1919313565939 18.8107299121058 10.9940506315248
    vertex 21.1919313565938 19.1085325429048 11.2679849261471
  endloop
endfacet
facet normal -1.32209713234935e-013 0.767271024449298 -0.641322988080518
  outer loop
    vertex 21.1919313565939 18.8107299121058 10.9940506315248
    vertex 24.1919313565938 19.1085325429053 11.2679849261471
    vertex 24.1919313565939 18.8107299121063 10.9940506315248
  endloop
endfacet
facet normal -5.876799826223e-014 0.343814704720545 -0.939037511933322
  outer loop
    vertex 24.1919313565937 19.4670872076858 11.4555081434967
    vertex 21.1919313565938 19.1085325429048 11.2679849261471
    vertex 21.1919313565937 19.4670872076853 11.4555081434967
  endloop
endfacet
facet normal -9.88573378511221e-014 0.575140294901553 -0.818054791062649
  outer loop
    vertex 21.1919313565938 19.1085325429048 11.2679849261471
    vertex 24.1919313565937 19.4670872076858 11.4555081434967
    vertex 24.1919313565938 19.1085325429053 11.2679849261471
  endloop
endfacet
facet normal -1.46737167104759e-014 0.0890587105934956 -0.996026378198602
  outer loop
    vertex 24.1919313565937 19.8619589985828 11.5438408862078
    vertex 21.1919313565937 19.4670872076853 11.4555081434967
    vertex 21.1919313565937 19.8619589985822 11.5438408862078
  endloop
endfacet
facet normal -5.876799826223e-014 0.343814704720546 -0.939037511933322
  outer loop
    vertex 21.1919313565937 19.4670872076853 11.4555081434967
    vertex 24.1919313565937 19.8619589985828 11.5438408862078
    vertex 24.1919313565937 19.4670872076858 11.4555081434967
  endloop
endfacet
facet normal 3.0420554385634e-014 -0.171766487484024 -0.985137692801063
  outer loop
    vertex 24.1919313565936 20.2662380556029 11.5269634238417
    vertex 21.1919313565937 19.8619589985822 11.5438408862078
    vertex 21.1919313565936 20.2662380556024 11.5269634238417
  endloop
endfacet
facet normal -1.4673716710476e-014 0.0890587105934961 -0.996026378198602
  outer loop
    vertex 21.1919313565937 19.8619589985822 11.5438408862078
    vertex 24.1919313565936 20.2662380556029 11.5269634238417
    vertex 24.1919313565937 19.8619589985828 11.5438408862078
  endloop
endfacet
facet normal -1.0 -1.71558103659448e-013 6.17076409764868e-017
  outer loop
    vertex 21.191931356594 17.8311598875104 12.4871937130925
    vertex 21.1919313565939 18.4730365761605 10.2662380556002
    vertex 21.1919313565939 18.4561591137943 9.86195899858009
  endloop
endfacet
facet normal -1.0 -1.71558103659448e-013 6.17076409764868e-017
  outer loop
    vertex 21.1919313565939 18.4730365761605 10.2662380556002
    vertex 21.191931356594 17.8311598875104 12.4871937130925
    vertex 21.1919313565939 18.5939740724351 10.6523734291104
  endloop
endfacet
facet normal -1.0 -1.71558103659448e-013 6.17076409764868e-017
  outer loop
    vertex 21.1919313565939 18.5939740724351 10.6523734291104
    vertex 21.191931356594 17.8311598875104 12.4871937130925
    vertex 21.1919313565939 18.8107299121058 10.9940506315248
  endloop
endfacet
facet normal -1.0 -1.71558103659448e-013 6.17076409764868e-017
  outer loop
    vertex 21.1919313565939 18.8107299121058 10.9940506315248
    vertex 21.191931356594 17.8311598875104 12.4871937130925
    vertex 21.1919313565935 21.0695528834273 13.1218674907108
  endloop
endfacet
facet normal -1.0 -1.71558103659448e-013 6.17076409764868e-017
  outer loop
    vertex 21.1919313565939 18.8107299121058 10.9940506315248
    vertex 21.1919313565935 21.0695528834273 13.1218674907108
    vertex 21.1919313565938 19.1085325429048 11.2679849261471
  endloop
endfacet
facet normal -1.0 -1.71558103659448e-013 6.17076409764868e-017
  outer loop
    vertex 21.1919313565938 19.1085325429048 11.2679849261471
    vertex 21.1919313565935 21.0695528834273 13.1218674907108
    vertex 21.1919313565937 19.4670872076853 11.4555081434967
  endloop
endfacet
facet normal -1.0 -1.71558103659448e-013 6.17076409764868e-017
  outer loop
    vertex 21.1919313565937 19.4670872076853 11.4555081434967
    vertex 21.1919313565935 21.0695528834273 13.1218674907108
    vertex 21.1919313565937 19.8619589985822 11.5438408862078
  endloop
endfacet
facet normal -1.0 -1.71558103659448e-013 6.17076409764868e-017
  outer loop
    vertex 21.1919313565937 19.8619589985822 11.5438408862078
    vertex 21.1919313565935 21.0695528834273 13.1218674907108
    vertex 21.1919313565936 20.2662380556024 11.5269634238417
  endloop
endfacet
facet normal -1.0 -1.71558103659448e-013 6.17076409764868e-017
  outer loop
    vertex 21.1919313565936 20.2662380556024 11.5269634238417
    vertex 21.1919313565935 21.0695528834273 13.1218674907108
    vertex 21.1919313565935 20.6523734291126 11.406025927567
  endloop
endfacet
facet normal -1.0 -1.71558103659448e-013 6.17076409764868e-017
  outer loop
    vertex 21.1919313565935 20.6523734291126 11.406025927567
    vertex 21.1919313565935 21.0695528834273 13.1218674907108
    vertex 21.1919313565935 20.994050631527 11.1892700878964
  endloop
endfacet
facet normal -1.0 -1.71558103659448e-013 6.17076409764868e-017
  outer loop
    vertex 21.1919313565935 20.994050631527 11.1892700878964
    vertex 21.1919313565935 21.0695528834273 13.1218674907108
    vertex 21.1919313565934 21.2679849261493 10.8914674570974
  endloop
endfacet
facet normal -1.0 -1.71558103659448e-013 6.17076409764868e-017
  outer loop
    vertex 21.1919313565934 21.2679849261493 10.8914674570974
    vertex 21.1919313565935 21.0695528834273 13.1218674907108
    vertex 21.1919313565931 23.2383929959191 10.6346737776184
  endloop
endfacet
facet normal -1.0 -1.71558103659448e-013 6.17076409764868e-017
  outer loop
    vertex 21.1919313565934 21.2679849261493 10.8914674570974
    vertex 21.1919313565931 23.2383929959191 10.6346737776184
    vertex 21.1919313565934 21.4555081434988 10.5329127923169
  endloop
endfacet
facet normal -1.0 -1.71558103659448e-013 6.17076409764868e-017
  outer loop
    vertex 21.1919313565934 21.4555081434988 10.5329127923169
    vertex 21.1919313565931 23.2383929959191 10.6346737776184
    vertex 21.1919313565934 21.54384088621 10.1380410014199
  endloop
endfacet
facet normal -1.0 -1.71558103659448e-013 6.17076409764868e-017
  outer loop
    vertex 21.1919313565934 21.54384088621 10.1380410014199
    vertex 21.1919313565931 23.2383929959191 10.6346737776184
    vertex 21.1919313565933 22.168840112494 7.51280628690756
  endloop
endfacet
facet normal -1.0 -1.71558103659448e-013 6.17076409764868e-017
  outer loop
    vertex 21.191931356594 17.8311598875104 12.4871937130925
    vertex 21.1919313565938 18.9304471165771 6.87813250928919
    vertex 21.1919313565942 16.7616070040853 9.36532622238164
  endloop
endfacet
facet normal -1.0 -1.71558103659448e-013 6.17076409764868e-017
  outer loop
    vertex 21.1919313565938 18.9304471165771 6.87813250928919
    vertex 21.191931356594 17.8311598875104 12.4871937130925
    vertex 21.1919313565939 18.4561591137943 9.86195899858009
  endloop
endfacet
facet normal -1.0 -1.71558103659448e-013 6.17076409764868e-017
  outer loop
    vertex 21.1919313565938 18.9304471165771 6.87813250928919
    vertex 21.1919313565939 18.4561591137943 9.86195899858009
    vertex 21.1919313565939 18.5444918565055 9.46708720768316
  endloop
endfacet
facet normal -1.0 -1.71558103659448e-013 6.17076409764868e-017
  outer loop
    vertex 21.1919313565938 18.9304471165771 6.87813250928919
    vertex 21.1919313565939 18.5444918565055 9.46708720768316
    vertex 21.1919313565939 18.7320150738551 9.1085325429026
  endloop
endfacet
facet normal -1.0 -1.71558103659448e-013 6.17076409764868e-017
  outer loop
    vertex 21.1919313565938 18.9304471165771 6.87813250928919
    vertex 21.1919313565939 18.7320150738551 9.1085325429026
    vertex 21.1919313565938 19.0059493684774 8.81072991210359
  endloop
endfacet
facet normal -1.0 -1.71558103659448e-013 6.17076409764868e-017
  outer loop
    vertex 21.1919313565938 18.9304471165771 6.87813250928919
    vertex 21.1919313565938 19.0059493684774 8.81072991210359
    vertex 21.1919313565938 19.3476265708917 8.59397407243299
  endloop
endfacet
facet normal -1.0 -1.71558103659448e-013 6.17076409764868e-017
  outer loop
    vertex 21.1919313565938 18.9304471165771 6.87813250928919
    vertex 21.1919313565938 19.3476265708917 8.59397407243299
    vertex 21.1919313565933 22.168840112494 7.51280628690756
  endloop
endfacet
facet normal -1.0 -1.71558103659448e-013 6.17076409764868e-017
  outer loop
    vertex 21.1919313565933 22.168840112494 7.51280628690756
    vertex 21.1919313565938 19.3476265708917 8.59397407243299
    vertex 21.1919313565937 19.7337619444019 8.47303657615836
  endloop
endfacet
facet normal -1.0 -1.71558103659448e-013 6.17076409764868e-017
  outer loop
    vertex 21.1919313565933 22.168840112494 7.51280628690756
    vertex 21.1919313565937 19.7337619444019 8.47303657615836
    vertex 21.1919313565936 20.1380410014221 8.45615911379218
  endloop
endfacet
facet normal -1.0 -1.71558103659448e-013 6.17076409764868e-017
  outer loop
    vertex 21.1919313565933 22.168840112494 7.51280628690756
    vertex 21.1919313565936 20.1380410014221 8.45615911379218
    vertex 21.1919313565936 20.532912792319 8.54449185650336
  endloop
endfacet
facet normal -1.0 -1.71558103659448e-013 6.17076409764868e-017
  outer loop
    vertex 21.1919313565933 22.168840112494 7.51280628690756
    vertex 21.1919313565936 20.532912792319 8.54449185650336
    vertex 21.1919313565935 20.8914674570996 8.7320150738529
  endloop
endfacet
facet normal -1.0 -1.71558103659448e-013 6.17076409764868e-017
  outer loop
    vertex 21.1919313565933 22.168840112494 7.51280628690756
    vertex 21.1919313565935 20.8914674570996 8.7320150738529
    vertex 21.1919313565934 21.1892700878986 9.00594936847521
  endloop
endfacet
facet normal -1.0 -1.71558103659448e-013 6.17076409764868e-017
  outer loop
    vertex 21.1919313565933 22.168840112494 7.51280628690756
    vertex 21.1919313565934 21.1892700878986 9.00594936847521
    vertex 21.1919313565934 21.4060259275692 9.34762657088958
  endloop
endfacet
facet normal -1.0 -1.71558103659448e-013 6.17076409764868e-017
  outer loop
    vertex 21.1919313565933 22.168840112494 7.51280628690756
    vertex 21.1919313565934 21.4060259275692 9.34762657088958
    vertex 21.1919313565934 21.5269634238438 9.73376194439977
  endloop
endfacet
facet normal -1.0 -1.71558103659448e-013 6.17076409764868e-017
  outer loop
    vertex 21.1919313565933 22.168840112494 7.51280628690756
    vertex 21.1919313565934 21.5269634238438 9.73376194439977
    vertex 21.1919313565934 21.54384088621 10.1380410014199
  endloop
endfacet
facet normal 3.30555343402783e-014 -0.192325387157081 0.981331210883909
  outer loop
    vertex 18.1919313565938 18.9304471165765 6.87813250928919
    vertex 21.1919313565933 22.168840112494 7.51280628690756
    vertex 18.1919313565933 22.1688401124934 7.51280628690756
  endloop
endfacet
facet normal 3.30555343402783e-014 -0.192325387157081 0.981331210883909
  outer loop
    vertex 21.1919313565933 22.168840112494 7.51280628690756
    vertex 18.1919313565938 18.9304471165765 6.87813250928919
    vertex 21.1919313565938 18.9304471165771 6.87813250928919
  endloop
endfacet
facet normal -1.29261940256014e-013 0.753695064573469 0.657224276512664
  outer loop
    vertex 18.1919313565942 16.7616070040847 9.36532622238164
    vertex 21.1919313565938 18.9304471165771 6.87813250928919
    vertex 18.1919313565938 18.9304471165765 6.87813250928919
  endloop
endfacet
facet normal -1.29261940256014e-013 0.753695064573469 0.657224276512664
  outer loop
    vertex 21.1919313565938 18.9304471165771 6.87813250928919
    vertex 18.1919313565942 16.7616070040847 9.36532622238164
    vertex 21.1919313565942 16.7616070040853 9.36532622238164
  endloop
endfacet
facet normal -1.62317474596292e-013 0.94602045173055 -0.324106934371246
  outer loop
    vertex 18.191931356594 17.8311598875099 12.4871937130925
    vertex 21.1919313565942 16.7616070040853 9.36532622238164
    vertex 18.1919313565942 16.7616070040847 9.36532622238164
  endloop
endfacet
facet normal -1.62317474596292e-013 0.94602045173055 -0.324106934371246
  outer loop
    vertex 21.1919313565942 16.7616070040853 9.36532622238164
    vertex 18.191931356594 17.8311598875099 12.4871937130925
    vertex 21.191931356594 17.8311598875104 12.4871937130925
  endloop
endfacet
facet normal -3.30555343402782e-014 0.192325387157081 -0.981331210883909
  outer loop
    vertex 21.1919313565935 21.0695528834273 13.1218674907108
    vertex 18.191931356594 17.8311598875099 12.4871937130925
    vertex 18.1919313565935 21.0695528834268 13.1218674907108
  endloop
endfacet
facet normal -3.30555343402782e-014 0.192325387157081 -0.981331210883909
  outer loop
    vertex 18.191931356594 17.8311598875099 12.4871937130925
    vertex 21.1919313565935 21.0695528834273 13.1218674907108
    vertex 21.191931356594 17.8311598875104 12.4871937130925
  endloop
endfacet
facet normal 1.29261940256014e-013 -0.753695064573469 -0.657224276512664
  outer loop
    vertex 21.1919313565935 21.0695528834273 13.1218674907108
    vertex 18.1919313565931 23.2383929959185 10.6346737776184
    vertex 21.1919313565931 23.2383929959191 10.6346737776184
  endloop
endfacet
facet normal 1.29261940256014e-013 -0.753695064573469 -0.657224276512664
  outer loop
    vertex 18.1919313565931 23.2383929959185 10.6346737776184
    vertex 21.1919313565935 21.0695528834273 13.1218674907108
    vertex 18.1919313565935 21.0695528834268 13.1218674907108
  endloop
endfacet
facet normal 1.62317474596292e-013 -0.94602045173055 0.324106934371245
  outer loop
    vertex 21.1919313565931 23.2383929959191 10.6346737776184
    vertex 18.1919313565933 22.1688401124934 7.51280628690756
    vertex 21.1919313565933 22.168840112494 7.51280628690756
  endloop
endfacet
facet normal 1.62317474596292e-013 -0.94602045173055 0.324106934371245
  outer loop
    vertex 18.1919313565933 22.1688401124934 7.51280628690756
    vertex 21.1919313565931 23.2383929959191 10.6346737776184
    vertex 18.1919313565931 23.2383929959185 10.6346737776184
  endloop
endfacet
facet normal -0.0 -0.0 1.0
  outer loop
    vertex 18.1919313565954 9.95000000000167 20.0
    vertex 18.5244474742993 30.5825161177092 20.0
    vertex 18.1919313565919 30.0500000000016 20.0
  endloop
endfacet
facet normal -0.0 -0.0 1.0
  outer loop
    vertex 18.5244474742993 30.5825161177092 20.0
    vertex 18.1919313565954 9.95000000000167 20.0
    vertex 18.524447474303 9.41748388229422 20.0
  endloop
endfacet
facet normal -0.0 -0.0 1.0
  outer loop
    vertex 7.19193135659566 8.24999999999992 20.0
    vertex 7.91604023986704 10.8574225674311 20.0
    vertex 7.1919313565953 10.2499999999999 20.0
  endloop
endfacet
facet normal -0.0 -0.0 1.0
  outer loop
    vertex 7.91604023986704 10.8574225674311 20.0
    vertex 7.19193135659566 8.24999999999992 20.0
    vertex 10.1919313565954 9.75000000000045 20.0
  endloop
endfacet
facet normal -0.0 -0.0 1.0
  outer loop
    vertex 10.1919313565954 9.75000000000045 20.0
    vertex 7.19193135659566 8.24999999999992 20.0
    vertex 18.6061449189688 7.75000000000174 20.0
  endloop
endfacet
facet normal -0.0 -0.0 1.0
  outer loop
    vertex 7.91604023986704 10.8574225674311 20.0
    vertex 10.1919313565954 9.75000000000045 20.0
    vertex 8.85409351875733 10.9729729729732 20.0
  endloop
endfacet
facet normal -0.0 -0.0 1.0
  outer loop
    vertex 8.85409351875733 10.9729729729732 20.0
    vertex 10.1919313565954 9.75000000000045 20.0
    vertex 9.70396540780222 10.5594350394422 20.0
  endloop
endfacet
facet normal -0.0 -0.0 1.0
  outer loop
    vertex 10.1919313565954 9.75000000000045 20.0
    vertex 18.6061449189688 7.75000000000174 20.0
    vertex 17.9919313565954 9.75000000000163 20.0
  endloop
endfacet
facet normal -0.0 -0.0 1.0
  outer loop
    vertex 17.9919313565954 9.75000000000163 20.0
    vertex 18.6061449189688 7.75000000000174 20.0
    vertex 18.524447474303 9.41748388229422 20.0
  endloop
endfacet
facet normal -0.0 -0.0 1.0
  outer loop
    vertex 18.524447474303 9.41748388229422 20.0
    vertex 18.6061449189688 7.75000000000174 20.0
    vertex 18.6061449189646 32.2500000000017 20.0
  endloop
endfacet
facet normal -0.0 -0.0 1.0
  outer loop
    vertex 18.6061449189646 32.2500000000017 20.0
    vertex 18.6061449189688 7.75000000000174 20.0
    vertex 20.1919313565918 30.6642135623751 20.0
  endloop
endfacet
facet normal -0.0 -0.0 1.0
  outer loop
    vertex 20.1919313565918 30.6642135623751 20.0
    vertex 18.6061449189688 7.75000000000174 20.0
    vertex 20.1919313565955 9.33578643762894 20.0
  endloop
endfacet
facet normal -0.0 -0.0 1.0
  outer loop
    vertex 7.19193135659197 29.7499999999999 20.0
    vertex 18.6061449189646 32.2500000000017 20.0
    vertex 7.19193135659162 31.7499999999999 20.0
  endloop
endfacet
facet normal -0.0 -0.0 1.0
  outer loop
    vertex 18.6061449189646 32.2500000000017 20.0
    vertex 7.19193135659197 29.7499999999999 20.0
    vertex 10.1919313565919 30.2500000000004 20.0
  endloop
endfacet
facet normal -0.0 -0.0 1.0
  outer loop
    vertex 10.1919313565919 30.2500000000004 20.0
    vertex 7.19193135659197 29.7499999999999 20.0
    vertex 7.91604023986392 29.1425774325689 20.0
  endloop
endfacet
facet normal -0.0 -0.0 1.0
  outer loop
    vertex 10.1919313565919 30.2500000000004 20.0
    vertex 7.91604023986392 29.1425774325689 20.0
    vertex 8.85409351875425 29.0270270270272 20.0
  endloop
endfacet
facet normal -0.0 -0.0 1.0
  outer loop
    vertex 10.1919313565919 30.2500000000004 20.0
    vertex 8.85409351875425 29.0270270270272 20.0
    vertex 9.703965407799 29.4405649605584 20.0
  endloop
endfacet
facet normal -0.0 -0.0 1.0
  outer loop
    vertex 18.6061449189646 32.2500000000017 20.0
    vertex 10.1919313565919 30.2500000000004 20.0
    vertex 17.9919313565919 30.2500000000016 20.0
  endloop
endfacet
facet normal -0.0 -0.0 1.0
  outer loop
    vertex 18.6061449189646 32.2500000000017 20.0
    vertex 17.9919313565919 30.2500000000016 20.0
    vertex 18.5244474742993 30.5825161177092 20.0
  endloop
endfacet
facet normal -0.0 -0.0 1.0
  outer loop
    vertex 18.6061449189646 32.2500000000017 20.0
    vertex 18.5244474742993 30.5825161177092 20.0
    vertex 18.524447474303 9.41748388229422 20.0
  endloop
endfacet
facet normal -7.04991620636975e-016 -1.20805355117664e-028 1.0
  outer loop
    vertex 20.1919313565918 30.6642135623751 20.0
    vertex 24.1919313565884 50.6642135623758 20.0
    vertex 20.1919313565884 50.6642135623751 20.0
  endloop
endfacet
facet normal -7.04991620636975e-016 -1.20805355117664e-028 1.0
  outer loop
    vertex 24.1919313565884 50.6642135623758 20.0
    vertex 20.1919313565918 30.6642135623751 20.0
    vertex 20.1919313565955 9.33578643762894 20.0
  endloop
endfacet
facet normal -7.04991620636975e-016 -1.20805355117664e-028 1.0
  outer loop
    vertex 24.1919313565884 50.6642135623758 20.0
    vertex 20.1919313565955 9.33578643762894 20.0
    vertex 24.1919313565955 9.33578643762963 20.0
  endloop
endfacet
facet normal -1.72017955435422e-013 1.0 -6.19526935312345e-031
  outer loop
    vertex 20.1919313565884 50.6642135623751 20.0
    vertex 24.1919313565884 50.6642135623758 4.22994972382183e-015
    vertex 20.1919313565884 50.6642135623751 4.22994972382183e-015
  endloop
endfacet
facet normal -1.72017955435422e-013 1.0 -6.19526935312345e-031
  outer loop
    vertex 24.1919313565884 50.6642135623758 4.22994972382183e-015
    vertex 20.1919313565884 50.6642135623751 20.0
    vertex 24.1919313565884 50.6642135623758 20.0
  endloop
endfacet
facet normal -1.0 -1.72017955435422e-013 0.0
  outer loop
    vertex 20.1919313565884 50.6642135623751 20.0
    vertex 20.1919313565918 30.6642135623751 4.22994972382185e-015
    vertex 20.1919313565918 30.6642135623751 20.0
  endloop
endfacet
facet normal -1.0 -1.72017955435422e-013 0.0
  outer loop
    vertex 20.1919313565918 30.6642135623751 4.22994972382185e-015
    vertex 20.1919313565884 50.6642135623751 20.0
    vertex 20.1919313565884 50.6642135623751 4.22994972382183e-015
  endloop
endfacet
endsolid 2020_Bed_Mount_Clip_left
