solid 2020_Wire_Clip_fliament_holder
facet normal 0.707106781186674 -0.707106781186421 -0.0
  outer loop
    vertex 20.1919313565955 9.33578643762894 4.22994972382185e-015
    vertex 18.6061449189688 7.75000000000174 20.0
    vertex 18.6061449189688 7.75000000000174 4.22994972382185e-015
  endloop
endfacet
facet normal 0.707106781186674 -0.707106781186421 -0.0
  outer loop
    vertex 18.6061449189688 7.75000000000174 20.0
    vertex 20.1919313565955 9.33578643762894 4.22994972382185e-015
    vertex 20.1919313565955 9.33578643762894 20.0
  endloop
endfacet
facet normal 0.70710678118642 0.707106781186675 -0.0
  outer loop
    vertex 18.6061449189646 32.2500000000017 20.0
    vertex 20.1919313565918 30.6642135623751 4.22994972382185e-015
    vertex 18.6061449189646 32.2500000000017 4.22994972382185e-015
  endloop
endfacet
facet normal 0.70710678118642 0.707106781186675 -0.0
  outer loop
    vertex 20.1919313565918 30.6642135623751 4.22994972382185e-015
    vertex 18.6061449189646 32.2500000000017 20.0
    vertex 20.1919313565918 30.6642135623751 20.0
  endloop
endfacet
facet normal -0.0437630649136619 0.999041938133411 -0.0
  outer loop
    vertex 7.19193135659162 31.7499999999999 20.0
    vertex 18.6061449189646 32.2500000000017 4.22994972382185e-015
    vertex 7.19193135659162 31.7499999999999 4.22994972382185e-015
  endloop
endfacet
facet normal -0.0437630649136619 0.999041938133411 -0.0
  outer loop
    vertex 18.6061449189646 32.2500000000017 4.22994972382185e-015
    vertex 7.19193135659162 31.7499999999999 20.0
    vertex 18.6061449189646 32.2500000000017 20.0
  endloop
endfacet
facet normal -1.0 -1.74837921917969e-013 0.0
  outer loop
    vertex 7.19193135659162 31.7499999999999 20.0
    vertex 7.19193135659197 29.7499999999999 4.22994972382185e-015
    vertex 7.19193135659197 29.7499999999999 20.0
  endloop
endfacet
facet normal -1.0 -1.74837921917969e-013 0.0
  outer loop
    vertex 7.19193135659197 29.7499999999999 4.22994972382185e-015
    vertex 7.19193135659162 31.7499999999999 20.0
    vertex 7.19193135659162 31.7499999999999 4.22994972382185e-015
  endloop
endfacet
facet normal -0.398862413497273 -0.917010782433408 0.0
  outer loop
    vertex 7.91604023986392 29.1425774325689 20.0
    vertex 7.19193135659197 29.7499999999999 4.22994972382185e-015
    vertex 7.91604023986392 29.1425774325689 4.22994972382185e-015
  endloop
endfacet
facet normal -0.642677750458682 -0.766136612534193 0.0
  outer loop
    vertex 7.19193135659197 29.7499999999999 4.22994972382185e-015
    vertex 7.91604023986392 29.1425774325689 20.0
    vertex 7.19193135659197 29.7499999999999 20.0
  endloop
endfacet
facet normal 0.16439898730553 -0.986393923832115 0.0
  outer loop
    vertex 8.85409351875425 29.0270270270272 20.0
    vertex 7.91604023986392 29.1425774325689 4.22994972382185e-015
    vertex 8.85409351875425 29.0270270270272 4.22994972382185e-015
  endloop
endfacet
facet normal -0.398862413497273 -0.917010782433408 0.0
  outer loop
    vertex 7.91604023986392 29.1425774325689 4.22994972382185e-015
    vertex 8.85409351875425 29.0270270270272 20.0
    vertex 7.91604023986392 29.1425774325689 20.0
  endloop
endfacet
facet normal 0.674711185449056 -0.738081849275491 0.0
  outer loop
    vertex 9.703965407799 29.4405649605584 20.0
    vertex 8.85409351875425 29.0270270270272 4.22994972382185e-015
    vertex 9.703965407799 29.4405649605584 4.22994972382185e-015
  endloop
endfacet
facet normal 0.16439898730553 -0.986393923832115 0.0
  outer loop
    vertex 8.85409351875425 29.0270270270272 4.22994972382185e-015
    vertex 9.703965407799 29.4405649605584 20.0
    vertex 8.85409351875425 29.0270270270272 20.0
  endloop
endfacet
facet normal 0.856415151796514 -0.516287795491385 -0.0
  outer loop
    vertex 10.1919313565919 30.2500000000004 4.22994972382185e-015
    vertex 9.703965407799 29.4405649605584 20.0
    vertex 9.703965407799 29.4405649605584 4.22994972382185e-015
  endloop
endfacet
facet normal 0.674711185449056 -0.738081849275491 0.0
  outer loop
    vertex 9.703965407799 29.4405649605584 20.0
    vertex 10.1919313565919 30.2500000000004 4.22994972382185e-015
    vertex 10.1919313565919 30.2500000000004 20.0
  endloop
endfacet
facet normal 1.54736622375704e-013 -1.0 0.0
  outer loop
    vertex 17.9919313565919 30.2500000000016 20.0
    vertex 10.1919313565919 30.2500000000004 4.22994972382185e-015
    vertex 17.9919313565919 30.2500000000016 4.22994972382185e-015
  endloop
endfacet
facet normal 1.54736622375704e-013 -1.0 0.0
  outer loop
    vertex 10.1919313565919 30.2500000000004 4.22994972382185e-015
    vertex 17.9919313565919 30.2500000000016 20.0
    vertex 10.1919313565919 30.2500000000004 20.0
  endloop
endfacet
facet normal 0.529647874137945 -0.848217619140958 0.0
  outer loop
    vertex 18.5244474742993 30.5825161177092 20.0
    vertex 17.9919313565919 30.2500000000016 4.22994972382185e-015
    vertex 18.5244474742993 30.5825161177092 4.22994972382185e-015
  endloop
endfacet
facet normal 0.529647874137945 -0.848217619140958 0.0
  outer loop
    vertex 17.9919313565919 30.2500000000016 4.22994972382185e-015
    vertex 18.5244474742993 30.5825161177092 20.0
    vertex 17.9919313565919 30.2500000000016 20.0
  endloop
endfacet
facet normal -0.848217619141155 0.529647874137631 0.0
  outer loop
    vertex 18.5244474742993 30.5825161177092 20.0
    vertex 18.1919313565919 30.0500000000016 4.22994972382185e-015
    vertex 18.1919313565919 30.0500000000016 20.0
  endloop
endfacet
facet normal -0.848217619141155 0.529647874137631 0.0
  outer loop
    vertex 18.1919313565919 30.0500000000016 4.22994972382185e-015
    vertex 18.5244474742993 30.5825161177092 20.0
    vertex 18.5244474742993 30.5825161177092 4.22994972382185e-015
  endloop
endfacet
facet normal -0.848217619140969 -0.529647874137928 0.0
  outer loop
    vertex 18.1919313565954 9.95000000000167 20.0
    vertex 18.524447474303 9.41748388229422 4.22994972382185e-015
    vertex 18.524447474303 9.41748388229422 20.0
  endloop
endfacet
facet normal -0.848217619140969 -0.529647874137928 0.0
  outer loop
    vertex 18.524447474303 9.41748388229422 4.22994972382185e-015
    vertex 18.1919313565954 9.95000000000167 20.0
    vertex 18.1919313565954 9.95000000000167 4.22994972382185e-015
  endloop
endfacet
facet normal 0.529647874137646 0.848217619141145 -0.0
  outer loop
    vertex 17.9919313565954 9.75000000000163 20.0
    vertex 18.524447474303 9.41748388229422 4.22994972382185e-015
    vertex 17.9919313565954 9.75000000000163 4.22994972382185e-015
  endloop
endfacet
facet normal 0.529647874137646 0.848217619141145 -0.0
  outer loop
    vertex 18.524447474303 9.41748388229422 4.22994972382185e-015
    vertex 17.9919313565954 9.75000000000163 20.0
    vertex 18.524447474303 9.41748388229422 20.0
  endloop
endfacet
facet normal -1.71443164118986e-013 1.0 1.60026446826595e-016
  outer loop
    vertex 137.191931356595 30.6642135623951 2.84471003775526e-015
    vertex 147.191931356592 30.6642135623968 20.0
    vertex 147.191931356592 30.6642135623969 1.22267724295945e-015
  endloop
endfacet
facet normal -1.71443164118986e-013 1.0 1.60026446826595e-016
  outer loop
    vertex 147.191931356592 30.6642135623968 20.0
    vertex 137.191931356595 30.6642135623951 2.84471003775526e-015
    vertex 20.1919313565918 30.6642135623751 4.22994972382185e-015
  endloop
endfacet
facet normal -1.71443164118986e-013 1.0 1.60026446826595e-016
  outer loop
    vertex 147.191931356592 30.6642135623968 20.0
    vertex 20.1919313565918 30.6642135623751 4.22994972382185e-015
    vertex 20.1919313565918 30.6642135623751 20.0
  endloop
endfacet
facet normal 1.71431568754926e-013 -1.0 2.29129605237707e-016
  outer loop
    vertex 147.191931356595 9.33578643765072 4.22994972382195e-015
    vertex 20.1919313565955 9.33578643762894 4.22994972382185e-015
    vertex 137.191931356595 9.33578643764899 4.22994972382185e-015
  endloop
endfacet
facet normal 1.71431568754926e-013 -1.0 2.29129605237707e-016
  outer loop
    vertex 20.1919313565955 9.33578643762894 4.22994972382185e-015
    vertex 147.191931356595 9.33578643765072 4.22994972382195e-015
    vertex 20.1919313565955 9.33578643762894 20.0
  endloop
endfacet
facet normal 1.71431568754926e-013 -1.0 2.29129605237707e-016
  outer loop
    vertex 20.1919313565955 9.33578643762894 20.0
    vertex 147.191931356595 9.33578643765072 4.22994972382195e-015
    vertex 147.191931356595 9.33578643765072 20.0
  endloop
endfacet
facet normal -0.0437630649133425 -0.999041938133425 0.0
  outer loop
    vertex 18.6061449189688 7.75000000000174 20.0
    vertex 7.19193135659566 8.24999999999992 4.22994972382185e-015
    vertex 18.6061449189688 7.75000000000174 4.22994972382185e-015
  endloop
endfacet
facet normal -0.0437630649133425 -0.999041938133425 0.0
  outer loop
    vertex 7.19193135659566 8.24999999999992 4.22994972382185e-015
    vertex 18.6061449189688 7.75000000000174 20.0
    vertex 7.19193135659566 8.24999999999992 20.0
  endloop
endfacet
facet normal -1.55463413220166e-013 1.0 1.75831999846678e-015
  outer loop
    vertex 10.1919313565954 9.75000000000045 20.0
    vertex 17.9919313565954 9.75000000000163 4.22994972382185e-015
    vertex 10.1919313565954 9.75000000000045 4.22994972382185e-015
  endloop
endfacet
facet normal -1.55463413220166e-013 1.0 1.75831999846678e-015
  outer loop
    vertex 17.9919313565954 9.75000000000163 4.22994972382185e-015
    vertex 10.1919313565954 9.75000000000045 20.0
    vertex 17.9919313565954 9.75000000000163 20.0
  endloop
endfacet
facet normal -1.55463413220166e-013 1.0 1.75831999846678e-015
  outer loop
    vertex 17.9919313565954 9.75000000000163 20.0
    vertex 10.1919313565954 9.75000000000045 20.0
    vertex 10.9613313565954 9.75000000000045 20.0
  endloop
endfacet
facet normal -1.0 -5.32973665201497e-014 6.01460506031413e-031
  outer loop
    vertex 7.19193135659539 13.2500000000004 20.0
    vertex 7.19193135659566 8.24999999999992 4.22994972382185e-015
    vertex 7.19193135659566 8.24999999999992 20.0
  endloop
endfacet
facet normal -1.0 -5.32973665201497e-014 6.01460506031413e-031
  outer loop
    vertex 7.19193135659566 8.24999999999992 4.22994972382185e-015
    vertex 7.19193135659539 13.2500000000004 20.0
    vertex 7.19193135659539 13.2500000000004 4.22994972382185e-015
  endloop
endfacet
facet normal 1.54718236986555e-032 -2.61800849633384e-032 1.0
  outer loop
    vertex 18.1919313565954 9.95000000000167 20.0
    vertex 18.5244474742993 30.5825161177092 20.0
    vertex 18.1919313565919 30.0500000000016 20.0
  endloop
endfacet
facet normal 1.54718236986555e-032 -2.61800849633384e-032 1.0
  outer loop
    vertex 18.5244474742993 30.5825161177092 20.0
    vertex 18.1919313565954 9.95000000000167 20.0
    vertex 18.524447474303 9.41748388229422 20.0
  endloop
endfacet
facet normal 1.54718236986555e-032 -2.61800849633384e-032 1.0
  outer loop
    vertex 147.191931356595 9.33578643765072 20.0
    vertex 137.191931356595 20.0000000000221 20.0
    vertex 20.1919313565955 9.33578643762894 20.0
  endloop
endfacet
facet normal 1.54718236986555e-032 -2.61800849633384e-032 1.0
  outer loop
    vertex 7.19193135659566 8.24999999999992 20.0
    vertex 7.3909202668433 13.5014255114074 20.0
    vertex 7.19193135659539 13.2500000000004 20.0
  endloop
endfacet
facet normal 1.54718236986555e-032 -2.61800849633384e-032 1.0
  outer loop
    vertex 7.3909202668433 13.5014255114074 20.0
    vertex 7.19193135659566 8.24999999999992 20.0
    vertex 10.1919313565954 9.75000000000045 20.0
  endloop
endfacet
facet normal 1.54718236986555e-032 -2.61800849633384e-032 1.0
  outer loop
    vertex 10.1919313565954 9.75000000000045 20.0
    vertex 7.19193135659566 8.24999999999992 20.0
    vertex 18.6061449189688 7.75000000000174 20.0
  endloop
endfacet
facet normal 1.54718236986555e-032 -2.61800849633384e-032 1.0
  outer loop
    vertex 7.3909202668433 13.5014255114074 20.0
    vertex 10.1919313565954 9.75000000000045 20.0
    vertex 7.63462642380706 13.7097970143675 20.0
  endloop
endfacet
facet normal 1.54718236986555e-032 -2.61800849633384e-032 1.0
  outer loop
    vertex 7.63462642380706 13.7097970143675 20.0
    vertex 10.1919313565954 9.75000000000045 20.0
    vertex 7.91391593526419 13.8673049283844 20.0
  endloop
endfacet
facet normal 1.54718236986555e-032 -2.61800849633384e-032 1.0
  outer loop
    vertex 7.91391593526419 13.8673049283844 20.0
    vertex 10.1919313565954 9.75000000000045 20.0
    vertex 8.21832127619067 13.9680459954987 20.0
  endloop
endfacet
facet normal 1.54718236986555e-032 -2.61800849633384e-032 1.0
  outer loop
    vertex 8.21832127619067 13.9680459954987 20.0
    vertex 10.1919313565954 9.75000000000045 20.0
    vertex 8.53643360238407 14.0082445291999 20.0
  endloop
endfacet
facet normal 1.54718236986555e-032 -2.61800849633384e-032 1.0
  outer loop
    vertex 8.53643360238407 14.0082445291999 20.0
    vertex 10.1919313565954 9.75000000000045 20.0
    vertex 8.85633034390074 13.9863939238326 20.0
  endloop
endfacet
facet normal 1.54718236986555e-032 -2.61800849633384e-032 1.0
  outer loop
    vertex 8.85633034390074 13.9863939238326 20.0
    vertex 10.1919313565954 9.75000000000045 20.0
    vertex 9.16602205248159 13.9033131208503 20.0
  endloop
endfacet
facet normal 1.54718236986555e-032 -2.61800849633384e-032 1.0
  outer loop
    vertex 9.16602205248159 13.9033131208503 20.0
    vertex 10.1919313565954 9.75000000000045 20.0
    vertex 9.4539017555182 13.7621159156108 20.0
  endloop
endfacet
facet normal 1.54718236986555e-032 -2.61800849633384e-032 1.0
  outer loop
    vertex 9.4539017555182 13.7621159156108 20.0
    vertex 10.1919313565954 9.75000000000045 20.0
    vertex 9.70917997516834 13.568094255067 20.0
  endloop
endfacet
facet normal 1.54718236986555e-032 -2.61800849633384e-032 1.0
  outer loop
    vertex 9.70917997516834 13.568094255067 20.0
    vertex 10.1919313565954 9.75000000000045 20.0
    vertex 9.92228910848718 13.3285199002542 20.0
  endloop
endfacet
facet normal 1.54718236986555e-032 -2.61800849633384e-032 1.0
  outer loop
    vertex 9.92228910848718 13.3285199002542 20.0
    vertex 10.1919313565954 9.75000000000045 20.0
    vertex 10.0852420127631 13.0523718870874 20.0
  endloop
endfacet
facet normal 1.54718236986555e-032 -2.61800849633384e-032 1.0
  outer loop
    vertex 10.1919313565954 9.75000000000045 20.0
    vertex 18.6061449189688 7.75000000000174 20.0
    vertex 10.9613313565954 9.75000000000045 20.0
  endloop
endfacet
facet normal 1.54718236986555e-032 -2.61800849633384e-032 1.0
  outer loop
    vertex 10.9613313565954 9.75000000000045 20.0
    vertex 18.6061449189688 7.75000000000174 20.0
    vertex 17.9919313565954 9.75000000000163 20.0
  endloop
endfacet
facet normal 1.54718236986555e-032 -2.61800849633384e-032 1.0
  outer loop
    vertex 17.9919313565954 9.75000000000163 20.0
    vertex 18.6061449189688 7.75000000000174 20.0
    vertex 18.524447474303 9.41748388229422 20.0
  endloop
endfacet
facet normal 1.54718236986555e-032 -2.61800849633384e-032 1.0
  outer loop
    vertex 18.524447474303 9.41748388229422 20.0
    vertex 18.6061449189688 7.75000000000174 20.0
    vertex 18.6061449189646 32.2500000000017 20.0
  endloop
endfacet
facet normal 1.54718236986555e-032 -2.61800849633384e-032 1.0
  outer loop
    vertex 18.6061449189646 32.2500000000017 20.0
    vertex 18.6061449189688 7.75000000000174 20.0
    vertex 20.1919313565918 30.6642135623751 20.0
  endloop
endfacet
facet normal 1.54718236986555e-032 -2.61800849633384e-032 1.0
  outer loop
    vertex 20.1919313565918 30.6642135623751 20.0
    vertex 18.6061449189688 7.75000000000174 20.0
    vertex 20.1919313565955 9.33578643762894 20.0
  endloop
endfacet
facet normal 1.54718236986555e-032 -2.61800849633384e-032 1.0
  outer loop
    vertex 20.1919313565918 30.6642135623751 20.0
    vertex 20.1919313565955 9.33578643762894 20.0
    vertex 147.191931356592 30.6642135623968 20.0
  endloop
endfacet
facet normal 1.54718236986555e-032 -2.61800849633384e-032 1.0
  outer loop
    vertex 147.191931356592 30.6642135623968 20.0
    vertex 20.1919313565955 9.33578643762894 20.0
    vertex 137.191931356595 20.0000000000221 20.0
  endloop
endfacet
facet normal 1.54718236986555e-032 -2.61800849633384e-032 1.0
  outer loop
    vertex 7.19193135659197 29.7499999999999 20.0
    vertex 18.6061449189646 32.2500000000017 20.0
    vertex 7.19193135659162 31.7499999999999 20.0
  endloop
endfacet
facet normal 1.54718236986555e-032 -2.61800849633384e-032 1.0
  outer loop
    vertex 18.6061449189646 32.2500000000017 20.0
    vertex 7.19193135659197 29.7499999999999 20.0
    vertex 10.1919313565919 30.2500000000004 20.0
  endloop
endfacet
facet normal 1.54718236986555e-032 -2.61800849633384e-032 1.0
  outer loop
    vertex 10.1919313565919 30.2500000000004 20.0
    vertex 7.19193135659197 29.7499999999999 20.0
    vertex 7.91604023986392 29.1425774325689 20.0
  endloop
endfacet
facet normal 1.54718236986555e-032 -2.61800849633384e-032 1.0
  outer loop
    vertex 10.1919313565919 30.2500000000004 20.0
    vertex 7.91604023986392 29.1425774325689 20.0
    vertex 8.85409351875425 29.0270270270272 20.0
  endloop
endfacet
facet normal 1.54718236986555e-032 -2.61800849633384e-032 1.0
  outer loop
    vertex 10.1919313565919 30.2500000000004 20.0
    vertex 8.85409351875425 29.0270270270272 20.0
    vertex 9.703965407799 29.4405649605584 20.0
  endloop
endfacet
facet normal 1.54718236986555e-032 -2.61800849633384e-032 1.0
  outer loop
    vertex 18.6061449189646 32.2500000000017 20.0
    vertex 10.1919313565919 30.2500000000004 20.0
    vertex 17.9919313565919 30.2500000000016 20.0
  endloop
endfacet
facet normal 1.54718236986555e-032 -2.61800849633384e-032 1.0
  outer loop
    vertex 18.6061449189646 32.2500000000017 20.0
    vertex 17.9919313565919 30.2500000000016 20.0
    vertex 18.5244474742993 30.5825161177092 20.0
  endloop
endfacet
facet normal 1.54718236986555e-032 -2.61800849633384e-032 1.0
  outer loop
    vertex 18.6061449189646 32.2500000000017 20.0
    vertex 18.5244474742993 30.5825161177092 20.0
    vertex 18.524447474303 9.41748388229422 20.0
  endloop
endfacet
facet normal 1.54718236986555e-032 -2.61800849633384e-032 1.0
  outer loop
    vertex 10.1919313565954 12.7500000000004 20.0
    vertex 10.0852420127631 13.0523718870874 20.0
    vertex 10.1919313565954 9.75000000000045 20.0
  endloop
endfacet
facet normal 1.0 -0.0 -0.0
  outer loop
    vertex 10.1919313565954 12.7500000000004 4.22994972382185e-015
    vertex 10.1919313565954 9.75000000000045 20.0
    vertex 10.1919313565954 9.75000000000045 4.22994972382185e-015
  endloop
endfacet
facet normal 1.0 -0.0 -0.0
  outer loop
    vertex 10.1919313565954 9.75000000000045 20.0
    vertex 10.1919313565954 12.7500000000004 4.22994972382185e-015
    vertex 10.1919313565954 12.7500000000004 20.0
  endloop
endfacet
facet normal -1.6220327947963e-016 -6.4948046940572e-017 -1.0
  outer loop
    vertex 147.191931356592 30.6642135623969 1.22267724295945e-015
    vertex 137.191931356595 20.0000000000221 3.53732988078856e-015
    vertex 137.191931356595 30.6642135623951 2.84471003775526e-015
  endloop
endfacet
facet normal 0.906383391146804 0.422456090325634 6.92976276028686e-034
  outer loop
    vertex 10.0852420127631 13.0523718870874 4.22994972382185e-015
    vertex 10.1919313565954 12.7500000000004 20.0
    vertex 10.1919313565954 12.7500000000004 4.22994972382185e-015
  endloop
endfacet
facet normal 0.943019836669451 0.332736513848302 1.37944423560906e-033
  outer loop
    vertex 10.1919313565954 12.7500000000004 20.0
    vertex 10.0852420127631 13.0523718870874 4.22994972382185e-015
    vertex 10.0852420127631 13.0523718870874 20.0
  endloop
endfacet
facet normal 0.807996731961319 0.589186966199888 0.0
  outer loop
    vertex 9.92228910848718 13.3285199002542 4.22994972382185e-015
    vertex 10.0852420127631 13.0523718870874 20.0
    vertex 10.0852420127631 13.0523718870874 4.22994972382185e-015
  endloop
endfacet
facet normal 0.906383391146804 0.422456090325634 6.92976276028686e-034
  outer loop
    vertex 10.0852420127631 13.0523718870874 20.0
    vertex 9.92228910848718 13.3285199002542 4.22994972382185e-015
    vertex 9.92228910848718 13.3285199002542 20.0
  endloop
endfacet
facet normal 0.679327066561263 0.733835633256705 0.0
  outer loop
    vertex 9.70917997516834 13.568094255067 4.22994972382185e-015
    vertex 9.92228910848718 13.3285199002542 20.0
    vertex 9.92228910848718 13.3285199002542 4.22994972382185e-015
  endloop
endfacet
facet normal 0.807996731961319 0.589186966199888 0.0
  outer loop
    vertex 9.92228910848718 13.3285199002542 20.0
    vertex 9.70917997516834 13.568094255067 4.22994972382185e-015
    vertex 9.70917997516834 13.568094255067 20.0
  endloop
endfacet
facet normal 0.52519682073477 0.850980786792563 0.0
  outer loop
    vertex 9.4539017555182 13.7621159156108 20.0
    vertex 9.70917997516834 13.568094255067 4.22994972382185e-015
    vertex 9.4539017555182 13.7621159156108 4.22994972382185e-015
  endloop
endfacet
facet normal 0.679327066561263 0.733835633256705 0.0
  outer loop
    vertex 9.70917997516834 13.568094255067 4.22994972382185e-015
    vertex 9.4539017555182 13.7621159156108 20.0
    vertex 9.70917997516834 13.568094255067 20.0
  endloop
endfacet
facet normal 0.351382660410775 0.936231929578695 0.0
  outer loop
    vertex 9.16602205248159 13.9033131208503 20.0
    vertex 9.4539017555182 13.7621159156108 4.22994972382185e-015
    vertex 9.16602205248159 13.9033131208503 4.22994972382185e-015
  endloop
endfacet
facet normal 0.52519682073477 0.850980786792563 0.0
  outer loop
    vertex 9.4539017555182 13.7621159156108 4.22994972382185e-015
    vertex 9.16602205248159 13.9033131208503 20.0
    vertex 9.4539017555182 13.7621159156108 20.0
  endloop
endfacet
facet normal 0.164398987305358 0.986393923832144 0.0
  outer loop
    vertex 8.85633034390074 13.9863939238326 20.0
    vertex 9.16602205248159 13.9033131208503 4.22994972382185e-015
    vertex 8.85633034390074 13.9863939238326 4.22994972382185e-015
  endloop
endfacet
facet normal 0.351382660410775 0.936231929578695 0.0
  outer loop
    vertex 9.16602205248159 13.9033131208503 4.22994972382185e-015
    vertex 8.85633034390074 13.9863939238326 20.0
    vertex 9.16602205248159 13.9033131208503 20.0
  endloop
endfacet
facet normal -0.0287462151198036 0.999586742167125 0.0
  outer loop
    vertex 8.53643360238407 14.0082445291999 20.0
    vertex 8.85633034390074 13.9863939238326 4.22994972382185e-015
    vertex 8.53643360238407 14.0082445291999 4.22994972382185e-015
  endloop
endfacet
facet normal 0.164398987305358 0.986393923832144 0.0
  outer loop
    vertex 8.85633034390074 13.9863939238326 4.22994972382185e-015
    vertex 8.53643360238407 14.0082445291999 20.0
    vertex 8.85633034390074 13.9863939238326 20.0
  endloop
endfacet
facet normal -0.220814034708274 0.975315929366404 0.0
  outer loop
    vertex 8.21832127619067 13.9680459954987 20.0
    vertex 8.53643360238407 14.0082445291999 4.22994972382185e-015
    vertex 8.21832127619067 13.9680459954987 4.22994972382185e-015
  endloop
endfacet
facet normal -0.0287462151198036 0.999586742167125 0.0
  outer loop
    vertex 8.53643360238407 14.0082445291999 4.22994972382185e-015
    vertex 8.21832127619067 13.9680459954987 20.0
    vertex 8.53643360238407 14.0082445291999 20.0
  endloop
endfacet
facet normal -0.404605938663884 0.914491134127564 0.0
  outer loop
    vertex 7.91391593526419 13.8673049283844 20.0
    vertex 8.21832127619067 13.9680459954987 4.22994972382185e-015
    vertex 7.91391593526419 13.8673049283844 4.22994972382185e-015
  endloop
endfacet
facet normal -0.220814034708274 0.975315929366404 0.0
  outer loop
    vertex 8.21832127619067 13.9680459954987 4.22994972382185e-015
    vertex 7.91391593526419 13.8673049283844 20.0
    vertex 8.21832127619067 13.9680459954987 20.0
  endloop
endfacet
facet normal -0.573233568222905 0.819392016230593 0.0
  outer loop
    vertex 7.63462642380706 13.7097970143675 20.0
    vertex 7.91391593526419 13.8673049283844 4.22994972382185e-015
    vertex 7.63462642380706 13.7097970143675 4.22994972382185e-015
  endloop
endfacet
facet normal -0.404605938663884 0.914491134127564 0.0
  outer loop
    vertex 7.91391593526419 13.8673049283844 4.22994972382185e-015
    vertex 7.63462642380706 13.7097970143675 20.0
    vertex 7.91391593526419 13.8673049283844 20.0
  endloop
endfacet
facet normal -0.720376908276503 0.693582806896182 1.0903607771445e-019
  outer loop
    vertex 7.3909202668433 13.5014255114074 20.0
    vertex 7.63462642380706 13.7097970143675 4.22994972382185e-015
    vertex 7.3909202668433 13.5014255114074 4.22994972382185e-015
  endloop
endfacet
facet normal -0.573233568222905 0.819392016230593 0.0
  outer loop
    vertex 7.63462642380706 13.7097970143675 4.22994972382185e-015
    vertex 7.3909202668433 13.5014255114074 20.0
    vertex 7.63462642380706 13.7097970143675 20.0
  endloop
endfacet
facet normal -0.720376908276503 0.693582806896182 1.0903607771445e-019
  outer loop
    vertex 7.3909202668433 13.5014255114074 20.0
    vertex 7.19193135659539 13.2500000000004 4.22994972382185e-015
    vertex 7.19193135659539 13.2500000000004 20.0
  endloop
endfacet
facet normal -0.784131246412197 0.620595027695239 2.17048106954809e-019
  outer loop
    vertex 7.19193135659539 13.2500000000004 4.22994972382185e-015
    vertex 7.3909202668433 13.5014255114074 20.0
    vertex 7.3909202668433 13.5014255114074 4.22994972382185e-015
  endloop
endfacet
facet normal -1.0 -1.71162144711863e-013 0.0
  outer loop
    vertex 18.1919313565919 30.0500000000016 20.0
    vertex 18.1919313565954 9.95000000000167 4.22994972382185e-015
    vertex 18.1919313565954 9.95000000000167 20.0
  endloop
endfacet
facet normal -1.0 -1.71162144711863e-013 0.0
  outer loop
    vertex 18.1919313565954 9.95000000000167 4.22994972382185e-015
    vertex 18.1919313565919 30.0500000000016 20.0
    vertex 18.1919313565919 30.0500000000016 4.22994972382185e-015
  endloop
endfacet
facet normal -5.3162459957524e-018 -5.2493993453132e-018 -1.0
  outer loop
    vertex 18.6061449189646 32.2500000000017 4.22994972382185e-015
    vertex 7.19193135659197 29.7499999999999 4.22994972382185e-015
    vertex 7.19193135659162 31.7499999999999 4.22994972382185e-015
  endloop
endfacet
facet normal -5.3162459957524e-018 -5.2493993453132e-018 -1.0
  outer loop
    vertex 7.19193135659197 29.7499999999999 4.22994972382185e-015
    vertex 18.6061449189646 32.2500000000017 4.22994972382185e-015
    vertex 10.1919313565919 30.2500000000004 4.22994972382185e-015
  endloop
endfacet
facet normal -5.3162459957524e-018 -5.2493993453132e-018 -1.0
  outer loop
    vertex 7.19193135659197 29.7499999999999 4.22994972382185e-015
    vertex 10.1919313565919 30.2500000000004 4.22994972382185e-015
    vertex 7.91604023986392 29.1425774325689 4.22994972382185e-015
  endloop
endfacet
facet normal -5.3162459957524e-018 -5.2493993453132e-018 -1.0
  outer loop
    vertex 7.91604023986392 29.1425774325689 4.22994972382185e-015
    vertex 10.1919313565919 30.2500000000004 4.22994972382185e-015
    vertex 8.85409351875425 29.0270270270272 4.22994972382185e-015
  endloop
endfacet
facet normal -5.3162459957524e-018 -5.2493993453132e-018 -1.0
  outer loop
    vertex 8.85409351875425 29.0270270270272 4.22994972382185e-015
    vertex 10.1919313565919 30.2500000000004 4.22994972382185e-015
    vertex 9.703965407799 29.4405649605584 4.22994972382185e-015
  endloop
endfacet
facet normal -5.3162459957524e-018 -5.2493993453132e-018 -1.0
  outer loop
    vertex 10.1919313565919 30.2500000000004 4.22994972382185e-015
    vertex 18.6061449189646 32.2500000000017 4.22994972382185e-015
    vertex 17.9919313565919 30.2500000000016 4.22994972382185e-015
  endloop
endfacet
facet normal -5.3162459957524e-018 -5.2493993453132e-018 -1.0
  outer loop
    vertex 17.9919313565919 30.2500000000016 4.22994972382185e-015
    vertex 18.6061449189646 32.2500000000017 4.22994972382185e-015
    vertex 18.5244474742993 30.5825161177092 4.22994972382185e-015
  endloop
endfacet
facet normal -5.3162459957524e-018 -5.2493993453132e-018 -1.0
  outer loop
    vertex 18.5244474742993 30.5825161177092 4.22994972382185e-015
    vertex 18.6061449189646 32.2500000000017 4.22994972382185e-015
    vertex 18.524447474303 9.41748388229422 4.22994972382185e-015
  endloop
endfacet
facet normal -5.3162459957524e-018 -5.2493993453132e-018 -1.0
  outer loop
    vertex 7.3909202668433 13.5014255114074 4.22994972382185e-015
    vertex 7.19193135659566 8.24999999999992 4.22994972382185e-015
    vertex 7.19193135659539 13.2500000000004 4.22994972382185e-015
  endloop
endfacet
facet normal -5.3162459957524e-018 -5.2493993453132e-018 -1.0
  outer loop
    vertex 7.19193135659566 8.24999999999992 4.22994972382185e-015
    vertex 7.3909202668433 13.5014255114074 4.22994972382185e-015
    vertex 10.1919313565954 9.75000000000045 4.22994972382185e-015
  endloop
endfacet
facet normal -5.3162459957524e-018 -5.2493993453132e-018 -1.0
  outer loop
    vertex 7.19193135659566 8.24999999999992 4.22994972382185e-015
    vertex 10.1919313565954 9.75000000000045 4.22994972382185e-015
    vertex 18.6061449189688 7.75000000000174 4.22994972382185e-015
  endloop
endfacet
facet normal -5.3162459957524e-018 -5.2493993453132e-018 -1.0
  outer loop
    vertex 10.1919313565954 9.75000000000045 4.22994972382185e-015
    vertex 7.3909202668433 13.5014255114074 4.22994972382185e-015
    vertex 7.63462642380706 13.7097970143675 4.22994972382185e-015
  endloop
endfacet
facet normal -5.3162459957524e-018 -5.2493993453132e-018 -1.0
  outer loop
    vertex 10.1919313565954 9.75000000000045 4.22994972382185e-015
    vertex 7.63462642380706 13.7097970143675 4.22994972382185e-015
    vertex 7.91391593526419 13.8673049283844 4.22994972382185e-015
  endloop
endfacet
facet normal -5.3162459957524e-018 -5.2493993453132e-018 -1.0
  outer loop
    vertex 10.1919313565954 9.75000000000045 4.22994972382185e-015
    vertex 7.91391593526419 13.8673049283844 4.22994972382185e-015
    vertex 8.21832127619067 13.9680459954987 4.22994972382185e-015
  endloop
endfacet
facet normal -5.3162459957524e-018 -5.2493993453132e-018 -1.0
  outer loop
    vertex 10.1919313565954 9.75000000000045 4.22994972382185e-015
    vertex 8.21832127619067 13.9680459954987 4.22994972382185e-015
    vertex 8.53643360238407 14.0082445291999 4.22994972382185e-015
  endloop
endfacet
facet normal -5.3162459957524e-018 -5.2493993453132e-018 -1.0
  outer loop
    vertex 10.1919313565954 9.75000000000045 4.22994972382185e-015
    vertex 8.53643360238407 14.0082445291999 4.22994972382185e-015
    vertex 8.85633034390074 13.9863939238326 4.22994972382185e-015
  endloop
endfacet
facet normal -5.3162459957524e-018 -5.2493993453132e-018 -1.0
  outer loop
    vertex 10.1919313565954 9.75000000000045 4.22994972382185e-015
    vertex 8.85633034390074 13.9863939238326 4.22994972382185e-015
    vertex 9.16602205248159 13.9033131208503 4.22994972382185e-015
  endloop
endfacet
facet normal -5.3162459957524e-018 -5.2493993453132e-018 -1.0
  outer loop
    vertex 10.1919313565954 9.75000000000045 4.22994972382185e-015
    vertex 9.16602205248159 13.9033131208503 4.22994972382185e-015
    vertex 9.4539017555182 13.7621159156108 4.22994972382185e-015
  endloop
endfacet
facet normal -5.3162459957524e-018 -5.2493993453132e-018 -1.0
  outer loop
    vertex 10.1919313565954 9.75000000000045 4.22994972382185e-015
    vertex 9.4539017555182 13.7621159156108 4.22994972382185e-015
    vertex 9.70917997516834 13.568094255067 4.22994972382185e-015
  endloop
endfacet
facet normal -5.3162459957524e-018 -5.2493993453132e-018 -1.0
  outer loop
    vertex 10.1919313565954 9.75000000000045 4.22994972382185e-015
    vertex 9.70917997516834 13.568094255067 4.22994972382185e-015
    vertex 9.92228910848718 13.3285199002542 4.22994972382185e-015
  endloop
endfacet
facet normal -5.3162459957524e-018 -5.2493993453132e-018 -1.0
  outer loop
    vertex 10.1919313565954 9.75000000000045 4.22994972382185e-015
    vertex 9.92228910848718 13.3285199002542 4.22994972382185e-015
    vertex 10.0852420127631 13.0523718870874 4.22994972382185e-015
  endloop
endfacet
facet normal -5.3162459957524e-018 -5.2493993453132e-018 -1.0
  outer loop
    vertex 10.1919313565954 9.75000000000045 4.22994972382185e-015
    vertex 10.0852420127631 13.0523718870874 4.22994972382185e-015
    vertex 10.1919313565954 12.7500000000004 4.22994972382185e-015
  endloop
endfacet
facet normal -5.3162459957524e-018 -5.2493993453132e-018 -1.0
  outer loop
    vertex 18.6061449189688 7.75000000000174 4.22994972382185e-015
    vertex 10.1919313565954 9.75000000000045 4.22994972382185e-015
    vertex 17.9919313565954 9.75000000000163 4.22994972382185e-015
  endloop
endfacet
facet normal -5.3162459957524e-018 -5.2493993453132e-018 -1.0
  outer loop
    vertex 18.6061449189688 7.75000000000174 4.22994972382185e-015
    vertex 17.9919313565954 9.75000000000163 4.22994972382185e-015
    vertex 18.524447474303 9.41748388229422 4.22994972382185e-015
  endloop
endfacet
facet normal -5.3162459957524e-018 -5.2493993453132e-018 -1.0
  outer loop
    vertex 18.6061449189688 7.75000000000174 4.22994972382185e-015
    vertex 18.524447474303 9.41748388229422 4.22994972382185e-015
    vertex 18.6061449189646 32.2500000000017 4.22994972382185e-015
  endloop
endfacet
facet normal -5.3162459957524e-018 -5.2493993453132e-018 -1.0
  outer loop
    vertex 18.6061449189688 7.75000000000174 4.22994972382185e-015
    vertex 18.6061449189646 32.2500000000017 4.22994972382185e-015
    vertex 20.1919313565918 30.6642135623751 4.22994972382185e-015
  endloop
endfacet
facet normal -5.3162459957524e-018 -5.2493993453132e-018 -1.0
  outer loop
    vertex 18.6061449189688 7.75000000000174 4.22994972382185e-015
    vertex 20.1919313565918 30.6642135623751 4.22994972382185e-015
    vertex 20.1919313565955 9.33578643762894 4.22994972382185e-015
  endloop
endfacet
facet normal -5.3162459957524e-018 -5.2493993453132e-018 -1.0
  outer loop
    vertex 20.1919313565955 9.33578643762894 4.22994972382185e-015
    vertex 20.1919313565918 30.6642135623751 4.22994972382185e-015
    vertex 137.191931356595 30.6642135623951 2.84471003775526e-015
  endloop
endfacet
facet normal -5.3162459957524e-018 -5.2493993453132e-018 -1.0
  outer loop
    vertex 20.1919313565955 9.33578643762894 4.22994972382185e-015
    vertex 137.191931356595 30.6642135623951 2.84471003775526e-015
    vertex 137.191931356595 9.33578643764899 4.22994972382185e-015
  endloop
endfacet
facet normal -5.3162459957524e-018 -5.2493993453132e-018 -1.0
  outer loop
    vertex 137.191931356595 9.33578643764899 4.22994972382185e-015
    vertex 137.191931356595 30.6642135623951 2.84471003775526e-015
    vertex 137.191931356595 20.0000000000221 3.53732988078856e-015
  endloop
endfacet
facet normal -5.3162459957524e-018 -5.2493993453132e-018 -1.0
  outer loop
    vertex 18.5244474742993 30.5825161177092 4.22994972382185e-015
    vertex 18.1919313565954 9.95000000000167 4.22994972382185e-015
    vertex 18.1919313565919 30.0500000000016 4.22994972382185e-015
  endloop
endfacet
facet normal -5.3162459957524e-018 -5.2493993453132e-018 -1.0
  outer loop
    vertex 18.1919313565954 9.95000000000167 4.22994972382185e-015
    vertex 18.5244474742993 30.5825161177092 4.22994972382185e-015
    vertex 18.524447474303 9.41748388229422 4.22994972382185e-015
  endloop
endfacet
facet normal 2.16698979651319e-029 -6.4948046940572e-017 -1.0
  outer loop
    vertex 147.191931356595 9.33578643765072 4.22994972382195e-015
    vertex 137.191931356595 9.33578643764899 4.22994972382185e-015
    vertex 137.191931356595 20.0000000000221 3.53732988078856e-015
  endloop
endfacet
facet normal 0.7294587073469 0.684024849165431 -3.67798653881472e-017
  outer loop
    vertex 137.191931356595 20.0000000000221 3.53732988078856e-015
    vertex 147.191931356595 9.33578643765072 20.0
    vertex 147.191931356595 9.33578643765072 4.22994972382195e-015
  endloop
endfacet
facet normal 0.7294587073469 0.684024849165431 -3.67798653881472e-017
  outer loop
    vertex 147.191931356595 9.33578643765072 20.0
    vertex 137.191931356595 20.0000000000221 3.53732988078856e-015
    vertex 137.191931356595 20.0000000000221 20.0
  endloop
endfacet
facet normal 0.729458707347135 -0.68402484916518 -9.59893662618063e-017
  outer loop
    vertex 147.191931356592 30.6642135623969 1.22267724295945e-015
    vertex 137.191931356595 20.0000000000221 20.0
    vertex 137.191931356595 20.0000000000221 3.53732988078856e-015
  endloop
endfacet
facet normal 0.729458707347135 -0.68402484916518 -9.59893662618063e-017
  outer loop
    vertex 137.191931356595 20.0000000000221 20.0
    vertex 147.191931356592 30.6642135623969 1.22267724295945e-015
    vertex 147.191931356592 30.6642135623968 20.0
  endloop
endfacet
endsolid 2020_Wire_Clip_fliament_holder
