solid 2020_Wire_Clip_m3_mounthole_v2_smaller
facet normal 0.707106781186674 -0.707106781186421 -0.0
  outer loop
    vertex 20.1919313565955 9.33578643762894 2.5
    vertex 18.6061449189688 7.75000000000174 17.5
    vertex 18.6061449189688 7.75000000000174 2.5
  endloop
endfacet
facet normal 0.707106781186674 -0.707106781186421 -0.0
  outer loop
    vertex 18.6061449189688 7.75000000000174 17.5
    vertex 20.1919313565955 9.33578643762894 2.5
    vertex 20.1919313565955 9.33578643762894 17.5
  endloop
endfacet
facet normal 0.707106781186421 0.707106781186675 -0.0
  outer loop
    vertex 18.6061449189646 32.2500000000017 17.5
    vertex 20.1919313565918 30.6642135623751 2.5
    vertex 18.6061449189646 32.2500000000017 2.5
  endloop
endfacet
facet normal 0.707106781186421 0.707106781186675 -0.0
  outer loop
    vertex 20.1919313565918 30.6642135623751 2.5
    vertex 18.6061449189646 32.2500000000017 17.5
    vertex 20.1919313565918 30.6642135623751 17.5
  endloop
endfacet
facet normal -0.0437630649136619 0.999041938133411 -0.0
  outer loop
    vertex 7.19193135659162 31.7499999999999 17.5
    vertex 18.6061449189646 32.2500000000017 2.5
    vertex 7.19193135659162 31.7499999999999 2.5
  endloop
endfacet
facet normal -0.0437630649136619 0.999041938133411 -0.0
  outer loop
    vertex 18.6061449189646 32.2500000000017 2.5
    vertex 7.19193135659162 31.7499999999999 17.5
    vertex 18.6061449189646 32.2500000000017 17.5
  endloop
endfacet
facet normal -1.0 -1.74837921917969e-013 0.0
  outer loop
    vertex 7.19193135659162 31.7499999999999 17.5
    vertex 7.19193135659197 29.7499999999999 2.5
    vertex 7.19193135659197 29.7499999999999 17.5
  endloop
endfacet
facet normal -1.0 -1.74837921917969e-013 0.0
  outer loop
    vertex 7.19193135659197 29.7499999999999 2.5
    vertex 7.19193135659162 31.7499999999999 17.5
    vertex 7.19193135659162 31.7499999999999 2.5
  endloop
endfacet
facet normal -0.398862413497273 -0.917010782433408 0.0
  outer loop
    vertex 7.91604023986392 29.1425774325689 17.5
    vertex 7.19193135659197 29.7499999999999 2.5
    vertex 7.91604023986392 29.1425774325689 2.5
  endloop
endfacet
facet normal -0.642677750458682 -0.766136612534193 0.0
  outer loop
    vertex 7.19193135659197 29.7499999999999 2.5
    vertex 7.91604023986392 29.1425774325689 17.5
    vertex 7.19193135659197 29.7499999999999 17.5
  endloop
endfacet
facet normal 0.16439898730553 -0.986393923832115 0.0
  outer loop
    vertex 8.85409351875425 29.0270270270272 17.5
    vertex 7.91604023986392 29.1425774325689 2.5
    vertex 8.85409351875425 29.0270270270272 2.5
  endloop
endfacet
facet normal -0.398862413497273 -0.917010782433408 0.0
  outer loop
    vertex 7.91604023986392 29.1425774325689 2.5
    vertex 8.85409351875425 29.0270270270272 17.5
    vertex 7.91604023986392 29.1425774325689 17.5
  endloop
endfacet
facet normal 0.674711185449056 -0.738081849275491 0.0
  outer loop
    vertex 9.703965407799 29.4405649605584 17.5
    vertex 8.85409351875425 29.0270270270272 2.5
    vertex 9.703965407799 29.4405649605584 2.5
  endloop
endfacet
facet normal 0.16439898730553 -0.986393923832115 0.0
  outer loop
    vertex 8.85409351875425 29.0270270270272 2.5
    vertex 9.703965407799 29.4405649605584 17.5
    vertex 8.85409351875425 29.0270270270272 17.5
  endloop
endfacet
facet normal 0.856415151796514 -0.516287795491385 -0.0
  outer loop
    vertex 10.1919313565919 30.2500000000004 2.5
    vertex 9.703965407799 29.4405649605584 17.5
    vertex 9.703965407799 29.4405649605584 2.5
  endloop
endfacet
facet normal 0.674711185449056 -0.738081849275491 0.0
  outer loop
    vertex 9.703965407799 29.4405649605584 17.5
    vertex 10.1919313565919 30.2500000000004 2.5
    vertex 10.1919313565919 30.2500000000004 17.5
  endloop
endfacet
facet normal 1.54736622375704e-013 -1.0 0.0
  outer loop
    vertex 17.9919313565919 30.2500000000016 17.5
    vertex 10.1919313565919 30.2500000000004 2.5
    vertex 17.9919313565919 30.2500000000016 2.5
  endloop
endfacet
facet normal 1.54736622375704e-013 -1.0 0.0
  outer loop
    vertex 10.1919313565919 30.2500000000004 2.5
    vertex 17.9919313565919 30.2500000000016 17.5
    vertex 10.1919313565919 30.2500000000004 17.5
  endloop
endfacet
facet normal 0.529647874137945 -0.848217619140958 0.0
  outer loop
    vertex 18.5244474742993 30.5825161177092 17.5
    vertex 17.9919313565919 30.2500000000016 2.5
    vertex 18.5244474742993 30.5825161177092 2.5
  endloop
endfacet
facet normal 0.529647874137945 -0.848217619140958 0.0
  outer loop
    vertex 17.9919313565919 30.2500000000016 2.5
    vertex 18.5244474742993 30.5825161177092 17.5
    vertex 17.9919313565919 30.2500000000016 17.5
  endloop
endfacet
facet normal -0.848217619141155 0.529647874137631 0.0
  outer loop
    vertex 18.5244474742993 30.5825161177092 17.5
    vertex 18.1919313565919 30.0500000000016 2.5
    vertex 18.1919313565919 30.0500000000016 17.5
  endloop
endfacet
facet normal -0.848217619141155 0.529647874137631 0.0
  outer loop
    vertex 18.1919313565919 30.0500000000016 2.5
    vertex 18.5244474742993 30.5825161177092 17.5
    vertex 18.5244474742993 30.5825161177092 2.5
  endloop
endfacet
facet normal -1.0 -1.71162144711863e-013 0.0
  outer loop
    vertex 18.1919313565954 9.95000000000167 17.5
    vertex 18.191931356594 17.8968823151611 12.4118242066351
    vertex 18.1919313565954 9.95000000000167 2.5
  endloop
endfacet
facet normal -1.0 -1.71162144711863e-013 0.0
  outer loop
    vertex 18.191931356594 17.8968823151611 12.4118242066351
    vertex 18.1919313565954 9.95000000000167 17.5
    vertex 18.1919313565919 30.0500000000016 17.5
  endloop
endfacet
facet normal -1.0 -1.71162144711863e-013 0.0
  outer loop
    vertex 18.1919313565954 9.95000000000167 2.5
    vertex 18.191931356594 17.8968823151611 12.4118242066351
    vertex 18.1919313565942 16.8597401251731 9.38455876109735
  endloop
endfacet
facet normal -1.0 -1.71162144711863e-013 0.0
  outer loop
    vertex 18.191931356594 17.8968823151611 12.4118242066351
    vertex 18.1919313565919 30.0500000000016 17.5
    vertex 18.1919313565935 21.0371421899896 13.0272654455378
  endloop
endfacet
facet normal -1.0 -1.71162144711863e-013 0.0
  outer loop
    vertex 18.1919313565935 21.0371421899896 13.0272654455378
    vertex 18.1919313565919 30.0500000000016 17.5
    vertex 18.1919313565931 23.1402598748302 10.6154412389027
  endloop
endfacet
facet normal -1.0 -1.71162144711863e-013 0.0
  outer loop
    vertex 18.1919313565954 9.95000000000167 2.5
    vertex 18.1919313565938 18.9628578100137 6.97273455446225
    vertex 18.1919313565919 30.0500000000016 2.5
  endloop
endfacet
facet normal -1.0 -1.71162144711863e-013 0.0
  outer loop
    vertex 18.1919313565938 18.9628578100137 6.97273455446225
    vertex 18.1919313565954 9.95000000000167 2.5
    vertex 18.1919313565942 16.8597401251731 9.38455876109735
  endloop
endfacet
facet normal -1.0 -1.71162144711863e-013 0.0
  outer loop
    vertex 18.1919313565919 30.0500000000016 2.5
    vertex 18.1919313565938 18.9628578100137 6.97273455446225
    vertex 18.1919313565933 22.1031176848422 7.58817579336491
  endloop
endfacet
facet normal -1.0 -1.71162144711863e-013 0.0
  outer loop
    vertex 18.1919313565919 30.0500000000016 2.5
    vertex 18.1919313565933 22.1031176848422 7.58817579336491
    vertex 18.1919313565931 23.1402598748302 10.6154412389027
  endloop
endfacet
facet normal -1.0 -1.71162144711863e-013 0.0
  outer loop
    vertex 18.1919313565919 30.0500000000016 2.5
    vertex 18.1919313565931 23.1402598748302 10.6154412389027
    vertex 18.1919313565919 30.0500000000016 17.5
  endloop
endfacet
facet normal -0.848217619140969 -0.529647874137928 0.0
  outer loop
    vertex 18.1919313565954 9.95000000000167 17.5
    vertex 18.524447474303 9.41748388229422 2.5
    vertex 18.524447474303 9.41748388229422 17.5
  endloop
endfacet
facet normal -0.848217619140969 -0.529647874137928 0.0
  outer loop
    vertex 18.524447474303 9.41748388229422 2.5
    vertex 18.1919313565954 9.95000000000167 17.5
    vertex 18.1919313565954 9.95000000000167 2.5
  endloop
endfacet
facet normal 0.529647874137646 0.848217619141145 -0.0
  outer loop
    vertex 17.9919313565954 9.75000000000163 17.5
    vertex 18.524447474303 9.41748388229422 2.5
    vertex 17.9919313565954 9.75000000000163 2.5
  endloop
endfacet
facet normal 0.529647874137646 0.848217619141145 -0.0
  outer loop
    vertex 18.524447474303 9.41748388229422 2.5
    vertex 17.9919313565954 9.75000000000163 17.5
    vertex 18.524447474303 9.41748388229422 17.5
  endloop
endfacet
facet normal 1.0 1.71352371180797e-013 0.0
  outer loop
    vertex 27.1919313565955 9.33578643763014 2.5
    vertex 27.1919313565938 19.0059493684784 8.8107299121036
    vertex 27.1919313565955 9.33578643763014 17.5
  endloop
endfacet
facet normal 1.0 1.71352371180797e-013 0.0
  outer loop
    vertex 27.1919313565938 19.0059493684784 8.8107299121036
    vertex 27.1919313565955 9.33578643763014 2.5
    vertex 27.1919313565938 19.3476265708928 8.59397407243299
  endloop
endfacet
facet normal 1.0 1.71352371180797e-013 0.0
  outer loop
    vertex 27.1919313565938 19.3476265708928 8.59397407243299
    vertex 27.1919313565955 9.33578643763014 2.5
    vertex 27.1919313565918 30.6642135623763 2.5
  endloop
endfacet
facet normal 1.0 1.71352371180797e-013 0.0
  outer loop
    vertex 27.1919313565955 9.33578643763014 17.5
    vertex 27.1919313565938 19.0059493684784 8.8107299121036
    vertex 27.1919313565939 18.7320150738561 9.1085325429026
  endloop
endfacet
facet normal 1.0 1.71352371180797e-013 0.0
  outer loop
    vertex 27.1919313565955 9.33578643763014 17.5
    vertex 27.1919313565939 18.7320150738561 9.1085325429026
    vertex 27.1919313565939 18.5444918565066 9.46708720768317
  endloop
endfacet
facet normal 1.0 1.71352371180797e-013 0.0
  outer loop
    vertex 27.1919313565955 9.33578643763014 17.5
    vertex 27.1919313565939 18.5444918565066 9.46708720768317
    vertex 27.1919313565939 18.4561591137954 9.86195899858009
  endloop
endfacet
facet normal 1.0 1.71352371180797e-013 0.0
  outer loop
    vertex 27.1919313565938 19.3476265708928 8.59397407243299
    vertex 27.1919313565918 30.6642135623763 2.5
    vertex 27.1919313565937 19.733761944403 8.47303657615836
  endloop
endfacet
facet normal 1.0 1.71352371180797e-013 0.0
  outer loop
    vertex 27.1919313565937 19.733761944403 8.47303657615836
    vertex 27.1919313565918 30.6642135623763 2.5
    vertex 27.1919313565936 20.1380410014231 8.45615911379218
  endloop
endfacet
facet normal 1.0 1.71352371180797e-013 0.0
  outer loop
    vertex 27.1919313565936 20.1380410014231 8.45615911379218
    vertex 27.1919313565918 30.6642135623763 2.5
    vertex 27.1919313565936 20.53291279232 8.54449185650336
  endloop
endfacet
facet normal 1.0 1.71352371180797e-013 0.0
  outer loop
    vertex 27.1919313565936 20.53291279232 8.54449185650336
    vertex 27.1919313565918 30.6642135623763 2.5
    vertex 27.1919313565935 20.8914674571006 8.73201507385291
  endloop
endfacet
facet normal 1.0 1.71352371180797e-013 0.0
  outer loop
    vertex 27.1919313565935 20.8914674571006 8.73201507385291
    vertex 27.1919313565918 30.6642135623763 2.5
    vertex 27.1919313565934 21.1892700878996 9.00594936847521
  endloop
endfacet
facet normal 1.0 1.71352371180797e-013 0.0
  outer loop
    vertex 27.1919313565934 21.1892700878996 9.00594936847521
    vertex 27.1919313565918 30.6642135623763 2.5
    vertex 27.1919313565934 21.4060259275702 9.34762657088959
  endloop
endfacet
facet normal 1.0 1.71352371180797e-013 0.0
  outer loop
    vertex 27.1919313565934 21.4060259275702 9.34762657088959
    vertex 27.1919313565918 30.6642135623763 2.5
    vertex 27.1919313565934 21.5269634238448 9.73376194439977
  endloop
endfacet
facet normal 1.0 1.71352371180797e-013 0.0
  outer loop
    vertex 27.1919313565934 21.5269634238448 9.73376194439977
    vertex 27.1919313565918 30.6642135623763 2.5
    vertex 27.1919313565934 21.543840886211 10.1380410014199
  endloop
endfacet
facet normal 1.0 1.71352371180797e-013 0.0
  outer loop
    vertex 27.1919313565955 9.33578643763014 17.5
    vertex 27.1919313565938 19.1085325429058 11.2679849261471
    vertex 27.1919313565918 30.6642135623763 17.5
  endloop
endfacet
facet normal 1.0 1.71352371180797e-013 0.0
  outer loop
    vertex 27.1919313565938 19.1085325429058 11.2679849261471
    vertex 27.1919313565955 9.33578643763014 17.5
    vertex 27.1919313565939 18.8107299121068 10.9940506315248
  endloop
endfacet
facet normal 1.0 1.71352371180797e-013 0.0
  outer loop
    vertex 27.1919313565939 18.8107299121068 10.9940506315248
    vertex 27.1919313565955 9.33578643763014 17.5
    vertex 27.1919313565939 18.5939740724362 10.6523734291104
  endloop
endfacet
facet normal 1.0 1.71352371180797e-013 0.0
  outer loop
    vertex 27.1919313565939 18.5939740724362 10.6523734291104
    vertex 27.1919313565955 9.33578643763014 17.5
    vertex 27.1919313565939 18.4730365761616 10.2662380556002
  endloop
endfacet
facet normal 1.0 1.71352371180797e-013 0.0
  outer loop
    vertex 27.1919313565939 18.4730365761616 10.2662380556002
    vertex 27.1919313565955 9.33578643763014 17.5
    vertex 27.1919313565939 18.4561591137954 9.86195899858009
  endloop
endfacet
facet normal 1.0 1.71352371180797e-013 0.0
  outer loop
    vertex 27.1919313565918 30.6642135623763 17.5
    vertex 27.1919313565938 19.1085325429058 11.2679849261471
    vertex 27.1919313565937 19.4670872076864 11.4555081434967
  endloop
endfacet
facet normal 1.0 1.71352371180797e-013 0.0
  outer loop
    vertex 27.1919313565918 30.6642135623763 17.5
    vertex 27.1919313565937 19.4670872076864 11.4555081434967
    vertex 27.1919313565937 19.8619589985833 11.5438408862078
  endloop
endfacet
facet normal 1.0 1.71352371180797e-013 0.0
  outer loop
    vertex 27.1919313565918 30.6642135623763 17.5
    vertex 27.1919313565937 19.8619589985833 11.5438408862078
    vertex 27.1919313565936 20.2662380556034 11.5269634238417
  endloop
endfacet
facet normal 1.0 1.71352371180797e-013 0.0
  outer loop
    vertex 27.1919313565918 30.6642135623763 17.5
    vertex 27.1919313565936 20.2662380556034 11.5269634238417
    vertex 27.1919313565935 20.6523734291136 11.406025927567
  endloop
endfacet
facet normal 1.0 1.71352371180797e-013 0.0
  outer loop
    vertex 27.1919313565918 30.6642135623763 17.5
    vertex 27.1919313565935 20.6523734291136 11.406025927567
    vertex 27.1919313565935 20.994050631528 11.1892700878964
  endloop
endfacet
facet normal 1.0 1.71352371180797e-013 0.0
  outer loop
    vertex 27.1919313565918 30.6642135623763 17.5
    vertex 27.1919313565935 20.994050631528 11.1892700878964
    vertex 27.1919313565934 21.2679849261503 10.8914674570974
  endloop
endfacet
facet normal 1.0 1.71352371180797e-013 0.0
  outer loop
    vertex 27.1919313565918 30.6642135623763 17.5
    vertex 27.1919313565934 21.2679849261503 10.8914674570974
    vertex 27.1919313565934 21.4555081434998 10.5329127923169
  endloop
endfacet
facet normal 1.0 1.71352371180797e-013 0.0
  outer loop
    vertex 27.1919313565918 30.6642135623763 17.5
    vertex 27.1919313565934 21.4555081434998 10.5329127923169
    vertex 27.1919313565934 21.543840886211 10.1380410014199
  endloop
endfacet
facet normal 1.0 1.71352371180797e-013 0.0
  outer loop
    vertex 27.1919313565918 30.6642135623763 17.5
    vertex 27.1919313565934 21.543840886211 10.1380410014199
    vertex 27.1919313565918 30.6642135623763 2.5
  endloop
endfacet
facet normal 1.62302056903036e-013 -0.94602045173055 0.324106934371245
  outer loop
    vertex 21.1919313565931 23.1402598748307 10.6154412389027
    vertex 18.1919313565933 22.1031176848422 7.58817579336491
    vertex 21.1919313565933 22.1031176848427 7.58817579336491
  endloop
endfacet
facet normal 1.62302056903036e-013 -0.94602045173055 0.324106934371245
  outer loop
    vertex 18.1919313565933 22.1031176848422 7.58817579336491
    vertex 21.1919313565931 23.1402598748307 10.6154412389027
    vertex 18.1919313565931 23.1402598748302 10.6154412389027
  endloop
endfacet
facet normal 3.3070952033534e-014 -0.192325387157082 0.981331210883909
  outer loop
    vertex 18.1919313565938 18.9628578100137 6.97273455446225
    vertex 21.1919313565933 22.1031176848427 7.58817579336491
    vertex 18.1919313565933 22.1031176848422 7.58817579336491
  endloop
endfacet
facet normal 3.3070952033534e-014 -0.192325387157082 0.981331210883909
  outer loop
    vertex 21.1919313565933 22.1031176848427 7.58817579336491
    vertex 18.1919313565938 18.9628578100137 6.97273455446225
    vertex 21.1919313565938 18.9628578100142 6.97273455446225
  endloop
endfacet
facet normal -1.29231104869502e-013 0.753695064573468 0.657224276512665
  outer loop
    vertex 18.1919313565942 16.8597401251731 9.38455876109735
    vertex 21.1919313565938 18.9628578100142 6.97273455446225
    vertex 18.1919313565938 18.9628578100137 6.97273455446225
  endloop
endfacet
facet normal -1.29231104869502e-013 0.753695064573468 0.657224276512665
  outer loop
    vertex 21.1919313565938 18.9628578100142 6.97273455446225
    vertex 18.1919313565942 16.8597401251731 9.38455876109735
    vertex 21.1919313565942 16.8597401251737 9.38455876109735
  endloop
endfacet
facet normal -1.62302056903036e-013 0.94602045173055 -0.324106934371245
  outer loop
    vertex 18.191931356594 17.8968823151611 12.4118242066351
    vertex 21.1919313565942 16.8597401251737 9.38455876109735
    vertex 18.1919313565942 16.8597401251731 9.38455876109735
  endloop
endfacet
facet normal -1.62302056903036e-013 0.94602045173055 -0.324106934371245
  outer loop
    vertex 21.1919313565942 16.8597401251737 9.38455876109735
    vertex 18.191931356594 17.8968823151611 12.4118242066351
    vertex 21.191931356594 17.8968823151616 12.4118242066351
  endloop
endfacet
facet normal -3.30709520335339e-014 0.192325387157082 -0.981331210883909
  outer loop
    vertex 21.1919313565935 21.0371421899901 13.0272654455378
    vertex 18.191931356594 17.8968823151611 12.4118242066351
    vertex 18.1919313565935 21.0371421899896 13.0272654455378
  endloop
endfacet
facet normal -3.30709520335339e-014 0.192325387157082 -0.981331210883909
  outer loop
    vertex 18.191931356594 17.8968823151611 12.4118242066351
    vertex 21.1919313565935 21.0371421899901 13.0272654455378
    vertex 21.191931356594 17.8968823151616 12.4118242066351
  endloop
endfacet
facet normal 1.29231104869502e-013 -0.753695064573468 -0.657224276512665
  outer loop
    vertex 21.1919313565935 21.0371421899901 13.0272654455378
    vertex 18.1919313565931 23.1402598748302 10.6154412389027
    vertex 21.1919313565931 23.1402598748307 10.6154412389027
  endloop
endfacet
facet normal 1.29231104869502e-013 -0.753695064573468 -0.657224276512665
  outer loop
    vertex 18.1919313565931 23.1402598748302 10.6154412389027
    vertex 21.1919313565935 21.0371421899901 13.0272654455378
    vertex 18.1919313565935 21.0371421899896 13.0272654455378
  endloop
endfacet
facet normal -1.0 -1.7153486318082e-013 8.19734055673175e-017
  outer loop
    vertex 21.191931356594 17.8968823151616 12.4118242066351
    vertex 21.1919313565939 18.4730365761605 10.2662380556002
    vertex 21.1919313565939 18.4561591137943 9.86195899858009
  endloop
endfacet
facet normal -1.0 -1.7153486318082e-013 8.19734055673175e-017
  outer loop
    vertex 21.1919313565939 18.4730365761605 10.2662380556002
    vertex 21.191931356594 17.8968823151616 12.4118242066351
    vertex 21.1919313565939 18.5939740724351 10.6523734291104
  endloop
endfacet
facet normal -1.0 -1.7153486318082e-013 8.19734055673175e-017
  outer loop
    vertex 21.1919313565939 18.5939740724351 10.6523734291104
    vertex 21.191931356594 17.8968823151616 12.4118242066351
    vertex 21.1919313565939 18.8107299121058 10.9940506315248
  endloop
endfacet
facet normal -1.0 -1.7153486318082e-013 8.19734055673175e-017
  outer loop
    vertex 21.1919313565939 18.8107299121058 10.9940506315248
    vertex 21.191931356594 17.8968823151616 12.4118242066351
    vertex 21.1919313565938 19.1085325429048 11.2679849261471
  endloop
endfacet
facet normal -1.0 -1.7153486318082e-013 8.19734055673175e-017
  outer loop
    vertex 21.1919313565938 19.1085325429048 11.2679849261471
    vertex 21.191931356594 17.8968823151616 12.4118242066351
    vertex 21.1919313565935 21.0371421899901 13.0272654455378
  endloop
endfacet
facet normal -1.0 -1.7153486318082e-013 8.19734055673175e-017
  outer loop
    vertex 21.1919313565938 19.1085325429048 11.2679849261471
    vertex 21.1919313565935 21.0371421899901 13.0272654455378
    vertex 21.1919313565937 19.4670872076853 11.4555081434967
  endloop
endfacet
facet normal -1.0 -1.7153486318082e-013 8.19734055673175e-017
  outer loop
    vertex 21.1919313565937 19.4670872076853 11.4555081434967
    vertex 21.1919313565935 21.0371421899901 13.0272654455378
    vertex 21.1919313565937 19.8619589985822 11.5438408862078
  endloop
endfacet
facet normal -1.0 -1.7153486318082e-013 8.19734055673175e-017
  outer loop
    vertex 21.1919313565937 19.8619589985822 11.5438408862078
    vertex 21.1919313565935 21.0371421899901 13.0272654455378
    vertex 21.1919313565936 20.2662380556024 11.5269634238417
  endloop
endfacet
facet normal -1.0 -1.7153486318082e-013 8.19734055673175e-017
  outer loop
    vertex 21.1919313565936 20.2662380556024 11.5269634238417
    vertex 21.1919313565935 21.0371421899901 13.0272654455378
    vertex 21.1919313565935 20.6523734291126 11.406025927567
  endloop
endfacet
facet normal -1.0 -1.7153486318082e-013 8.19734055673175e-017
  outer loop
    vertex 21.1919313565935 20.6523734291126 11.406025927567
    vertex 21.1919313565935 21.0371421899901 13.0272654455378
    vertex 21.1919313565935 20.994050631527 11.1892700878964
  endloop
endfacet
facet normal -1.0 -1.7153486318082e-013 8.19734055673175e-017
  outer loop
    vertex 21.1919313565935 20.994050631527 11.1892700878964
    vertex 21.1919313565935 21.0371421899901 13.0272654455378
    vertex 21.1919313565934 21.2679849261493 10.8914674570974
  endloop
endfacet
facet normal -1.0 -1.7153486318082e-013 8.19734055673175e-017
  outer loop
    vertex 21.1919313565934 21.2679849261493 10.8914674570974
    vertex 21.1919313565935 21.0371421899901 13.0272654455378
    vertex 21.1919313565931 23.1402598748307 10.6154412389027
  endloop
endfacet
facet normal -1.0 -1.7153486318082e-013 8.19734055673175e-017
  outer loop
    vertex 21.1919313565934 21.2679849261493 10.8914674570974
    vertex 21.1919313565931 23.1402598748307 10.6154412389027
    vertex 21.1919313565934 21.4555081434988 10.5329127923169
  endloop
endfacet
facet normal -1.0 -1.7153486318082e-013 8.19734055673175e-017
  outer loop
    vertex 21.1919313565934 21.4555081434988 10.5329127923169
    vertex 21.1919313565931 23.1402598748307 10.6154412389027
    vertex 21.1919313565934 21.54384088621 10.1380410014199
  endloop
endfacet
facet normal -1.0 -1.7153486318082e-013 8.19734055673175e-017
  outer loop
    vertex 21.1919313565934 21.54384088621 10.1380410014199
    vertex 21.1919313565931 23.1402598748307 10.6154412389027
    vertex 21.1919313565933 22.1031176848427 7.58817579336491
  endloop
endfacet
facet normal -1.0 -1.7153486318082e-013 8.19734055673175e-017
  outer loop
    vertex 21.191931356594 17.8968823151616 12.4118242066351
    vertex 21.1919313565938 18.9628578100142 6.97273455446225
    vertex 21.1919313565942 16.8597401251737 9.38455876109735
  endloop
endfacet
facet normal -1.0 -1.7153486318082e-013 8.19734055673175e-017
  outer loop
    vertex 21.1919313565938 18.9628578100142 6.97273455446225
    vertex 21.191931356594 17.8968823151616 12.4118242066351
    vertex 21.1919313565939 18.4561591137943 9.86195899858009
  endloop
endfacet
facet normal -1.0 -1.7153486318082e-013 8.19734055673175e-017
  outer loop
    vertex 21.1919313565938 18.9628578100142 6.97273455446225
    vertex 21.1919313565939 18.4561591137943 9.86195899858009
    vertex 21.1919313565939 18.5444918565055 9.46708720768316
  endloop
endfacet
facet normal -1.0 -1.7153486318082e-013 8.19734055673175e-017
  outer loop
    vertex 21.1919313565938 18.9628578100142 6.97273455446225
    vertex 21.1919313565939 18.5444918565055 9.46708720768316
    vertex 21.1919313565939 18.7320150738551 9.1085325429026
  endloop
endfacet
facet normal -1.0 -1.7153486318082e-013 8.19734055673175e-017
  outer loop
    vertex 21.1919313565938 18.9628578100142 6.97273455446225
    vertex 21.1919313565939 18.7320150738551 9.1085325429026
    vertex 21.1919313565938 19.0059493684774 8.81072991210359
  endloop
endfacet
facet normal -1.0 -1.7153486318082e-013 8.19734055673175e-017
  outer loop
    vertex 21.1919313565938 18.9628578100142 6.97273455446225
    vertex 21.1919313565938 19.0059493684774 8.81072991210359
    vertex 21.1919313565938 19.3476265708917 8.59397407243299
  endloop
endfacet
facet normal -1.0 -1.7153486318082e-013 8.19734055673175e-017
  outer loop
    vertex 21.1919313565938 18.9628578100142 6.97273455446225
    vertex 21.1919313565938 19.3476265708917 8.59397407243299
    vertex 21.1919313565933 22.1031176848427 7.58817579336491
  endloop
endfacet
facet normal -1.0 -1.7153486318082e-013 8.19734055673175e-017
  outer loop
    vertex 21.1919313565933 22.1031176848427 7.58817579336491
    vertex 21.1919313565938 19.3476265708917 8.59397407243299
    vertex 21.1919313565937 19.7337619444019 8.47303657615836
  endloop
endfacet
facet normal -1.0 -1.7153486318082e-013 8.19734055673175e-017
  outer loop
    vertex 21.1919313565933 22.1031176848427 7.58817579336491
    vertex 21.1919313565937 19.7337619444019 8.47303657615836
    vertex 21.1919313565936 20.1380410014221 8.45615911379218
  endloop
endfacet
facet normal -1.0 -1.7153486318082e-013 8.19734055673175e-017
  outer loop
    vertex 21.1919313565933 22.1031176848427 7.58817579336491
    vertex 21.1919313565936 20.1380410014221 8.45615911379218
    vertex 21.1919313565936 20.532912792319 8.54449185650336
  endloop
endfacet
facet normal -1.0 -1.7153486318082e-013 8.19734055673175e-017
  outer loop
    vertex 21.1919313565933 22.1031176848427 7.58817579336491
    vertex 21.1919313565936 20.532912792319 8.54449185650336
    vertex 21.1919313565935 20.8914674570996 8.7320150738529
  endloop
endfacet
facet normal -1.0 -1.7153486318082e-013 8.19734055673175e-017
  outer loop
    vertex 21.1919313565933 22.1031176848427 7.58817579336491
    vertex 21.1919313565935 20.8914674570996 8.7320150738529
    vertex 21.1919313565934 21.1892700878986 9.00594936847521
  endloop
endfacet
facet normal -1.0 -1.7153486318082e-013 8.19734055673175e-017
  outer loop
    vertex 21.1919313565933 22.1031176848427 7.58817579336491
    vertex 21.1919313565934 21.1892700878986 9.00594936847521
    vertex 21.1919313565934 21.4060259275692 9.34762657088958
  endloop
endfacet
facet normal -1.0 -1.7153486318082e-013 8.19734055673175e-017
  outer loop
    vertex 21.1919313565933 22.1031176848427 7.58817579336491
    vertex 21.1919313565934 21.4060259275692 9.34762657088958
    vertex 21.1919313565934 21.5269634238438 9.73376194439977
  endloop
endfacet
facet normal -1.0 -1.7153486318082e-013 8.19734055673175e-017
  outer loop
    vertex 21.1919313565933 22.1031176848427 7.58817579336491
    vertex 21.1919313565934 21.5269634238438 9.73376194439977
    vertex 21.1919313565934 21.54384088621 10.1380410014199
  endloop
endfacet
facet normal 7.34417149727058e-014 -0.420886083297049 -0.907113501656143
  outer loop
    vertex 27.1919313565935 20.6523734291136 11.406025927567
    vertex 21.1919313565936 20.2662380556024 11.5269634238417
    vertex 21.1919313565935 20.6523734291126 11.406025927567
  endloop
endfacet
facet normal 3.04205543856339e-014 -0.171766487484024 -0.985137692801063
  outer loop
    vertex 21.1919313565936 20.2662380556024 11.5269634238417
    vertex 27.1919313565935 20.6523734291136 11.406025927567
    vertex 27.1919313565936 20.2662380556034 11.5269634238417
  endloop
endfacet
facet normal 1.1145794405256e-013 -0.641322988080518 -0.767271024449299
  outer loop
    vertex 27.1919313565935 20.994050631528 11.1892700878964
    vertex 21.1919313565935 20.6523734291126 11.406025927567
    vertex 21.1919313565935 20.994050631527 11.1892700878964
  endloop
endfacet
facet normal 7.34417149727057e-014 -0.420886083297049 -0.907113501656143
  outer loop
    vertex 21.1919313565935 20.6523734291126 11.406025927567
    vertex 27.1919313565935 20.994050631528 11.1892700878964
    vertex 27.1919313565935 20.6523734291136 11.406025927567
  endloop
endfacet
facet normal 1.41878498438194e-013 -0.818054791062649 -0.575140294901554
  outer loop
    vertex 27.1919313565934 21.2679849261503 10.8914674570974
    vertex 21.1919313565935 20.994050631527 11.1892700878964
    vertex 21.1919313565934 21.2679849261493 10.8914674570974
  endloop
endfacet
facet normal 1.1145794405256e-013 -0.641322988080518 -0.767271024449298
  outer loop
    vertex 21.1919313565935 20.994050631527 11.1892700878964
    vertex 27.1919313565934 21.2679849261503 10.8914674570974
    vertex 27.1919313565935 20.994050631528 11.1892700878964
  endloop
endfacet
facet normal 1.62630267620569e-013 -0.939037511933322 -0.343814704720545
  outer loop
    vertex 27.1919313565934 21.4555081434998 10.5329127923169
    vertex 21.1919313565934 21.2679849261493 10.8914674570974
    vertex 21.1919313565934 21.4555081434988 10.5329127923169
  endloop
endfacet
facet normal 1.41878498438194e-013 -0.818054791062649 -0.575140294901554
  outer loop
    vertex 21.1919313565934 21.2679849261493 10.8914674570974
    vertex 27.1919313565934 21.4555081434998 10.5329127923169
    vertex 27.1919313565934 21.2679849261503 10.8914674570974
  endloop
endfacet
facet normal 1.72299052823828e-013 -0.996026378198602 -0.0890587105934947
  outer loop
    vertex 27.1919313565934 21.543840886211 10.1380410014199
    vertex 21.1919313565934 21.4555081434988 10.5329127923169
    vertex 21.1919313565934 21.54384088621 10.1380410014199
  endloop
endfacet
facet normal 1.62630267620569e-013 -0.939037511933322 -0.343814704720545
  outer loop
    vertex 21.1919313565934 21.4555081434988 10.5329127923169
    vertex 27.1919313565934 21.543840886211 10.1380410014199
    vertex 27.1919313565934 21.4555081434998 10.5329127923169
  endloop
endfacet
facet normal 1.7022594231479e-013 -0.985137692801063 0.171766487484024
  outer loop
    vertex 27.1919313565934 21.5269634238448 9.73376194439977
    vertex 21.1919313565934 21.54384088621 10.1380410014199
    vertex 21.1919313565934 21.5269634238438 9.73376194439977
  endloop
endfacet
facet normal 1.72299052823828e-013 -0.996026378198602 -0.0890587105934939
  outer loop
    vertex 21.1919313565934 21.54384088621 10.1380410014199
    vertex 27.1919313565934 21.5269634238448 9.73376194439977
    vertex 27.1919313565934 21.543840886211 10.1380410014199
  endloop
endfacet
facet normal 1.5655221514867e-013 -0.907113501656143 0.420886083297048
  outer loop
    vertex 27.1919313565934 21.4060259275702 9.34762657088959
    vertex 21.1919313565934 21.5269634238438 9.73376194439977
    vertex 21.1919313565934 21.4060259275692 9.34762657088958
  endloop
endfacet
facet normal 1.7022594231479e-013 -0.985137692801063 0.171766487484024
  outer loop
    vertex 21.1919313565934 21.5269634238438 9.73376194439977
    vertex 27.1919313565934 21.4060259275702 9.34762657088959
    vertex 27.1919313565934 21.5269634238448 9.73376194439977
  endloop
endfacet
facet normal 1.32209713234935e-013 -0.767271024449298 0.641322988080518
  outer loop
    vertex 27.1919313565934 21.1892700878996 9.00594936847521
    vertex 21.1919313565934 21.4060259275692 9.34762657088958
    vertex 21.1919313565934 21.1892700878986 9.00594936847521
  endloop
endfacet
facet normal 1.5655221514867e-013 -0.907113501656143 0.420886083297048
  outer loop
    vertex 21.1919313565934 21.4060259275692 9.34762657088958
    vertex 27.1919313565934 21.1892700878996 9.00594936847521
    vertex 27.1919313565934 21.4060259275702 9.34762657088959
  endloop
endfacet
facet normal 9.88573378511223e-014 -0.575140294901555 0.818054791062648
  outer loop
    vertex 21.1919313565935 20.8914674570996 8.7320150738529
    vertex 27.1919313565934 21.1892700878996 9.00594936847521
    vertex 21.1919313565934 21.1892700878986 9.00594936847521
  endloop
endfacet
facet normal 1.32209713234935e-013 -0.767271024449298 0.641322988080518
  outer loop
    vertex 27.1919313565934 21.1892700878996 9.00594936847521
    vertex 21.1919313565935 20.8914674570996 8.7320150738529
    vertex 27.1919313565935 20.8914674571006 8.73201507385291
  endloop
endfacet
facet normal 5.876799826223e-014 -0.343814704720546 0.939037511933322
  outer loop
    vertex 21.1919313565936 20.532912792319 8.54449185650336
    vertex 27.1919313565935 20.8914674571006 8.73201507385291
    vertex 21.1919313565935 20.8914674570996 8.7320150738529
  endloop
endfacet
facet normal 9.88573378511223e-014 -0.575140294901555 0.818054791062648
  outer loop
    vertex 27.1919313565935 20.8914674571006 8.73201507385291
    vertex 21.1919313565936 20.532912792319 8.54449185650336
    vertex 27.1919313565936 20.53291279232 8.54449185650336
  endloop
endfacet
facet normal 1.4673716710476e-014 -0.089058710593496 0.996026378198602
  outer loop
    vertex 21.1919313565936 20.1380410014221 8.45615911379218
    vertex 27.1919313565936 20.53291279232 8.54449185650336
    vertex 21.1919313565936 20.532912792319 8.54449185650336
  endloop
endfacet
facet normal 5.876799826223e-014 -0.343814704720546 0.939037511933322
  outer loop
    vertex 27.1919313565936 20.53291279232 8.54449185650336
    vertex 21.1919313565936 20.1380410014221 8.45615911379218
    vertex 27.1919313565936 20.1380410014231 8.45615911379218
  endloop
endfacet
facet normal -3.04205543856339e-014 0.171766487484024 0.985137692801063
  outer loop
    vertex 21.1919313565937 19.7337619444019 8.47303657615836
    vertex 27.1919313565936 20.1380410014231 8.45615911379218
    vertex 21.1919313565936 20.1380410014221 8.45615911379218
  endloop
endfacet
facet normal 1.46737167104759e-014 -0.0890587105934957 0.996026378198602
  outer loop
    vertex 27.1919313565936 20.1380410014231 8.45615911379218
    vertex 21.1919313565937 19.7337619444019 8.47303657615836
    vertex 27.1919313565937 19.733761944403 8.47303657615836
  endloop
endfacet
facet normal -7.34417149727058e-014 0.420886083297049 0.907113501656143
  outer loop
    vertex 21.1919313565938 19.3476265708917 8.59397407243299
    vertex 27.1919313565937 19.733761944403 8.47303657615836
    vertex 21.1919313565937 19.7337619444019 8.47303657615836
  endloop
endfacet
facet normal -3.04205543856339e-014 0.171766487484024 0.985137692801062
  outer loop
    vertex 27.1919313565937 19.733761944403 8.47303657615836
    vertex 21.1919313565938 19.3476265708917 8.59397407243299
    vertex 27.1919313565938 19.3476265708928 8.59397407243299
  endloop
endfacet
facet normal -1.1145794405256e-013 0.641322988080518 0.767271024449299
  outer loop
    vertex 21.1919313565938 19.0059493684774 8.81072991210359
    vertex 27.1919313565938 19.3476265708928 8.59397407243299
    vertex 21.1919313565938 19.3476265708917 8.59397407243299
  endloop
endfacet
facet normal -7.34417149727057e-014 0.420886083297049 0.907113501656143
  outer loop
    vertex 27.1919313565938 19.3476265708928 8.59397407243299
    vertex 21.1919313565938 19.0059493684774 8.81072991210359
    vertex 27.1919313565938 19.0059493684784 8.8107299121036
  endloop
endfacet
facet normal -1.41878498438194e-013 0.818054791062649 0.575140294901554
  outer loop
    vertex 21.1919313565939 18.7320150738551 9.1085325429026
    vertex 27.1919313565938 19.0059493684784 8.8107299121036
    vertex 21.1919313565938 19.0059493684774 8.81072991210359
  endloop
endfacet
facet normal -1.1145794405256e-013 0.641322988080518 0.767271024449299
  outer loop
    vertex 27.1919313565938 19.0059493684784 8.8107299121036
    vertex 21.1919313565939 18.7320150738551 9.1085325429026
    vertex 27.1919313565939 18.7320150738561 9.1085325429026
  endloop
endfacet
facet normal -1.62630267620569e-013 0.939037511933322 0.343814704720545
  outer loop
    vertex 21.1919313565939 18.5444918565055 9.46708720768316
    vertex 27.1919313565939 18.7320150738561 9.1085325429026
    vertex 21.1919313565939 18.7320150738551 9.1085325429026
  endloop
endfacet
facet normal -1.41878498438194e-013 0.818054791062649 0.575140294901554
  outer loop
    vertex 27.1919313565939 18.7320150738561 9.1085325429026
    vertex 21.1919313565939 18.5444918565055 9.46708720768316
    vertex 27.1919313565939 18.5444918565066 9.46708720768317
  endloop
endfacet
facet normal -1.72299052823828e-013 0.996026378198602 0.0890587105934939
  outer loop
    vertex 21.1919313565939 18.4561591137943 9.86195899858009
    vertex 27.1919313565939 18.5444918565066 9.46708720768317
    vertex 21.1919313565939 18.5444918565055 9.46708720768316
  endloop
endfacet
facet normal -1.62630267620569e-013 0.939037511933322 0.343814704720545
  outer loop
    vertex 27.1919313565939 18.5444918565066 9.46708720768317
    vertex 21.1919313565939 18.4561591137943 9.86195899858009
    vertex 27.1919313565939 18.4561591137954 9.86195899858009
  endloop
endfacet
facet normal -1.7022594231479e-013 0.985137692801063 -0.171766487484024
  outer loop
    vertex 21.1919313565939 18.4730365761605 10.2662380556002
    vertex 27.1919313565939 18.4561591137954 9.86195899858009
    vertex 21.1919313565939 18.4561591137943 9.86195899858009
  endloop
endfacet
facet normal -1.72299052823828e-013 0.996026378198602 0.0890587105934938
  outer loop
    vertex 27.1919313565939 18.4561591137954 9.86195899858009
    vertex 21.1919313565939 18.4730365761605 10.2662380556002
    vertex 27.1919313565939 18.4730365761616 10.2662380556002
  endloop
endfacet
facet normal -1.5655221514867e-013 0.907113501656144 -0.420886083297047
  outer loop
    vertex 21.1919313565939 18.5939740724351 10.6523734291104
    vertex 27.1919313565939 18.4730365761616 10.2662380556002
    vertex 21.1919313565939 18.4730365761605 10.2662380556002
  endloop
endfacet
facet normal -1.7022594231479e-013 0.985137692801063 -0.171766487484023
  outer loop
    vertex 27.1919313565939 18.4730365761616 10.2662380556002
    vertex 21.1919313565939 18.5939740724351 10.6523734291104
    vertex 27.1919313565939 18.5939740724362 10.6523734291104
  endloop
endfacet
facet normal -1.32209713234935e-013 0.767271024449298 -0.641322988080518
  outer loop
    vertex 21.1919313565939 18.8107299121058 10.9940506315248
    vertex 27.1919313565939 18.5939740724362 10.6523734291104
    vertex 21.1919313565939 18.5939740724351 10.6523734291104
  endloop
endfacet
facet normal -1.5655221514867e-013 0.907113501656144 -0.420886083297048
  outer loop
    vertex 27.1919313565939 18.5939740724362 10.6523734291104
    vertex 21.1919313565939 18.8107299121058 10.9940506315248
    vertex 27.1919313565939 18.8107299121068 10.9940506315248
  endloop
endfacet
facet normal -9.88573378511221e-014 0.575140294901554 -0.818054791062649
  outer loop
    vertex 27.1919313565938 19.1085325429058 11.2679849261471
    vertex 21.1919313565939 18.8107299121058 10.9940506315248
    vertex 21.1919313565938 19.1085325429048 11.2679849261471
  endloop
endfacet
facet normal -1.32209713234935e-013 0.767271024449298 -0.641322988080518
  outer loop
    vertex 21.1919313565939 18.8107299121058 10.9940506315248
    vertex 27.1919313565938 19.1085325429058 11.2679849261471
    vertex 27.1919313565939 18.8107299121068 10.9940506315248
  endloop
endfacet
facet normal -5.876799826223e-014 0.343814704720546 -0.939037511933322
  outer loop
    vertex 27.1919313565937 19.4670872076864 11.4555081434967
    vertex 21.1919313565938 19.1085325429048 11.2679849261471
    vertex 21.1919313565937 19.4670872076853 11.4555081434967
  endloop
endfacet
facet normal -9.88573378511221e-014 0.575140294901553 -0.818054791062649
  outer loop
    vertex 21.1919313565938 19.1085325429048 11.2679849261471
    vertex 27.1919313565937 19.4670872076864 11.4555081434967
    vertex 27.1919313565938 19.1085325429058 11.2679849261471
  endloop
endfacet
facet normal -1.46737167104759e-014 0.0890587105934957 -0.996026378198602
  outer loop
    vertex 27.1919313565937 19.8619589985833 11.5438408862078
    vertex 21.1919313565937 19.4670872076853 11.4555081434967
    vertex 21.1919313565937 19.8619589985822 11.5438408862078
  endloop
endfacet
facet normal -5.876799826223e-014 0.343814704720546 -0.939037511933322
  outer loop
    vertex 21.1919313565937 19.4670872076853 11.4555081434967
    vertex 27.1919313565937 19.8619589985833 11.5438408862078
    vertex 27.1919313565937 19.4670872076864 11.4555081434967
  endloop
endfacet
facet normal 3.04205543856339e-014 -0.171766487484024 -0.985137692801063
  outer loop
    vertex 27.1919313565936 20.2662380556034 11.5269634238417
    vertex 21.1919313565937 19.8619589985822 11.5438408862078
    vertex 21.1919313565936 20.2662380556024 11.5269634238417
  endloop
endfacet
facet normal -1.4673716710476e-014 0.089058710593496 -0.996026378198602
  outer loop
    vertex 21.1919313565937 19.8619589985822 11.5438408862078
    vertex 27.1919313565936 20.2662380556034 11.5269634238417
    vertex 27.1919313565937 19.8619589985833 11.5438408862078
  endloop
endfacet
facet normal -0.0437630649133425 -0.999041938133425 0.0
  outer loop
    vertex 18.6061449189688 7.75000000000174 17.5
    vertex 7.19193135659566 8.24999999999992 2.5
    vertex 18.6061449189688 7.75000000000174 2.5
  endloop
endfacet
facet normal -0.0437630649133425 -0.999041938133425 0.0
  outer loop
    vertex 7.19193135659566 8.24999999999992 2.5
    vertex 18.6061449189688 7.75000000000174 17.5
    vertex 7.19193135659566 8.24999999999992 17.5
  endloop
endfacet
facet normal -1.55463413220166e-013 1.0 1.75831999846678e-015
  outer loop
    vertex 10.1919313565954 9.75000000000045 17.5
    vertex 17.9919313565954 9.75000000000163 2.5
    vertex 10.1919313565954 9.75000000000045 2.5
  endloop
endfacet
facet normal -1.55463413220166e-013 1.0 1.75831999846678e-015
  outer loop
    vertex 17.9919313565954 9.75000000000163 2.5
    vertex 10.1919313565954 9.75000000000045 17.5
    vertex 17.9919313565954 9.75000000000163 17.5
  endloop
endfacet
facet normal -1.55463413220166e-013 1.0 1.75831999846678e-015
  outer loop
    vertex 17.9919313565954 9.75000000000163 17.5
    vertex 10.1919313565954 9.75000000000045 17.5
    vertex 10.9613313565954 9.75000000000045 17.5
  endloop
endfacet
facet normal -1.0 -5.32973665201497e-014 6.01460506031413e-031
  outer loop
    vertex 7.19193135659539 13.2500000000004 17.5
    vertex 7.19193135659566 8.24999999999992 2.5
    vertex 7.19193135659566 8.24999999999992 17.5
  endloop
endfacet
facet normal -1.0 -5.32973665201497e-014 6.01460506031413e-031
  outer loop
    vertex 7.19193135659566 8.24999999999992 2.5
    vertex 7.19193135659539 13.2500000000004 17.5
    vertex 7.19193135659539 13.2500000000004 2.5
  endloop
endfacet
facet normal 0.0 0.0 1.0
  outer loop
    vertex 18.1919313565954 9.95000000000167 17.5
    vertex 18.5244474742993 30.5825161177092 17.5
    vertex 18.1919313565919 30.0500000000016 17.5
  endloop
endfacet
facet normal 0.0 0.0 1.0
  outer loop
    vertex 18.5244474742993 30.5825161177092 17.5
    vertex 18.1919313565954 9.95000000000167 17.5
    vertex 18.524447474303 9.41748388229422 17.5
  endloop
endfacet
facet normal 0.0 0.0 1.0
  outer loop
    vertex 7.19193135659566 8.24999999999992 17.5
    vertex 7.3909202668433 13.5014255114074 17.5
    vertex 7.19193135659539 13.2500000000004 17.5
  endloop
endfacet
facet normal 0.0 0.0 1.0
  outer loop
    vertex 7.3909202668433 13.5014255114074 17.5
    vertex 7.19193135659566 8.24999999999992 17.5
    vertex 10.1919313565954 9.75000000000045 17.5
  endloop
endfacet
facet normal 0.0 0.0 1.0
  outer loop
    vertex 10.1919313565954 9.75000000000045 17.5
    vertex 7.19193135659566 8.24999999999992 17.5
    vertex 18.6061449189688 7.75000000000174 17.5
  endloop
endfacet
facet normal 0.0 0.0 1.0
  outer loop
    vertex 7.3909202668433 13.5014255114074 17.5
    vertex 10.1919313565954 9.75000000000045 17.5
    vertex 7.63462642380706 13.7097970143675 17.5
  endloop
endfacet
facet normal 0.0 0.0 1.0
  outer loop
    vertex 7.63462642380706 13.7097970143675 17.5
    vertex 10.1919313565954 9.75000000000045 17.5
    vertex 7.91391593526419 13.8673049283844 17.5
  endloop
endfacet
facet normal 0.0 0.0 1.0
  outer loop
    vertex 7.91391593526419 13.8673049283844 17.5
    vertex 10.1919313565954 9.75000000000045 17.5
    vertex 8.21832127619067 13.9680459954987 17.5
  endloop
endfacet
facet normal 0.0 0.0 1.0
  outer loop
    vertex 8.21832127619067 13.9680459954987 17.5
    vertex 10.1919313565954 9.75000000000045 17.5
    vertex 8.53643360238407 14.0082445291999 17.5
  endloop
endfacet
facet normal 0.0 0.0 1.0
  outer loop
    vertex 8.53643360238407 14.0082445291999 17.5
    vertex 10.1919313565954 9.75000000000045 17.5
    vertex 8.85633034390074 13.9863939238326 17.5
  endloop
endfacet
facet normal 0.0 0.0 1.0
  outer loop
    vertex 8.85633034390074 13.9863939238326 17.5
    vertex 10.1919313565954 9.75000000000045 17.5
    vertex 9.16602205248159 13.9033131208503 17.5
  endloop
endfacet
facet normal 0.0 0.0 1.0
  outer loop
    vertex 9.16602205248159 13.9033131208503 17.5
    vertex 10.1919313565954 9.75000000000045 17.5
    vertex 9.4539017555182 13.7621159156108 17.5
  endloop
endfacet
facet normal 0.0 0.0 1.0
  outer loop
    vertex 9.4539017555182 13.7621159156108 17.5
    vertex 10.1919313565954 9.75000000000045 17.5
    vertex 9.70917997516834 13.568094255067 17.5
  endloop
endfacet
facet normal 0.0 0.0 1.0
  outer loop
    vertex 9.70917997516834 13.568094255067 17.5
    vertex 10.1919313565954 9.75000000000045 17.5
    vertex 9.92228910848718 13.3285199002542 17.5
  endloop
endfacet
facet normal 0.0 0.0 1.0
  outer loop
    vertex 9.92228910848718 13.3285199002542 17.5
    vertex 10.1919313565954 9.75000000000045 17.5
    vertex 10.0852420127631 13.0523718870874 17.5
  endloop
endfacet
facet normal 0.0 0.0 1.0
  outer loop
    vertex 10.1919313565954 9.75000000000045 17.5
    vertex 18.6061449189688 7.75000000000174 17.5
    vertex 10.9613313565954 9.75000000000045 17.5
  endloop
endfacet
facet normal 0.0 0.0 1.0
  outer loop
    vertex 10.9613313565954 9.75000000000045 17.5
    vertex 18.6061449189688 7.75000000000174 17.5
    vertex 17.9919313565954 9.75000000000163 17.5
  endloop
endfacet
facet normal 0.0 0.0 1.0
  outer loop
    vertex 17.9919313565954 9.75000000000163 17.5
    vertex 18.6061449189688 7.75000000000174 17.5
    vertex 18.524447474303 9.41748388229422 17.5
  endloop
endfacet
facet normal 0.0 0.0 1.0
  outer loop
    vertex 18.524447474303 9.41748388229422 17.5
    vertex 18.6061449189688 7.75000000000174 17.5
    vertex 18.6061449189646 32.2500000000017 17.5
  endloop
endfacet
facet normal 0.0 0.0 1.0
  outer loop
    vertex 18.6061449189646 32.2500000000017 17.5
    vertex 18.6061449189688 7.75000000000174 17.5
    vertex 20.1919313565918 30.6642135623751 17.5
  endloop
endfacet
facet normal 0.0 0.0 1.0
  outer loop
    vertex 20.1919313565918 30.6642135623751 17.5
    vertex 18.6061449189688 7.75000000000174 17.5
    vertex 20.1919313565955 9.33578643762894 17.5
  endloop
endfacet
facet normal 0.0 0.0 1.0
  outer loop
    vertex 20.1919313565918 30.6642135623751 17.5
    vertex 20.1919313565955 9.33578643762894 17.5
    vertex 27.1919313565918 30.6642135623763 17.5
  endloop
endfacet
facet normal 0.0 0.0 1.0
  outer loop
    vertex 27.1919313565918 30.6642135623763 17.5
    vertex 20.1919313565955 9.33578643762894 17.5
    vertex 27.1919313565955 9.33578643763014 17.5
  endloop
endfacet
facet normal 0.0 0.0 1.0
  outer loop
    vertex 7.19193135659197 29.7499999999999 17.5
    vertex 18.6061449189646 32.2500000000017 17.5
    vertex 7.19193135659162 31.7499999999999 17.5
  endloop
endfacet
facet normal 0.0 0.0 1.0
  outer loop
    vertex 18.6061449189646 32.2500000000017 17.5
    vertex 7.19193135659197 29.7499999999999 17.5
    vertex 10.1919313565919 30.2500000000004 17.5
  endloop
endfacet
facet normal 0.0 0.0 1.0
  outer loop
    vertex 10.1919313565919 30.2500000000004 17.5
    vertex 7.19193135659197 29.7499999999999 17.5
    vertex 7.91604023986392 29.1425774325689 17.5
  endloop
endfacet
facet normal 0.0 0.0 1.0
  outer loop
    vertex 10.1919313565919 30.2500000000004 17.5
    vertex 7.91604023986392 29.1425774325689 17.5
    vertex 8.85409351875425 29.0270270270272 17.5
  endloop
endfacet
facet normal 0.0 0.0 1.0
  outer loop
    vertex 10.1919313565919 30.2500000000004 17.5
    vertex 8.85409351875425 29.0270270270272 17.5
    vertex 9.703965407799 29.4405649605584 17.5
  endloop
endfacet
facet normal 0.0 0.0 1.0
  outer loop
    vertex 18.6061449189646 32.2500000000017 17.5
    vertex 10.1919313565919 30.2500000000004 17.5
    vertex 17.9919313565919 30.2500000000016 17.5
  endloop
endfacet
facet normal 0.0 0.0 1.0
  outer loop
    vertex 18.6061449189646 32.2500000000017 17.5
    vertex 17.9919313565919 30.2500000000016 17.5
    vertex 18.5244474742993 30.5825161177092 17.5
  endloop
endfacet
facet normal 0.0 0.0 1.0
  outer loop
    vertex 18.6061449189646 32.2500000000017 17.5
    vertex 18.5244474742993 30.5825161177092 17.5
    vertex 18.524447474303 9.41748388229422 17.5
  endloop
endfacet
facet normal 0.0 0.0 1.0
  outer loop
    vertex 10.1919313565954 12.7500000000004 17.5
    vertex 10.0852420127631 13.0523718870874 17.5
    vertex 10.1919313565954 9.75000000000045 17.5
  endloop
endfacet
facet normal 1.0 -0.0 -0.0
  outer loop
    vertex 10.1919313565954 12.7500000000004 2.5
    vertex 10.1919313565954 9.75000000000045 17.5
    vertex 10.1919313565954 9.75000000000045 2.5
  endloop
endfacet
facet normal 1.0 -0.0 -0.0
  outer loop
    vertex 10.1919313565954 9.75000000000045 17.5
    vertex 10.1919313565954 12.7500000000004 2.5
    vertex 10.1919313565954 12.7500000000004 17.5
  endloop
endfacet
facet normal 0.906383391146804 0.422456090325634 6.92976276028686e-034
  outer loop
    vertex 10.0852420127631 13.0523718870874 2.5
    vertex 10.1919313565954 12.7500000000004 17.5
    vertex 10.1919313565954 12.7500000000004 2.5
  endloop
endfacet
facet normal 0.943019836669452 0.332736513848302 1.37944423560906e-033
  outer loop
    vertex 10.1919313565954 12.7500000000004 17.5
    vertex 10.0852420127631 13.0523718870874 2.5
    vertex 10.0852420127631 13.0523718870874 17.5
  endloop
endfacet
facet normal 0.807996731961319 0.589186966199888 0.0
  outer loop
    vertex 9.92228910848718 13.3285199002542 2.5
    vertex 10.0852420127631 13.0523718870874 17.5
    vertex 10.0852420127631 13.0523718870874 2.5
  endloop
endfacet
facet normal 0.906383391146804 0.422456090325634 6.92976276028686e-034
  outer loop
    vertex 10.0852420127631 13.0523718870874 17.5
    vertex 9.92228910848718 13.3285199002542 2.5
    vertex 9.92228910848718 13.3285199002542 17.5
  endloop
endfacet
facet normal 0.679327066561263 0.733835633256705 0.0
  outer loop
    vertex 9.70917997516834 13.568094255067 2.5
    vertex 9.92228910848718 13.3285199002542 17.5
    vertex 9.92228910848718 13.3285199002542 2.5
  endloop
endfacet
facet normal 0.807996731961319 0.589186966199888 0.0
  outer loop
    vertex 9.92228910848718 13.3285199002542 17.5
    vertex 9.70917997516834 13.568094255067 2.5
    vertex 9.70917997516834 13.568094255067 17.5
  endloop
endfacet
facet normal 0.52519682073477 0.850980786792563 0.0
  outer loop
    vertex 9.4539017555182 13.7621159156108 17.5
    vertex 9.70917997516834 13.568094255067 2.5
    vertex 9.4539017555182 13.7621159156108 2.5
  endloop
endfacet
facet normal 0.679327066561263 0.733835633256705 0.0
  outer loop
    vertex 9.70917997516834 13.568094255067 2.5
    vertex 9.4539017555182 13.7621159156108 17.5
    vertex 9.70917997516834 13.568094255067 17.5
  endloop
endfacet
facet normal 0.351382660410775 0.936231929578695 0.0
  outer loop
    vertex 9.16602205248159 13.9033131208503 17.5
    vertex 9.4539017555182 13.7621159156108 2.5
    vertex 9.16602205248159 13.9033131208503 2.5
  endloop
endfacet
facet normal 0.52519682073477 0.850980786792563 0.0
  outer loop
    vertex 9.4539017555182 13.7621159156108 2.5
    vertex 9.16602205248159 13.9033131208503 17.5
    vertex 9.4539017555182 13.7621159156108 17.5
  endloop
endfacet
facet normal 0.164398987305358 0.986393923832144 0.0
  outer loop
    vertex 8.85633034390074 13.9863939238326 17.5
    vertex 9.16602205248159 13.9033131208503 2.5
    vertex 8.85633034390074 13.9863939238326 2.5
  endloop
endfacet
facet normal 0.351382660410775 0.936231929578695 0.0
  outer loop
    vertex 9.16602205248159 13.9033131208503 2.5
    vertex 8.85633034390074 13.9863939238326 17.5
    vertex 9.16602205248159 13.9033131208503 17.5
  endloop
endfacet
facet normal -0.0287462151198036 0.999586742167125 0.0
  outer loop
    vertex 8.53643360238407 14.0082445291999 17.5
    vertex 8.85633034390074 13.9863939238326 2.5
    vertex 8.53643360238407 14.0082445291999 2.5
  endloop
endfacet
facet normal 0.164398987305358 0.986393923832144 0.0
  outer loop
    vertex 8.85633034390074 13.9863939238326 2.5
    vertex 8.53643360238407 14.0082445291999 17.5
    vertex 8.85633034390074 13.9863939238326 17.5
  endloop
endfacet
facet normal -0.220814034708274 0.975315929366404 0.0
  outer loop
    vertex 8.21832127619067 13.9680459954987 17.5
    vertex 8.53643360238407 14.0082445291999 2.5
    vertex 8.21832127619067 13.9680459954987 2.5
  endloop
endfacet
facet normal -0.0287462151198036 0.999586742167125 0.0
  outer loop
    vertex 8.53643360238407 14.0082445291999 2.5
    vertex 8.21832127619067 13.9680459954987 17.5
    vertex 8.53643360238407 14.0082445291999 17.5
  endloop
endfacet
facet normal -0.404605938663884 0.914491134127564 0.0
  outer loop
    vertex 7.91391593526419 13.8673049283844 17.5
    vertex 8.21832127619067 13.9680459954987 2.5
    vertex 7.91391593526419 13.8673049283844 2.5
  endloop
endfacet
facet normal -0.220814034708274 0.975315929366404 0.0
  outer loop
    vertex 8.21832127619067 13.9680459954987 2.5
    vertex 7.91391593526419 13.8673049283844 17.5
    vertex 8.21832127619067 13.9680459954987 17.5
  endloop
endfacet
facet normal -0.573233568222905 0.819392016230593 0.0
  outer loop
    vertex 7.63462642380706 13.7097970143675 17.5
    vertex 7.91391593526419 13.8673049283844 2.5
    vertex 7.63462642380706 13.7097970143675 2.5
  endloop
endfacet
facet normal -0.404605938663884 0.914491134127564 0.0
  outer loop
    vertex 7.91391593526419 13.8673049283844 2.5
    vertex 7.63462642380706 13.7097970143675 17.5
    vertex 7.91391593526419 13.8673049283844 17.5
  endloop
endfacet
facet normal -0.720376908276503 0.693582806896182 1.0903607771445e-019
  outer loop
    vertex 7.3909202668433 13.5014255114074 17.5
    vertex 7.63462642380706 13.7097970143675 2.5
    vertex 7.3909202668433 13.5014255114074 2.5
  endloop
endfacet
facet normal -0.573233568222905 0.819392016230593 0.0
  outer loop
    vertex 7.63462642380706 13.7097970143675 2.5
    vertex 7.3909202668433 13.5014255114074 17.5
    vertex 7.63462642380706 13.7097970143675 17.5
  endloop
endfacet
facet normal -0.720376908276503 0.693582806896182 1.0903607771445e-019
  outer loop
    vertex 7.3909202668433 13.5014255114074 17.5
    vertex 7.19193135659539 13.2500000000004 2.5
    vertex 7.19193135659539 13.2500000000004 17.5
  endloop
endfacet
facet normal -0.784131246412197 0.620595027695239 2.17048106954809e-019
  outer loop
    vertex 7.19193135659539 13.2500000000004 2.5
    vertex 7.3909202668433 13.5014255114074 17.5
    vertex 7.3909202668433 13.5014255114074 2.5
  endloop
endfacet
facet normal 0.0 0.0 -1.0
  outer loop
    vertex 27.1919313565918 30.6642135623763 2.5
    vertex 20.1919313565955 9.33578643762894 2.5
    vertex 20.1919313565918 30.6642135623751 2.5
  endloop
endfacet
facet normal 0.0 0.0 -1.0
  outer loop
    vertex 20.1919313565955 9.33578643762894 2.5
    vertex 27.1919313565918 30.6642135623763 2.5
    vertex 27.1919313565955 9.33578643763014 2.5
  endloop
endfacet
facet normal 1.71413676903447e-013 -1.0 0.0
  outer loop
    vertex 27.1919313565955 9.33578643763014 17.5
    vertex 20.1919313565955 9.33578643762894 2.5
    vertex 27.1919313565955 9.33578643763014 2.5
  endloop
endfacet
facet normal 1.71413676903447e-013 -1.0 0.0
  outer loop
    vertex 20.1919313565955 9.33578643762894 2.5
    vertex 27.1919313565955 9.33578643763014 17.5
    vertex 20.1919313565955 9.33578643762894 17.5
  endloop
endfacet
facet normal -1.71615103080772e-013 1.0 -0.0
  outer loop
    vertex 20.1919313565918 30.6642135623751 17.5
    vertex 27.1919313565918 30.6642135623763 2.5
    vertex 20.1919313565918 30.6642135623751 2.5
  endloop
endfacet
facet normal -1.71615103080772e-013 1.0 -0.0
  outer loop
    vertex 27.1919313565918 30.6642135623763 2.5
    vertex 20.1919313565918 30.6642135623751 17.5
    vertex 27.1919313565918 30.6642135623763 17.5
  endloop
endfacet
facet normal 0.0 0.0 -1.0
  outer loop
    vertex 18.6061449189646 32.2500000000017 2.5
    vertex 7.19193135659197 29.7499999999999 2.5
    vertex 7.19193135659162 31.7499999999999 2.5
  endloop
endfacet
facet normal 0.0 0.0 -1.0
  outer loop
    vertex 7.19193135659197 29.7499999999999 2.5
    vertex 18.6061449189646 32.2500000000017 2.5
    vertex 10.1919313565919 30.2500000000004 2.5
  endloop
endfacet
facet normal 0.0 0.0 -1.0
  outer loop
    vertex 7.19193135659197 29.7499999999999 2.5
    vertex 10.1919313565919 30.2500000000004 2.5
    vertex 7.91604023986392 29.1425774325689 2.5
  endloop
endfacet
facet normal 0.0 0.0 -1.0
  outer loop
    vertex 7.91604023986392 29.1425774325689 2.5
    vertex 10.1919313565919 30.2500000000004 2.5
    vertex 8.85409351875425 29.0270270270272 2.5
  endloop
endfacet
facet normal 0.0 0.0 -1.0
  outer loop
    vertex 8.85409351875425 29.0270270270272 2.5
    vertex 10.1919313565919 30.2500000000004 2.5
    vertex 9.703965407799 29.4405649605584 2.5
  endloop
endfacet
facet normal 0.0 0.0 -1.0
  outer loop
    vertex 10.1919313565919 30.2500000000004 2.5
    vertex 18.6061449189646 32.2500000000017 2.5
    vertex 17.9919313565919 30.2500000000016 2.5
  endloop
endfacet
facet normal 0.0 0.0 -1.0
  outer loop
    vertex 17.9919313565919 30.2500000000016 2.5
    vertex 18.6061449189646 32.2500000000017 2.5
    vertex 18.5244474742993 30.5825161177092 2.5
  endloop
endfacet
facet normal 0.0 0.0 -1.0
  outer loop
    vertex 18.5244474742993 30.5825161177092 2.5
    vertex 18.6061449189646 32.2500000000017 2.5
    vertex 18.524447474303 9.41748388229422 2.5
  endloop
endfacet
facet normal 0.0 0.0 -1.0
  outer loop
    vertex 7.3909202668433 13.5014255114074 2.5
    vertex 7.19193135659566 8.24999999999992 2.5
    vertex 7.19193135659539 13.2500000000004 2.5
  endloop
endfacet
facet normal 0.0 0.0 -1.0
  outer loop
    vertex 7.19193135659566 8.24999999999992 2.5
    vertex 7.3909202668433 13.5014255114074 2.5
    vertex 10.1919313565954 9.75000000000045 2.5
  endloop
endfacet
facet normal 0.0 0.0 -1.0
  outer loop
    vertex 7.19193135659566 8.24999999999992 2.5
    vertex 10.1919313565954 9.75000000000045 2.5
    vertex 18.6061449189688 7.75000000000174 2.5
  endloop
endfacet
facet normal 0.0 0.0 -1.0
  outer loop
    vertex 10.1919313565954 9.75000000000045 2.5
    vertex 7.3909202668433 13.5014255114074 2.5
    vertex 7.63462642380706 13.7097970143675 2.5
  endloop
endfacet
facet normal 0.0 0.0 -1.0
  outer loop
    vertex 10.1919313565954 9.75000000000045 2.5
    vertex 7.63462642380706 13.7097970143675 2.5
    vertex 7.91391593526419 13.8673049283844 2.5
  endloop
endfacet
facet normal 0.0 0.0 -1.0
  outer loop
    vertex 10.1919313565954 9.75000000000045 2.5
    vertex 7.91391593526419 13.8673049283844 2.5
    vertex 8.21832127619067 13.9680459954987 2.5
  endloop
endfacet
facet normal 0.0 0.0 -1.0
  outer loop
    vertex 10.1919313565954 9.75000000000045 2.5
    vertex 8.21832127619067 13.9680459954987 2.5
    vertex 8.53643360238407 14.0082445291999 2.5
  endloop
endfacet
facet normal 0.0 0.0 -1.0
  outer loop
    vertex 10.1919313565954 9.75000000000045 2.5
    vertex 8.53643360238407 14.0082445291999 2.5
    vertex 8.85633034390074 13.9863939238326 2.5
  endloop
endfacet
facet normal 0.0 0.0 -1.0
  outer loop
    vertex 10.1919313565954 9.75000000000045 2.5
    vertex 8.85633034390074 13.9863939238326 2.5
    vertex 9.16602205248159 13.9033131208503 2.5
  endloop
endfacet
facet normal 0.0 0.0 -1.0
  outer loop
    vertex 10.1919313565954 9.75000000000045 2.5
    vertex 9.16602205248159 13.9033131208503 2.5
    vertex 9.4539017555182 13.7621159156108 2.5
  endloop
endfacet
facet normal 0.0 0.0 -1.0
  outer loop
    vertex 10.1919313565954 9.75000000000045 2.5
    vertex 9.4539017555182 13.7621159156108 2.5
    vertex 9.70917997516834 13.568094255067 2.5
  endloop
endfacet
facet normal 0.0 0.0 -1.0
  outer loop
    vertex 10.1919313565954 9.75000000000045 2.5
    vertex 9.70917997516834 13.568094255067 2.5
    vertex 9.92228910848718 13.3285199002542 2.5
  endloop
endfacet
facet normal 0.0 0.0 -1.0
  outer loop
    vertex 10.1919313565954 9.75000000000045 2.5
    vertex 9.92228910848718 13.3285199002542 2.5
    vertex 10.0852420127631 13.0523718870874 2.5
  endloop
endfacet
facet normal 0.0 0.0 -1.0
  outer loop
    vertex 10.1919313565954 9.75000000000045 2.5
    vertex 10.0852420127631 13.0523718870874 2.5
    vertex 10.1919313565954 12.7500000000004 2.5
  endloop
endfacet
facet normal 0.0 0.0 -1.0
  outer loop
    vertex 18.6061449189688 7.75000000000174 2.5
    vertex 10.1919313565954 9.75000000000045 2.5
    vertex 17.9919313565954 9.75000000000163 2.5
  endloop
endfacet
facet normal 0.0 0.0 -1.0
  outer loop
    vertex 18.6061449189688 7.75000000000174 2.5
    vertex 17.9919313565954 9.75000000000163 2.5
    vertex 18.524447474303 9.41748388229422 2.5
  endloop
endfacet
facet normal 0.0 0.0 -1.0
  outer loop
    vertex 18.6061449189688 7.75000000000174 2.5
    vertex 18.524447474303 9.41748388229422 2.5
    vertex 18.6061449189646 32.2500000000017 2.5
  endloop
endfacet
facet normal 0.0 0.0 -1.0
  outer loop
    vertex 18.6061449189688 7.75000000000174 2.5
    vertex 18.6061449189646 32.2500000000017 2.5
    vertex 20.1919313565918 30.6642135623751 2.5
  endloop
endfacet
facet normal 0.0 0.0 -1.0
  outer loop
    vertex 18.6061449189688 7.75000000000174 2.5
    vertex 20.1919313565918 30.6642135623751 2.5
    vertex 20.1919313565955 9.33578643762894 2.5
  endloop
endfacet
facet normal 0.0 0.0 -1.0
  outer loop
    vertex 18.5244474742993 30.5825161177092 2.5
    vertex 18.1919313565954 9.95000000000167 2.5
    vertex 18.1919313565919 30.0500000000016 2.5
  endloop
endfacet
facet normal 0.0 0.0 -1.0
  outer loop
    vertex 18.1919313565954 9.95000000000167 2.5
    vertex 18.5244474742993 30.5825161177092 2.5
    vertex 18.524447474303 9.41748388229422 2.5
  endloop
endfacet
endsolid 2020_Wire_Clip_m3_mounthole_v2_smaller
