solid OpenSCAD_Model
  facet normal 0 0 -1
    outer loop
      vertex -25 0 -35
      vertex -24.4537 5.19779 -35
      vertex -24.4537 -5.19779 -35
    endloop
  endfacet
  facet normal 0 0 -1
    outer loop
      vertex -24.4537 -5.19779 -35
      vertex -24.4537 5.19779 -35
      vertex -22.8386 10.1684 -35
    endloop
  endfacet
  facet normal 0 0 -1
    outer loop
      vertex -24.4537 -5.19779 -35
      vertex -22.8386 10.1684 -35
      vertex -20.2254 14.6946 -35
    endloop
  endfacet
  facet normal 0 0 -1
    outer loop
      vertex -24.4537 -5.19779 -35
      vertex -20.2254 14.6946 -35
      vertex -16.7283 18.5786 -35
    endloop
  endfacet
  facet normal 0 0 -1
    outer loop
      vertex -24.4537 -5.19779 -35
      vertex -16.7283 18.5786 -35
      vertex -12.5 21.6506 -35
    endloop
  endfacet
  facet normal 0 0 -1
    outer loop
      vertex -24.4537 -5.19779 -35
      vertex -12.5 21.6506 -35
      vertex -7.72542 23.7764 -35
    endloop
  endfacet
  facet normal 0 0 -1
    outer loop
      vertex -24.4537 -5.19779 -35
      vertex -7.72542 23.7764 -35
      vertex -2.61321 24.863 -35
    endloop
  endfacet
  facet normal 0 0 -1
    outer loop
      vertex -24.4537 -5.19779 -35
      vertex -2.61321 24.863 -35
      vertex 2.61321 24.863 -35
    endloop
  endfacet
  facet normal 0 0 -1
    outer loop
      vertex -24.4537 -5.19779 -35
      vertex 2.61321 24.863 -35
      vertex 7.72542 23.7764 -35
    endloop
  endfacet
  facet normal 0 0 -1
    outer loop
      vertex -24.4537 -5.19779 -35
      vertex 7.72542 23.7764 -35
      vertex 12.5 21.6506 -35
    endloop
  endfacet
  facet normal 0 0 -1
    outer loop
      vertex 0 10 -35
      vertex 12.5 21.6506 -35
      vertex 16.7283 18.5786 -35
    endloop
  endfacet
  facet normal 0 0 -1
    outer loop
      vertex 10 10 -35
      vertex 20.2254 14.6946 -35
      vertex 22.8386 10.1684 -35
    endloop
  endfacet
  facet normal 0 0 -1
    outer loop
      vertex 10 10 -35
      vertex 22.8386 10.1684 -35
      vertex 24.4537 5.19779 -35
    endloop
  endfacet
  facet normal 0 0 -1
    outer loop
      vertex -24.4537 -5.19779 -35
      vertex 25 0 -35
      vertex 24.4537 -5.19779 -35
    endloop
  endfacet
  facet normal 0 0 -1
    outer loop
      vertex -24.4537 -5.19779 -35
      vertex 24.4537 -5.19779 -35
      vertex 22.8386 -10.1684 -35
    endloop
  endfacet
  facet normal 0 0 -1
    outer loop
      vertex -24.4537 -5.19779 -35
      vertex 22.8386 -10.1684 -35
      vertex 20.2254 -14.6946 -35
    endloop
  endfacet
  facet normal 0 0 -1
    outer loop
      vertex -24.4537 -5.19779 -35
      vertex 20.2254 -14.6946 -35
      vertex 16.7283 -18.5786 -35
    endloop
  endfacet
  facet normal 0 0 -1
    outer loop
      vertex -24.4537 -5.19779 -35
      vertex 16.7283 -18.5786 -35
      vertex 12.5 -21.6506 -35
    endloop
  endfacet
  facet normal 0 0 -1
    outer loop
      vertex -24.4537 -5.19779 -35
      vertex 12.5 -21.6506 -35
      vertex 7.72542 -23.7764 -35
    endloop
  endfacet
  facet normal 0 0 -1
    outer loop
      vertex -24.4537 -5.19779 -35
      vertex 7.72542 -23.7764 -35
      vertex 2.61321 -24.863 -35
    endloop
  endfacet
  facet normal 0 0 -1
    outer loop
      vertex -24.4537 -5.19779 -35
      vertex 2.61321 -24.863 -35
      vertex -2.61321 -24.863 -35
    endloop
  endfacet
  facet normal 0 0 -1
    outer loop
      vertex -24.4537 -5.19779 -35
      vertex -2.61321 -24.863 -35
      vertex -7.72542 -23.7764 -35
    endloop
  endfacet
  facet normal 0 0 -1
    outer loop
      vertex -24.4537 -5.19779 -35
      vertex -7.72542 -23.7764 -35
      vertex -12.5 -21.6506 -35
    endloop
  endfacet
  facet normal 0 0 -1
    outer loop
      vertex -24.4537 -5.19779 -35
      vertex -12.5 -21.6506 -35
      vertex -16.7283 -18.5786 -35
    endloop
  endfacet
  facet normal 0 0 -1
    outer loop
      vertex -24.4537 -5.19779 -35
      vertex -16.7283 -18.5786 -35
      vertex -20.2254 -14.6946 -35
    endloop
  endfacet
  facet normal 0 0 -1
    outer loop
      vertex -24.4537 -5.19779 -35
      vertex -20.2254 -14.6946 -35
      vertex -22.8386 -10.1684 -35
    endloop
  endfacet
  facet normal 0 0 -1
    outer loop
      vertex -24.4537 -5.19779 -35
      vertex 12.5 21.6506 -35
      vertex 0 10 -35
    endloop
  endfacet
  facet normal 0 0 -1
    outer loop
      vertex 0 0 -35
      vertex -24.4537 -5.19779 -35
      vertex 0 10 -35
    endloop
  endfacet
  facet normal 0 0 -1
    outer loop
      vertex 10 0 -35
      vertex 24.4537 5.19779 -35
      vertex 25 0 -35
    endloop
  endfacet
  facet normal 0 0 -1
    outer loop
      vertex -24.4537 -5.19779 -35
      vertex 0 0 -35
      vertex 10 0 -35
    endloop
  endfacet
  facet normal 0 0 -1
    outer loop
      vertex -24.4537 -5.19779 -35
      vertex 10 0 -35
      vertex 25 0 -35
    endloop
  endfacet
  facet normal 0 0 -1
    outer loop
      vertex 10 10 -35
      vertex 24.4537 5.19779 -35
      vertex 10 0 -35
    endloop
  endfacet
  facet normal 0 0 -1
    outer loop
      vertex 0 10 -35
      vertex 16.7283 18.5786 -35
      vertex 20.2254 14.6946 -35
    endloop
  endfacet
  facet normal 0 0 -1
    outer loop
      vertex 0 10 -35
      vertex 20.2254 14.6946 -35
      vertex 10 10 -35
    endloop
  endfacet
  facet normal -0.994522 0.104528 0
    outer loop
      vertex -25 0 -35
      vertex -25 0 35
      vertex -24.4537 5.19779 -35
    endloop
  endfacet
  facet normal -0.994522 0.104528 0
    outer loop
      vertex -24.4537 5.19779 -35
      vertex -25 0 35
      vertex -24.4537 5.19779 35
    endloop
  endfacet
  facet normal -0.994522 -0.104528 0
    outer loop
      vertex -25 0 -35
      vertex -24.4537 -5.19779 -35
      vertex -25 0 35
    endloop
  endfacet
  facet normal -0.994522 -0.104528 0
    outer loop
      vertex -25 0 35
      vertex -24.4537 -5.19779 -35
      vertex -24.4537 -5.19779 35
    endloop
  endfacet
  facet normal -0.951056 -0.309017 0
    outer loop
      vertex -24.4537 -5.19779 -35
      vertex -22.8386 -10.1684 -35
      vertex -24.4537 -5.19779 35
    endloop
  endfacet
  facet normal -0.951056 -0.309017 0
    outer loop
      vertex -24.4537 -5.19779 35
      vertex -22.8386 -10.1684 -35
      vertex -22.8386 -10.1684 35
    endloop
  endfacet
  facet normal -0.866025 -0.5 0
    outer loop
      vertex -22.8386 -10.1684 -35
      vertex -20.2254 -14.6946 -35
      vertex -22.8386 -10.1684 35
    endloop
  endfacet
  facet normal -0.866025 -0.5 0
    outer loop
      vertex -22.8386 -10.1684 35
      vertex -20.2254 -14.6946 -35
      vertex -20.2254 -14.6946 35
    endloop
  endfacet
  facet normal -0.743145 -0.669131 0
    outer loop
      vertex -20.2254 -14.6946 -35
      vertex -16.7283 -18.5786 -35
      vertex -20.2254 -14.6946 35
    endloop
  endfacet
  facet normal -0.743145 -0.669131 0
    outer loop
      vertex -20.2254 -14.6946 35
      vertex -16.7283 -18.5786 -35
      vertex -16.7283 -18.5786 35
    endloop
  endfacet
  facet normal -0.587785 -0.809017 0
    outer loop
      vertex -16.7283 -18.5786 35
      vertex -16.7283 -18.5786 -35
      vertex -12.5 -21.6506 -35
    endloop
  endfacet
  facet normal -0.587785 -0.809017 0
    outer loop
      vertex -12.5 -21.6506 35
      vertex -16.7283 -18.5786 35
      vertex -12.5 -21.6506 -35
    endloop
  endfacet
  facet normal -0.406737 -0.913545 0
    outer loop
      vertex -12.5 -21.6506 35
      vertex -12.5 -21.6506 -35
      vertex -7.72542 -23.7764 -35
    endloop
  endfacet
  facet normal -0.406737 -0.913545 0
    outer loop
      vertex -7.72542 -23.7764 35
      vertex -12.5 -21.6506 35
      vertex -7.72542 -23.7764 -35
    endloop
  endfacet
  facet normal -0.207912 -0.978148 0
    outer loop
      vertex -7.72542 -23.7764 35
      vertex -7.72542 -23.7764 -35
      vertex -2.61321 -24.863 -35
    endloop
  endfacet
  facet normal -0.207912 -0.978148 0
    outer loop
      vertex -2.61321 -24.863 35
      vertex -7.72542 -23.7764 35
      vertex -2.61321 -24.863 -35
    endloop
  endfacet
  facet normal 0 -1 0
    outer loop
      vertex -2.61321 -24.863 35
      vertex -2.61321 -24.863 -35
      vertex 2.61321 -24.863 -35
    endloop
  endfacet
  facet normal 0 -1 0
    outer loop
      vertex 2.61321 -24.863 35
      vertex -2.61321 -24.863 35
      vertex 2.61321 -24.863 -35
    endloop
  endfacet
  facet normal 0.207912 -0.978148 0
    outer loop
      vertex 2.61321 -24.863 35
      vertex 2.61321 -24.863 -35
      vertex 7.72542 -23.7764 -35
    endloop
  endfacet
  facet normal 0.207912 -0.978148 0
    outer loop
      vertex 7.72542 -23.7764 35
      vertex 2.61321 -24.863 35
      vertex 7.72542 -23.7764 -35
    endloop
  endfacet
  facet normal 0.406737 -0.913545 0
    outer loop
      vertex 7.72542 -23.7764 35
      vertex 7.72542 -23.7764 -35
      vertex 12.5 -21.6506 -35
    endloop
  endfacet
  facet normal 0.406737 -0.913545 0
    outer loop
      vertex 12.5 -21.6506 35
      vertex 7.72542 -23.7764 35
      vertex 12.5 -21.6506 -35
    endloop
  endfacet
  facet normal 0.587785 -0.809017 0
    outer loop
      vertex 12.5 -21.6506 35
      vertex 12.5 -21.6506 -35
      vertex 16.7283 -18.5786 -35
    endloop
  endfacet
  facet normal 0.587785 -0.809017 0
    outer loop
      vertex 16.7283 -18.5786 35
      vertex 12.5 -21.6506 35
      vertex 16.7283 -18.5786 -35
    endloop
  endfacet
  facet normal 0.743145 -0.669131 0
    outer loop
      vertex 16.7283 -18.5786 35
      vertex 16.7283 -18.5786 -35
      vertex 20.2254 -14.6946 -35
    endloop
  endfacet
  facet normal 0.743145 -0.669131 0
    outer loop
      vertex 20.2254 -14.6946 35
      vertex 16.7283 -18.5786 35
      vertex 20.2254 -14.6946 -35
    endloop
  endfacet
  facet normal 0.866025 -0.5 0
    outer loop
      vertex 20.2254 -14.6946 35
      vertex 20.2254 -14.6946 -35
      vertex 22.8386 -10.1684 -35
    endloop
  endfacet
  facet normal 0.866025 -0.5 0
    outer loop
      vertex 22.8386 -10.1684 35
      vertex 20.2254 -14.6946 35
      vertex 22.8386 -10.1684 -35
    endloop
  endfacet
  facet normal 0.951056 -0.309017 0
    outer loop
      vertex 22.8386 -10.1684 35
      vertex 22.8386 -10.1684 -35
      vertex 24.4537 -5.19779 -35
    endloop
  endfacet
  facet normal 0.951056 -0.309017 0
    outer loop
      vertex 24.4537 -5.19779 35
      vertex 22.8386 -10.1684 35
      vertex 24.4537 -5.19779 -35
    endloop
  endfacet
  facet normal 0.994522 -0.104528 0
    outer loop
      vertex 24.4537 -5.19779 35
      vertex 24.4537 -5.19779 -35
      vertex 25 0 -35
    endloop
  endfacet
  facet normal 0.994522 -0.104528 0
    outer loop
      vertex 25 0 35
      vertex 24.4537 -5.19779 35
      vertex 25 0 -35
    endloop
  endfacet
  facet normal 0.994522 0.104528 0
    outer loop
      vertex 25 0 -35
      vertex 24.4537 5.19779 -35
      vertex 24.4537 5.19779 35
    endloop
  endfacet
  facet normal 0.994522 0.104528 0
    outer loop
      vertex 25 0 35
      vertex 25 0 -35
      vertex 24.4537 5.19779 35
    endloop
  endfacet
  facet normal 0.951056 0.309017 0
    outer loop
      vertex 24.4537 5.19779 -35
      vertex 22.8386 10.1684 -35
      vertex 22.8386 10.1684 35
    endloop
  endfacet
  facet normal 0.951056 0.309017 0
    outer loop
      vertex 24.4537 5.19779 35
      vertex 24.4537 5.19779 -35
      vertex 22.8386 10.1684 35
    endloop
  endfacet
  facet normal 0.866025 0.5 0
    outer loop
      vertex 22.8386 10.1684 -35
      vertex 20.2254 14.6946 -35
      vertex 20.2254 14.6946 35
    endloop
  endfacet
  facet normal 0.866025 0.5 0
    outer loop
      vertex 22.8386 10.1684 35
      vertex 22.8386 10.1684 -35
      vertex 20.2254 14.6946 35
    endloop
  endfacet
  facet normal 0.743145 0.669131 0
    outer loop
      vertex 20.2254 14.6946 -35
      vertex 16.7283 18.5786 -35
      vertex 16.7283 18.5786 35
    endloop
  endfacet
  facet normal 0.743145 0.669131 0
    outer loop
      vertex 20.2254 14.6946 35
      vertex 20.2254 14.6946 -35
      vertex 16.7283 18.5786 35
    endloop
  endfacet
  facet normal 0.587785 0.809017 0
    outer loop
      vertex 12.5 21.6506 -35
      vertex 12.5 21.6506 35
      vertex 16.7283 18.5786 -35
    endloop
  endfacet
  facet normal 0.587785 0.809017 0
    outer loop
      vertex 16.7283 18.5786 -35
      vertex 12.5 21.6506 35
      vertex 16.7283 18.5786 35
    endloop
  endfacet
  facet normal 0.406737 0.913545 0
    outer loop
      vertex 7.72542 23.7764 -35
      vertex 7.72542 23.7764 35
      vertex 12.5 21.6506 -35
    endloop
  endfacet
  facet normal 0.406737 0.913545 0
    outer loop
      vertex 12.5 21.6506 -35
      vertex 7.72542 23.7764 35
      vertex 12.5 21.6506 35
    endloop
  endfacet
  facet normal 0.207912 0.978148 0
    outer loop
      vertex 2.61321 24.863 -35
      vertex 2.61321 24.863 35
      vertex 7.72542 23.7764 -35
    endloop
  endfacet
  facet normal 0.207912 0.978148 0
    outer loop
      vertex 7.72542 23.7764 -35
      vertex 2.61321 24.863 35
      vertex 7.72542 23.7764 35
    endloop
  endfacet
  facet normal 0 1 0
    outer loop
      vertex -2.61321 24.863 -35
      vertex -2.61321 24.863 35
      vertex 2.61321 24.863 -35
    endloop
  endfacet
  facet normal 0 1 0
    outer loop
      vertex 2.61321 24.863 -35
      vertex -2.61321 24.863 35
      vertex 2.61321 24.863 35
    endloop
  endfacet
  facet normal -0.207912 0.978148 0
    outer loop
      vertex -7.72542 23.7764 -35
      vertex -7.72542 23.7764 35
      vertex -2.61321 24.863 -35
    endloop
  endfacet
  facet normal -0.207912 0.978148 0
    outer loop
      vertex -2.61321 24.863 -35
      vertex -7.72542 23.7764 35
      vertex -2.61321 24.863 35
    endloop
  endfacet
  facet normal -0.406737 0.913545 0
    outer loop
      vertex -12.5 21.6506 -35
      vertex -12.5 21.6506 35
      vertex -7.72542 23.7764 -35
    endloop
  endfacet
  facet normal -0.406737 0.913545 0
    outer loop
      vertex -7.72542 23.7764 -35
      vertex -12.5 21.6506 35
      vertex -7.72542 23.7764 35
    endloop
  endfacet
  facet normal -0.587785 0.809017 0
    outer loop
      vertex -16.7283 18.5786 -35
      vertex -16.7283 18.5786 35
      vertex -12.5 21.6506 -35
    endloop
  endfacet
  facet normal -0.587785 0.809017 0
    outer loop
      vertex -12.5 21.6506 -35
      vertex -16.7283 18.5786 35
      vertex -12.5 21.6506 35
    endloop
  endfacet
  facet normal -0.743145 0.669131 0
    outer loop
      vertex -20.2254 14.6946 -35
      vertex -20.2254 14.6946 35
      vertex -16.7283 18.5786 -35
    endloop
  endfacet
  facet normal -0.743145 0.669131 0
    outer loop
      vertex -16.7283 18.5786 -35
      vertex -20.2254 14.6946 35
      vertex -16.7283 18.5786 35
    endloop
  endfacet
  facet normal -0.866025 0.5 0
    outer loop
      vertex -22.8386 10.1684 -35
      vertex -22.8386 10.1684 35
      vertex -20.2254 14.6946 -35
    endloop
  endfacet
  facet normal -0.866025 0.5 0
    outer loop
      vertex -20.2254 14.6946 -35
      vertex -22.8386 10.1684 35
      vertex -20.2254 14.6946 35
    endloop
  endfacet
  facet normal -0.951056 0.309017 0
    outer loop
      vertex -24.4537 5.19779 -35
      vertex -24.4537 5.19779 35
      vertex -22.8386 10.1684 -35
    endloop
  endfacet
  facet normal -0.951056 0.309017 0
    outer loop
      vertex -22.8386 10.1684 -35
      vertex -24.4537 5.19779 35
      vertex -22.8386 10.1684 35
    endloop
  endfacet
  facet normal -1 0 0
    outer loop
      vertex 0 0 -45
      vertex 0 0 -35
      vertex 0 10 -45
    endloop
  endfacet
  facet normal -1 0 0
    outer loop
      vertex 0 10 -45
      vertex 0 0 -35
      vertex 0 10 -35
    endloop
  endfacet
  facet normal 0 1 0
    outer loop
      vertex 0 10 -45
      vertex 0 10 -35
      vertex 10 10 -45
    endloop
  endfacet
  facet normal 0 1 0
    outer loop
      vertex 10 10 -45
      vertex 0 10 -35
      vertex 10 10 -35
    endloop
  endfacet
  facet normal 1 0 0
    outer loop
      vertex 10 0 -35
      vertex 10 0 -45
      vertex 10 10 -45
    endloop
  endfacet
  facet normal 1 0 0
    outer loop
      vertex 10 10 -35
      vertex 10 0 -35
      vertex 10 10 -45
    endloop
  endfacet
  facet normal 0 -1 0
    outer loop
      vertex 0 0 -35
      vertex 0 0 -45
      vertex 10 0 -45
    endloop
  endfacet
  facet normal 0 -1 0
    outer loop
      vertex 10 0 -35
      vertex 0 0 -35
      vertex 10 0 -45
    endloop
  endfacet
  facet normal 0 0 1
    outer loop
      vertex -24.4537 5.19779 35
      vertex -25 0 35
      vertex -24.4537 -5.19779 35
    endloop
  endfacet
  facet normal 0 0 1
    outer loop
      vertex -20.2254 -14.6946 35
      vertex -24.4537 5.19779 35
      vertex -22.8386 -10.1684 35
    endloop
  endfacet
  facet normal 0 0 1
    outer loop
      vertex -22.8386 -10.1684 35
      vertex -24.4537 5.19779 35
      vertex -24.4537 -5.19779 35
    endloop
  endfacet
  facet normal 0 0 1
    outer loop
      vertex -16.7283 -18.5786 35
      vertex -24.4537 5.19779 35
      vertex -20.2254 -14.6946 35
    endloop
  endfacet
  facet normal 0 0 1
    outer loop
      vertex -12.5 -21.6506 35
      vertex -24.4537 5.19779 35
      vertex -16.7283 -18.5786 35
    endloop
  endfacet
  facet normal 0 0 1
    outer loop
      vertex -7.72542 -23.7764 35
      vertex -24.4537 5.19779 35
      vertex -12.5 -21.6506 35
    endloop
  endfacet
  facet normal 0 0 1
    outer loop
      vertex -2.61321 -24.863 35
      vertex -24.4537 5.19779 35
      vertex -7.72542 -23.7764 35
    endloop
  endfacet
  facet normal 0 0 1
    outer loop
      vertex 2.61321 -24.863 35
      vertex -24.4537 5.19779 35
      vertex -2.61321 -24.863 35
    endloop
  endfacet
  facet normal 0 0 1
    outer loop
      vertex 7.72542 -23.7764 35
      vertex -24.4537 5.19779 35
      vertex 2.61321 -24.863 35
    endloop
  endfacet
  facet normal 0 0 1
    outer loop
      vertex 12.5 -21.6506 35
      vertex -24.4537 5.19779 35
      vertex 7.72542 -23.7764 35
    endloop
  endfacet
  facet normal 0 0 1
    outer loop
      vertex 16.7283 -18.5786 35
      vertex -24.4537 5.19779 35
      vertex 12.5 -21.6506 35
    endloop
  endfacet
  facet normal 0 0 1
    outer loop
      vertex 20.2254 -14.6946 35
      vertex -24.4537 5.19779 35
      vertex 16.7283 -18.5786 35
    endloop
  endfacet
  facet normal 0 0 1
    outer loop
      vertex 22.8386 -10.1684 35
      vertex -24.4537 5.19779 35
      vertex 20.2254 -14.6946 35
    endloop
  endfacet
  facet normal 0 0 1
    outer loop
      vertex 24.4537 -5.19779 35
      vertex 0 0 35
      vertex 22.8386 -10.1684 35
    endloop
  endfacet
  facet normal 0 0 1
    outer loop
      vertex 0 0 35
      vertex -24.4537 5.19779 35
      vertex 22.8386 -10.1684 35
    endloop
  endfacet
  facet normal 0 0 1
    outer loop
      vertex 10 10 35
      vertex 10 0 35
      vertex 25 0 35
    endloop
  endfacet
  facet normal 0 0 1
    outer loop
      vertex 10 10 35
      vertex 25 0 35
      vertex 24.4537 5.19779 35
    endloop
  endfacet
  facet normal 0 0 1
    outer loop
      vertex 16.7283 18.5786 35
      vertex -24.4537 5.19779 35
      vertex 20.2254 14.6946 35
    endloop
  endfacet
  facet normal 0 0 1
    outer loop
      vertex 12.5 21.6506 35
      vertex -24.4537 5.19779 35
      vertex 16.7283 18.5786 35
    endloop
  endfacet
  facet normal 0 0 1
    outer loop
      vertex 7.72542 23.7764 35
      vertex -24.4537 5.19779 35
      vertex 12.5 21.6506 35
    endloop
  endfacet
  facet normal 0 0 1
    outer loop
      vertex 2.61321 24.863 35
      vertex -24.4537 5.19779 35
      vertex 7.72542 23.7764 35
    endloop
  endfacet
  facet normal 0 0 1
    outer loop
      vertex -2.61321 24.863 35
      vertex -24.4537 5.19779 35
      vertex 2.61321 24.863 35
    endloop
  endfacet
  facet normal 0 0 1
    outer loop
      vertex -7.72542 23.7764 35
      vertex -24.4537 5.19779 35
      vertex -2.61321 24.863 35
    endloop
  endfacet
  facet normal 0 0 1
    outer loop
      vertex -12.5 21.6506 35
      vertex -24.4537 5.19779 35
      vertex -7.72542 23.7764 35
    endloop
  endfacet
  facet normal 0 0 1
    outer loop
      vertex -16.7283 18.5786 35
      vertex -24.4537 5.19779 35
      vertex -12.5 21.6506 35
    endloop
  endfacet
  facet normal 0 0 1
    outer loop
      vertex -20.2254 14.6946 35
      vertex -24.4537 5.19779 35
      vertex -16.7283 18.5786 35
    endloop
  endfacet
  facet normal 0 0 1
    outer loop
      vertex -22.8386 10.1684 35
      vertex -24.4537 5.19779 35
      vertex -20.2254 14.6946 35
    endloop
  endfacet
  facet normal 0 0 1
    outer loop
      vertex 25 0 35
      vertex 10 0 35
      vertex 24.4537 -5.19779 35
    endloop
  endfacet
  facet normal 0 0 1
    outer loop
      vertex 20.2254 14.6946 35
      vertex 0 10 35
      vertex 22.8386 10.1684 35
    endloop
  endfacet
  facet normal 0 0 1
    outer loop
      vertex 20.2254 14.6946 35
      vertex -24.4537 5.19779 35
      vertex 0 10 35
    endloop
  endfacet
  facet normal 0 0 1
    outer loop
      vertex 0 10 35
      vertex 10 10 35
      vertex 22.8386 10.1684 35
    endloop
  endfacet
  facet normal 0 0 1
    outer loop
      vertex 24.4537 -5.19779 35
      vertex 10 0 35
      vertex 0 0 35
    endloop
  endfacet
  facet normal 0 0 1
    outer loop
      vertex 10 10 35
      vertex 24.4537 5.19779 35
      vertex 22.8386 10.1684 35
    endloop
  endfacet
  facet normal 0 0 1
    outer loop
      vertex 0 0 35
      vertex 0 10 35
      vertex -24.4537 5.19779 35
    endloop
  endfacet
  facet normal 0 0 -1
    outer loop
      vertex 0 0 -45
      vertex 0 10 -45
      vertex 10 0 -45
    endloop
  endfacet
  facet normal 0 0 -1
    outer loop
      vertex 10 0 -45
      vertex 0 10 -45
      vertex 10 10 -45
    endloop
  endfacet
  facet normal -1 0 0
    outer loop
      vertex 0 0 35
      vertex 0 0 45
      vertex 0 10 35
    endloop
  endfacet
  facet normal -1 0 0
    outer loop
      vertex 0 10 35
      vertex 0 0 45
      vertex 0 10 45
    endloop
  endfacet
  facet normal 0 -1 0
    outer loop
      vertex 0 0 45
      vertex 0 0 35
      vertex 10 0 35
    endloop
  endfacet
  facet normal 0 -1 0
    outer loop
      vertex 10 0 45
      vertex 0 0 45
      vertex 10 0 35
    endloop
  endfacet
  facet normal 1 0 0
    outer loop
      vertex 10 0 45
      vertex 10 0 35
      vertex 10 10 35
    endloop
  endfacet
  facet normal 1 0 0
    outer loop
      vertex 10 10 45
      vertex 10 0 45
      vertex 10 10 35
    endloop
  endfacet
  facet normal 0 1 0
    outer loop
      vertex 0 10 35
      vertex 0 10 45
      vertex 10 10 35
    endloop
  endfacet
  facet normal 0 1 0
    outer loop
      vertex 10 10 35
      vertex 0 10 45
      vertex 10 10 45
    endloop
  endfacet
  facet normal 0 0 1
    outer loop
      vertex 0 10 45
      vertex 0 0 45
      vertex 10 0 45
    endloop
  endfacet
  facet normal 0 0 1
    outer loop
      vertex 10 10 45
      vertex 0 10 45
      vertex 10 0 45
    endloop
  endfacet
endsolid OpenSCAD_Model
