solid OpenSCAD_Model
  facet normal -1 0 0
    outer loop
      vertex -11 -2 0
      vertex -11 -2 8
      vertex -11 2 0
    endloop
  endfacet
  facet normal -1 0 0
    outer loop
      vertex -11 2 0
      vertex -11 -2 8
      vertex -11 2 8
    endloop
  endfacet
  facet normal 0 -1 0
    outer loop
      vertex -4.125 -2 3.91747
      vertex -11 -2 0
      vertex 11 -2 0
    endloop
  endfacet
  facet normal 0 -1 0
    outer loop
      vertex -3.5 -2 5
      vertex -3.66747 -2 4.375
      vertex 11 -2 0
    endloop
  endfacet
  facet normal 0 -1 0
    outer loop
      vertex -4.125 -2 6.08253
      vertex -3.66747 -2 5.625
      vertex 11 -2 0
    endloop
  endfacet
  facet normal 0 -1 0
    outer loop
      vertex 11 -2 8
      vertex 10 -2 8
      vertex 11 -2 0
    endloop
  endfacet
  facet normal 0 -1 0
    outer loop
      vertex -10 -2 16
      vertex -2.59808 -2 9.5
      vertex -2.89778 -2 10.2235
    endloop
  endfacet
  facet normal 0 -1 0
    outer loop
      vertex 10 -2 16
      vertex 3 -2 11
      vertex 10 -2 8
    endloop
  endfacet
  facet normal 0 -1 0
    outer loop
      vertex 3 -2 11
      vertex 2.89778 -2 10.2235
      vertex 10 -2 8
    endloop
  endfacet
  facet normal 0 -1 0
    outer loop
      vertex 2.89778 -2 10.2235
      vertex 2.59808 -2 9.5
      vertex 10 -2 8
    endloop
  endfacet
  facet normal 0 -1 0
    outer loop
      vertex 2.59808 -2 9.5
      vertex 2.12132 -2 8.87868
      vertex 10 -2 8
    endloop
  endfacet
  facet normal 0 -1 0
    outer loop
      vertex 2.12132 -2 8.87868
      vertex 1.5 -2 8.40192
      vertex 10 -2 8
    endloop
  endfacet
  facet normal 0 -1 0
    outer loop
      vertex 1.5 -2 8.40192
      vertex 0.776457 -2 8.10222
      vertex 10 -2 8
    endloop
  endfacet
  facet normal 0 -1 0
    outer loop
      vertex 0.776457 -2 8.10222
      vertex 0 -2 8
      vertex 10 -2 8
    endloop
  endfacet
  facet normal 0 -1 0
    outer loop
      vertex -5.83253 -2 5.625
      vertex -5.375 -2 6.08253
      vertex -11 -2 8
    endloop
  endfacet
  facet normal 0 -1 0
    outer loop
      vertex -10 -2 16
      vertex -2.89778 -2 10.2235
      vertex -3 -2 11
    endloop
  endfacet
  facet normal 0 -1 0
    outer loop
      vertex 0 -2 8
      vertex -10 -2 8
      vertex 10 -2 8
    endloop
  endfacet
  facet normal 0 -1 0
    outer loop
      vertex 4.75 -2 6.25
      vertex 5.375 -2 6.08253
      vertex 10 -2 8
    endloop
  endfacet
  facet normal 0 -1 0
    outer loop
      vertex -11 -2 8
      vertex -11 -2 0
      vertex -6 -2 5
    endloop
  endfacet
  facet normal 0 -1 0
    outer loop
      vertex -3.66747 -2 4.375
      vertex -4.125 -2 3.91747
      vertex 11 -2 0
    endloop
  endfacet
  facet normal 0 -1 0
    outer loop
      vertex -11 -2 8
      vertex -6 -2 5
      vertex -5.83253 -2 5.625
    endloop
  endfacet
  facet normal 0 -1 0
    outer loop
      vertex -10 -2 8
      vertex -11 -2 8
      vertex -5.375 -2 6.08253
    endloop
  endfacet
  facet normal 0 -1 0
    outer loop
      vertex -3.66747 -2 5.625
      vertex -3.5 -2 5
      vertex 11 -2 0
    endloop
  endfacet
  facet normal 0 -1 0
    outer loop
      vertex 10 -2 8
      vertex -10 -2 8
      vertex -4.75 -2 6.25
    endloop
  endfacet
  facet normal 0 -1 0
    outer loop
      vertex 4.75 -2 3.75
      vertex -4.125 -2 6.08253
      vertex 11 -2 0
    endloop
  endfacet
  facet normal 0 -1 0
    outer loop
      vertex 10 -2 8
      vertex -4.75 -2 6.25
      vertex -4.125 -2 6.08253
    endloop
  endfacet
  facet normal 0 -1 0
    outer loop
      vertex -5.375 -2 6.08253
      vertex -4.75 -2 6.25
      vertex -10 -2 8
    endloop
  endfacet
  facet normal 0 -1 0
    outer loop
      vertex -4.75 -2 3.75
      vertex -11 -2 0
      vertex -4.125 -2 3.91747
    endloop
  endfacet
  facet normal 0 -1 0
    outer loop
      vertex -5.375 -2 3.91747
      vertex -11 -2 0
      vertex -4.75 -2 3.75
    endloop
  endfacet
  facet normal 0 -1 0
    outer loop
      vertex -5.83253 -2 4.375
      vertex -11 -2 0
      vertex -5.375 -2 3.91747
    endloop
  endfacet
  facet normal 0 -1 0
    outer loop
      vertex -6 -2 5
      vertex -11 -2 0
      vertex -5.83253 -2 4.375
    endloop
  endfacet
  facet normal 0 -1 0
    outer loop
      vertex 3.66747 -2 5.625
      vertex -4.125 -2 6.08253
      vertex 3.5 -2 5
    endloop
  endfacet
  facet normal 0 -1 0
    outer loop
      vertex 4.125 -2 6.08253
      vertex -4.125 -2 6.08253
      vertex 3.66747 -2 5.625
    endloop
  endfacet
  facet normal 0 -1 0
    outer loop
      vertex 10 -2 8
      vertex -4.125 -2 6.08253
      vertex 4.125 -2 6.08253
    endloop
  endfacet
  facet normal 0 -1 0
    outer loop
      vertex 5.375 -2 6.08253
      vertex 5.83253 -2 5.625
      vertex 10 -2 8
    endloop
  endfacet
  facet normal 0 -1 0
    outer loop
      vertex 10 -2 8
      vertex 4.125 -2 6.08253
      vertex 4.75 -2 6.25
    endloop
  endfacet
  facet normal 0 -1 0
    outer loop
      vertex 5.375 -2 3.91747
      vertex 4.75 -2 3.75
      vertex 11 -2 0
    endloop
  endfacet
  facet normal 0 -1 0
    outer loop
      vertex 10 -2 8
      vertex 5.83253 -2 5.625
      vertex 11 -2 0
    endloop
  endfacet
  facet normal 0 -1 0
    outer loop
      vertex 5.83253 -2 5.625
      vertex 6 -2 5
      vertex 11 -2 0
    endloop
  endfacet
  facet normal 0 -1 0
    outer loop
      vertex 6 -2 5
      vertex 5.83253 -2 4.375
      vertex 11 -2 0
    endloop
  endfacet
  facet normal 0 -1 0
    outer loop
      vertex 5.83253 -2 4.375
      vertex 5.375 -2 3.91747
      vertex 11 -2 0
    endloop
  endfacet
  facet normal 0 -1 0
    outer loop
      vertex 4.125 -2 3.91747
      vertex -4.125 -2 6.08253
      vertex 4.75 -2 3.75
    endloop
  endfacet
  facet normal 0 -1 0
    outer loop
      vertex 3.66747 -2 4.375
      vertex -4.125 -2 6.08253
      vertex 4.125 -2 3.91747
    endloop
  endfacet
  facet normal 0 -1 0
    outer loop
      vertex 3.5 -2 5
      vertex -4.125 -2 6.08253
      vertex 3.66747 -2 4.375
    endloop
  endfacet
  facet normal 0 -1 0
    outer loop
      vertex -10 -2 16
      vertex -3 -2 11
      vertex -3 -2 16
    endloop
  endfacet
  facet normal 0 -1 0
    outer loop
      vertex 3 -2 16
      vertex 3 -2 11
      vertex 10 -2 16
    endloop
  endfacet
  facet normal 0 -1 0
    outer loop
      vertex -10 -2 16
      vertex -2.12132 -2 8.87868
      vertex -2.59808 -2 9.5
    endloop
  endfacet
  facet normal 0 -1 0
    outer loop
      vertex -0.776457 -2 8.10222
      vertex -10 -2 8
      vertex 0 -2 8
    endloop
  endfacet
  facet normal 0 -1 0
    outer loop
      vertex -1.5 -2 8.40192
      vertex -10 -2 8
      vertex -0.776457 -2 8.10222
    endloop
  endfacet
  facet normal 0 -1 0
    outer loop
      vertex -2.12132 -2 8.87868
      vertex -10 -2 8
      vertex -1.5 -2 8.40192
    endloop
  endfacet
  facet normal 0 -1 0
    outer loop
      vertex -10 -2 16
      vertex -10 -2 8
      vertex -2.12132 -2 8.87868
    endloop
  endfacet
  facet normal 0 0 -1
    outer loop
      vertex -11 -2 0
      vertex -11 2 0
      vertex 11 -2 0
    endloop
  endfacet
  facet normal 0 0 -1
    outer loop
      vertex 11 -2 0
      vertex -11 2 0
      vertex -2.75 2 0
    endloop
  endfacet
  facet normal 0 0 -1
    outer loop
      vertex 11 -2 0
      vertex -2.75 2 0
      vertex -2.75 4 0
    endloop
  endfacet
  facet normal 0 0 -1
    outer loop
      vertex 2.75 2 0
      vertex -2.75 4 0
      vertex 2.75 4 0
    endloop
  endfacet
  facet normal 0 0 -1
    outer loop
      vertex 11 -2 0
      vertex -2.75 4 0
      vertex 2.75 2 0
    endloop
  endfacet
  facet normal 0 0 -1
    outer loop
      vertex 11 2 0
      vertex 11 -2 0
      vertex 2.75 2 0
    endloop
  endfacet
  facet normal 0 1 0
    outer loop
      vertex -11 2 0
      vertex -11 2 8
      vertex -2.75 2 0
    endloop
  endfacet
  facet normal 0 1 0
    outer loop
      vertex -2.75 2 0
      vertex -11 2 8
      vertex -10 2 8
    endloop
  endfacet
  facet normal 0 1 0
    outer loop
      vertex -5.83253 2 5.625
      vertex -10 2 8
      vertex -10 2 16
    endloop
  endfacet
  facet normal 0 1 0
    outer loop
      vertex -4.125 2 6.08253
      vertex -10 2 16
      vertex -2.75 2 16
    endloop
  endfacet
  facet normal 0 1 0
    outer loop
      vertex -6 2 5
      vertex -10 2 8
      vertex -5.83253 2 5.625
    endloop
  endfacet
  facet normal 0 1 0
    outer loop
      vertex -4.75 2 3.75
      vertex -2.75 2 0
      vertex -5.375 2 3.91747
    endloop
  endfacet
  facet normal 0 1 0
    outer loop
      vertex -5.83253 2 4.375
      vertex -10 2 8
      vertex -6 2 5
    endloop
  endfacet
  facet normal 0 1 0
    outer loop
      vertex -2.75 2 0
      vertex -10 2 8
      vertex -5.83253 2 4.375
    endloop
  endfacet
  facet normal 0 1 0
    outer loop
      vertex -2.75 2 0
      vertex -5.83253 2 4.375
      vertex -5.375 2 3.91747
    endloop
  endfacet
  facet normal 0 1 0
    outer loop
      vertex -4.125 2 3.91747
      vertex -2.75 2 0
      vertex -4.75 2 3.75
    endloop
  endfacet
  facet normal 0 1 0
    outer loop
      vertex -2.75 2 0
      vertex -4.125 2 3.91747
      vertex -3.66747 2 4.375
    endloop
  endfacet
  facet normal 0 1 0
    outer loop
      vertex -2.75 2 0
      vertex -3.66747 2 4.375
      vertex -3.5 2 5
    endloop
  endfacet
  facet normal 0 1 0
    outer loop
      vertex -2.75 2 0
      vertex -3.5 2 5
      vertex -2.75 2 16
    endloop
  endfacet
  facet normal 0 1 0
    outer loop
      vertex -4.125 2 6.08253
      vertex -2.75 2 16
      vertex -3.66747 2 5.625
    endloop
  endfacet
  facet normal 0 1 0
    outer loop
      vertex -4.75 2 6.25
      vertex -10 2 16
      vertex -4.125 2 6.08253
    endloop
  endfacet
  facet normal 0 1 0
    outer loop
      vertex -5.375 2 6.08253
      vertex -10 2 16
      vertex -4.75 2 6.25
    endloop
  endfacet
  facet normal 0 1 0
    outer loop
      vertex -3.66747 2 5.625
      vertex -2.75 2 16
      vertex -3.5 2 5
    endloop
  endfacet
  facet normal 0 1 0
    outer loop
      vertex -5.83253 2 5.625
      vertex -10 2 16
      vertex -5.375 2 6.08253
    endloop
  endfacet
  facet normal 0 0 1
    outer loop
      vertex -11 2 8
      vertex -11 -2 8
      vertex -10 -2 8
    endloop
  endfacet
  facet normal 0 0 1
    outer loop
      vertex -10 2 8
      vertex -11 2 8
      vertex -10 -2 8
    endloop
  endfacet
  facet normal -1 0 0
    outer loop
      vertex -10 -2 8
      vertex -10 -2 16
      vertex -10 2 8
    endloop
  endfacet
  facet normal -1 0 0
    outer loop
      vertex -10 2 8
      vertex -10 -2 16
      vertex -10 2 16
    endloop
  endfacet
  facet normal 0 0 1
    outer loop
      vertex -10 2 16
      vertex -10 -2 16
      vertex -3 -2 16
    endloop
  endfacet
  facet normal 0 0 1
    outer loop
      vertex 3 -1.6 16
      vertex -10 2 16
      vertex -3 -1.6 16
    endloop
  endfacet
  facet normal 0 0 1
    outer loop
      vertex -3 -1.6 16
      vertex -10 2 16
      vertex -3 -2 16
    endloop
  endfacet
  facet normal 0 0 1
    outer loop
      vertex 10 -2 16
      vertex -10 2 16
      vertex 3 -1.6 16
    endloop
  endfacet
  facet normal 0 0 1
    outer loop
      vertex 10 -2 16
      vertex 3 -1.6 16
      vertex 3 -2 16
    endloop
  endfacet
  facet normal 0 0 1
    outer loop
      vertex 2.75 2 16
      vertex -2.75 2 16
      vertex 10 -2 16
    endloop
  endfacet
  facet normal 0 0 1
    outer loop
      vertex -2.75 2 16
      vertex -10 2 16
      vertex 10 -2 16
    endloop
  endfacet
  facet normal 0 0 1
    outer loop
      vertex 10 2 16
      vertex 2.75 2 16
      vertex 10 -2 16
    endloop
  endfacet
  facet normal 0 0 1
    outer loop
      vertex 2.75 4 16
      vertex -2.75 2 16
      vertex 2.75 2 16
    endloop
  endfacet
  facet normal 0 0 1
    outer loop
      vertex -2.75 4 16
      vertex -2.75 2 16
      vertex 2.75 4 16
    endloop
  endfacet
  facet normal 1 0 0
    outer loop
      vertex -3 -1.6 11
      vertex -3 -1.6 16
      vertex -3 -2 16
    endloop
  endfacet
  facet normal 1 0 0
    outer loop
      vertex -3 -2 11
      vertex -3 -1.6 11
      vertex -3 -2 16
    endloop
  endfacet
  facet normal 0.991445 2.89828e-017 0.130527
    outer loop
      vertex -2.89778 -2 10.2235
      vertex -2.89778 -1.6 10.2235
      vertex -3 -1.6 11
    endloop
  endfacet
  facet normal 0.991445 2.89828e-017 0.130527
    outer loop
      vertex -3 -2 11
      vertex -2.89778 -2 10.2235
      vertex -3 -1.6 11
    endloop
  endfacet
  facet normal 0.92388 8.49727e-017 0.382683
    outer loop
      vertex -2.59808 -2 9.5
      vertex -2.59808 -1.6 9.5
      vertex -2.89778 -1.6 10.2235
    endloop
  endfacet
  facet normal 0.92388 8.49727e-017 0.382683
    outer loop
      vertex -2.89778 -2 10.2235
      vertex -2.59808 -2 9.5
      vertex -2.89778 -1.6 10.2235
    endloop
  endfacet
  facet normal 0.793353 1.35172e-016 0.608762
    outer loop
      vertex -2.12132 -2 8.87868
      vertex -2.12132 -1.6 8.87868
      vertex -2.59808 -1.6 9.5
    endloop
  endfacet
  facet normal 0.793353 1.35172e-016 0.608762
    outer loop
      vertex -2.59808 -2 9.5
      vertex -2.12132 -2 8.87868
      vertex -2.59808 -1.6 9.5
    endloop
  endfacet
  facet normal 0.608762 1.7616e-016 0.793353
    outer loop
      vertex -1.5 -2 8.40192
      vertex -1.5 -1.6 8.40192
      vertex -2.12132 -1.6 8.87868
    endloop
  endfacet
  facet normal 0.608762 1.7616e-016 0.793353
    outer loop
      vertex -2.12132 -2 8.87868
      vertex -1.5 -2 8.40192
      vertex -2.12132 -1.6 8.87868
    endloop
  endfacet
  facet normal 0.382683 2.05142e-016 0.92388
    outer loop
      vertex -0.776457 -2 8.10222
      vertex -0.776457 -1.6 8.10222
      vertex -1.5 -1.6 8.40192
    endloop
  endfacet
  facet normal 0.382683 2.05142e-016 0.92388
    outer loop
      vertex -1.5 -2 8.40192
      vertex -0.776457 -2 8.10222
      vertex -1.5 -1.6 8.40192
    endloop
  endfacet
  facet normal 0.130527 2.20145e-016 0.991445
    outer loop
      vertex 0 -2 8
      vertex 0 -1.6 8
      vertex -0.776457 -1.6 8.10222
    endloop
  endfacet
  facet normal 0.130527 2.20145e-016 0.991445
    outer loop
      vertex -0.776457 -2 8.10222
      vertex 0 -2 8
      vertex -0.776457 -1.6 8.10222
    endloop
  endfacet
  facet normal -0.130527 2.20145e-016 0.991445
    outer loop
      vertex 0.776457 -2 8.10222
      vertex 0.776457 -1.6 8.10222
      vertex 0 -1.6 8
    endloop
  endfacet
  facet normal -0.130527 2.20145e-016 0.991445
    outer loop
      vertex 0 -2 8
      vertex 0.776457 -2 8.10222
      vertex 0 -1.6 8
    endloop
  endfacet
  facet normal -0.382683 2.05142e-016 0.92388
    outer loop
      vertex 1.5 -2 8.40192
      vertex 1.5 -1.6 8.40192
      vertex 0.776457 -1.6 8.10222
    endloop
  endfacet
  facet normal -0.382683 2.05142e-016 0.92388
    outer loop
      vertex 0.776457 -2 8.10222
      vertex 1.5 -2 8.40192
      vertex 0.776457 -1.6 8.10222
    endloop
  endfacet
  facet normal -0.608762 1.7616e-016 0.793353
    outer loop
      vertex 2.12132 -2 8.87868
      vertex 2.12132 -1.6 8.87868
      vertex 1.5 -1.6 8.40192
    endloop
  endfacet
  facet normal -0.608762 1.7616e-016 0.793353
    outer loop
      vertex 1.5 -2 8.40192
      vertex 2.12132 -2 8.87868
      vertex 1.5 -1.6 8.40192
    endloop
  endfacet
  facet normal -0.793353 1.35172e-016 0.608762
    outer loop
      vertex 2.59808 -1.6 9.5
      vertex 2.12132 -1.6 8.87868
      vertex 2.59808 -2 9.5
    endloop
  endfacet
  facet normal -0.793353 1.35172e-016 0.608762
    outer loop
      vertex 2.59808 -2 9.5
      vertex 2.12132 -1.6 8.87868
      vertex 2.12132 -2 8.87868
    endloop
  endfacet
  facet normal -0.92388 8.49727e-017 0.382683
    outer loop
      vertex 2.89778 -1.6 10.2235
      vertex 2.59808 -1.6 9.5
      vertex 2.89778 -2 10.2235
    endloop
  endfacet
  facet normal -0.92388 8.49727e-017 0.382683
    outer loop
      vertex 2.89778 -2 10.2235
      vertex 2.59808 -1.6 9.5
      vertex 2.59808 -2 9.5
    endloop
  endfacet
  facet normal -0.991445 2.89828e-017 0.130527
    outer loop
      vertex 3 -1.6 11
      vertex 2.89778 -1.6 10.2235
      vertex 3 -2 11
    endloop
  endfacet
  facet normal -0.991445 2.89828e-017 0.130527
    outer loop
      vertex 3 -2 11
      vertex 2.89778 -1.6 10.2235
      vertex 2.89778 -2 10.2235
    endloop
  endfacet
  facet normal -1 0 0
    outer loop
      vertex 3 -1.6 16
      vertex 3 -1.6 11
      vertex 3 -2 16
    endloop
  endfacet
  facet normal -1 0 0
    outer loop
      vertex 3 -2 16
      vertex 3 -1.6 11
      vertex 3 -2 11
    endloop
  endfacet
  facet normal 1 0 0
    outer loop
      vertex 10 -2 16
      vertex 10 -2 8
      vertex 10 2 8
    endloop
  endfacet
  facet normal 1 0 0
    outer loop
      vertex 10 2 16
      vertex 10 -2 16
      vertex 10 2 8
    endloop
  endfacet
  facet normal 0 0 1
    outer loop
      vertex 10 2 8
      vertex 10 -2 8
      vertex 11 -2 8
    endloop
  endfacet
  facet normal 0 0 1
    outer loop
      vertex 11 2 8
      vertex 10 2 8
      vertex 11 -2 8
    endloop
  endfacet
  facet normal 1 0 0
    outer loop
      vertex 11 -2 8
      vertex 11 -2 0
      vertex 11 2 0
    endloop
  endfacet
  facet normal 1 0 0
    outer loop
      vertex 11 2 8
      vertex 11 -2 8
      vertex 11 2 0
    endloop
  endfacet
  facet normal 0.965926 -5.74693e-017 0.258819
    outer loop
      vertex -6 -2 5
      vertex -5.83253 -2 4.375
      vertex -5.83253 2 4.375
    endloop
  endfacet
  facet normal 0.965926 -5.74693e-017 0.258819
    outer loop
      vertex -6 2 5
      vertex -6 -2 5
      vertex -5.83253 2 4.375
    endloop
  endfacet
  facet normal 0.965926 5.74693e-017 -0.258819
    outer loop
      vertex -5.83253 2 5.625
      vertex -5.83253 -2 5.625
      vertex -6 -2 5
    endloop
  endfacet
  facet normal 0.965926 5.74693e-017 -0.258819
    outer loop
      vertex -6 2 5
      vertex -5.83253 2 5.625
      vertex -6 -2 5
    endloop
  endfacet
  facet normal 0.707107 -1.57009e-016 0.707107
    outer loop
      vertex -5.83253 -2 4.375
      vertex -5.375 -2 3.91747
      vertex -5.375 2 3.91747
    endloop
  endfacet
  facet normal 0.707107 -1.57009e-016 0.707107
    outer loop
      vertex -5.83253 2 4.375
      vertex -5.83253 -2 4.375
      vertex -5.375 2 3.91747
    endloop
  endfacet
  facet normal 0.258819 -2.14479e-016 0.965926
    outer loop
      vertex -5.375 -2 3.91747
      vertex -4.75 -2 3.75
      vertex -4.75 2 3.75
    endloop
  endfacet
  facet normal 0.258819 -2.14479e-016 0.965926
    outer loop
      vertex -5.375 2 3.91747
      vertex -5.375 -2 3.91747
      vertex -4.75 2 3.75
    endloop
  endfacet
  facet normal -0.258819 -2.14479e-016 0.965926
    outer loop
      vertex -4.75 -2 3.75
      vertex -4.125 -2 3.91747
      vertex -4.125 2 3.91747
    endloop
  endfacet
  facet normal -0.258819 -2.14479e-016 0.965926
    outer loop
      vertex -4.75 2 3.75
      vertex -4.75 -2 3.75
      vertex -4.125 2 3.91747
    endloop
  endfacet
  facet normal -0.707107 -1.57009e-016 0.707107
    outer loop
      vertex -3.66747 -2 4.375
      vertex -3.66747 2 4.375
      vertex -4.125 -2 3.91747
    endloop
  endfacet
  facet normal -0.707107 -1.57009e-016 0.707107
    outer loop
      vertex -4.125 -2 3.91747
      vertex -3.66747 2 4.375
      vertex -4.125 2 3.91747
    endloop
  endfacet
  facet normal -0.965926 -5.74693e-017 0.258819
    outer loop
      vertex -3.5 -2 5
      vertex -3.5 2 5
      vertex -3.66747 -2 4.375
    endloop
  endfacet
  facet normal -0.965926 -5.74693e-017 0.258819
    outer loop
      vertex -3.66747 -2 4.375
      vertex -3.5 2 5
      vertex -3.66747 2 4.375
    endloop
  endfacet
  facet normal -0.965926 5.74693e-017 -0.258819
    outer loop
      vertex -3.5 -2 5
      vertex -3.66747 -2 5.625
      vertex -3.5 2 5
    endloop
  endfacet
  facet normal -0.965926 5.74693e-017 -0.258819
    outer loop
      vertex -3.5 2 5
      vertex -3.66747 -2 5.625
      vertex -3.66747 2 5.625
    endloop
  endfacet
  facet normal -0.707107 1.57009e-016 -0.707107
    outer loop
      vertex -3.66747 -2 5.625
      vertex -4.125 -2 6.08253
      vertex -3.66747 2 5.625
    endloop
  endfacet
  facet normal -0.707107 1.57009e-016 -0.707107
    outer loop
      vertex -3.66747 2 5.625
      vertex -4.125 -2 6.08253
      vertex -4.125 2 6.08253
    endloop
  endfacet
  facet normal -0.258819 2.14479e-016 -0.965926
    outer loop
      vertex -4.125 -2 6.08253
      vertex -4.75 -2 6.25
      vertex -4.125 2 6.08253
    endloop
  endfacet
  facet normal -0.258819 2.14479e-016 -0.965926
    outer loop
      vertex -4.125 2 6.08253
      vertex -4.75 -2 6.25
      vertex -4.75 2 6.25
    endloop
  endfacet
  facet normal 0.258819 2.14479e-016 -0.965926
    outer loop
      vertex -4.75 -2 6.25
      vertex -5.375 -2 6.08253
      vertex -4.75 2 6.25
    endloop
  endfacet
  facet normal 0.258819 2.14479e-016 -0.965926
    outer loop
      vertex -4.75 2 6.25
      vertex -5.375 -2 6.08253
      vertex -5.375 2 6.08253
    endloop
  endfacet
  facet normal 0.707107 1.57009e-016 -0.707107
    outer loop
      vertex -5.375 2 6.08253
      vertex -5.375 -2 6.08253
      vertex -5.83253 -2 5.625
    endloop
  endfacet
  facet normal 0.707107 1.57009e-016 -0.707107
    outer loop
      vertex -5.83253 2 5.625
      vertex -5.375 2 6.08253
      vertex -5.83253 -2 5.625
    endloop
  endfacet
  facet normal 0.965926 -5.74693e-017 0.258819
    outer loop
      vertex 3.5 -2 5
      vertex 3.66747 -2 4.375
      vertex 3.66747 2 4.375
    endloop
  endfacet
  facet normal 0.965926 -5.74693e-017 0.258819
    outer loop
      vertex 3.5 2 5
      vertex 3.5 -2 5
      vertex 3.66747 2 4.375
    endloop
  endfacet
  facet normal 0.965926 5.74693e-017 -0.258819
    outer loop
      vertex 3.66747 2 5.625
      vertex 3.66747 -2 5.625
      vertex 3.5 -2 5
    endloop
  endfacet
  facet normal 0.965926 5.74693e-017 -0.258819
    outer loop
      vertex 3.5 2 5
      vertex 3.66747 2 5.625
      vertex 3.5 -2 5
    endloop
  endfacet
  facet normal 0.707107 -1.57009e-016 0.707107
    outer loop
      vertex 3.66747 -2 4.375
      vertex 4.125 -2 3.91747
      vertex 4.125 2 3.91747
    endloop
  endfacet
  facet normal 0.707107 -1.57009e-016 0.707107
    outer loop
      vertex 3.66747 2 4.375
      vertex 3.66747 -2 4.375
      vertex 4.125 2 3.91747
    endloop
  endfacet
  facet normal 0.258819 -2.14479e-016 0.965926
    outer loop
      vertex 4.125 -2 3.91747
      vertex 4.75 -2 3.75
      vertex 4.75 2 3.75
    endloop
  endfacet
  facet normal 0.258819 -2.14479e-016 0.965926
    outer loop
      vertex 4.125 2 3.91747
      vertex 4.125 -2 3.91747
      vertex 4.75 2 3.75
    endloop
  endfacet
  facet normal -0.258819 -2.14479e-016 0.965926
    outer loop
      vertex 4.75 -2 3.75
      vertex 5.375 -2 3.91747
      vertex 5.375 2 3.91747
    endloop
  endfacet
  facet normal -0.258819 -2.14479e-016 0.965926
    outer loop
      vertex 4.75 2 3.75
      vertex 4.75 -2 3.75
      vertex 5.375 2 3.91747
    endloop
  endfacet
  facet normal -0.707107 -1.57009e-016 0.707107
    outer loop
      vertex 5.83253 -2 4.375
      vertex 5.83253 2 4.375
      vertex 5.375 -2 3.91747
    endloop
  endfacet
  facet normal -0.707107 -1.57009e-016 0.707107
    outer loop
      vertex 5.375 -2 3.91747
      vertex 5.83253 2 4.375
      vertex 5.375 2 3.91747
    endloop
  endfacet
  facet normal -0.965926 -5.74693e-017 0.258819
    outer loop
      vertex 6 -2 5
      vertex 6 2 5
      vertex 5.83253 -2 4.375
    endloop
  endfacet
  facet normal -0.965926 -5.74693e-017 0.258819
    outer loop
      vertex 5.83253 -2 4.375
      vertex 6 2 5
      vertex 5.83253 2 4.375
    endloop
  endfacet
  facet normal -0.965926 5.74693e-017 -0.258819
    outer loop
      vertex 6 -2 5
      vertex 5.83253 -2 5.625
      vertex 6 2 5
    endloop
  endfacet
  facet normal -0.965926 5.74693e-017 -0.258819
    outer loop
      vertex 6 2 5
      vertex 5.83253 -2 5.625
      vertex 5.83253 2 5.625
    endloop
  endfacet
  facet normal -0.707107 1.57009e-016 -0.707107
    outer loop
      vertex 5.83253 -2 5.625
      vertex 5.375 -2 6.08253
      vertex 5.83253 2 5.625
    endloop
  endfacet
  facet normal -0.707107 1.57009e-016 -0.707107
    outer loop
      vertex 5.83253 2 5.625
      vertex 5.375 -2 6.08253
      vertex 5.375 2 6.08253
    endloop
  endfacet
  facet normal -0.258819 2.14479e-016 -0.965926
    outer loop
      vertex 5.375 -2 6.08253
      vertex 4.75 -2 6.25
      vertex 5.375 2 6.08253
    endloop
  endfacet
  facet normal -0.258819 2.14479e-016 -0.965926
    outer loop
      vertex 5.375 2 6.08253
      vertex 4.75 -2 6.25
      vertex 4.75 2 6.25
    endloop
  endfacet
  facet normal 0.258819 2.14479e-016 -0.965926
    outer loop
      vertex 4.75 -2 6.25
      vertex 4.125 -2 6.08253
      vertex 4.75 2 6.25
    endloop
  endfacet
  facet normal 0.258819 2.14479e-016 -0.965926
    outer loop
      vertex 4.75 2 6.25
      vertex 4.125 -2 6.08253
      vertex 4.125 2 6.08253
    endloop
  endfacet
  facet normal 0.707107 1.57009e-016 -0.707107
    outer loop
      vertex 4.125 2 6.08253
      vertex 4.125 -2 6.08253
      vertex 3.66747 -2 5.625
    endloop
  endfacet
  facet normal 0.707107 1.57009e-016 -0.707107
    outer loop
      vertex 3.66747 2 5.625
      vertex 4.125 2 6.08253
      vertex 3.66747 -2 5.625
    endloop
  endfacet
  facet normal 0 1 0
    outer loop
      vertex 5.83253 2 5.625
      vertex 2.75 2 16
      vertex 11 2 0
    endloop
  endfacet
  facet normal 0 1 0
    outer loop
      vertex 10 2 8
      vertex 2.75 2 16
      vertex 10 2 16
    endloop
  endfacet
  facet normal 0 1 0
    outer loop
      vertex 11 2 0
      vertex 2.75 2 16
      vertex 10 2 8
    endloop
  endfacet
  facet normal 0 1 0
    outer loop
      vertex 3.66747 2 4.375
      vertex 2.75 2 0
      vertex 3.5 2 5
    endloop
  endfacet
  facet normal 0 1 0
    outer loop
      vertex 3.5 2 5
      vertex 2.75 2 16
      vertex 3.66747 2 5.625
    endloop
  endfacet
  facet normal 0 1 0
    outer loop
      vertex 2.75 2 0
      vertex 2.75 2 16
      vertex 3.5 2 5
    endloop
  endfacet
  facet normal 0 1 0
    outer loop
      vertex 4.75 2 3.75
      vertex 11 2 0
      vertex 4.125 2 3.91747
    endloop
  endfacet
  facet normal 0 1 0
    outer loop
      vertex 2.75 2 0
      vertex 3.66747 2 4.375
      vertex 4.125 2 3.91747
    endloop
  endfacet
  facet normal 0 1 0
    outer loop
      vertex 2.75 2 0
      vertex 4.125 2 3.91747
      vertex 11 2 0
    endloop
  endfacet
  facet normal 0 1 0
    outer loop
      vertex 5.83253 2 4.375
      vertex 11 2 0
      vertex 5.375 2 3.91747
    endloop
  endfacet
  facet normal 0 1 0
    outer loop
      vertex 4.75 2 3.75
      vertex 5.375 2 3.91747
      vertex 11 2 0
    endloop
  endfacet
  facet normal 0 1 0
    outer loop
      vertex 5.375 2 6.08253
      vertex 2.75 2 16
      vertex 5.83253 2 5.625
    endloop
  endfacet
  facet normal 0 1 0
    outer loop
      vertex 5.83253 2 4.375
      vertex 6 2 5
      vertex 11 2 0
    endloop
  endfacet
  facet normal 0 1 0
    outer loop
      vertex 6 2 5
      vertex 5.83253 2 5.625
      vertex 11 2 0
    endloop
  endfacet
  facet normal 0 1 0
    outer loop
      vertex 4.75 2 6.25
      vertex 2.75 2 16
      vertex 5.375 2 6.08253
    endloop
  endfacet
  facet normal 0 1 0
    outer loop
      vertex 4.125 2 6.08253
      vertex 2.75 2 16
      vertex 4.75 2 6.25
    endloop
  endfacet
  facet normal 0 1 0
    outer loop
      vertex 3.66747 2 5.625
      vertex 2.75 2 16
      vertex 4.125 2 6.08253
    endloop
  endfacet
  facet normal 0 1 0
    outer loop
      vertex 11 2 8
      vertex 11 2 0
      vertex 10 2 8
    endloop
  endfacet
  facet normal 1 0 0
    outer loop
      vertex 2.75 2 16
      vertex 2.75 2 0
      vertex 2.75 4 0
    endloop
  endfacet
  facet normal 1 0 0
    outer loop
      vertex 2.75 2.85081 10.2631
      vertex 2.75 2 16
      vertex 2.75 4 0
    endloop
  endfacet
  facet normal 1 0 0
    outer loop
      vertex 2.75 4 7.65838
      vertex 2.75 3.64101 8.25
      vertex 2.75 4 0
    endloop
  endfacet
  facet normal 1 0 0
    outer loop
      vertex 2.75 3.64101 8.25
      vertex 2.75 3.45389 8.6519
      vertex 2.75 4 0
    endloop
  endfacet
  facet normal 1 0 0
    outer loop
      vertex 2.75 3.45389 8.6519
      vertex 2.75 3.09985 9.41229
      vertex 2.75 4 0
    endloop
  endfacet
  facet normal 1 0 0
    outer loop
      vertex 2.75 3.09985 9.41229
      vertex 2.75 2.98616 9.80072
      vertex 2.75 4 0
    endloop
  endfacet
  facet normal 1 0 0
    outer loop
      vertex 2.75 2.81277 11.3557
      vertex 2.75 2.85081 11.7369
      vertex 2.75 2 16
    endloop
  endfacet
  facet normal 1 0 0
    outer loop
      vertex 2.75 2.98616 9.80072
      vertex 2.75 2.85081 10.2631
      vertex 2.75 4 0
    endloop
  endfacet
  facet normal 1 0 0
    outer loop
      vertex 2.75 2.81406 10.6313
      vertex 2.75 2 16
      vertex 2.75 2.85081 10.2631
    endloop
  endfacet
  facet normal 1 0 0
    outer loop
      vertex 2.75 2.77725 11
      vertex 2.75 2 16
      vertex 2.75 2.81406 10.6313
    endloop
  endfacet
  facet normal 1 0 0
    outer loop
      vertex 2.75 2.85081 11.7369
      vertex 2.75 2.95384 12.0889
      vertex 2.75 2 16
    endloop
  endfacet
  facet normal 1 0 0
    outer loop
      vertex 2.75 3.09985 12.5877
      vertex 2.75 2 16
      vertex 2.75 2.95384 12.0889
    endloop
  endfacet
  facet normal 1 0 0
    outer loop
      vertex 2.75 3.26403 12.9403
      vertex 2.75 2 16
      vertex 2.75 3.09985 12.5877
    endloop
  endfacet
  facet normal 1 0 0
    outer loop
      vertex 2.75 3.64101 13.75
      vertex 2.75 2 16
      vertex 2.75 3.26403 12.9403
    endloop
  endfacet
  facet normal 1 0 0
    outer loop
      vertex 2.75 3.84721 14.0898
      vertex 2.75 2 16
      vertex 2.75 3.64101 13.75
    endloop
  endfacet
  facet normal 1 0 0
    outer loop
      vertex 2.75 4 14.3416
      vertex 2.75 2 16
      vertex 2.75 3.84721 14.0898
    endloop
  endfacet
  facet normal 1 0 0
    outer loop
      vertex 2.75 4 16
      vertex 2.75 2 16
      vertex 2.75 4 14.3416
    endloop
  endfacet
  facet normal 1 0 0
    outer loop
      vertex 2.75 2.77725 11
      vertex 2.75 2.81277 11.3557
      vertex 2.75 2 16
    endloop
  endfacet
  facet normal 0 1 0
    outer loop
      vertex -2.75 4 0
      vertex -2.75 4 7.65838
      vertex 2.75 4 0
    endloop
  endfacet
  facet normal 0 1 0
    outer loop
      vertex 2.75 4 0
      vertex -2.75 4 7.65838
      vertex -2.18125 4 7.22196
    endloop
  endfacet
  facet normal 0 1 0
    outer loop
      vertex 2.75 4 0
      vertex -2.18125 4 7.22196
      vertex -1.97323 4 7.1358
    endloop
  endfacet
  facet normal 0 1 0
    outer loop
      vertex 2.75 4 0
      vertex -1.97323 4 7.1358
      vertex -1.1291 4 6.78615
    endloop
  endfacet
  facet normal 0 1 0
    outer loop
      vertex -1.1291 4 6.78615
      vertex -0.905867 4 6.75676
      vertex 2.75 4 0
    endloop
  endfacet
  facet normal 0 1 0
    outer loop
      vertex -0.905867 4 6.75676
      vertex 0 4 6.6375
      vertex 2.75 4 0
    endloop
  endfacet
  facet normal 0 1 0
    outer loop
      vertex 0 4 6.6375
      vertex 0.223231 4 6.66689
      vertex 2.75 4 0
    endloop
  endfacet
  facet normal 0 1 0
    outer loop
      vertex 2.75 4 0
      vertex 0.223231 4 6.66689
      vertex 1.1291 4 6.78615
    endloop
  endfacet
  facet normal 0 1 0
    outer loop
      vertex 1.1291 4 6.78615
      vertex 1.33712 4 6.87231
      vertex 2.75 4 0
    endloop
  endfacet
  facet normal 0 1 0
    outer loop
      vertex 1.33712 4 6.87231
      vertex 2.18125 4 7.22196
      vertex 2.75 4 0
    endloop
  endfacet
  facet normal 0 1 0
    outer loop
      vertex 2.18125 4 7.22196
      vertex 2.35988 4 7.35903
      vertex 2.75 4 0
    endloop
  endfacet
  facet normal 0 1 0
    outer loop
      vertex 2.75 4 0
      vertex 2.35988 4 7.35903
      vertex 2.75 4 7.65838
    endloop
  endfacet
  facet normal -1 0 0
    outer loop
      vertex -2.75 2 0
      vertex -2.75 2 16
      vertex -2.75 4 0
    endloop
  endfacet
  facet normal -1 0 0
    outer loop
      vertex -2.75 4 14.3416
      vertex -2.75 2 16
      vertex -2.75 4 16
    endloop
  endfacet
  facet normal -1 0 0
    outer loop
      vertex -2.75 3.64101 13.75
      vertex -2.75 2 16
      vertex -2.75 4 14.3416
    endloop
  endfacet
  facet normal -1 0 0
    outer loop
      vertex -2.75 3.45389 13.3481
      vertex -2.75 2 16
      vertex -2.75 3.64101 13.75
    endloop
  endfacet
  facet normal -1 0 0
    outer loop
      vertex -2.75 3.09985 12.5877
      vertex -2.75 2 16
      vertex -2.75 3.45389 13.3481
    endloop
  endfacet
  facet normal -1 0 0
    outer loop
      vertex -2.75 2.98616 12.1993
      vertex -2.75 2 16
      vertex -2.75 3.09985 12.5877
    endloop
  endfacet
  facet normal -1 0 0
    outer loop
      vertex -2.75 2.85081 11.7369
      vertex -2.75 2 16
      vertex -2.75 2.98616 12.1993
    endloop
  endfacet
  facet normal -1 0 0
    outer loop
      vertex -2.75 2.81406 11.3687
      vertex -2.75 2 16
      vertex -2.75 2.85081 11.7369
    endloop
  endfacet
  facet normal -1 0 0
    outer loop
      vertex -2.75 2.77725 11
      vertex -2.75 2 16
      vertex -2.75 2.81406 11.3687
    endloop
  endfacet
  facet normal -1 0 0
    outer loop
      vertex -2.75 2.81277 10.6443
      vertex -2.75 2 16
      vertex -2.75 2.77725 11
    endloop
  endfacet
  facet normal -1 0 0
    outer loop
      vertex -2.75 2.85081 10.2631
      vertex -2.75 2 16
      vertex -2.75 2.81277 10.6443
    endloop
  endfacet
  facet normal -1 0 0
    outer loop
      vertex -2.75 4 0
      vertex -2.75 2 16
      vertex -2.75 2.85081 10.2631
    endloop
  endfacet
  facet normal -1 0 0
    outer loop
      vertex -2.75 3.09985 9.41229
      vertex -2.75 4 0
      vertex -2.75 2.95384 9.91115
    endloop
  endfacet
  facet normal -1 0 0
    outer loop
      vertex -2.75 3.26403 9.05967
      vertex -2.75 4 0
      vertex -2.75 3.09985 9.41229
    endloop
  endfacet
  facet normal -1 0 0
    outer loop
      vertex -2.75 3.64101 8.25
      vertex -2.75 4 0
      vertex -2.75 3.26403 9.05967
    endloop
  endfacet
  facet normal -1 0 0
    outer loop
      vertex -2.75 3.84721 7.91019
      vertex -2.75 4 0
      vertex -2.75 3.64101 8.25
    endloop
  endfacet
  facet normal -1 0 0
    outer loop
      vertex -2.75 4 0
      vertex -2.75 3.84721 7.91019
      vertex -2.75 4 7.65838
    endloop
  endfacet
  facet normal -1 0 0
    outer loop
      vertex -2.75 2.95384 9.91115
      vertex -2.75 4 0
      vertex -2.75 2.85081 10.2631
    endloop
  endfacet
  facet normal 0 1 0
    outer loop
      vertex -2.75 4 14.3416
      vertex -2.75 4 16
      vertex -2.35988 4 14.641
    endloop
  endfacet
  facet normal 0 1 0
    outer loop
      vertex 0 4 15.3625
      vertex -2.75 4 16
      vertex 2.75 4 16
    endloop
  endfacet
  facet normal 0 1 0
    outer loop
      vertex 2.75 4 16
      vertex 2.75 4 14.3416
      vertex 2.18125 4 14.778
    endloop
  endfacet
  facet normal 0 1 0
    outer loop
      vertex 2.75 4 16
      vertex 2.18125 4 14.778
      vertex 1.97323 4 14.8642
    endloop
  endfacet
  facet normal 0 1 0
    outer loop
      vertex 2.75 4 16
      vertex 1.97323 4 14.8642
      vertex 1.1291 4 15.2139
    endloop
  endfacet
  facet normal 0 1 0
    outer loop
      vertex 2.75 4 16
      vertex 1.1291 4 15.2139
      vertex 0.905866 4 15.2432
    endloop
  endfacet
  facet normal 0 1 0
    outer loop
      vertex -0.223232 4 15.3331
      vertex -2.75 4 16
      vertex 0 4 15.3625
    endloop
  endfacet
  facet normal 0 1 0
    outer loop
      vertex -1.1291 4 15.2139
      vertex -2.75 4 16
      vertex -0.223232 4 15.3331
    endloop
  endfacet
  facet normal 0 1 0
    outer loop
      vertex -1.33712 4 15.1277
      vertex -2.75 4 16
      vertex -1.1291 4 15.2139
    endloop
  endfacet
  facet normal 0 1 0
    outer loop
      vertex -2.18125 4 14.778
      vertex -2.75 4 16
      vertex -1.33712 4 15.1277
    endloop
  endfacet
  facet normal 0 1 0
    outer loop
      vertex -2.35988 4 14.641
      vertex -2.75 4 16
      vertex -2.18125 4 14.778
    endloop
  endfacet
  facet normal 0 1 0
    outer loop
      vertex 0 4 15.3625
      vertex 2.75 4 16
      vertex 0.905866 4 15.2432
    endloop
  endfacet
  facet normal 0 -1 2.22045e-016
    outer loop
      vertex -2.89778 -1.6 10.2235
      vertex -2.59808 -1.6 9.5
      vertex -2.12132 -1.6 8.87868
    endloop
  endfacet
  facet normal 0 -1 2.22045e-016
    outer loop
      vertex -0.776457 -1.6 8.10222
      vertex -2.89778 -1.6 10.2235
      vertex -1.5 -1.6 8.40192
    endloop
  endfacet
  facet normal 0 -1 2.22045e-016
    outer loop
      vertex -1.5 -1.6 8.40192
      vertex -2.89778 -1.6 10.2235
      vertex -2.12132 -1.6 8.87868
    endloop
  endfacet
  facet normal 0 -1 2.22045e-016
    outer loop
      vertex 0 -1.6 8
      vertex -2.89778 -1.6 10.2235
      vertex -0.776457 -1.6 8.10222
    endloop
  endfacet
  facet normal 0 -1 2.22045e-016
    outer loop
      vertex 0.776457 -1.6 8.10222
      vertex -2.89778 -1.6 10.2235
      vertex 0 -1.6 8
    endloop
  endfacet
  facet normal 0 -1 2.22045e-016
    outer loop
      vertex 1.5 -1.6 8.40192
      vertex -2.89778 -1.6 10.2235
      vertex 0.776457 -1.6 8.10222
    endloop
  endfacet
  facet normal 0 -1 2.22045e-016
    outer loop
      vertex -0.8625 -1.6 9.50611
      vertex -2.89778 -1.6 10.2235
      vertex 1.5 -1.6 8.40192
    endloop
  endfacet
  facet normal 0 -1 2.22045e-016
    outer loop
      vertex 0.8625 -1.6 9.50611
      vertex 0 -1.6 9.275
      vertex 2.12132 -1.6 8.87868
    endloop
  endfacet
  facet normal 0 -1 2.22045e-016
    outer loop
      vertex -0.8625 -1.6 12.4939
      vertex 0 -1.6 12.725
      vertex 3 -1.6 16
    endloop
  endfacet
  facet normal 0 -1 2.22045e-016
    outer loop
      vertex -1.725 -1.6 11
      vertex -1.49389 -1.6 11.8625
      vertex -2.89778 -1.6 10.2235
    endloop
  endfacet
  facet normal 0 -1 2.22045e-016
    outer loop
      vertex -3 -1.6 11
      vertex -2.89778 -1.6 10.2235
      vertex -3 -1.6 16
    endloop
  endfacet
  facet normal 0 -1 2.22045e-016
    outer loop
      vertex 1.49389 -1.6 10.1375
      vertex 0.8625 -1.6 9.50611
      vertex 2.59808 -1.6 9.5
    endloop
  endfacet
  facet normal 0 -1 2.22045e-016
    outer loop
      vertex -3 -1.6 16
      vertex -2.89778 -1.6 10.2235
      vertex -1.49389 -1.6 11.8625
    endloop
  endfacet
  facet normal 0 -1 2.22045e-016
    outer loop
      vertex -3 -1.6 16
      vertex -0.8625 -1.6 12.4939
      vertex 3 -1.6 16
    endloop
  endfacet
  facet normal 0 -1 2.22045e-016
    outer loop
      vertex -3 -1.6 16
      vertex -1.49389 -1.6 11.8625
      vertex -0.8625 -1.6 12.4939
    endloop
  endfacet
  facet normal 0 -1 2.22045e-016
    outer loop
      vertex 1.725 -1.6 11
      vertex 1.49389 -1.6 10.1375
      vertex 2.89778 -1.6 10.2235
    endloop
  endfacet
  facet normal 0 -1 2.22045e-016
    outer loop
      vertex 3 -1.6 16
      vertex 0.8625 -1.6 12.4939
      vertex 3 -1.6 11
    endloop
  endfacet
  facet normal 0 -1 2.22045e-016
    outer loop
      vertex 3 -1.6 16
      vertex 0 -1.6 12.725
      vertex 0.8625 -1.6 12.4939
    endloop
  endfacet
  facet normal 0 -1 2.22045e-016
    outer loop
      vertex 1.49389 -1.6 11.8625
      vertex 1.725 -1.6 11
      vertex 3 -1.6 11
    endloop
  endfacet
  facet normal 0 -1 2.22045e-016
    outer loop
      vertex 0.8625 -1.6 12.4939
      vertex 1.49389 -1.6 11.8625
      vertex 3 -1.6 11
    endloop
  endfacet
  facet normal 0 -1 2.22045e-016
    outer loop
      vertex 2.89778 -1.6 10.2235
      vertex 1.49389 -1.6 10.1375
      vertex 2.59808 -1.6 9.5
    endloop
  endfacet
  facet normal 0 -1 2.22045e-016
    outer loop
      vertex 2.59808 -1.6 9.5
      vertex 0.8625 -1.6 9.50611
      vertex 2.12132 -1.6 8.87868
    endloop
  endfacet
  facet normal 0 -1 2.22045e-016
    outer loop
      vertex 2.12132 -1.6 8.87868
      vertex 0 -1.6 9.275
      vertex 1.5 -1.6 8.40192
    endloop
  endfacet
  facet normal 0 -1 2.22045e-016
    outer loop
      vertex 0 -1.6 9.275
      vertex -0.8625 -1.6 9.50611
      vertex 1.5 -1.6 8.40192
    endloop
  endfacet
  facet normal 0 -1 2.22045e-016
    outer loop
      vertex -0.8625 -1.6 9.50611
      vertex -1.49389 -1.6 10.1375
      vertex -2.89778 -1.6 10.2235
    endloop
  endfacet
  facet normal 0 -1 2.22045e-016
    outer loop
      vertex 1.725 -1.6 11
      vertex 2.89778 -1.6 10.2235
      vertex 3 -1.6 11
    endloop
  endfacet
  facet normal 0 -1 2.22045e-016
    outer loop
      vertex -1.49389 -1.6 10.1375
      vertex -1.725 -1.6 11
      vertex -2.89778 -1.6 10.2235
    endloop
  endfacet
  facet normal -0.369832 0.794308 -0.481975
    outer loop
      vertex 0.8625 2 12.4939
      vertex 2.18125 4 14.778
      vertex 2.75 3.84721 14.0898
    endloop
  endfacet
  facet normal -0.369832 0.794308 -0.481975
    outer loop
      vertex 2.75 3.84721 14.0898
      vertex 2.18125 4 14.778
      vertex 2.75 4 14.3416
    endloop
  endfacet
  facet normal -0.369833 0.794308 -0.481974
    outer loop
      vertex 0.8625 2 12.4939
      vertex 2.75 3.84721 14.0898
      vertex 1.21976 2 12.2198
    endloop
  endfacet
  facet normal -0.369833 0.794308 -0.481974
    outer loop
      vertex 1.21976 2 12.2198
      vertex 2.75 3.84721 14.0898
      vertex 2.75 3.64101 13.75
    endloop
  endfacet
  facet normal -0.481975 0.794308 -0.369832
    outer loop
      vertex 2.75 3.26403 12.9403
      vertex 1.21976 2 12.2198
      vertex 2.75 3.64101 13.75
    endloop
  endfacet
  facet normal -0.481974 0.794307 -0.369833
    outer loop
      vertex 1.21976 2 12.2198
      vertex 2.75 3.26403 12.9403
      vertex 1.49389 2 11.8625
    endloop
  endfacet
  facet normal -0.481974 0.794307 -0.369833
    outer loop
      vertex 1.49389 2 11.8625
      vertex 2.75 3.26403 12.9403
      vertex 2.75 3.09985 12.5877
    endloop
  endfacet
  facet normal -0.561272 0.794308 -0.232486
    outer loop
      vertex 2.75 2.95384 12.0889
      vertex 1.49389 2 11.8625
      vertex 2.75 3.09985 12.5877
    endloop
  endfacet
  facet normal -0.561272 0.794308 -0.232486
    outer loop
      vertex 1.49389 2 11.8625
      vertex 2.75 2.95384 12.0889
      vertex 1.66622 2 11.4465
    endloop
  endfacet
  facet normal -0.561272 0.794308 -0.232486
    outer loop
      vertex 1.66622 2 11.4465
      vertex 2.75 2.95384 12.0889
      vertex 2.75 2.85081 11.7369
    endloop
  endfacet
  facet normal -0.602319 0.794308 -0.0792967
    outer loop
      vertex 2.75 2.81277 11.3557
      vertex 1.66622 2 11.4465
      vertex 2.75 2.85081 11.7369
    endloop
  endfacet
  facet normal -0.602319 0.794308 -0.0792968
    outer loop
      vertex 1.66622 2 11.4465
      vertex 2.75 2.81277 11.3557
      vertex 1.725 2 11
    endloop
  endfacet
  facet normal -0.602319 0.794308 -0.0792968
    outer loop
      vertex 1.725 2 11
      vertex 2.75 2.81277 11.3557
      vertex 2.75 2.77725 11
    endloop
  endfacet
  facet normal -0.602319 0.794308 0.0792967
    outer loop
      vertex 2.75 2.81406 10.6313
      vertex 1.725 2 11
      vertex 2.75 2.77725 11
    endloop
  endfacet
  facet normal -0.602318 0.794308 0.0792968
    outer loop
      vertex 1.66622 2 10.5535
      vertex 1.725 2 11
      vertex 2.75 2.85081 10.2631
    endloop
  endfacet
  facet normal -0.602318 0.794308 0.0792968
    outer loop
      vertex 2.75 2.85081 10.2631
      vertex 1.725 2 11
      vertex 2.75 2.81406 10.6313
    endloop
  endfacet
  facet normal -0.561271 0.794308 0.232486
    outer loop
      vertex 2.75 2.98616 9.80072
      vertex 1.66622 2 10.5535
      vertex 2.75 2.85081 10.2631
    endloop
  endfacet
  facet normal -0.561272 0.794308 0.232486
    outer loop
      vertex 1.49389 2 10.1375
      vertex 1.66622 2 10.5535
      vertex 2.75 3.09985 9.41229
    endloop
  endfacet
  facet normal -0.561272 0.794308 0.232486
    outer loop
      vertex 2.75 3.09985 9.41229
      vertex 1.66622 2 10.5535
      vertex 2.75 2.98616 9.80072
    endloop
  endfacet
  facet normal -0.481975 0.794308 0.369832
    outer loop
      vertex 2.75 3.45389 8.6519
      vertex 1.49389 2 10.1375
      vertex 2.75 3.09985 9.41229
    endloop
  endfacet
  facet normal -0.481974 0.794308 0.369833
    outer loop
      vertex 1.21976 2 9.78024
      vertex 1.49389 2 10.1375
      vertex 2.75 3.64101 8.25
    endloop
  endfacet
  facet normal -0.481974 0.794308 0.369833
    outer loop
      vertex 2.75 3.64101 8.25
      vertex 1.49389 2 10.1375
      vertex 2.75 3.45389 8.6519
    endloop
  endfacet
  facet normal -0.369832 0.794308 0.481975
    outer loop
      vertex 1.21976 2 9.78024
      vertex 2.75 3.64101 8.25
      vertex 2.35988 4 7.35903
    endloop
  endfacet
  facet normal -0.369832 0.794308 0.481975
    outer loop
      vertex 2.35988 4 7.35903
      vertex 2.75 3.64101 8.25
      vertex 2.75 4 7.65838
    endloop
  endfacet
  facet normal -0.369833 0.794307 0.481974
    outer loop
      vertex 0.8625 2 9.50611
      vertex 1.21976 2 9.78024
      vertex 2.18125 4 7.22196
    endloop
  endfacet
  facet normal -0.369833 0.794307 0.481974
    outer loop
      vertex 2.18125 4 7.22196
      vertex 1.21976 2 9.78024
      vertex 2.35988 4 7.35903
    endloop
  endfacet
  facet normal -0.232486 0.794308 0.561272
    outer loop
      vertex 1.33712 4 6.87231
      vertex 0.8625 2 9.50611
      vertex 2.18125 4 7.22196
    endloop
  endfacet
  facet normal -0.232486 0.794308 0.561272
    outer loop
      vertex 0.446463 2 9.33378
      vertex 0.8625 2 9.50611
      vertex 1.1291 4 6.78615
    endloop
  endfacet
  facet normal -0.232486 0.794308 0.561272
    outer loop
      vertex 1.1291 4 6.78615
      vertex 0.8625 2 9.50611
      vertex 1.33712 4 6.87231
    endloop
  endfacet
  facet normal -0.0792967 0.794308 0.602319
    outer loop
      vertex 1.1291 4 6.78615
      vertex 0.223231 4 6.66689
      vertex 0.446463 2 9.33378
    endloop
  endfacet
  facet normal -0.0792968 0.794308 0.602319
    outer loop
      vertex 0 2 9.275
      vertex 0.446463 2 9.33378
      vertex 0 4 6.6375
    endloop
  endfacet
  facet normal -0.0792968 0.794308 0.602319
    outer loop
      vertex 0 4 6.6375
      vertex 0.446463 2 9.33378
      vertex 0.223231 4 6.66689
    endloop
  endfacet
  facet normal 0.0792967 0.794308 0.602319
    outer loop
      vertex 0 4 6.6375
      vertex -0.905867 4 6.75676
      vertex 0 2 9.275
    endloop
  endfacet
  facet normal 0.0792968 0.794308 0.602318
    outer loop
      vertex -1.1291 4 6.78615
      vertex -0.446463 2 9.33378
      vertex -0.905867 4 6.75676
    endloop
  endfacet
  facet normal 0.0792968 0.794308 0.602318
    outer loop
      vertex -0.905867 4 6.75676
      vertex -0.446463 2 9.33378
      vertex 0 2 9.275
    endloop
  endfacet
  facet normal 0.232486 0.794308 0.561271
    outer loop
      vertex -1.1291 4 6.78615
      vertex -1.97323 4 7.1358
      vertex -0.446463 2 9.33378
    endloop
  endfacet
  facet normal 0.232486 0.794308 0.561272
    outer loop
      vertex -2.18125 4 7.22196
      vertex -0.8625 2 9.50611
      vertex -1.97323 4 7.1358
    endloop
  endfacet
  facet normal 0.232486 0.794308 0.561272
    outer loop
      vertex -1.97323 4 7.1358
      vertex -0.8625 2 9.50611
      vertex -0.446463 2 9.33378
    endloop
  endfacet
  facet normal 0.369832 0.794308 0.481975
    outer loop
      vertex -2.75 3.84721 7.91019
      vertex -0.8625 2 9.50611
      vertex -2.75 4 7.65838
    endloop
  endfacet
  facet normal 0.369832 0.794308 0.481975
    outer loop
      vertex -2.75 4 7.65838
      vertex -0.8625 2 9.50611
      vertex -2.18125 4 7.22196
    endloop
  endfacet
  facet normal 0.369833 0.794308 0.481974
    outer loop
      vertex -2.75 3.64101 8.25
      vertex -1.21976 2 9.78024
      vertex -2.75 3.84721 7.91019
    endloop
  endfacet
  facet normal 0.369833 0.794308 0.481974
    outer loop
      vertex -2.75 3.84721 7.91019
      vertex -1.21976 2 9.78024
      vertex -0.8625 2 9.50611
    endloop
  endfacet
  facet normal 0.481975 0.794308 0.369832
    outer loop
      vertex -2.75 3.64101 8.25
      vertex -2.75 3.26403 9.05967
      vertex -1.21976 2 9.78024
    endloop
  endfacet
  facet normal 0.481974 0.794307 0.369833
    outer loop
      vertex -2.75 3.09985 9.41229
      vertex -1.49389 2 10.1375
      vertex -2.75 3.26403 9.05967
    endloop
  endfacet
  facet normal 0.481974 0.794307 0.369833
    outer loop
      vertex -2.75 3.26403 9.05967
      vertex -1.49389 2 10.1375
      vertex -1.21976 2 9.78024
    endloop
  endfacet
  facet normal 0.561272 0.794308 0.232486
    outer loop
      vertex -2.75 3.09985 9.41229
      vertex -2.75 2.95384 9.91115
      vertex -1.49389 2 10.1375
    endloop
  endfacet
  facet normal 0.561272 0.794308 0.232486
    outer loop
      vertex -2.75 2.85081 10.2631
      vertex -1.66622 2 10.5535
      vertex -2.75 2.95384 9.91115
    endloop
  endfacet
  facet normal 0.561272 0.794308 0.232486
    outer loop
      vertex -2.75 2.95384 9.91115
      vertex -1.66622 2 10.5535
      vertex -1.49389 2 10.1375
    endloop
  endfacet
  facet normal 0.602319 0.794308 0.0792967
    outer loop
      vertex -2.75 2.85081 10.2631
      vertex -2.75 2.81277 10.6443
      vertex -1.66622 2 10.5535
    endloop
  endfacet
  facet normal 0.602319 0.794308 0.0792968
    outer loop
      vertex -2.75 2.77725 11
      vertex -1.725 2 11
      vertex -2.75 2.81277 10.6443
    endloop
  endfacet
  facet normal 0.602319 0.794308 0.0792968
    outer loop
      vertex -2.75 2.81277 10.6443
      vertex -1.725 2 11
      vertex -1.66622 2 10.5535
    endloop
  endfacet
  facet normal 0.602319 0.794308 -0.0792967
    outer loop
      vertex -1.725 2 11
      vertex -2.75 2.77725 11
      vertex -2.75 2.81406 11.3687
    endloop
  endfacet
  facet normal 0.602318 0.794308 -0.0792968
    outer loop
      vertex -2.75 2.81406 11.3687
      vertex -2.75 2.85081 11.7369
      vertex -1.725 2 11
    endloop
  endfacet
  facet normal 0.602318 0.794308 -0.0792968
    outer loop
      vertex -1.725 2 11
      vertex -2.75 2.85081 11.7369
      vertex -1.66622 2 11.4465
    endloop
  endfacet
  facet normal 0.561271 0.794308 -0.232486
    outer loop
      vertex -1.66622 2 11.4465
      vertex -2.75 2.85081 11.7369
      vertex -2.75 2.98616 12.1993
    endloop
  endfacet
  facet normal 0.561272 0.794308 -0.232486
    outer loop
      vertex -2.75 2.98616 12.1993
      vertex -2.75 3.09985 12.5877
      vertex -1.66622 2 11.4465
    endloop
  endfacet
  facet normal 0.561272 0.794308 -0.232486
    outer loop
      vertex -1.66622 2 11.4465
      vertex -2.75 3.09985 12.5877
      vertex -1.49389 2 11.8625
    endloop
  endfacet
  facet normal 0.481975 0.794308 -0.369832
    outer loop
      vertex -1.49389 2 11.8625
      vertex -2.75 3.09985 12.5877
      vertex -2.75 3.45389 13.3481
    endloop
  endfacet
  facet normal 0.481974 0.794308 -0.369833
    outer loop
      vertex -2.75 3.45389 13.3481
      vertex -2.75 3.64101 13.75
      vertex -1.49389 2 11.8625
    endloop
  endfacet
  facet normal 0.481974 0.794308 -0.369833
    outer loop
      vertex -1.49389 2 11.8625
      vertex -2.75 3.64101 13.75
      vertex -1.21976 2 12.2198
    endloop
  endfacet
  facet normal 0.369832 0.794308 -0.481975
    outer loop
      vertex -2.75 3.64101 13.75
      vertex -2.75 4 14.3416
      vertex -1.21976 2 12.2198
    endloop
  endfacet
  facet normal 0.369832 0.794308 -0.481975
    outer loop
      vertex -1.21976 2 12.2198
      vertex -2.75 4 14.3416
      vertex -2.35988 4 14.641
    endloop
  endfacet
  facet normal 0.369833 0.794307 -0.481974
    outer loop
      vertex -2.35988 4 14.641
      vertex -2.18125 4 14.778
      vertex -1.21976 2 12.2198
    endloop
  endfacet
  facet normal 0.369833 0.794307 -0.481974
    outer loop
      vertex -1.21976 2 12.2198
      vertex -2.18125 4 14.778
      vertex -0.8625 2 12.4939
    endloop
  endfacet
  facet normal 0.232486 0.794308 -0.561272
    outer loop
      vertex -0.8625 2 12.4939
      vertex -2.18125 4 14.778
      vertex -1.33712 4 15.1277
    endloop
  endfacet
  facet normal 0.232486 0.794308 -0.561272
    outer loop
      vertex -1.33712 4 15.1277
      vertex -1.1291 4 15.2139
      vertex -0.8625 2 12.4939
    endloop
  endfacet
  facet normal 0.232486 0.794308 -0.561272
    outer loop
      vertex -0.8625 2 12.4939
      vertex -1.1291 4 15.2139
      vertex -0.446463 2 12.6662
    endloop
  endfacet
  facet normal 0.0792967 0.794308 -0.602319
    outer loop
      vertex -0.446463 2 12.6662
      vertex -1.1291 4 15.2139
      vertex -0.223232 4 15.3331
    endloop
  endfacet
  facet normal 0.0792968 0.794308 -0.602319
    outer loop
      vertex -0.446463 2 12.6662
      vertex -0.223232 4 15.3331
      vertex 0 2 12.725
    endloop
  endfacet
  facet normal 0.0792968 0.794308 -0.602319
    outer loop
      vertex 0 2 12.725
      vertex -0.223232 4 15.3331
      vertex 0 4 15.3625
    endloop
  endfacet
  facet normal -0.0792967 0.794308 -0.602319
    outer loop
      vertex 0.905866 4 15.2432
      vertex 0 2 12.725
      vertex 0 4 15.3625
    endloop
  endfacet
  facet normal -0.0792968 0.794308 -0.602318
    outer loop
      vertex 0 2 12.725
      vertex 0.905866 4 15.2432
      vertex 0.446463 2 12.6662
    endloop
  endfacet
  facet normal -0.0792968 0.794308 -0.602318
    outer loop
      vertex 0.446463 2 12.6662
      vertex 0.905866 4 15.2432
      vertex 1.1291 4 15.2139
    endloop
  endfacet
  facet normal -0.232486 0.794308 -0.561271
    outer loop
      vertex 1.97323 4 14.8642
      vertex 0.446463 2 12.6662
      vertex 1.1291 4 15.2139
    endloop
  endfacet
  facet normal -0.232486 0.794308 -0.561272
    outer loop
      vertex 0.446463 2 12.6662
      vertex 1.97323 4 14.8642
      vertex 0.8625 2 12.4939
    endloop
  endfacet
  facet normal -0.232486 0.794308 -0.561272
    outer loop
      vertex 0.8625 2 12.4939
      vertex 1.97323 4 14.8642
      vertex 2.18125 4 14.778
    endloop
  endfacet
  facet normal 0.965926 5.74693e-017 0.258819
    outer loop
      vertex -1.49389 -1.6 10.1375
      vertex -1.49389 2 10.1375
      vertex -1.725 2 11
    endloop
  endfacet
  facet normal 0.965926 5.74693e-017 0.258819
    outer loop
      vertex -1.725 -1.6 11
      vertex -1.49389 -1.6 10.1375
      vertex -1.725 2 11
    endloop
  endfacet
  facet normal 0.965926 -5.74693e-017 -0.258819
    outer loop
      vertex -1.725 2 11
      vertex -1.49389 2 11.8625
      vertex -1.49389 -1.6 11.8625
    endloop
  endfacet
  facet normal 0.965926 -5.74693e-017 -0.258819
    outer loop
      vertex -1.725 -1.6 11
      vertex -1.725 2 11
      vertex -1.49389 -1.6 11.8625
    endloop
  endfacet
  facet normal 0.707107 1.57009e-016 0.707107
    outer loop
      vertex -0.8625 -1.6 9.50611
      vertex -0.8625 2 9.50611
      vertex -1.49389 2 10.1375
    endloop
  endfacet
  facet normal 0.707107 1.57009e-016 0.707107
    outer loop
      vertex -1.49389 -1.6 10.1375
      vertex -0.8625 -1.6 9.50611
      vertex -1.49389 2 10.1375
    endloop
  endfacet
  facet normal 0.258819 2.14479e-016 0.965926
    outer loop
      vertex 0 -1.6 9.275
      vertex 0 2 9.275
      vertex -0.8625 2 9.50611
    endloop
  endfacet
  facet normal 0.258819 2.14479e-016 0.965926
    outer loop
      vertex -0.8625 -1.6 9.50611
      vertex 0 -1.6 9.275
      vertex -0.8625 2 9.50611
    endloop
  endfacet
  facet normal -0.258819 2.14479e-016 0.965926
    outer loop
      vertex 0.8625 -1.6 9.50611
      vertex 0.8625 2 9.50611
      vertex 0 2 9.275
    endloop
  endfacet
  facet normal -0.258819 2.14479e-016 0.965926
    outer loop
      vertex 0 -1.6 9.275
      vertex 0.8625 -1.6 9.50611
      vertex 0 2 9.275
    endloop
  endfacet
  facet normal -0.707107 1.57009e-016 0.707107
    outer loop
      vertex 1.49389 2 10.1375
      vertex 0.8625 2 9.50611
      vertex 1.49389 -1.6 10.1375
    endloop
  endfacet
  facet normal -0.707107 1.57009e-016 0.707107
    outer loop
      vertex 1.49389 -1.6 10.1375
      vertex 0.8625 2 9.50611
      vertex 0.8625 -1.6 9.50611
    endloop
  endfacet
  facet normal -0.965926 5.74693e-017 0.258819
    outer loop
      vertex 1.725 2 11
      vertex 1.49389 2 10.1375
      vertex 1.725 -1.6 11
    endloop
  endfacet
  facet normal -0.965926 5.74693e-017 0.258819
    outer loop
      vertex 1.725 -1.6 11
      vertex 1.49389 2 10.1375
      vertex 1.49389 -1.6 10.1375
    endloop
  endfacet
  facet normal -0.965926 -5.74693e-017 -0.258819
    outer loop
      vertex 1.725 2 11
      vertex 1.725 -1.6 11
      vertex 1.49389 2 11.8625
    endloop
  endfacet
  facet normal -0.965926 -5.74693e-017 -0.258819
    outer loop
      vertex 1.49389 2 11.8625
      vertex 1.725 -1.6 11
      vertex 1.49389 -1.6 11.8625
    endloop
  endfacet
  facet normal -0.707107 -1.57009e-016 -0.707107
    outer loop
      vertex 1.49389 2 11.8625
      vertex 1.49389 -1.6 11.8625
      vertex 0.8625 2 12.4939
    endloop
  endfacet
  facet normal -0.707107 -1.57009e-016 -0.707107
    outer loop
      vertex 0.8625 2 12.4939
      vertex 1.49389 -1.6 11.8625
      vertex 0.8625 -1.6 12.4939
    endloop
  endfacet
  facet normal -0.258819 -2.14479e-016 -0.965926
    outer loop
      vertex 0.8625 2 12.4939
      vertex 0.8625 -1.6 12.4939
      vertex 0 2 12.725
    endloop
  endfacet
  facet normal -0.258819 -2.14479e-016 -0.965926
    outer loop
      vertex 0 2 12.725
      vertex 0.8625 -1.6 12.4939
      vertex 0 -1.6 12.725
    endloop
  endfacet
  facet normal 0.258819 -2.14479e-016 -0.965926
    outer loop
      vertex 0 2 12.725
      vertex 0 -1.6 12.725
      vertex -0.8625 2 12.4939
    endloop
  endfacet
  facet normal 0.258819 -2.14479e-016 -0.965926
    outer loop
      vertex -0.8625 2 12.4939
      vertex 0 -1.6 12.725
      vertex -0.8625 -1.6 12.4939
    endloop
  endfacet
  facet normal 0.707107 -1.57009e-016 -0.707107
    outer loop
      vertex -1.49389 2 11.8625
      vertex -0.8625 2 12.4939
      vertex -0.8625 -1.6 12.4939
    endloop
  endfacet
  facet normal 0.707107 -1.57009e-016 -0.707107
    outer loop
      vertex -1.49389 -1.6 11.8625
      vertex -1.49389 2 11.8625
      vertex -0.8625 -1.6 12.4939
    endloop
  endfacet
  facet normal 0 1 -2.22045e-016
    outer loop
      vertex 0.8625 2 12.4939
      vertex 0 2 12.725
      vertex 0.446463 2 12.6662
    endloop
  endfacet
  facet normal 0 1 -2.22045e-016
    outer loop
      vertex 1.49389 2 11.8625
      vertex 0.8625 2 12.4939
      vertex 1.21976 2 12.2198
    endloop
  endfacet
  facet normal 0 1 -2.22045e-016
    outer loop
      vertex 1.725 2 11
      vertex 1.49389 2 11.8625
      vertex 1.66622 2 11.4465
    endloop
  endfacet
  facet normal 0 1 -2.22045e-016
    outer loop
      vertex 1.66622 2 10.5535
      vertex 1.49389 2 10.1375
      vertex 1.725 2 11
    endloop
  endfacet
  facet normal 0 1 -2.22045e-016
    outer loop
      vertex 1.21976 2 9.78024
      vertex 0.8625 2 9.50611
      vertex 1.49389 2 10.1375
    endloop
  endfacet
  facet normal 0 1 -2.22045e-016
    outer loop
      vertex 0.446463 2 9.33378
      vertex 0 2 9.275
      vertex 0.8625 2 9.50611
    endloop
  endfacet
  facet normal 0 1 -2.22045e-016
    outer loop
      vertex -0.446463 2 9.33378
      vertex -0.8625 2 9.50611
      vertex 0 2 9.275
    endloop
  endfacet
  facet normal 0 1 -2.22045e-016
    outer loop
      vertex -1.21976 2 9.78024
      vertex -1.49389 2 10.1375
      vertex -0.8625 2 9.50611
    endloop
  endfacet
  facet normal 0 1 -2.22045e-016
    outer loop
      vertex -1.66622 2 10.5535
      vertex -1.725 2 11
      vertex -1.49389 2 10.1375
    endloop
  endfacet
  facet normal 0 1 -2.22045e-016
    outer loop
      vertex -1.49389 2 11.8625
      vertex -1.725 2 11
      vertex -1.66622 2 11.4465
    endloop
  endfacet
  facet normal 0 1 -2.22045e-016
    outer loop
      vertex -0.8625 2 12.4939
      vertex -1.49389 2 11.8625
      vertex -1.21976 2 12.2198
    endloop
  endfacet
  facet normal 0 1 -2.22045e-016
    outer loop
      vertex 0 2 12.725
      vertex -0.8625 2 12.4939
      vertex -0.446463 2 12.6662
    endloop
  endfacet
endsolid OpenSCAD_Model
