solid m3_screw _2020case_2
facet normal 0.0 0.0 -1.0
  outer loop
    vertex 15.6018984065899 1009.11659793029 3.55315776801035e-013
    vertex 13.3518984065899 1007.91659793029 3.55315776801035e-013
    vertex 12.9518984065899 1011.81659793029 3.55315776801035e-013
  endloop
endfacet
facet normal 0.0 0.0 -1.0
  outer loop
    vertex 13.3518984065899 1007.91659793029 3.55315776801035e-013
    vertex 15.6018984065899 1009.11659793029 3.55315776801035e-013
    vertex 15.6018984065899 1007.91659793029 3.55315776801035e-013
  endloop
endfacet
facet normal 0.0 0.0 -1.0
  outer loop
    vertex 7.75189840658994 1011.81659793029 3.55315776801035e-013
    vertex 5.10189840658994 1007.91659793029 3.55315776801035e-013
    vertex 5.10189840658994 1009.11659793029 3.55315776801035e-013
  endloop
endfacet
facet normal 0.0 0.0 -1.0
  outer loop
    vertex 5.10189840658994 1007.91659793029 3.55315776801035e-013
    vertex 7.75189840658994 1011.81659793029 3.55315776801035e-013
    vertex 7.35189840658994 1007.91659793029 3.55315776801035e-013
  endloop
endfacet
facet normal 0.0 0.0 -1.0
  outer loop
    vertex 7.35189840658994 1007.91659793029 3.55315776801035e-013
    vertex 7.75189840658994 1011.81659793029 3.55315776801035e-013
    vertex 7.35189840658994 1006.31659793029 3.55315776801035e-013
  endloop
endfacet
facet normal 0.0 0.0 -1.0
  outer loop
    vertex 7.35189840658994 1006.31659793029 3.55315776801035e-013
    vertex 7.75189840658994 1011.81659793029 3.55315776801035e-013
    vertex 13.3518984065899 1006.31659793029 3.55315776801035e-013
  endloop
endfacet
facet normal 0.0 0.0 -1.0
  outer loop
    vertex 13.3518984065899 1006.31659793029 3.55315776801035e-013
    vertex 7.75189840658994 1011.81659793029 3.55315776801035e-013
    vertex 12.9518984065899 1011.81659793029 3.55315776801035e-013
  endloop
endfacet
facet normal 0.0 0.0 -1.0
  outer loop
    vertex 13.3518984065899 1006.31659793029 3.55315776801035e-013
    vertex 12.9518984065899 1011.81659793029 3.55315776801035e-013
    vertex 13.3518984065899 1007.91659793029 3.55315776801035e-013
  endloop
endfacet
facet normal 0.0 0.0 1.0
  outer loop
    vertex 13.3518984065899 1006.31659793029 15.0000000000004
    vertex 7.35189840658994 1007.91659793029 15.0000000000004
    vertex 7.35189840658994 1006.31659793029 15.0000000000004
  endloop
endfacet
facet normal 0.0 0.0 1.0
  outer loop
    vertex 7.35189840658994 1007.91659793029 15.0000000000004
    vertex 13.3518984065899 1006.31659793029 15.0000000000004
    vertex 7.75189840658994 1011.81659793029 15.0000000000004
  endloop
endfacet
facet normal 0.0 0.0 1.0
  outer loop
    vertex 7.75189840658994 1011.81659793029 15.0000000000004
    vertex 13.3518984065899 1006.31659793029 15.0000000000004
    vertex 12.9518984065899 1011.81659793029 15.0000000000004
  endloop
endfacet
facet normal 0.0 0.0 1.0
  outer loop
    vertex 12.9518984065899 1011.81659793029 15.0000000000004
    vertex 13.3518984065899 1006.31659793029 15.0000000000004
    vertex 13.3518984065899 1007.91659793029 15.0000000000004
  endloop
endfacet
facet normal 0.0 0.0 1.0
  outer loop
    vertex 12.9518984065899 1011.81659793029 15.0000000000004
    vertex 13.3518984065899 1007.91659793029 15.0000000000004
    vertex 15.6018984065899 1009.11659793029 15.0000000000004
  endloop
endfacet
facet normal 0.0 0.0 1.0
  outer loop
    vertex 15.6018984065899 1009.11659793029 15.0000000000004
    vertex 13.3518984065899 1007.91659793029 15.0000000000004
    vertex 15.6018984065899 1007.91659793029 15.0000000000004
  endloop
endfacet
facet normal 0.0 0.0 1.0
  outer loop
    vertex 7.35189840658994 1007.91659793029 15.0000000000004
    vertex 5.10189840658994 1009.11659793029 15.0000000000004
    vertex 5.10189840658994 1007.91659793029 15.0000000000004
  endloop
endfacet
facet normal 0.0 0.0 1.0
  outer loop
    vertex 5.10189840658994 1009.11659793029 15.0000000000004
    vertex 7.35189840658994 1007.91659793029 15.0000000000004
    vertex 7.75189840658994 1011.81659793029 15.0000000000004
  endloop
endfacet
facet normal 0.0 -1.0 0.0
  outer loop
    vertex 13.3518984065899 1006.31659793029 3.55315776801035e-013
    vertex 12.0905423063728 1006.31659793029 6.49619347643581
    vertex 7.35189840658994 1006.31659793029 3.55315776801035e-013
  endloop
endfacet
facet normal 0.0 -1.0 0.0
  outer loop
    vertex 12.0905423063728 1006.31659793029 6.49619347643581
    vertex 13.3518984065899 1006.31659793029 3.55315776801035e-013
    vertex 12.2911036980068 1006.31659793029 6.98039150820704
  endloop
endfacet
facet normal 0.0 -1.0 0.0
  outer loop
    vertex 12.2911036980068 1006.31659793029 6.98039150820704
    vertex 13.3518984065899 1006.31659793029 3.55315776801035e-013
    vertex 13.3518984065899 1006.31659793029 15.0000000000004
  endloop
endfacet
facet normal 0.0 -1.0 0.0
  outer loop
    vertex 7.35189840658994 1006.31659793029 3.55315776801035e-013
    vertex 12.0905423063728 1006.31659793029 6.49619347643581
    vertex 11.7714952062135 1006.31659793029 6.08040320037679
  endloop
endfacet
facet normal 0.0 -1.0 0.0
  outer loop
    vertex 7.35189840658994 1006.31659793029 3.55315776801035e-013
    vertex 11.7714952062135 1006.31659793029 6.08040320037679
    vertex 11.3557049301545 1006.31659793029 5.76135610021748
  endloop
endfacet
facet normal 0.0 -1.0 0.0
  outer loop
    vertex 7.35189840658994 1006.31659793029 3.55315776801035e-013
    vertex 11.3557049301545 1006.31659793029 5.76135610021748
    vertex 10.8715068983833 1006.31659793029 5.56079470858348
  endloop
endfacet
facet normal 0.0 -1.0 0.0
  outer loop
    vertex 7.35189840658994 1006.31659793029 3.55315776801035e-013
    vertex 10.8715068983833 1006.31659793029 5.56079470858348
    vertex 10.3518984065899 1006.31659793029 5.49238695287127
  endloop
endfacet
facet normal 0.0 -1.0 0.0
  outer loop
    vertex 12.2911036980068 1006.31659793029 6.98039150820704
    vertex 13.3518984065899 1006.31659793029 15.0000000000004
    vertex 12.359511453719 1006.31659793029 7.50000000000036
  endloop
endfacet
facet normal 0.0 -1.0 0.0
  outer loop
    vertex 12.359511453719 1006.31659793029 7.50000000000036
    vertex 13.3518984065899 1006.31659793029 15.0000000000004
    vertex 12.2911036980068 1006.31659793029 8.01960849179367
  endloop
endfacet
facet normal 0.0 -1.0 0.0
  outer loop
    vertex 12.2911036980068 1006.31659793029 8.01960849179367
    vertex 13.3518984065899 1006.31659793029 15.0000000000004
    vertex 12.0905423063728 1006.31659793029 8.5038065235649
  endloop
endfacet
facet normal 0.0 -1.0 0.0
  outer loop
    vertex 12.0905423063728 1006.31659793029 8.5038065235649
    vertex 13.3518984065899 1006.31659793029 15.0000000000004
    vertex 11.7714952062135 1006.31659793029 8.91959679962392
  endloop
endfacet
facet normal 0.0 -1.0 0.0
  outer loop
    vertex 11.7714952062135 1006.31659793029 8.91959679962392
    vertex 13.3518984065899 1006.31659793029 15.0000000000004
    vertex 11.3557049301545 1006.31659793029 9.23864389978323
  endloop
endfacet
facet normal 0.0 -1.0 0.0
  outer loop
    vertex 11.3557049301545 1006.31659793029 9.23864389978323
    vertex 13.3518984065899 1006.31659793029 15.0000000000004
    vertex 10.8715068983833 1006.31659793029 9.43920529141723
  endloop
endfacet
facet normal 0.0 -1.0 0.0
  outer loop
    vertex 10.8715068983833 1006.31659793029 9.43920529141723
    vertex 13.3518984065899 1006.31659793029 15.0000000000004
    vertex 10.3518984065899 1006.31659793029 9.50761304712944
  endloop
endfacet
facet normal 0.0 -1.0 0.0
  outer loop
    vertex 7.35189840658994 1006.31659793029 3.55315776801035e-013
    vertex 8.41269311517306 1006.31659793029 6.98039150820705
    vertex 7.35189840658994 1006.31659793029 15.0000000000004
  endloop
endfacet
facet normal 0.0 -1.0 0.0
  outer loop
    vertex 8.41269311517306 1006.31659793029 6.98039150820705
    vertex 7.35189840658994 1006.31659793029 3.55315776801035e-013
    vertex 8.61325450680707 1006.31659793029 6.49619347643581
  endloop
endfacet
facet normal 0.0 -1.0 0.0
  outer loop
    vertex 8.61325450680707 1006.31659793029 6.49619347643581
    vertex 7.35189840658994 1006.31659793029 3.55315776801035e-013
    vertex 8.93230160696638 1006.31659793029 6.08040320037679
  endloop
endfacet
facet normal 0.0 -1.0 0.0
  outer loop
    vertex 8.93230160696638 1006.31659793029 6.08040320037679
    vertex 7.35189840658994 1006.31659793029 3.55315776801035e-013
    vertex 9.3480918830254 1006.31659793029 5.76135610021748
  endloop
endfacet
facet normal 0.0 -1.0 0.0
  outer loop
    vertex 9.3480918830254 1006.31659793029 5.76135610021748
    vertex 7.35189840658994 1006.31659793029 3.55315776801035e-013
    vertex 9.83228991479663 1006.31659793029 5.56079470858348
  endloop
endfacet
facet normal 0.0 -1.0 0.0
  outer loop
    vertex 9.83228991479663 1006.31659793029 5.56079470858348
    vertex 7.35189840658994 1006.31659793029 3.55315776801035e-013
    vertex 10.3518984065899 1006.31659793029 5.49238695287127
  endloop
endfacet
facet normal 0.0 -1.0 0.0
  outer loop
    vertex 7.35189840658994 1006.31659793029 15.0000000000004
    vertex 8.41269311517306 1006.31659793029 6.98039150820705
    vertex 8.34428535946086 1006.31659793029 7.50000000000036
  endloop
endfacet
facet normal 0.0 -1.0 0.0
  outer loop
    vertex 7.35189840658994 1006.31659793029 15.0000000000004
    vertex 8.34428535946086 1006.31659793029 7.50000000000036
    vertex 8.41269311517306 1006.31659793029 8.01960849179367
  endloop
endfacet
facet normal 0.0 -1.0 0.0
  outer loop
    vertex 7.35189840658994 1006.31659793029 15.0000000000004
    vertex 8.41269311517306 1006.31659793029 8.01960849179367
    vertex 8.61325450680707 1006.31659793029 8.5038065235649
  endloop
endfacet
facet normal 0.0 -1.0 0.0
  outer loop
    vertex 7.35189840658994 1006.31659793029 15.0000000000004
    vertex 8.61325450680707 1006.31659793029 8.5038065235649
    vertex 8.93230160696638 1006.31659793029 8.91959679962392
  endloop
endfacet
facet normal 0.0 -1.0 0.0
  outer loop
    vertex 7.35189840658994 1006.31659793029 15.0000000000004
    vertex 8.93230160696638 1006.31659793029 8.91959679962392
    vertex 9.3480918830254 1006.31659793029 9.23864389978323
  endloop
endfacet
facet normal 0.0 -1.0 0.0
  outer loop
    vertex 7.35189840658994 1006.31659793029 15.0000000000004
    vertex 9.3480918830254 1006.31659793029 9.23864389978323
    vertex 9.83228991479663 1006.31659793029 9.43920529141723
  endloop
endfacet
facet normal 0.0 -1.0 0.0
  outer loop
    vertex 7.35189840658994 1006.31659793029 15.0000000000004
    vertex 9.83228991479663 1006.31659793029 9.43920529141723
    vertex 10.3518984065899 1006.31659793029 9.50761304712944
  endloop
endfacet
facet normal 0.0 -1.0 0.0
  outer loop
    vertex 7.35189840658994 1006.31659793029 15.0000000000004
    vertex 10.3518984065899 1006.31659793029 9.50761304712944
    vertex 13.3518984065899 1006.31659793029 15.0000000000004
  endloop
endfacet
facet normal -1.0 0.0 0.0
  outer loop
    vertex 7.35189840658994 1007.91659793029 15.0000000000004
    vertex 7.35189840658994 1006.31659793029 3.55315776801035e-013
    vertex 7.35189840658994 1006.31659793029 15.0000000000004
  endloop
endfacet
facet normal -1.0 0.0 0.0
  outer loop
    vertex 7.35189840658994 1006.31659793029 3.55315776801035e-013
    vertex 7.35189840658994 1007.91659793029 15.0000000000004
    vertex 7.35189840658994 1007.91659793029 3.55315776801035e-013
  endloop
endfacet
facet normal 0.0 -1.0 0.0
  outer loop
    vertex 7.35189840658994 1007.91659793029 15.0000000000004
    vertex 5.10189840658994 1007.91659793029 3.55315776801035e-013
    vertex 7.35189840658994 1007.91659793029 3.55315776801035e-013
  endloop
endfacet
facet normal 0.0 -1.0 0.0
  outer loop
    vertex 5.10189840658994 1007.91659793029 3.55315776801035e-013
    vertex 7.35189840658994 1007.91659793029 15.0000000000004
    vertex 5.10189840658994 1007.91659793029 15.0000000000004
  endloop
endfacet
facet normal -1.0 0.0 0.0
  outer loop
    vertex 5.10189840658994 1009.11659793029 15.0000000000004
    vertex 5.10189840658994 1007.91659793029 3.55315776801035e-013
    vertex 5.10189840658994 1007.91659793029 15.0000000000004
  endloop
endfacet
facet normal -1.0 0.0 0.0
  outer loop
    vertex 5.10189840658994 1007.91659793029 3.55315776801035e-013
    vertex 5.10189840658994 1009.11659793029 15.0000000000004
    vertex 5.10189840658994 1009.11659793029 3.55315776801035e-013
  endloop
endfacet
facet normal 0.0 1.0 0.0
  outer loop
    vertex 7.75189840658994 1011.81659793029 3.55315776801035e-013
    vertex 8.70189840658994 1011.81659793029 4.64211616751171
    vertex 12.9518984065899 1011.81659793029 3.55315776801035e-013
  endloop
endfacet
facet normal 0.0 1.0 0.0
  outer loop
    vertex 8.70189840658994 1011.81659793029 4.64211616751171
    vertex 7.75189840658994 1011.81659793029 3.55315776801035e-013
    vertex 7.75386550555205 1011.81659793029 6.28415731935626
  endloop
endfacet
facet normal 0.0 1.0 0.0
  outer loop
    vertex 12.9518984065899 1011.81659793029 3.55315776801035e-013
    vertex 8.70189840658994 1011.81659793029 4.64211616751171
    vertex 12.0018984065899 1011.81659793029 4.64211616751171
  endloop
endfacet
facet normal 0.0 1.0 0.0
  outer loop
    vertex 12.9513094354658 1011.81659793029 6.28654430679093
    vertex 12.9518984065899 1011.81659793029 3.55315776801035e-013
    vertex 12.0018984065899 1011.81659793029 4.64211616751171
  endloop
endfacet
facet normal 1.0 0.0 0.0
  outer loop
    vertex 15.6018984065899 1009.11659793029 3.55315776801035e-013
    vertex 15.6018984065899 1007.91659793029 15.0000000000004
    vertex 15.6018984065899 1007.91659793029 3.55315776801035e-013
  endloop
endfacet
facet normal 1.0 0.0 0.0
  outer loop
    vertex 15.6018984065899 1007.91659793029 15.0000000000004
    vertex 15.6018984065899 1009.11659793029 3.55315776801035e-013
    vertex 15.6018984065899 1009.11659793029 15.0000000000004
  endloop
endfacet
facet normal 0.0 -1.0 0.0
  outer loop
    vertex 15.6018984065899 1007.91659793029 15.0000000000004
    vertex 13.3518984065899 1007.91659793029 3.55315776801035e-013
    vertex 15.6018984065899 1007.91659793029 3.55315776801035e-013
  endloop
endfacet
facet normal 0.0 -1.0 0.0
  outer loop
    vertex 13.3518984065899 1007.91659793029 3.55315776801035e-013
    vertex 15.6018984065899 1007.91659793029 15.0000000000004
    vertex 13.3518984065899 1007.91659793029 15.0000000000004
  endloop
endfacet
facet normal 1.0 0.0 0.0
  outer loop
    vertex 13.3518984065899 1007.91659793029 3.55315776801035e-013
    vertex 13.3518984065899 1006.31659793029 15.0000000000004
    vertex 13.3518984065899 1006.31659793029 3.55315776801035e-013
  endloop
endfacet
facet normal 1.0 0.0 0.0
  outer loop
    vertex 13.3518984065899 1006.31659793029 15.0000000000004
    vertex 13.3518984065899 1007.91659793029 3.55315776801035e-013
    vertex 13.3518984065899 1007.91659793029 15.0000000000004
  endloop
endfacet
facet normal 0.0 1.0 0.0
  outer loop
    vertex 7.75189840658994 1011.81659793029 15.0000000000004
    vertex 8.70189840658994 1011.81659793029 10.357883832489
    vertex 7.75248737771409 1011.81659793029 8.71345569320978
  endloop
endfacet
facet normal 0.0 1.0 0.0
  outer loop
    vertex 8.70189840658994 1011.81659793029 10.357883832489
    vertex 7.75189840658994 1011.81659793029 15.0000000000004
    vertex 12.0018984065899 1011.81659793029 10.357883832489
  endloop
endfacet
facet normal 0.0 1.0 0.0
  outer loop
    vertex 12.0018984065899 1011.81659793029 10.357883832489
    vertex 12.9518984065899 1011.81659793029 15.0000000000004
    vertex 12.9499313076278 1011.81659793029 8.71584268064445
  endloop
endfacet
facet normal 0.0 1.0 0.0
  outer loop
    vertex 12.9518984065899 1011.81659793029 15.0000000000004
    vertex 12.0018984065899 1011.81659793029 10.357883832489
    vertex 7.75189840658994 1011.81659793029 15.0000000000004
  endloop
endfacet
facet normal 0.71359847692067 0.700554932684791 5.24480345816453e-006
  outer loop
    vertex 12.9518984065899 1011.81659793029 3.55315776801035e-013
    vertex 15.6018984065899 1009.11659793029 15.0000000000004
    vertex 15.6018984065899 1009.11659793029 3.55315776801035e-013
  endloop
endfacet
facet normal 0.71359847692067 0.700554932684791 5.24480345816453e-006
  outer loop
    vertex 15.6018984065899 1009.11659793029 15.0000000000004
    vertex 12.9518984065899 1011.81659793029 3.55315776801035e-013
    vertex 13.6518984065899 1011.10270604512 7.50000000000036
  endloop
endfacet
facet normal 0.71359847692067 0.700554932684791 5.24480345816453e-006
  outer loop
    vertex 13.6518984065899 1011.10270604512 7.50000000000036
    vertex 12.9518984065899 1011.81659793029 3.55315776801035e-013
    vertex 12.9513094354658 1011.81659793029 6.28654430679093
  endloop
endfacet
facet normal 0.71359847692067 0.700554932684791 5.24480345816453e-006
  outer loop
    vertex 13.6518984065899 1011.10270604512 7.50000000000036
    vertex 12.9518984065899 1011.81659793029 15.0000000000004
    vertex 15.6018984065899 1009.11659793029 15.0000000000004
  endloop
endfacet
facet normal 0.71359847692067 0.700554932684791 5.24480345816453e-006
  outer loop
    vertex 12.9518984065899 1011.81659793029 15.0000000000004
    vertex 13.6518984065899 1011.10270604512 7.50000000000036
    vertex 12.9499313076278 1011.81659793029 8.71584268064445
  endloop
endfacet
facet normal -0.713598476920669 0.700554932684792 -5.2448034581575e-006
  outer loop
    vertex 7.75189840658994 1011.81659793029 15.0000000000004
    vertex 5.10189840658994 1009.11659793029 3.55315776801035e-013
    vertex 5.10189840658994 1009.11659793029 15.0000000000004
  endloop
endfacet
facet normal -0.713598476920669 0.700554932684792 -5.2448034581575e-006
  outer loop
    vertex 5.10189840658994 1009.11659793029 3.55315776801035e-013
    vertex 7.75189840658994 1011.81659793029 15.0000000000004
    vertex 7.05189840658994 1011.10270604512 7.50000000000036
  endloop
endfacet
facet normal -0.713598476920669 0.700554932684792 -5.2448034581575e-006
  outer loop
    vertex 7.05189840658994 1011.10270604512 7.50000000000036
    vertex 7.75189840658994 1011.81659793029 15.0000000000004
    vertex 7.75248737771409 1011.81659793029 8.71345569320978
  endloop
endfacet
facet normal -0.713598476920669 0.700554932684792 -5.2448034581575e-006
  outer loop
    vertex 7.05189840658994 1011.10270604512 7.50000000000036
    vertex 7.75189840658994 1011.81659793029 3.55315776801035e-013
    vertex 5.10189840658994 1009.11659793029 3.55315776801035e-013
  endloop
endfacet
facet normal -0.713598476920669 0.700554932684792 -5.2448034581575e-006
  outer loop
    vertex 7.75189840658994 1011.81659793029 3.55315776801035e-013
    vertex 7.05189840658994 1011.10270604512 7.50000000000036
    vertex 7.75386550555205 1011.81659793029 6.28415731935626
  endloop
endfacet
facet normal 3.42670966220058e-016 1.0 -3.85610205663095e-016
  outer loop
    vertex 8.70189840658994 1009.31659793029 4.64211616751171
    vertex 9.83228991479663 1009.31659793029 5.56079470858348
    vertex 10.3518984065899 1009.31659793029 5.49238695287127
  endloop
endfacet
facet normal 3.42670966220058e-016 1.0 -3.85610205663095e-016
  outer loop
    vertex 9.83228991479663 1009.31659793029 5.56079470858348
    vertex 8.70189840658994 1009.31659793029 4.64211616751171
    vertex 7.75386550555205 1009.31659793029 6.28415731935626
  endloop
endfacet
facet normal 3.42670966220058e-016 1.0 -3.85610205663095e-016
  outer loop
    vertex 9.83228991479663 1009.31659793029 5.56079470858348
    vertex 7.75386550555205 1009.31659793029 6.28415731935626
    vertex 9.3480918830254 1009.31659793029 5.76135610021748
  endloop
endfacet
facet normal 3.42670966220058e-016 1.0 -3.85610205663095e-016
  outer loop
    vertex 9.3480918830254 1009.31659793029 5.76135610021748
    vertex 7.75386550555205 1009.31659793029 6.28415731935626
    vertex 8.93230160696638 1009.31659793029 6.08040320037679
  endloop
endfacet
facet normal 3.42670966220058e-016 1.0 -3.85610205663095e-016
  outer loop
    vertex 8.93230160696638 1009.31659793029 6.08040320037679
    vertex 7.75386550555205 1009.31659793029 6.28415731935626
    vertex 8.61325450680707 1009.31659793029 6.49619347643581
  endloop
endfacet
facet normal 3.42670966220058e-016 1.0 -3.85610205663095e-016
  outer loop
    vertex 8.61325450680707 1009.31659793029 6.49619347643581
    vertex 7.75386550555205 1009.31659793029 6.28415731935626
    vertex 7.05189840658994 1009.31659793029 7.50000000000036
  endloop
endfacet
facet normal 3.42670966220058e-016 1.0 -3.85610205663095e-016
  outer loop
    vertex 8.61325450680707 1009.31659793029 6.49619347643581
    vertex 7.05189840658994 1009.31659793029 7.50000000000036
    vertex 8.41269311517307 1009.31659793029 6.98039150820704
  endloop
endfacet
facet normal 3.42670966220058e-016 1.0 -3.85610205663095e-016
  outer loop
    vertex 8.41269311517307 1009.31659793029 6.98039150820704
    vertex 7.05189840658994 1009.31659793029 7.50000000000036
    vertex 8.34428535946086 1009.31659793029 7.50000000000036
  endloop
endfacet
facet normal 3.42670966220058e-016 1.0 -3.85610205663095e-016
  outer loop
    vertex 8.34428535946086 1009.31659793029 7.50000000000036
    vertex 7.05189840658994 1009.31659793029 7.50000000000036
    vertex 7.75248737771409 1009.31659793029 8.71345569320978
  endloop
endfacet
facet normal 3.42670966220058e-016 1.0 -3.85610205663095e-016
  outer loop
    vertex 8.34428535946086 1009.31659793029 7.50000000000036
    vertex 7.75248737771409 1009.31659793029 8.71345569320978
    vertex 8.41269311517307 1009.31659793029 8.01960849179367
  endloop
endfacet
facet normal 3.42670966220058e-016 1.0 -3.85610205663095e-016
  outer loop
    vertex 8.41269311517307 1009.31659793029 8.01960849179367
    vertex 7.75248737771409 1009.31659793029 8.71345569320978
    vertex 8.61325450680707 1009.31659793029 8.5038065235649
  endloop
endfacet
facet normal 3.42670966220058e-016 1.0 -3.85610205663095e-016
  outer loop
    vertex 8.61325450680707 1009.31659793029 8.5038065235649
    vertex 7.75248737771409 1009.31659793029 8.71345569320978
    vertex 8.93230160696638 1009.31659793029 8.91959679962392
  endloop
endfacet
facet normal 3.42670966220058e-016 1.0 -3.85610205663095e-016
  outer loop
    vertex 8.93230160696638 1009.31659793029 8.91959679962392
    vertex 7.75248737771409 1009.31659793029 8.71345569320978
    vertex 8.70189840658994 1009.31659793029 10.357883832489
  endloop
endfacet
facet normal 3.42670966220058e-016 1.0 -3.85610205663095e-016
  outer loop
    vertex 8.93230160696638 1009.31659793029 8.91959679962392
    vertex 8.70189840658994 1009.31659793029 10.357883832489
    vertex 9.3480918830254 1009.31659793029 9.23864389978323
  endloop
endfacet
facet normal 3.42670966220058e-016 1.0 -3.85610205663095e-016
  outer loop
    vertex 9.3480918830254 1009.31659793029 9.23864389978323
    vertex 8.70189840658994 1009.31659793029 10.357883832489
    vertex 9.83228991479663 1009.31659793029 9.43920529141723
  endloop
endfacet
facet normal 3.42670966220058e-016 1.0 -3.85610205663095e-016
  outer loop
    vertex 9.83228991479663 1009.31659793029 9.43920529141723
    vertex 8.70189840658994 1009.31659793029 10.357883832489
    vertex 10.3518984065899 1009.31659793029 9.50761304712944
  endloop
endfacet
facet normal 3.42670966220058e-016 1.0 -3.85610205663095e-016
  outer loop
    vertex 8.70189840658994 1009.31659793029 4.64211616751171
    vertex 12.9513094354658 1009.31659793029 6.28654430679093
    vertex 12.0018984065899 1009.31659793029 4.64211616751171
  endloop
endfacet
facet normal 3.42670966220058e-016 1.0 -3.85610205663095e-016
  outer loop
    vertex 12.9513094354658 1009.31659793029 6.28654430679093
    vertex 8.70189840658994 1009.31659793029 4.64211616751171
    vertex 10.8715068983833 1009.31659793029 5.56079470858348
  endloop
endfacet
facet normal 3.42670966220058e-016 1.0 -3.85610205663095e-016
  outer loop
    vertex 10.8715068983833 1009.31659793029 5.56079470858348
    vertex 8.70189840658994 1009.31659793029 4.64211616751171
    vertex 10.3518984065899 1009.31659793029 5.49238695287127
  endloop
endfacet
facet normal 3.42670966220058e-016 1.0 -3.85610205663095e-016
  outer loop
    vertex 12.9513094354658 1009.31659793029 6.28654430679093
    vertex 10.8715068983833 1009.31659793029 5.56079470858348
    vertex 11.3557049301545 1009.31659793029 5.76135610021748
  endloop
endfacet
facet normal 3.42670966220058e-016 1.0 -3.85610205663095e-016
  outer loop
    vertex 12.9513094354658 1009.31659793029 6.28654430679093
    vertex 11.3557049301545 1009.31659793029 5.76135610021748
    vertex 11.7714952062135 1009.31659793029 6.08040320037679
  endloop
endfacet
facet normal 3.42670966220058e-016 1.0 -3.85610205663095e-016
  outer loop
    vertex 12.9513094354658 1009.31659793029 6.28654430679093
    vertex 11.7714952062135 1009.31659793029 6.08040320037679
    vertex 12.0905423063728 1009.31659793029 6.49619347643581
  endloop
endfacet
facet normal 3.42670966220058e-016 1.0 -3.85610205663095e-016
  outer loop
    vertex 12.9513094354658 1009.31659793029 6.28654430679093
    vertex 12.0905423063728 1009.31659793029 6.49619347643581
    vertex 13.6518984065899 1009.31659793029 7.50000000000036
  endloop
endfacet
facet normal 3.42670966220058e-016 1.0 -3.85610205663095e-016
  outer loop
    vertex 13.6518984065899 1009.31659793029 7.50000000000036
    vertex 12.0905423063728 1009.31659793029 6.49619347643581
    vertex 12.2911036980068 1009.31659793029 6.98039150820704
  endloop
endfacet
facet normal 3.42670966220058e-016 1.0 -3.85610205663095e-016
  outer loop
    vertex 13.6518984065899 1009.31659793029 7.50000000000036
    vertex 12.2911036980068 1009.31659793029 6.98039150820704
    vertex 12.359511453719 1009.31659793029 7.50000000000036
  endloop
endfacet
facet normal 3.42670966220058e-016 1.0 -3.85610205663095e-016
  outer loop
    vertex 13.6518984065899 1009.31659793029 7.50000000000036
    vertex 12.359511453719 1009.31659793029 7.50000000000036
    vertex 12.2911036980068 1009.31659793029 8.01960849179367
  endloop
endfacet
facet normal 3.42670966220058e-016 1.0 -3.85610205663095e-016
  outer loop
    vertex 13.6518984065899 1009.31659793029 7.50000000000036
    vertex 12.2911036980068 1009.31659793029 8.01960849179367
    vertex 12.9499313076278 1009.31659793029 8.71584268064445
  endloop
endfacet
facet normal 3.42670966220058e-016 1.0 -3.85610205663095e-016
  outer loop
    vertex 12.9499313076278 1009.31659793029 8.71584268064445
    vertex 12.2911036980068 1009.31659793029 8.01960849179367
    vertex 12.0905423063728 1009.31659793029 8.5038065235649
  endloop
endfacet
facet normal 3.42670966220058e-016 1.0 -3.85610205663095e-016
  outer loop
    vertex 12.9499313076278 1009.31659793029 8.71584268064445
    vertex 12.0905423063728 1009.31659793029 8.5038065235649
    vertex 11.7714952062135 1009.31659793029 8.91959679962392
  endloop
endfacet
facet normal 3.42670966220058e-016 1.0 -3.85610205663095e-016
  outer loop
    vertex 12.9499313076278 1009.31659793029 8.71584268064445
    vertex 11.7714952062135 1009.31659793029 8.91959679962392
    vertex 12.0018984065899 1009.31659793029 10.357883832489
  endloop
endfacet
facet normal 3.42670966220058e-016 1.0 -3.85610205663095e-016
  outer loop
    vertex 12.0018984065899 1009.31659793029 10.357883832489
    vertex 11.7714952062135 1009.31659793029 8.91959679962392
    vertex 11.3557049301545 1009.31659793029 9.23864389978323
  endloop
endfacet
facet normal 3.42670966220058e-016 1.0 -3.85610205663095e-016
  outer loop
    vertex 12.0018984065899 1009.31659793029 10.357883832489
    vertex 11.3557049301545 1009.31659793029 9.23864389978323
    vertex 10.8715068983833 1009.31659793029 9.43920529141723
  endloop
endfacet
facet normal 3.42670966220058e-016 1.0 -3.85610205663095e-016
  outer loop
    vertex 12.0018984065899 1009.31659793029 10.357883832489
    vertex 10.8715068983833 1009.31659793029 9.43920529141723
    vertex 10.3518984065899 1009.31659793029 9.50761304712944
  endloop
endfacet
facet normal 3.42670966220058e-016 1.0 -3.85610205663095e-016
  outer loop
    vertex 12.0018984065899 1009.31659793029 10.357883832489
    vertex 10.3518984065899 1009.31659793029 9.50761304712944
    vertex 8.70189840658994 1009.31659793029 10.357883832489
  endloop
endfacet
facet normal 0.866025403784439 -9.39355701268557e-018 0.5
  outer loop
    vertex 8.70189840658994 1011.81659793029 4.64211616751171
    vertex 7.75386550555205 1009.31659793029 6.28415731935626
    vertex 8.70189840658994 1009.31659793029 4.64211616751171
  endloop
endfacet
facet normal 0.866025403784439 -9.39355701268557e-018 0.5
  outer loop
    vertex 7.75386550555205 1009.31659793029 6.28415731935626
    vertex 8.70189840658994 1011.81659793029 4.64211616751171
    vertex 7.05189840658994 1009.31659793029 7.50000000000036
  endloop
endfacet
facet normal 0.866025403784439 -9.39355701268557e-018 0.5
  outer loop
    vertex 7.05189840658994 1009.31659793029 7.50000000000036
    vertex 8.70189840658994 1011.81659793029 4.64211616751171
    vertex 7.05189840658994 1011.10270604512 7.50000000000036
  endloop
endfacet
facet normal 0.866025403784439 -9.39355701268557e-018 0.5
  outer loop
    vertex 7.05189840658994 1011.10270604512 7.50000000000036
    vertex 8.70189840658994 1011.81659793029 4.64211616751171
    vertex 7.75386550555205 1011.81659793029 6.28415731935626
  endloop
endfacet
facet normal 0.866025403784438 -1.87836369662226e-017 -0.5
  outer loop
    vertex 7.05189840658994 1011.10270604512 7.50000000000036
    vertex 7.75248737771409 1009.31659793029 8.71345569320978
    vertex 7.05189840658994 1009.31659793029 7.50000000000036
  endloop
endfacet
facet normal 0.866025403784438 -1.87836369662226e-017 -0.5
  outer loop
    vertex 7.75248737771409 1009.31659793029 8.71345569320978
    vertex 7.05189840658994 1011.10270604512 7.50000000000036
    vertex 8.70189840658994 1009.31659793029 10.357883832489
  endloop
endfacet
facet normal 0.866025403784438 -1.87836369662226e-017 -0.5
  outer loop
    vertex 8.70189840658994 1009.31659793029 10.357883832489
    vertex 7.05189840658994 1011.10270604512 7.50000000000036
    vertex 8.70189840658994 1011.81659793029 10.357883832489
  endloop
endfacet
facet normal 0.866025403784438 -1.87836369662226e-017 -0.5
  outer loop
    vertex 8.70189840658994 1011.81659793029 10.357883832489
    vertex 7.05189840658994 1011.10270604512 7.50000000000036
    vertex 7.75248737771409 1011.81659793029 8.71345569320978
  endloop
endfacet
facet normal 0.0 -5.15007724900157e-032 -1.0
  outer loop
    vertex 12.0018984065899 1011.81659793029 10.357883832489
    vertex 8.70189840658994 1009.31659793029 10.357883832489
    vertex 8.70189840658994 1011.81659793029 10.357883832489
  endloop
endfacet
facet normal 0.0 -5.15007724900157e-032 -1.0
  outer loop
    vertex 8.70189840658994 1009.31659793029 10.357883832489
    vertex 12.0018984065899 1011.81659793029 10.357883832489
    vertex 12.0018984065899 1009.31659793029 10.357883832489
  endloop
endfacet
facet normal 8.54535297741787e-016 5.15007724900157e-032 1.0
  outer loop
    vertex 12.0018984065899 1009.31659793029 4.64211616751171
    vertex 8.70189840658994 1011.81659793029 4.64211616751171
    vertex 8.70189840658994 1009.31659793029 4.64211616751171
  endloop
endfacet
facet normal 8.54535297741787e-016 5.15007724900157e-032 1.0
  outer loop
    vertex 8.70189840658994 1011.81659793029 4.64211616751171
    vertex 12.0018984065899 1009.31659793029 4.64211616751171
    vertex 12.0018984065899 1011.81659793029 4.64211616751171
  endloop
endfacet
facet normal 0.965925826289068 -9.79167749324169e-017 0.258819045102521
  outer loop
    vertex 8.41269311517307 1009.31659793029 6.98039150820704
    vertex 8.34428535946086 1006.31659793029 7.50000000000036
    vertex 8.41269311517306 1006.31659793029 6.98039150820705
  endloop
endfacet
facet normal 1.0 -2.87077458400728e-016 -1.87133307808585e-016
  outer loop
    vertex 8.34428535946086 1006.31659793029 7.50000000000036
    vertex 8.41269311517307 1009.31659793029 6.98039150820704
    vertex 8.34428535946086 1009.31659793029 7.50000000000036
  endloop
endfacet
facet normal 1.0 -2.87077458400728e-016 -1.60399978121644e-016
  outer loop
    vertex 8.34428535946086 1009.31659793029 7.50000000000036
    vertex 8.41269311517306 1006.31659793029 8.01960849179367
    vertex 8.34428535946086 1006.31659793029 7.50000000000036
  endloop
endfacet
facet normal 0.965925826289068 -4.56674287496961e-016 -0.258819045102521
  outer loop
    vertex 8.41269311517306 1006.31659793029 8.01960849179367
    vertex 8.34428535946086 1009.31659793029 7.50000000000036
    vertex 8.41269311517307 1009.31659793029 8.01960849179367
  endloop
endfacet
facet normal 0.965925826289068 -4.56674287496961e-016 -0.258819045102521
  outer loop
    vertex 8.41269311517307 1009.31659793029 8.01960849179367
    vertex 8.61325450680707 1006.31659793029 8.5038065235649
    vertex 8.41269311517306 1006.31659793029 8.01960849179367
  endloop
endfacet
facet normal 0.866025403784439 -5.95149518590219e-016 -0.5
  outer loop
    vertex 8.61325450680707 1006.31659793029 8.5038065235649
    vertex 8.41269311517307 1009.31659793029 8.01960849179367
    vertex 8.61325450680707 1009.31659793029 8.5038065235649
  endloop
endfacet
facet normal 0.866025403784439 -5.95149518590219e-016 -0.5
  outer loop
    vertex 8.61325450680707 1009.31659793029 8.5038065235649
    vertex 8.93230160696638 1006.31659793029 8.91959679962392
    vertex 8.61325450680707 1006.31659793029 8.5038065235649
  endloop
endfacet
facet normal 0.707106781186547 -6.93066293522637e-016 -0.707106781186548
  outer loop
    vertex 8.93230160696638 1006.31659793029 8.91959679962392
    vertex 8.61325450680707 1009.31659793029 8.5038065235649
    vertex 8.93230160696638 1009.31659793029 8.91959679962392
  endloop
endfacet
facet normal 0.707106781186547 -6.93066293522637e-016 -0.707106781186548
  outer loop
    vertex 8.93230160696638 1009.31659793029 8.91959679962392
    vertex 9.3480918830254 1006.31659793029 9.23864389978323
    vertex 8.93230160696638 1006.31659793029 8.91959679962392
  endloop
endfacet
facet normal 0.499999999999999 -7.4375174589769e-016 -0.866025403784439
  outer loop
    vertex 9.3480918830254 1006.31659793029 9.23864389978323
    vertex 8.93230160696638 1009.31659793029 8.91959679962392
    vertex 9.3480918830254 1009.31659793029 9.23864389978323
  endloop
endfacet
facet normal 0.499999999999999 -7.4375174589769e-016 -0.866025403784439
  outer loop
    vertex 9.3480918830254 1009.31659793029 9.23864389978323
    vertex 9.83228991479663 1006.31659793029 9.43920529141723
    vertex 9.3480918830254 1006.31659793029 9.23864389978323
  endloop
endfacet
facet normal 0.258819045102521 -7.4375174589769e-016 -0.965925826289068
  outer loop
    vertex 9.83228991479663 1006.31659793029 9.43920529141723
    vertex 9.3480918830254 1009.31659793029 9.23864389978323
    vertex 9.83228991479663 1009.31659793029 9.43920529141723
  endloop
endfacet
facet normal 0.258819045102521 -7.4375174589769e-016 -0.965925826289068
  outer loop
    vertex 9.83228991479663 1009.31659793029 9.43920529141723
    vertex 10.3518984065899 1006.31659793029 9.50761304712944
    vertex 9.83228991479663 1006.31659793029 9.43920529141723
  endloop
endfacet
facet normal 9.8022208852116e-017 -6.93066293522637e-016 -1.0
  outer loop
    vertex 10.3518984065899 1006.31659793029 9.50761304712944
    vertex 9.83228991479663 1009.31659793029 9.43920529141723
    vertex 10.3518984065899 1009.31659793029 9.50761304712944
  endloop
endfacet
facet normal -0.258819045102521 -5.95149518590219e-016 -0.965925826289068
  outer loop
    vertex 10.8715068983833 1009.31659793029 9.43920529141723
    vertex 10.3518984065899 1006.31659793029 9.50761304712944
    vertex 10.3518984065899 1009.31659793029 9.50761304712944
  endloop
endfacet
facet normal 9.8022208852116e-017 -6.93066293522637e-016 -1.0
  outer loop
    vertex 10.3518984065899 1006.31659793029 9.50761304712944
    vertex 10.8715068983833 1009.31659793029 9.43920529141723
    vertex 10.8715068983833 1006.31659793029 9.43920529141723
  endloop
endfacet
facet normal -0.5 -4.56674287496962e-016 -0.866025403784439
  outer loop
    vertex 11.3557049301545 1009.31659793029 9.23864389978323
    vertex 10.8715068983833 1006.31659793029 9.43920529141723
    vertex 10.8715068983833 1009.31659793029 9.43920529141723
  endloop
endfacet
facet normal -0.258819045102521 -5.95149518590219e-016 -0.965925826289068
  outer loop
    vertex 10.8715068983833 1006.31659793029 9.43920529141723
    vertex 11.3557049301545 1009.31659793029 9.23864389978323
    vertex 11.3557049301545 1006.31659793029 9.23864389978323
  endloop
endfacet
facet normal -0.707106781186548 -2.87077458400728e-016 -0.707106781186547
  outer loop
    vertex 11.7714952062135 1009.31659793029 8.91959679962392
    vertex 11.3557049301545 1006.31659793029 9.23864389978323
    vertex 11.3557049301545 1009.31659793029 9.23864389978323
  endloop
endfacet
facet normal -0.5 -4.56674287496962e-016 -0.866025403784439
  outer loop
    vertex 11.3557049301545 1006.31659793029 9.23864389978323
    vertex 11.7714952062135 1009.31659793029 8.91959679962392
    vertex 11.7714952062135 1006.31659793029 8.91959679962392
  endloop
endfacet
facet normal -0.707106781186548 -2.87077458400728e-016 -0.707106781186547
  outer loop
    vertex 11.7714952062135 1009.31659793029 8.91959679962392
    vertex 12.0905423063728 1006.31659793029 8.5038065235649
    vertex 11.7714952062135 1006.31659793029 8.91959679962392
  endloop
endfacet
facet normal -0.866025403784439 -9.79167749324165e-017 -0.499999999999999
  outer loop
    vertex 12.0905423063728 1006.31659793029 8.5038065235649
    vertex 11.7714952062135 1009.31659793029 8.91959679962392
    vertex 12.0905423063728 1009.31659793029 8.5038065235649
  endloop
endfacet
facet normal -0.866025403784439 -9.79167749324166e-017 -0.499999999999999
  outer loop
    vertex 12.0905423063728 1009.31659793029 8.5038065235649
    vertex 12.2911036980068 1006.31659793029 8.01960849179367
    vertex 12.0905423063728 1006.31659793029 8.5038065235649
  endloop
endfacet
facet normal -0.965925826289068 9.79167749324167e-017 -0.258819045102521
  outer loop
    vertex 12.2911036980068 1006.31659793029 8.01960849179367
    vertex 12.0905423063728 1009.31659793029 8.5038065235649
    vertex 12.2911036980068 1009.31659793029 8.01960849179367
  endloop
endfacet
facet normal -0.965925826289068 9.79167749324167e-017 -0.258819045102521
  outer loop
    vertex 12.2911036980068 1006.31659793029 8.01960849179367
    vertex 12.359511453719 1009.31659793029 7.50000000000036
    vertex 12.359511453719 1006.31659793029 7.50000000000036
  endloop
endfacet
facet normal -1.0 2.87077458400728e-016 -3.56444395825876e-016
  outer loop
    vertex 12.359511453719 1009.31659793029 7.50000000000036
    vertex 12.2911036980068 1006.31659793029 8.01960849179367
    vertex 12.2911036980068 1009.31659793029 8.01960849179367
  endloop
endfacet
facet normal -1.0 2.87077458400728e-016 -3.56444395825876e-016
  outer loop
    vertex 12.359511453719 1009.31659793029 7.50000000000036
    vertex 12.2911036980068 1006.31659793029 6.98039150820704
    vertex 12.359511453719 1006.31659793029 7.50000000000036
  endloop
endfacet
facet normal -0.965925826289068 4.56674287496961e-016 0.258819045102521
  outer loop
    vertex 12.2911036980068 1006.31659793029 6.98039150820704
    vertex 12.359511453719 1009.31659793029 7.50000000000036
    vertex 12.2911036980068 1009.31659793029 6.98039150820704
  endloop
endfacet
facet normal -0.965925826289068 4.56674287496961e-016 0.258819045102521
  outer loop
    vertex 12.2911036980068 1009.31659793029 6.98039150820704
    vertex 12.0905423063728 1006.31659793029 6.49619347643581
    vertex 12.2911036980068 1006.31659793029 6.98039150820704
  endloop
endfacet
facet normal -0.866025403784438 5.9514951859022e-016 0.500000000000001
  outer loop
    vertex 12.0905423063728 1006.31659793029 6.49619347643581
    vertex 12.2911036980068 1009.31659793029 6.98039150820704
    vertex 12.0905423063728 1009.31659793029 6.49619347643581
  endloop
endfacet
facet normal -0.866025403784438 5.9514951859022e-016 0.500000000000001
  outer loop
    vertex 12.0905423063728 1009.31659793029 6.49619347643581
    vertex 11.7714952062135 1006.31659793029 6.08040320037679
    vertex 12.0905423063728 1006.31659793029 6.49619347643581
  endloop
endfacet
facet normal -0.707106781186547 6.93066293522637e-016 0.707106781186548
  outer loop
    vertex 11.7714952062135 1006.31659793029 6.08040320037679
    vertex 12.0905423063728 1009.31659793029 6.49619347643581
    vertex 11.7714952062135 1009.31659793029 6.08040320037679
  endloop
endfacet
facet normal -0.5 7.4375174589769e-016 0.866025403784439
  outer loop
    vertex 11.3557049301545 1006.31659793029 5.76135610021748
    vertex 11.7714952062135 1009.31659793029 6.08040320037679
    vertex 11.3557049301545 1009.31659793029 5.76135610021748
  endloop
endfacet
facet normal -0.707106781186547 6.93066293522637e-016 0.707106781186548
  outer loop
    vertex 11.7714952062135 1009.31659793029 6.08040320037679
    vertex 11.3557049301545 1006.31659793029 5.76135610021748
    vertex 11.7714952062135 1006.31659793029 6.08040320037679
  endloop
endfacet
facet normal -0.25881904510252 7.4375174589769e-016 0.965925826289069
  outer loop
    vertex 10.8715068983833 1006.31659793029 5.56079470858348
    vertex 11.3557049301545 1009.31659793029 5.76135610021748
    vertex 10.8715068983833 1009.31659793029 5.56079470858348
  endloop
endfacet
facet normal -0.5 7.4375174589769e-016 0.866025403784439
  outer loop
    vertex 11.3557049301545 1009.31659793029 5.76135610021748
    vertex 10.8715068983833 1006.31659793029 5.56079470858348
    vertex 11.3557049301545 1006.31659793029 5.76135610021748
  endloop
endfacet
facet normal 5.52488813530108e-016 6.93066293522637e-016 1.0
  outer loop
    vertex 10.3518984065899 1006.31659793029 5.49238695287127
    vertex 10.8715068983833 1009.31659793029 5.56079470858348
    vertex 10.3518984065899 1009.31659793029 5.49238695287127
  endloop
endfacet
facet normal -0.25881904510252 7.4375174589769e-016 0.965925826289069
  outer loop
    vertex 10.8715068983833 1009.31659793029 5.56079470858348
    vertex 10.3518984065899 1006.31659793029 5.49238695287127
    vertex 10.8715068983833 1006.31659793029 5.56079470858348
  endloop
endfacet
facet normal 5.52488813530108e-016 6.93066293522637e-016 1.0
  outer loop
    vertex 10.3518984065899 1006.31659793029 5.49238695287127
    vertex 9.83228991479663 1009.31659793029 5.56079470858348
    vertex 9.83228991479663 1006.31659793029 5.56079470858348
  endloop
endfacet
facet normal 0.258819045102521 5.95149518590219e-016 0.965925826289068
  outer loop
    vertex 9.83228991479663 1009.31659793029 5.56079470858348
    vertex 10.3518984065899 1006.31659793029 5.49238695287127
    vertex 10.3518984065899 1009.31659793029 5.49238695287127
  endloop
endfacet
facet normal 0.258819045102521 5.95149518590219e-016 0.965925826289068
  outer loop
    vertex 9.83228991479663 1006.31659793029 5.56079470858348
    vertex 9.3480918830254 1009.31659793029 5.76135610021748
    vertex 9.3480918830254 1006.31659793029 5.76135610021748
  endloop
endfacet
facet normal 0.500000000000001 4.56674287496961e-016 0.866025403784438
  outer loop
    vertex 9.3480918830254 1009.31659793029 5.76135610021748
    vertex 9.83228991479663 1006.31659793029 5.56079470858348
    vertex 9.83228991479663 1009.31659793029 5.56079470858348
  endloop
endfacet
facet normal 0.500000000000001 4.56674287496961e-016 0.866025403784438
  outer loop
    vertex 9.3480918830254 1006.31659793029 5.76135610021748
    vertex 8.93230160696638 1009.31659793029 6.08040320037679
    vertex 8.93230160696638 1006.31659793029 6.08040320037679
  endloop
endfacet
facet normal 0.707106781186548 2.87077458400728e-016 0.707106781186547
  outer loop
    vertex 8.93230160696638 1009.31659793029 6.08040320037679
    vertex 9.3480918830254 1006.31659793029 5.76135610021748
    vertex 9.3480918830254 1009.31659793029 5.76135610021748
  endloop
endfacet
facet normal 0.707106781186548 2.87077458400728e-016 0.707106781186547
  outer loop
    vertex 8.93230160696638 1009.31659793029 6.08040320037679
    vertex 8.61325450680707 1006.31659793029 6.49619347643581
    vertex 8.93230160696638 1006.31659793029 6.08040320037679
  endloop
endfacet
facet normal 0.866025403784439 9.79167749324172e-017 0.5
  outer loop
    vertex 8.61325450680707 1006.31659793029 6.49619347643581
    vertex 8.93230160696638 1009.31659793029 6.08040320037679
    vertex 8.61325450680707 1009.31659793029 6.49619347643581
  endloop
endfacet
facet normal 0.866025403784439 9.79167749324171e-017 0.5
  outer loop
    vertex 8.61325450680707 1009.31659793029 6.49619347643581
    vertex 8.41269311517306 1006.31659793029 6.98039150820705
    vertex 8.61325450680707 1006.31659793029 6.49619347643581
  endloop
endfacet
facet normal 0.965925826289068 -9.79167749324169e-017 0.258819045102521
  outer loop
    vertex 8.41269311517306 1006.31659793029 6.98039150820705
    vertex 8.61325450680707 1009.31659793029 6.49619347643581
    vertex 8.41269311517307 1009.31659793029 6.98039150820704
  endloop
endfacet
facet normal -0.866025403784438 0.0 0.5
  outer loop
    vertex 13.6518984065899 1011.10270604512 7.50000000000036
    vertex 12.9513094354658 1009.31659793029 6.28654430679093
    vertex 13.6518984065899 1009.31659793029 7.50000000000036
  endloop
endfacet
facet normal -0.866025403784438 0.0 0.5
  outer loop
    vertex 12.9513094354658 1009.31659793029 6.28654430679093
    vertex 13.6518984065899 1011.10270604512 7.50000000000036
    vertex 12.0018984065899 1009.31659793029 4.64211616751171
  endloop
endfacet
facet normal -0.866025403784438 0.0 0.5
  outer loop
    vertex 12.0018984065899 1009.31659793029 4.64211616751171
    vertex 13.6518984065899 1011.10270604512 7.50000000000036
    vertex 12.0018984065899 1011.81659793029 4.64211616751171
  endloop
endfacet
facet normal -0.866025403784438 0.0 0.5
  outer loop
    vertex 12.0018984065899 1011.81659793029 4.64211616751171
    vertex 13.6518984065899 1011.10270604512 7.50000000000036
    vertex 12.9513094354658 1011.81659793029 6.28654430679093
  endloop
endfacet
facet normal -0.866025403784439 -1.87871140253711e-017 -0.5
  outer loop
    vertex 12.0018984065899 1011.81659793029 10.357883832489
    vertex 12.9499313076278 1009.31659793029 8.71584268064445
    vertex 12.0018984065899 1009.31659793029 10.357883832489
  endloop
endfacet
facet normal -0.866025403784439 -1.87871140253711e-017 -0.5
  outer loop
    vertex 12.9499313076278 1009.31659793029 8.71584268064445
    vertex 12.0018984065899 1011.81659793029 10.357883832489
    vertex 13.6518984065899 1011.10270604512 7.50000000000036
  endloop
endfacet
facet normal -0.866025403784439 -1.87871140253711e-017 -0.5
  outer loop
    vertex 13.6518984065899 1011.10270604512 7.50000000000036
    vertex 12.0018984065899 1011.81659793029 10.357883832489
    vertex 12.9499313076278 1011.81659793029 8.71584268064445
  endloop
endfacet
facet normal -0.866025403784439 -1.87871140253711e-017 -0.5
  outer loop
    vertex 13.6518984065899 1011.10270604512 7.50000000000036
    vertex 13.6518984065899 1009.31659793029 7.50000000000036
    vertex 12.9499313076278 1009.31659793029 8.71584268064445
  endloop
endfacet
endsolid m3_screw _2020case_2
