solid m3_srew_2020case_1
facet normal 0.0 -1.0 4.44089209850063e-016
  outer loop
    vertex 8.67047451214016 -5.02216831353129 6.7689472464686
    vertex 0.82047451214017 -5.02216831353129 4.06894724646859
    vertex 6.02047451214017 -5.02216831353129 4.06894724646859
  endloop
endfacet
facet normal 0.0 -1.0 4.44089209850063e-016
  outer loop
    vertex 0.82047451214017 -5.02216831353129 4.06894724646859
    vertex 8.67047451214016 -5.02216831353129 6.7689472464686
    vertex -1.82952548785983 -5.02216831353129 6.7689472464686
  endloop
endfacet
facet normal 0.0 -1.0 4.44089209850063e-016
  outer loop
    vertex -1.82952548785983 -5.02216831353129 6.7689472464686
    vertex 8.67047451214016 -5.02216831353129 6.7689472464686
    vertex 8.67047451214016 -5.02216831353129 7.9689472464686
  endloop
endfacet
facet normal 0.0 -1.0 4.44089209850063e-016
  outer loop
    vertex -1.82952548785983 -5.02216831353129 6.7689472464686
    vertex 8.67047451214016 -5.02216831353129 7.9689472464686
    vertex -1.82952548785983 -5.02216831353129 7.9689472464686
  endloop
endfacet
facet normal 0.0 -1.0 4.44089209850063e-016
  outer loop
    vertex -1.82952548785983 -5.02216831353129 7.9689472464686
    vertex 8.67047451214016 -5.02216831353129 7.9689472464686
    vertex 6.42047451214017 -5.02216831353129 7.9689472464686
  endloop
endfacet
facet normal 0.0 -1.0 4.44089209850063e-016
  outer loop
    vertex -1.82952548785983 -5.02216831353129 7.9689472464686
    vertex 6.42047451214017 -5.02216831353129 7.9689472464686
    vertex 0.420474512140171 -5.02216831353129 7.9689472464686
  endloop
endfacet
facet normal 0.0 1.0 -4.44089209850063e-016
  outer loop
    vertex -1.82952548785983 9.9778316864687 6.76894724646859
    vertex 6.02047451214017 9.97783168646871 4.06894724646858
    vertex 0.82047451214017 9.97783168646871 4.06894724646858
  endloop
endfacet
facet normal 0.0 1.0 -4.44089209850063e-016
  outer loop
    vertex 6.02047451214017 9.97783168646871 4.06894724646858
    vertex -1.82952548785983 9.9778316864687 6.76894724646859
    vertex 8.67047451214016 9.9778316864687 6.76894724646859
  endloop
endfacet
facet normal 0.0 1.0 -4.44089209850063e-016
  outer loop
    vertex 8.67047451214016 9.9778316864687 6.76894724646859
    vertex -1.82952548785983 9.9778316864687 6.76894724646859
    vertex -1.82952548785983 9.97783168646871 7.96894724646859
  endloop
endfacet
facet normal 0.0 1.0 -4.44089209850063e-016
  outer loop
    vertex 8.67047451214016 9.9778316864687 6.76894724646859
    vertex -1.82952548785983 9.97783168646871 7.96894724646859
    vertex 8.67047451214016 9.97783168646871 7.96894724646859
  endloop
endfacet
facet normal 0.0 1.0 -4.44089209850063e-016
  outer loop
    vertex 8.67047451214016 9.97783168646871 7.96894724646859
    vertex -1.82952548785983 9.97783168646871 7.96894724646859
    vertex 0.420474512140171 9.97783168646871 7.96894724646859
  endloop
endfacet
facet normal 0.0 1.0 -4.44089209850063e-016
  outer loop
    vertex 8.67047451214016 9.97783168646871 7.96894724646859
    vertex 0.420474512140171 9.97783168646871 7.96894724646859
    vertex 6.42047451214017 9.97783168646871 7.96894724646859
  endloop
endfacet
facet normal 0.0 4.44089209850063e-016 1.0
  outer loop
    vertex 0.420474512140171 -5.02216831353129 7.9689472464686
    vertex -1.82952548785983 9.97783168646871 7.96894724646859
    vertex -1.82952548785983 -5.02216831353129 7.9689472464686
  endloop
endfacet
facet normal 0.0 4.44089209850063e-016 1.0
  outer loop
    vertex -1.82952548785983 9.97783168646871 7.96894724646859
    vertex 0.420474512140171 -5.02216831353129 7.9689472464686
    vertex 0.420474512140171 9.97783168646871 7.96894724646859
  endloop
endfacet
facet normal -1.0 0.0 0.0
  outer loop
    vertex -1.82952548785983 -5.02216831353129 7.9689472464686
    vertex -1.82952548785983 9.9778316864687 6.76894724646859
    vertex -1.82952548785983 -5.02216831353129 6.7689472464686
  endloop
endfacet
facet normal -1.0 0.0 0.0
  outer loop
    vertex -1.82952548785983 9.9778316864687 6.76894724646859
    vertex -1.82952548785983 -5.02216831353129 7.9689472464686
    vertex -1.82952548785983 9.97783168646871 7.96894724646859
  endloop
endfacet
facet normal 0.0 -4.44089209850063e-016 -1.0
  outer loop
    vertex 0.82047451214017 -5.02216831353129 4.06894724646859
    vertex 1.77047451214017 -0.380052146019937 4.06894724646859
    vertex 6.02047451214017 -5.02216831353129 4.06894724646859
  endloop
endfacet
facet normal 0.0 -4.44089209850063e-016 -1.0
  outer loop
    vertex 1.77047451214017 -0.380052146019937 4.06894724646859
    vertex 0.82047451214017 -5.02216831353129 4.06894724646859
    vertex 0.822441611102278 1.26198900582461 4.06894724646859
  endloop
endfacet
facet normal 0.0 -4.44089209850063e-016 -1.0
  outer loop
    vertex 6.02047451214017 -5.02216831353129 4.06894724646859
    vertex 1.77047451214017 -0.380052146019937 4.06894724646859
    vertex 5.07047451214017 -0.38005214601994 4.06894724646859
  endloop
endfacet
facet normal 0.0 -4.44089209850063e-016 -1.0
  outer loop
    vertex 6.02047451214017 -5.02216831353129 4.06894724646859
    vertex 5.07047451214017 -0.38005214601994 4.06894724646859
    vertex 6.01988554101603 1.26437599325929 4.06894724646859
  endloop
endfacet
facet normal 1.0 0.0 0.0
  outer loop
    vertex 8.67047451214016 9.9778316864687 6.76894724646859
    vertex 8.67047451214016 -5.02216831353129 7.9689472464686
    vertex 8.67047451214016 -5.02216831353129 6.7689472464686
  endloop
endfacet
facet normal 1.0 0.0 0.0
  outer loop
    vertex 8.67047451214016 -5.02216831353129 7.9689472464686
    vertex 8.67047451214016 9.9778316864687 6.76894724646859
    vertex 8.67047451214016 9.97783168646871 7.96894724646859
  endloop
endfacet
facet normal 0.0 4.44089209850063e-016 1.0
  outer loop
    vertex 8.67047451214016 -5.02216831353129 7.9689472464686
    vertex 6.42047451214017 9.97783168646871 7.96894724646859
    vertex 6.42047451214017 -5.02216831353129 7.9689472464686
  endloop
endfacet
facet normal 0.0 4.44089209850063e-016 1.0
  outer loop
    vertex 6.42047451214017 9.97783168646871 7.96894724646859
    vertex 8.67047451214016 -5.02216831353129 7.9689472464686
    vertex 8.67047451214016 9.97783168646871 7.96894724646859
  endloop
endfacet
facet normal 0.0 -4.44089209850063e-016 -1.0
  outer loop
    vertex 0.82047451214017 9.97783168646871 4.06894724646858
    vertex 1.77047451214017 5.33571551895736 4.06894724646858
    vertex 0.821063483264315 3.69128737967813 4.06894724646859
  endloop
endfacet
facet normal 0.0 -4.44089209850063e-016 -1.0
  outer loop
    vertex 1.77047451214017 5.33571551895736 4.06894724646858
    vertex 0.82047451214017 9.97783168646871 4.06894724646858
    vertex 6.02047451214017 9.97783168646871 4.06894724646858
  endloop
endfacet
facet normal 0.0 -4.44089209850063e-016 -1.0
  outer loop
    vertex 1.77047451214017 5.33571551895736 4.06894724646858
    vertex 6.02047451214017 9.97783168646871 4.06894724646858
    vertex 5.07047451214017 5.33571551895736 4.06894724646858
  endloop
endfacet
facet normal 0.0 -4.44089209850063e-016 -1.0
  outer loop
    vertex 5.07047451214017 5.33571551895736 4.06894724646858
    vertex 6.02047451214017 9.97783168646871 4.06894724646858
    vertex 6.01850741317806 3.69367436711281 4.06894724646859
  endloop
endfacet
facet normal 0.71359847692067 5.24480345787115e-006 -0.700554932684791
  outer loop
    vertex 6.01988554101603 1.26437599325929 4.06894724646859
    vertex 8.67047451214016 -5.02216831353129 6.7689472464686
    vertex 6.02047451214017 -5.02216831353129 4.06894724646859
  endloop
endfacet
facet normal 0.71359847692067 5.24480345787115e-006 -0.700554932684791
  outer loop
    vertex 8.67047451214016 -5.02216831353129 6.7689472464686
    vertex 6.01988554101603 1.26437599325929 4.06894724646859
    vertex 6.72047451214017 2.47783168646871 4.78283913163821
  endloop
endfacet
facet normal 0.71359847692067 5.24480345787115e-006 -0.700554932684791
  outer loop
    vertex 8.67047451214016 -5.02216831353129 6.7689472464686
    vertex 6.72047451214017 2.47783168646871 4.78283913163821
    vertex 8.67047451214016 9.9778316864687 6.76894724646859
  endloop
endfacet
facet normal 0.71359847692067 5.24480345787115e-006 -0.700554932684791
  outer loop
    vertex 8.67047451214016 9.9778316864687 6.76894724646859
    vertex 6.72047451214017 2.47783168646871 4.78283913163821
    vertex 6.01850741317806 3.69367436711281 4.06894724646859
  endloop
endfacet
facet normal 0.71359847692067 5.24480345787115e-006 -0.700554932684791
  outer loop
    vertex 8.67047451214016 9.9778316864687 6.76894724646859
    vertex 6.01850741317806 3.69367436711281 4.06894724646859
    vertex 6.02047451214017 9.97783168646871 4.06894724646858
  endloop
endfacet
facet normal -0.713598476920669 -5.24480345867606e-006 -0.700554932684792
  outer loop
    vertex -1.82952548785983 9.9778316864687 6.76894724646859
    vertex 0.82047451214017 -5.02216831353129 4.06894724646859
    vertex -1.82952548785983 -5.02216831353129 6.7689472464686
  endloop
endfacet
facet normal -0.713598476920669 -5.24480345867606e-006 -0.700554932684792
  outer loop
    vertex 0.82047451214017 -5.02216831353129 4.06894724646859
    vertex -1.82952548785983 9.9778316864687 6.76894724646859
    vertex 0.120474512140172 2.47783168646871 4.7828391316382
  endloop
endfacet
facet normal -0.713598476920669 -5.24480345867606e-006 -0.700554932684792
  outer loop
    vertex 0.82047451214017 -5.02216831353129 4.06894724646859
    vertex 0.120474512140172 2.47783168646871 4.7828391316382
    vertex 0.822441611102278 1.26198900582461 4.06894724646859
  endloop
endfacet
facet normal -0.713598476920669 -5.24480345867606e-006 -0.700554932684792
  outer loop
    vertex 0.120474512140172 2.47783168646871 4.7828391316382
    vertex -1.82952548785983 9.9778316864687 6.76894724646859
    vertex 0.821063483264315 3.69128737967813 4.06894724646859
  endloop
endfacet
facet normal -0.713598476920669 -5.24480345867606e-006 -0.700554932684792
  outer loop
    vertex 0.821063483264315 3.69128737967813 4.06894724646859
    vertex -1.82952548785983 9.9778316864687 6.76894724646859
    vertex 0.82047451214017 9.97783168646871 4.06894724646858
  endloop
endfacet
facet normal 3.42670966220058e-016 -8.04911692853238e-016 -1.0
  outer loop
    vertex 0.821063483264315 3.69128737967813 6.56894724646858
    vertex 0.822441611102278 1.26198900582461 6.56894724646858
    vertex 0.120474512140172 2.47783168646871 6.56894724646858
  endloop
endfacet
facet normal 3.42670966220058e-016 -8.04911692853238e-016 -1.0
  outer loop
    vertex 0.822441611102278 1.26198900582461 6.56894724646858
    vertex 0.821063483264315 3.69128737967813 6.56894724646858
    vertex 1.77047451214017 5.33571551895735 6.56894724646858
  endloop
endfacet
facet normal 3.42670966220058e-016 -8.04911692853238e-016 -1.0
  outer loop
    vertex 0.822441611102278 1.26198900582461 6.56894724646858
    vertex 1.77047451214017 5.33571551895735 6.56894724646858
    vertex 1.62518664035994 2.6079910404883 6.56894724646858
  endloop
endfacet
facet normal 3.42670966220058e-016 -8.04911692853238e-016 -1.0
  outer loop
    vertex 1.62518664035994 2.6079910404883 6.56894724646858
    vertex 1.77047451214017 5.33571551895735 6.56894724646858
    vertex 1.72004731088262 3.06821066070763 6.56894724646858
  endloop
endfacet
facet normal 3.42670966220058e-016 -8.04911692853238e-016 -1.0
  outer loop
    vertex 1.72004731088262 3.06821066070763 6.56894724646858
    vertex 1.77047451214017 5.33571551895735 6.56894724646858
    vertex 1.93078928508218 3.48819692947996 6.56894724646858
  endloop
endfacet
facet normal 3.42670966220058e-016 -8.04911692853238e-016 -1.0
  outer loop
    vertex 1.93078928508218 3.48819692947996 6.56894724646858
    vertex 1.77047451214017 5.33571551895735 6.56894724646858
    vertex 2.24305084568452 3.83932847664859 6.56894724646858
  endloop
endfacet
facet normal 3.42670966220058e-016 -8.04911692853238e-016 -1.0
  outer loop
    vertex 2.24305084568452 3.83932847664859 6.56894724646858
    vertex 1.77047451214017 5.33571551895735 6.56894724646858
    vertex 2.63555188337119 4.09767626754628 6.56894724646858
  endloop
endfacet
facet normal 3.42670966220058e-016 -8.04911692853238e-016 -1.0
  outer loop
    vertex 2.63555188337119 4.09767626754628 6.56894724646858
    vertex 1.77047451214017 5.33571551895735 6.56894724646858
    vertex 5.07047451214017 5.33571551895735 6.56894724646858
  endloop
endfacet
facet normal 3.42670966220058e-016 -8.04911692853238e-016 -1.0
  outer loop
    vertex 2.63555188337119 4.09767626754628 6.56894724646858
    vertex 5.07047451214017 5.33571551895735 6.56894724646858
    vertex 3.0815441010625 4.24563432716329 6.56894724646858
  endloop
endfacet
facet normal 3.42670966220058e-016 -8.04911692853238e-016 -1.0
  outer loop
    vertex 3.0815441010625 4.24563432716329 6.56894724646858
    vertex 5.07047451214017 5.33571551895735 6.56894724646858
    vertex 3.55063386615976 4.27311955824894 6.56894724646858
  endloop
endfacet
facet normal 3.42670966220058e-016 -8.04911692853238e-016 -1.0
  outer loop
    vertex 3.55063386615976 4.27311955824894 6.56894724646858
    vertex 5.07047451214017 5.33571551895735 6.56894724646858
    vertex 4.01085348637909 4.17825888772626 6.56894724646858
  endloop
endfacet
facet normal 3.42670966220058e-016 -8.04911692853238e-016 -1.0
  outer loop
    vertex 4.01085348637909 4.17825888772626 6.56894724646858
    vertex 5.07047451214017 5.33571551895735 6.56894724646858
    vertex 4.43083975515142 3.9675169135267 6.56894724646858
  endloop
endfacet
facet normal 3.42670966220058e-016 -8.04911692853238e-016 -1.0
  outer loop
    vertex 4.43083975515142 3.9675169135267 6.56894724646858
    vertex 5.07047451214017 5.33571551895735 6.56894724646858
    vertex 4.78197130232005 3.65525535292436 6.56894724646858
  endloop
endfacet
facet normal 3.42670966220058e-016 -8.04911692853238e-016 -1.0
  outer loop
    vertex 4.78197130232005 3.65525535292436 6.56894724646858
    vertex 5.07047451214017 5.33571551895735 6.56894724646858
    vertex 5.04031909321775 3.26275431523769 6.56894724646858
  endloop
endfacet
facet normal 3.42670966220058e-016 -8.04911692853238e-016 -1.0
  outer loop
    vertex 5.04031909321775 3.26275431523769 6.56894724646858
    vertex 5.07047451214017 5.33571551895735 6.56894724646858
    vertex 5.18827715283475 2.81676209754638 6.56894724646858
  endloop
endfacet
facet normal 3.42670966220058e-016 -8.04911692853238e-016 -1.0
  outer loop
    vertex 5.18827715283475 2.81676209754638 6.56894724646858
    vertex 5.07047451214017 5.33571551895735 6.56894724646858
    vertex 6.01850741317806 3.69367436711281 6.56894724646858
  endloop
endfacet
facet normal 3.42670966220058e-016 -8.04911692853238e-016 -1.0
  outer loop
    vertex 5.18827715283475 2.81676209754638 6.56894724646858
    vertex 6.01850741317806 3.69367436711281 6.56894724646858
    vertex 5.21576238392041 2.34767233244912 6.56894724646858
  endloop
endfacet
facet normal 3.42670966220058e-016 -8.04911692853238e-016 -1.0
  outer loop
    vertex 1.62518664035994 2.6079910404883 6.56894724646858
    vertex 1.77047451214017 -0.380052146019935 6.56894724646858
    vertex 0.822441611102278 1.26198900582461 6.56894724646858
  endloop
endfacet
facet normal 3.42670966220058e-016 -8.04911692853238e-016 -1.0
  outer loop
    vertex 1.77047451214017 -0.380052146019935 6.56894724646858
    vertex 1.62518664035994 2.6079910404883 6.56894724646858
    vertex 1.65267187144559 2.13890127539104 6.56894724646858
  endloop
endfacet
facet normal 3.42670966220058e-016 -8.04911692853238e-016 -1.0
  outer loop
    vertex 1.77047451214017 -0.380052146019935 6.56894724646858
    vertex 1.65267187144559 2.13890127539104 6.56894724646858
    vertex 1.80062993106259 1.69290905769973 6.56894724646858
  endloop
endfacet
facet normal 3.42670966220058e-016 -8.04911692853238e-016 -1.0
  outer loop
    vertex 1.77047451214017 -0.380052146019935 6.56894724646858
    vertex 1.80062993106259 1.69290905769973 6.56894724646858
    vertex 2.05897772196029 1.30040802001305 6.56894724646858
  endloop
endfacet
facet normal 3.42670966220058e-016 -8.04911692853238e-016 -1.0
  outer loop
    vertex 1.77047451214017 -0.380052146019935 6.56894724646858
    vertex 2.05897772196029 1.30040802001305 6.56894724646858
    vertex 2.41010926912892 0.988146459410723 6.56894724646858
  endloop
endfacet
facet normal 3.42670966220058e-016 -8.04911692853238e-016 -1.0
  outer loop
    vertex 1.77047451214017 -0.380052146019935 6.56894724646858
    vertex 2.41010926912892 0.988146459410723 6.56894724646858
    vertex 5.07047451214017 -0.380052146019938 6.56894724646858
  endloop
endfacet
facet normal 3.42670966220058e-016 -8.04911692853238e-016 -1.0
  outer loop
    vertex 5.07047451214017 -0.380052146019938 6.56894724646858
    vertex 2.41010926912892 0.988146459410723 6.56894724646858
    vertex 2.83009553790125 0.777404485211155 6.56894724646859
  endloop
endfacet
facet normal 3.42670966220058e-016 -8.04911692853238e-016 -1.0
  outer loop
    vertex 5.07047451214017 -0.380052146019938 6.56894724646858
    vertex 2.83009553790125 0.777404485211155 6.56894724646859
    vertex 3.29031515812058 0.682543814688475 6.56894724646858
  endloop
endfacet
facet normal 3.42670966220058e-016 -8.04911692853238e-016 -1.0
  outer loop
    vertex 5.07047451214017 -0.380052146019938 6.56894724646858
    vertex 3.29031515812058 0.682543814688475 6.56894724646858
    vertex 3.75940492321784 0.710029045774132 6.56894724646859
  endloop
endfacet
facet normal 3.42670966220058e-016 -8.04911692853238e-016 -1.0
  outer loop
    vertex 5.07047451214017 -0.380052146019938 6.56894724646858
    vertex 3.75940492321784 0.710029045774132 6.56894724646859
    vertex 4.20539714090915 0.857987105391132 6.56894724646858
  endloop
endfacet
facet normal 3.42670966220058e-016 -8.04911692853238e-016 -1.0
  outer loop
    vertex 5.07047451214017 -0.380052146019938 6.56894724646858
    vertex 4.20539714090915 0.857987105391132 6.56894724646858
    vertex 4.59789817859583 1.11633489628883 6.56894724646858
  endloop
endfacet
facet normal 3.42670966220058e-016 -8.04911692853238e-016 -1.0
  outer loop
    vertex 5.07047451214017 -0.380052146019938 6.56894724646858
    vertex 4.59789817859583 1.11633489628883 6.56894724646858
    vertex 4.91015973919816 1.46746644345745 6.56894724646858
  endloop
endfacet
facet normal 3.42670966220058e-016 -8.04911692853238e-016 -1.0
  outer loop
    vertex 5.07047451214017 -0.380052146019938 6.56894724646858
    vertex 4.91015973919816 1.46746644345745 6.56894724646858
    vertex 5.12090171339772 1.88745271222979 6.56894724646858
  endloop
endfacet
facet normal 3.42670966220058e-016 -8.04911692853238e-016 -1.0
  outer loop
    vertex 5.07047451214017 -0.380052146019938 6.56894724646858
    vertex 5.12090171339772 1.88745271222979 6.56894724646858
    vertex 6.01988554101603 1.26437599325929 6.56894724646858
  endloop
endfacet
facet normal 3.42670966220058e-016 -8.04911692853238e-016 -1.0
  outer loop
    vertex 6.01988554101603 1.26437599325929 6.56894724646858
    vertex 5.12090171339772 1.88745271222979 6.56894724646858
    vertex 5.21576238392041 2.34767233244912 6.56894724646858
  endloop
endfacet
facet normal 3.42670966220058e-016 -8.04911692853238e-016 -1.0
  outer loop
    vertex 6.01988554101603 1.26437599325929 6.56894724646858
    vertex 5.21576238392041 2.34767233244912 6.56894724646858
    vertex 6.01850741317806 3.69367436711281 6.56894724646858
  endloop
endfacet
facet normal 3.42670966220058e-016 -8.04911692853238e-016 -1.0
  outer loop
    vertex 6.01988554101603 1.26437599325929 6.56894724646858
    vertex 6.01850741317806 3.69367436711281 6.56894724646858
    vertex 6.72047451214017 2.47783168646871 6.56894724646858
  endloop
endfacet
facet normal 0.866025403784439 0.5 -1.94289029309402e-016
  outer loop
    vertex 0.822441611102278 1.26198900582461 4.06894724646859
    vertex 1.77047451214017 -0.380052146019935 6.56894724646858
    vertex 1.77047451214017 -0.380052146019937 4.06894724646859
  endloop
endfacet
facet normal 0.866025403784439 0.5 -1.94289029309402e-016
  outer loop
    vertex 1.77047451214017 -0.380052146019935 6.56894724646858
    vertex 0.822441611102278 1.26198900582461 4.06894724646859
    vertex 0.822441611102278 1.26198900582461 6.56894724646858
  endloop
endfacet
facet normal 0.866025403784439 0.5 -1.94289029309402e-016
  outer loop
    vertex 0.822441611102278 1.26198900582461 6.56894724646858
    vertex 0.822441611102278 1.26198900582461 4.06894724646859
    vertex 0.120474512140172 2.47783168646871 4.7828391316382
  endloop
endfacet
facet normal 0.866025403784439 0.5 -1.94289029309402e-016
  outer loop
    vertex 0.822441611102278 1.26198900582461 6.56894724646858
    vertex 0.120474512140172 2.47783168646871 4.7828391316382
    vertex 0.120474512140172 2.47783168646871 6.56894724646858
  endloop
endfacet
facet normal 0.866025403784438 -0.5 2.91433543964104e-016
  outer loop
    vertex 0.821063483264315 3.69128737967813 4.06894724646859
    vertex 0.120474512140172 2.47783168646871 6.56894724646858
    vertex 0.120474512140172 2.47783168646871 4.7828391316382
  endloop
endfacet
facet normal 0.866025403784438 -0.5 2.91433543964104e-016
  outer loop
    vertex 0.120474512140172 2.47783168646871 6.56894724646858
    vertex 0.821063483264315 3.69128737967813 4.06894724646859
    vertex 0.821063483264315 3.69128737967813 6.56894724646858
  endloop
endfacet
facet normal 0.866025403784438 -0.5 2.91433543964104e-016
  outer loop
    vertex 0.821063483264315 3.69128737967813 6.56894724646858
    vertex 0.821063483264315 3.69128737967813 4.06894724646859
    vertex 1.77047451214017 5.33571551895736 4.06894724646858
  endloop
endfacet
facet normal 0.866025403784438 -0.5 2.91433543964104e-016
  outer loop
    vertex 0.821063483264315 3.69128737967813 6.56894724646858
    vertex 1.77047451214017 5.33571551895736 4.06894724646858
    vertex 1.77047451214017 5.33571551895735 6.56894724646858
  endloop
endfacet
facet normal 0.0 -1.0 4.44089209850063e-016
  outer loop
    vertex 5.07047451214017 5.33571551895735 6.56894724646858
    vertex 1.77047451214017 5.33571551895736 4.06894724646858
    vertex 5.07047451214017 5.33571551895736 4.06894724646858
  endloop
endfacet
facet normal 0.0 -1.0 4.44089209850063e-016
  outer loop
    vertex 1.77047451214017 5.33571551895736 4.06894724646858
    vertex 5.07047451214017 5.33571551895735 6.56894724646858
    vertex 1.77047451214017 5.33571551895735 6.56894724646858
  endloop
endfacet
facet normal 8.54535297741788e-016 1.0 -4.44089209850063e-016
  outer loop
    vertex 1.77047451214017 -0.380052146019935 6.56894724646858
    vertex 5.07047451214017 -0.38005214601994 4.06894724646859
    vertex 1.77047451214017 -0.380052146019937 4.06894724646859
  endloop
endfacet
facet normal 8.54535297741788e-016 1.0 -4.44089209850063e-016
  outer loop
    vertex 5.07047451214017 -0.38005214601994 4.06894724646859
    vertex 1.77047451214017 -0.380052146019935 6.56894724646858
    vertex 5.07047451214017 -0.380052146019938 6.56894724646858
  endloop
endfacet
facet normal -0.866025403784438 0.5 -1.80411241501588e-016
  outer loop
    vertex 5.07047451214017 -0.380052146019938 6.56894724646858
    vertex 6.01988554101603 1.26437599325929 4.06894724646859
    vertex 5.07047451214017 -0.38005214601994 4.06894724646859
  endloop
endfacet
facet normal -0.866025403784438 0.5 -1.80411241501588e-016
  outer loop
    vertex 6.01988554101603 1.26437599325929 4.06894724646859
    vertex 5.07047451214017 -0.380052146019938 6.56894724646858
    vertex 6.01988554101603 1.26437599325929 6.56894724646858
  endloop
endfacet
facet normal -0.866025403784438 0.5 -1.80411241501588e-016
  outer loop
    vertex 6.01988554101603 1.26437599325929 4.06894724646859
    vertex 6.01988554101603 1.26437599325929 6.56894724646858
    vertex 6.72047451214017 2.47783168646871 4.78283913163821
  endloop
endfacet
facet normal -0.866025403784438 0.5 -1.80411241501588e-016
  outer loop
    vertex 6.72047451214017 2.47783168646871 4.78283913163821
    vertex 6.01988554101603 1.26437599325929 6.56894724646858
    vertex 6.72047451214017 2.47783168646871 6.56894724646858
  endloop
endfacet
facet normal -0.866025403784439 -0.5 3.05311331771918e-016
  outer loop
    vertex 6.01850741317806 3.69367436711281 6.56894724646858
    vertex 6.72047451214017 2.47783168646871 4.78283913163821
    vertex 6.72047451214017 2.47783168646871 6.56894724646858
  endloop
endfacet
facet normal -0.866025403784439 -0.5 3.05311331771918e-016
  outer loop
    vertex 6.72047451214017 2.47783168646871 4.78283913163821
    vertex 6.01850741317806 3.69367436711281 6.56894724646858
    vertex 6.01850741317806 3.69367436711281 4.06894724646859
  endloop
endfacet
facet normal -0.866025403784439 -0.5 3.05311331771918e-016
  outer loop
    vertex 6.01850741317806 3.69367436711281 4.06894724646859
    vertex 6.01850741317806 3.69367436711281 6.56894724646858
    vertex 5.07047451214017 5.33571551895735 6.56894724646858
  endloop
endfacet
facet normal -0.866025403784439 -0.5 3.05311331771918e-016
  outer loop
    vertex 6.01850741317806 3.69367436711281 4.06894724646859
    vertex 5.07047451214017 5.33571551895735 6.56894724646858
    vertex 5.07047451214017 5.33571551895736 4.06894724646858
  endloop
endfacet
facet normal 0.0 4.44089209850063e-016 1.0
  outer loop
    vertex 0.420474512140171 -5.02216831353129 7.9689472464686
    vertex 1.65267187144559 2.13890127539104 7.96894724646858
    vertex 0.420474512140171 9.97783168646871 7.96894724646859
  endloop
endfacet
facet normal 0.0 4.44089209850063e-016 1.0
  outer loop
    vertex 1.65267187144559 2.13890127539104 7.96894724646858
    vertex 0.420474512140171 -5.02216831353129 7.9689472464686
    vertex 1.80062993106259 1.69290905769973 7.96894724646858
  endloop
endfacet
facet normal 0.0 4.44089209850063e-016 1.0
  outer loop
    vertex 1.80062993106259 1.69290905769973 7.96894724646858
    vertex 0.420474512140171 -5.02216831353129 7.9689472464686
    vertex 2.05897772196029 1.30040802001306 7.96894724646858
  endloop
endfacet
facet normal 0.0 4.44089209850063e-016 1.0
  outer loop
    vertex 2.05897772196029 1.30040802001306 7.96894724646858
    vertex 0.420474512140171 -5.02216831353129 7.9689472464686
    vertex 6.42047451214017 -5.02216831353129 7.9689472464686
  endloop
endfacet
facet normal 0.0 4.44089209850063e-016 1.0
  outer loop
    vertex 0.420474512140171 9.97783168646871 7.96894724646859
    vertex 1.65267187144559 2.13890127539104 7.96894724646858
    vertex 1.62518664035994 2.6079910404883 7.96894724646859
  endloop
endfacet
facet normal 0.0 4.44089209850063e-016 1.0
  outer loop
    vertex 2.05897772196029 1.30040802001306 7.96894724646858
    vertex 6.42047451214017 -5.02216831353129 7.9689472464686
    vertex 2.41010926912892 0.988146459410724 7.96894724646858
  endloop
endfacet
facet normal 0.0 4.44089209850063e-016 1.0
  outer loop
    vertex 2.41010926912892 0.988146459410724 7.96894724646858
    vertex 6.42047451214017 -5.02216831353129 7.9689472464686
    vertex 2.83009553790125 0.777404485211159 7.96894724646858
  endloop
endfacet
facet normal 0.0 4.44089209850063e-016 1.0
  outer loop
    vertex 2.83009553790125 0.777404485211159 7.96894724646858
    vertex 6.42047451214017 -5.02216831353129 7.9689472464686
    vertex 3.29031515812058 0.682543814688477 7.96894724646858
  endloop
endfacet
facet normal 0.0 4.44089209850063e-016 1.0
  outer loop
    vertex 3.29031515812058 0.682543814688477 7.96894724646858
    vertex 6.42047451214017 -5.02216831353129 7.9689472464686
    vertex 3.75940492321784 0.710029045774136 7.96894724646858
  endloop
endfacet
facet normal 0.0 4.44089209850063e-016 1.0
  outer loop
    vertex 3.75940492321784 0.710029045774136 7.96894724646858
    vertex 6.42047451214017 -5.02216831353129 7.9689472464686
    vertex 4.20539714090915 0.857987105391133 7.96894724646858
  endloop
endfacet
facet normal 0.0 4.44089209850063e-016 1.0
  outer loop
    vertex 4.20539714090915 0.857987105391133 7.96894724646858
    vertex 6.42047451214017 -5.02216831353129 7.9689472464686
    vertex 4.59789817859583 1.11633489628883 7.96894724646858
  endloop
endfacet
facet normal 0.0 4.44089209850063e-016 1.0
  outer loop
    vertex 4.59789817859583 1.11633489628883 7.96894724646858
    vertex 6.42047451214017 -5.02216831353129 7.9689472464686
    vertex 4.91015973919816 1.46746644345745 7.96894724646858
  endloop
endfacet
facet normal 0.0 4.44089209850063e-016 1.0
  outer loop
    vertex 4.91015973919816 1.46746644345745 7.96894724646858
    vertex 6.42047451214017 -5.02216831353129 7.9689472464686
    vertex 5.12090171339772 1.88745271222979 7.96894724646858
  endloop
endfacet
facet normal 0.0 4.44089209850063e-016 1.0
  outer loop
    vertex 5.12090171339772 1.88745271222979 7.96894724646858
    vertex 6.42047451214017 -5.02216831353129 7.9689472464686
    vertex 5.21576238392041 2.34767233244912 7.96894724646858
  endloop
endfacet
facet normal 0.0 4.44089209850063e-016 1.0
  outer loop
    vertex 0.420474512140171 9.97783168646871 7.96894724646859
    vertex 1.93078928508218 3.48819692947997 7.96894724646858
    vertex 6.42047451214017 9.97783168646871 7.96894724646859
  endloop
endfacet
facet normal 0.0 4.44089209850063e-016 1.0
  outer loop
    vertex 1.93078928508218 3.48819692947997 7.96894724646858
    vertex 0.420474512140171 9.97783168646871 7.96894724646859
    vertex 1.72004731088262 3.06821066070763 7.96894724646858
  endloop
endfacet
facet normal 0.0 4.44089209850063e-016 1.0
  outer loop
    vertex 1.72004731088262 3.06821066070763 7.96894724646858
    vertex 0.420474512140171 9.97783168646871 7.96894724646859
    vertex 1.62518664035994 2.6079910404883 7.96894724646859
  endloop
endfacet
facet normal 0.0 4.44089209850063e-016 1.0
  outer loop
    vertex 6.42047451214017 9.97783168646871 7.96894724646859
    vertex 1.93078928508218 3.48819692947997 7.96894724646858
    vertex 2.24305084568452 3.83932847664859 7.96894724646858
  endloop
endfacet
facet normal 0.0 4.44089209850063e-016 1.0
  outer loop
    vertex 6.42047451214017 9.97783168646871 7.96894724646859
    vertex 2.24305084568452 3.83932847664859 7.96894724646858
    vertex 2.63555188337119 4.09767626754629 7.96894724646858
  endloop
endfacet
facet normal 0.0 4.44089209850063e-016 1.0
  outer loop
    vertex 6.42047451214017 9.97783168646871 7.96894724646859
    vertex 2.63555188337119 4.09767626754629 7.96894724646858
    vertex 3.0815441010625 4.24563432716328 7.96894724646858
  endloop
endfacet
facet normal 0.0 4.44089209850063e-016 1.0
  outer loop
    vertex 6.42047451214017 9.97783168646871 7.96894724646859
    vertex 3.0815441010625 4.24563432716328 7.96894724646858
    vertex 3.55063386615976 4.27311955824895 7.96894724646858
  endloop
endfacet
facet normal 0.0 4.44089209850063e-016 1.0
  outer loop
    vertex 6.42047451214017 9.97783168646871 7.96894724646859
    vertex 3.55063386615976 4.27311955824895 7.96894724646858
    vertex 4.01085348637909 4.17825888772627 7.96894724646858
  endloop
endfacet
facet normal 0.0 4.44089209850063e-016 1.0
  outer loop
    vertex 6.42047451214017 9.97783168646871 7.96894724646859
    vertex 4.01085348637909 4.17825888772627 7.96894724646858
    vertex 4.43083975515142 3.9675169135267 7.96894724646858
  endloop
endfacet
facet normal 0.0 4.44089209850063e-016 1.0
  outer loop
    vertex 6.42047451214017 9.97783168646871 7.96894724646859
    vertex 4.43083975515142 3.9675169135267 7.96894724646858
    vertex 4.78197130232005 3.65525535292437 7.96894724646858
  endloop
endfacet
facet normal 0.0 4.44089209850063e-016 1.0
  outer loop
    vertex 6.42047451214017 9.97783168646871 7.96894724646859
    vertex 4.78197130232005 3.65525535292437 7.96894724646858
    vertex 5.04031909321775 3.26275431523769 7.96894724646858
  endloop
endfacet
facet normal 0.0 4.44089209850063e-016 1.0
  outer loop
    vertex 6.42047451214017 9.97783168646871 7.96894724646859
    vertex 5.04031909321775 3.26275431523769 7.96894724646858
    vertex 5.18827715283475 2.81676209754638 7.96894724646858
  endloop
endfacet
facet normal 0.0 4.44089209850063e-016 1.0
  outer loop
    vertex 6.42047451214017 9.97783168646871 7.96894724646859
    vertex 5.18827715283475 2.81676209754638 7.96894724646858
    vertex 5.21576238392041 2.34767233244912 7.96894724646858
  endloop
endfacet
facet normal 0.0 4.44089209850063e-016 1.0
  outer loop
    vertex 6.42047451214017 9.97783168646871 7.96894724646859
    vertex 5.21576238392041 2.34767233244912 7.96894724646858
    vertex 6.42047451214017 -5.02216831353129 7.9689472464686
  endloop
endfacet
facet normal 0.756387105655489 0.654124259142031 -6.99876934587391e-016
  outer loop
    vertex 2.05897772196029 1.30040802001305 6.56894724646858
    vertex 2.41010926912892 0.988146459410724 7.96894724646858
    vertex 2.41010926912892 0.988146459410723 6.56894724646858
  endloop
endfacet
facet normal 0.561314023895141 0.827602903921104 -9.51832631038851e-016
  outer loop
    vertex 2.41010926912892 0.988146459410724 7.96894724646858
    vertex 2.05897772196029 1.30040802001305 6.56894724646858
    vertex 2.05897772196029 1.30040802001306 7.96894724646858
  endloop
endfacet
facet normal 0.89991365615421 0.436068127093877 -3.77933544677191e-016
  outer loop
    vertex 1.80062993106259 1.69290905769973 6.56894724646858
    vertex 2.05897772196029 1.30040802001306 7.96894724646858
    vertex 2.05897772196029 1.30040802001305 6.56894724646858
  endloop
endfacet
facet normal 0.75638710565549 0.654124259142031 -6.9987693458739e-016
  outer loop
    vertex 2.05897772196029 1.30040802001306 7.96894724646858
    vertex 1.80062993106259 1.69290905769973 6.56894724646858
    vertex 1.80062993106259 1.69290905769973 7.96894724646858
  endloop
endfacet
facet normal 0.982112578163654 0.18829467282093 -1.46099310095118e-016
  outer loop
    vertex 1.65267187144559 2.13890127539104 6.56894724646858
    vertex 1.80062993106259 1.69290905769973 7.96894724646858
    vertex 1.80062993106259 1.69290905769973 6.56894724646858
  endloop
endfacet
facet normal 0.89991365615421 0.436068127093878 -3.77933544677191e-016
  outer loop
    vertex 1.80062993106259 1.69290905769973 7.96894724646858
    vertex 1.65267187144559 2.13890127539104 6.56894724646858
    vertex 1.65267187144559 2.13890127539104 7.96894724646858
  endloop
endfacet
facet normal 0.997382150989019 -0.0723107522331051 1.44349617758649e-016
  outer loop
    vertex 1.62518664035994 2.6079910404883 6.56894724646858
    vertex 1.65267187144559 2.13890127539104 7.96894724646858
    vertex 1.65267187144559 2.13890127539104 6.56894724646858
  endloop
endfacet
facet normal 0.982112578163654 0.18829467282093 -1.46099310095118e-016
  outer loop
    vertex 1.65267187144559 2.13890127539104 7.96894724646858
    vertex 1.62518664035994 2.6079910404883 6.56894724646858
    vertex 1.62518664035994 2.6079910404883 7.96894724646859
  endloop
endfacet
facet normal 0.944681778476419 -0.327988319021622 4.51420622808866e-016
  outer loop
    vertex 1.72004731088262 3.06821066070763 6.56894724646858
    vertex 1.62518664035994 2.6079910404883 7.96894724646859
    vertex 1.62518664035994 2.6079910404883 6.56894724646858
  endloop
endfacet
facet normal 0.997382150989019 -0.0723107522331057 1.4434961775865e-016
  outer loop
    vertex 1.62518664035994 2.6079910404883 7.96894724646859
    vertex 1.72004731088262 3.06821066070763 6.56894724646858
    vertex 1.72004731088262 3.06821066070763 7.96894724646858
  endloop
endfacet
facet normal 0.827602903921105 -0.56131402389514 7.3487078131676e-016
  outer loop
    vertex 1.93078928508218 3.48819692947996 6.56894724646858
    vertex 1.72004731088262 3.06821066070763 7.96894724646858
    vertex 1.72004731088262 3.06821066070763 6.56894724646858
  endloop
endfacet
facet normal 0.944681778476419 -0.327988319021622 4.51420622808867e-016
  outer loop
    vertex 1.72004731088262 3.06821066070763 7.96894724646858
    vertex 1.93078928508218 3.48819692947996 6.56894724646858
    vertex 1.93078928508218 3.48819692947997 7.96894724646858
  endloop
endfacet
facet normal 0.654124259142031 -0.75638710565549 7.97859705429625e-016
  outer loop
    vertex 2.24305084568452 3.83932847664859 6.56894724646858
    vertex 1.93078928508218 3.48819692947997 7.96894724646858
    vertex 1.93078928508218 3.48819692947996 6.56894724646858
  endloop
endfacet
facet normal 0.827602903921105 -0.56131402389514 7.3487078131676e-016
  outer loop
    vertex 1.93078928508218 3.48819692947997 7.96894724646858
    vertex 2.24305084568452 3.83932847664859 6.56894724646858
    vertex 2.24305084568452 3.83932847664859 7.96894724646858
  endloop
endfacet
facet normal 0.436068127093877 -0.89991365615421 8.95842476271859e-016
  outer loop
    vertex 2.63555188337119 4.09767626754629 7.96894724646858
    vertex 2.24305084568452 3.83932847664859 6.56894724646858
    vertex 2.63555188337119 4.09767626754628 6.56894724646858
  endloop
endfacet
facet normal 0.654124259142031 -0.75638710565549 7.97859705429625e-016
  outer loop
    vertex 2.24305084568452 3.83932847664859 6.56894724646858
    vertex 2.63555188337119 4.09767626754629 7.96894724646858
    vertex 2.24305084568452 3.83932847664859 7.96894724646858
  endloop
endfacet
facet normal 0.18829467282093 -0.982112578163654 1.23178340487381e-015
  outer loop
    vertex 3.0815441010625 4.24563432716328 7.96894724646858
    vertex 2.63555188337119 4.09767626754628 6.56894724646858
    vertex 3.0815441010625 4.24563432716329 6.56894724646858
  endloop
endfacet
facet normal 0.436068127093877 -0.89991365615421 8.9584247627186e-016
  outer loop
    vertex 2.63555188337119 4.09767626754628 6.56894724646858
    vertex 3.0815441010625 4.24563432716328 7.96894724646858
    vertex 2.63555188337119 4.09767626754629 7.96894724646858
  endloop
endfacet
facet normal -0.072310752233106 -0.997382150989019 1.30177109833255e-015
  outer loop
    vertex 3.55063386615976 4.27311955824894 6.56894724646858
    vertex 3.0815441010625 4.24563432716328 7.96894724646858
    vertex 3.0815441010625 4.24563432716329 6.56894724646858
  endloop
endfacet
facet normal 0.18829467282093 -0.982112578163654 1.23178340487381e-015
  outer loop
    vertex 3.0815441010625 4.24563432716328 7.96894724646858
    vertex 3.55063386615976 4.27311955824894 6.56894724646858
    vertex 3.55063386615976 4.27311955824895 7.96894724646858
  endloop
endfacet
facet normal -0.327988319021623 -0.944681778476419 1.20378832749031e-015
  outer loop
    vertex 4.01085348637909 4.17825888772627 7.96894724646858
    vertex 3.55063386615976 4.27311955824894 6.56894724646858
    vertex 4.01085348637909 4.17825888772626 6.56894724646858
  endloop
endfacet
facet normal -0.072310752233106 -0.997382150989019 1.30177109833255e-015
  outer loop
    vertex 3.55063386615976 4.27311955824894 6.56894724646858
    vertex 4.01085348637909 4.17825888772627 7.96894724646858
    vertex 3.55063386615976 4.27311955824895 7.96894724646858
  endloop
endfacet
facet normal -0.56131402389514 -0.827602903921105 1.06381294057283e-015
  outer loop
    vertex 4.43083975515142 3.9675169135267 6.56894724646858
    vertex 4.01085348637909 4.17825888772627 7.96894724646858
    vertex 4.01085348637909 4.17825888772626 6.56894724646858
  endloop
endfacet
facet normal -0.327988319021623 -0.944681778476419 1.20378832749031e-015
  outer loop
    vertex 4.01085348637909 4.17825888772627 7.96894724646858
    vertex 4.43083975515142 3.9675169135267 6.56894724646858
    vertex 4.43083975515142 3.9675169135267 7.96894724646858
  endloop
endfacet
facet normal -0.756387105655489 -0.654124259142032 7.69864628046129e-016
  outer loop
    vertex 4.78197130232005 3.65525535292437 7.96894724646858
    vertex 4.43083975515142 3.9675169135267 6.56894724646858
    vertex 4.78197130232005 3.65525535292436 6.56894724646858
  endloop
endfacet
facet normal -0.56131402389514 -0.827602903921105 1.06381294057283e-015
  outer loop
    vertex 4.43083975515142 3.9675169135267 6.56894724646858
    vertex 4.78197130232005 3.65525535292437 7.96894724646858
    vertex 4.43083975515142 3.9675169135267 7.96894724646858
  endloop
endfacet
facet normal -0.89991365615421 -0.436068127093877 4.61918776827678e-016
  outer loop
    vertex 5.04031909321775 3.26275431523769 7.96894724646858
    vertex 4.78197130232005 3.65525535292436 6.56894724646858
    vertex 5.04031909321775 3.26275431523769 6.56894724646858
  endloop
endfacet
facet normal -0.756387105655489 -0.654124259142032 7.69864628046129e-016
  outer loop
    vertex 4.78197130232005 3.65525535292436 6.56894724646858
    vertex 5.04031909321775 3.26275431523769 7.96894724646858
    vertex 4.78197130232005 3.65525535292437 7.96894724646858
  endloop
endfacet
facet normal -0.982112578163654 -0.188294672820929 1.70595002805677e-016
  outer loop
    vertex 5.18827715283475 2.81676209754638 7.96894724646858
    vertex 5.04031909321775 3.26275431523769 6.56894724646858
    vertex 5.18827715283475 2.81676209754638 6.56894724646858
  endloop
endfacet
facet normal -0.89991365615421 -0.436068127093877 4.61918776827678e-016
  outer loop
    vertex 5.04031909321775 3.26275431523769 6.56894724646858
    vertex 5.18827715283475 2.81676209754638 7.96894724646858
    vertex 5.04031909321775 3.26275431523769 7.96894724646858
  endloop
endfacet
facet normal -0.997382150989019 0.0723107522331058 -1.12855155702217e-016
  outer loop
    vertex 5.21576238392041 2.34767233244912 7.96894724646858
    vertex 5.18827715283475 2.81676209754638 6.56894724646858
    vertex 5.21576238392041 2.34767233244912 6.56894724646858
  endloop
endfacet
facet normal -0.982112578163654 -0.188294672820929 1.70595002805676e-016
  outer loop
    vertex 5.18827715283475 2.81676209754638 6.56894724646858
    vertex 5.21576238392041 2.34767233244912 7.96894724646858
    vertex 5.18827715283475 2.81676209754638 7.96894724646858
  endloop
endfacet
facet normal -0.944681778476419 0.327988319021623 -4.30424314771245e-016
  outer loop
    vertex 5.12090171339772 1.88745271222979 7.96894724646858
    vertex 5.21576238392041 2.34767233244912 6.56894724646858
    vertex 5.12090171339772 1.88745271222979 6.56894724646858
  endloop
endfacet
facet normal -0.997382150989019 0.0723107522331057 -1.12855155702217e-016
  outer loop
    vertex 5.21576238392041 2.34767233244912 6.56894724646858
    vertex 5.12090171339772 1.88745271222979 7.96894724646858
    vertex 5.21576238392041 2.34767233244912 7.96894724646858
  endloop
endfacet
facet normal -0.827602903921105 0.561314023895141 -7.76863397392004e-016
  outer loop
    vertex 4.91015973919816 1.46746644345745 7.96894724646858
    vertex 5.12090171339772 1.88745271222979 6.56894724646858
    vertex 4.91015973919816 1.46746644345745 6.56894724646858
  endloop
endfacet
facet normal -0.944681778476419 0.327988319021623 -4.30424314771245e-016
  outer loop
    vertex 5.12090171339772 1.88745271222979 6.56894724646858
    vertex 4.91015973919816 1.46746644345745 7.96894724646858
    vertex 5.12090171339772 1.88745271222979 7.96894724646858
  endloop
endfacet
facet normal -0.654124259142031 0.75638710565549 -8.53849860196616e-016
  outer loop
    vertex 4.59789817859583 1.11633489628883 7.96894724646858
    vertex 4.91015973919816 1.46746644345745 6.56894724646858
    vertex 4.59789817859583 1.11633489628883 6.56894724646858
  endloop
endfacet
facet normal -0.827602903921105 0.561314023895141 -7.76863397392004e-016
  outer loop
    vertex 4.91015973919816 1.46746644345745 6.56894724646858
    vertex 4.59789817859583 1.11633489628883 7.96894724646858
    vertex 4.91015973919816 1.46746644345745 7.96894724646858
  endloop
endfacet
facet normal -0.436068127093878 0.89991365615421 -1.02182032449759e-015
  outer loop
    vertex 4.20539714090915 0.857987105391133 7.96894724646858
    vertex 4.59789817859583 1.11633489628883 6.56894724646858
    vertex 4.20539714090915 0.857987105391132 6.56894724646858
  endloop
endfacet
facet normal -0.654124259142031 0.75638710565549 -8.53849860196616e-016
  outer loop
    vertex 4.59789817859583 1.11633489628883 6.56894724646858
    vertex 4.20539714090915 0.857987105391133 7.96894724646858
    vertex 4.59789817859583 1.11633489628883 7.96894724646858
  endloop
endfacet
facet normal -0.188294672820929 0.982112578163654 -1.35776125309954e-015
  outer loop
    vertex 3.75940492321784 0.710029045774132 6.56894724646859
    vertex 4.20539714090915 0.857987105391133 7.96894724646858
    vertex 4.20539714090915 0.857987105391132 6.56894724646858
  endloop
endfacet
facet normal -0.436068127093878 0.89991365615421 -1.02182032449759e-015
  outer loop
    vertex 4.20539714090915 0.857987105391133 7.96894724646858
    vertex 3.75940492321784 0.710029045774132 6.56894724646859
    vertex 3.75940492321784 0.710029045774136 7.96894724646858
  endloop
endfacet
facet normal 0.0723107522331057 0.997382150989019 -1.31576863702429e-015
  outer loop
    vertex 3.29031515812058 0.682543814688477 7.96894724646858
    vertex 3.75940492321784 0.710029045774132 6.56894724646859
    vertex 3.29031515812058 0.682543814688475 6.56894724646858
  endloop
endfacet
facet normal -0.188294672820929 0.982112578163654 -1.35776125309954e-015
  outer loop
    vertex 3.75940492321784 0.710029045774132 6.56894724646859
    vertex 3.29031515812058 0.682543814688477 7.96894724646858
    vertex 3.75940492321784 0.710029045774136 7.96894724646858
  endloop
endfacet
facet normal 0.327988319021624 0.944681778476419 -1.09180801795633e-015
  outer loop
    vertex 2.83009553790125 0.777404485211155 6.56894724646859
    vertex 3.29031515812058 0.682543814688477 7.96894724646858
    vertex 3.29031515812058 0.682543814688475 6.56894724646858
  endloop
endfacet
facet normal 0.0723107522331057 0.997382150989019 -1.31576863702429e-015
  outer loop
    vertex 3.29031515812058 0.682543814688477 7.96894724646858
    vertex 2.83009553790125 0.777404485211155 6.56894724646859
    vertex 2.83009553790125 0.777404485211159 7.96894724646858
  endloop
endfacet
facet normal 0.561314023895141 0.827602903921104 -9.51832631038851e-016
  outer loop
    vertex 2.41010926912892 0.988146459410724 7.96894724646858
    vertex 2.83009553790125 0.777404485211155 6.56894724646859
    vertex 2.41010926912892 0.988146459410723 6.56894724646858
  endloop
endfacet
facet normal 0.327988319021624 0.944681778476419 -1.09180801795633e-015
  outer loop
    vertex 2.83009553790125 0.777404485211155 6.56894724646859
    vertex 2.41010926912892 0.988146459410724 7.96894724646858
    vertex 2.83009553790125 0.777404485211159 7.96894724646858
  endloop
endfacet
endsolid m3_srew_2020case_1
