solid testlunzi
facet normal 0.0 0.0 -1.0
  outer loop
    vertex -72.3694629048524 19.6891045724074 0.0
    vertex -68.9477998676275 12.0913561445184 0.0
    vertex -69.7279338092702 -6.16565054880968 0.0
  endloop
endfacet
facet normal 0.0 0.0 -1.0
  outer loop
    vertex -68.9477998676275 12.0913561445184 0.0
    vertex -72.3694629048524 19.6891045724074 0.0
    vertex -64.8076180101114 37.7488098866107 0.0
  endloop
endfacet
facet normal 0.0 0.0 -1.0
  outer loop
    vertex -68.9477998676275 12.0913561445184 0.0
    vertex -64.8076180101114 37.7488098866107 0.0
    vertex -64.9443907261001 24.8297796269427 0.0
  endloop
endfacet
facet normal 0.0 0.0 -1.0
  outer loop
    vertex -64.9443907261001 24.8297796269427 0.0
    vertex -64.8076180101114 37.7488098866107 0.0
    vertex -63.7925520881551 28.4948080651714 0.0
  endloop
endfacet
facet normal 0.0 0.0 -1.0
  outer loop
    vertex -63.7925520881551 28.4948080651714 0.0
    vertex -64.8076180101114 37.7488098866107 0.0
    vertex -63.4689873066326 29.5243568985085 0.0
  endloop
endfacet
facet normal 0.0 0.0 -1.0
  outer loop
    vertex -63.4689873066326 29.5243568985085 0.0
    vertex -64.8076180101114 37.7488098866107 0.0
    vertex -52.829241047634 53.2359961898994 0.0
  endloop
endfacet
facet normal 0.0 0.0 -1.0
  outer loop
    vertex -63.4689873066326 29.5243568985085 0.0
    vertex -52.829241047634 53.2359961898994 0.0
    vertex -53.6648681481515 44.9453215211718 0.0
  endloop
endfacet
facet normal 0.0 0.0 -1.0
  outer loop
    vertex -53.6648681481515 44.9453215211718 0.0
    vertex -52.829241047634 53.2359961898994 0.0
    vertex -40.2035769107617 57.303336757823 0.0
  endloop
endfacet
facet normal 0.0 0.0 -1.0
  outer loop
    vertex -40.2035769107617 57.303336757823 0.0
    vertex -52.829241047634 53.2359961898994 0.0
    vertex -37.2506386122091 65.0952373294898 0.0
  endloop
endfacet
facet normal 0.0 0.0 -1.0
  outer loop
    vertex -40.2035769107617 57.303336757823 0.0
    vertex -37.2506386122091 65.0952373294898 0.0
    vertex -28.3653135328754 63.4799246320328 0.0
  endloop
endfacet
facet normal 0.0 0.0 -1.0
  outer loop
    vertex -28.3653135328754 63.4799246320328 0.0
    vertex -37.2506386122091 65.0952373294898 0.0
    vertex -19.133466714953 72.5183456200414 0.0
  endloop
endfacet
facet normal 0.0 0.0 -1.0
  outer loop
    vertex -28.3653135328754 63.4799246320328 0.0
    vertex -19.133466714953 72.5183456200414 0.0
    vertex -24.9592741592387 65.2570181822223 0.0
  endloop
endfacet
facet normal 0.0 0.0 -1.0
  outer loop
    vertex -24.9592741592387 65.2570181822223 0.0
    vertex -19.133466714953 72.5183456200414 0.0
    vertex -24.0024783464557 65.75622429267 0.0
  endloop
endfacet
facet normal 0.0 0.0 -1.0
  outer loop
    vertex -24.0024783464557 65.75622429267 0.0
    vertex -19.133466714953 72.5183456200414 0.0
    vertex -6.16565054880965 69.7279338092702 0.0
  endloop
endfacet
facet normal 0.0 0.0 -1.0
  outer loop
    vertex -6.16565054880965 69.7279338092702 0.0
    vertex -19.133466714953 72.5183456200414 0.0
    vertex 0.287619319378322 74.9994484988198 0.0
  endloop
endfacet
facet normal 0.0 0.0 -1.0
  outer loop
    vertex -6.16565054880965 69.7279338092702 0.0
    vertex 0.287619319378322 74.9994484988198 0.0
    vertex 1.40998324127395e-015 69.4644714933369 0.0
  endloop
endfacet
facet normal 0.0 0.0 -1.0
  outer loop
    vertex 1.40998324127395e-015 69.4644714933369 0.0
    vertex 0.287619319378322 74.9994484988198 0.0
    vertex 12.0913561445185 68.9477998676275 0.0
  endloop
endfacet
facet normal 0.0 0.0 -1.0
  outer loop
    vertex 12.0913561445185 68.9477998676275 0.0
    vertex 0.287619319378322 74.9994484988198 0.0
    vertex 19.6891045724074 72.3694629048524 0.0
  endloop
endfacet
facet normal 0.0 0.0 -1.0
  outer loop
    vertex 12.0913561445185 68.9477998676275 0.0
    vertex 19.6891045724074 72.3694629048524 0.0
    vertex 24.8297796269427 64.9443907261001 0.0
  endloop
endfacet
facet normal 0.0 0.0 -1.0
  outer loop
    vertex 24.8297796269427 64.9443907261001 0.0
    vertex 19.6891045724074 72.3694629048524 0.0
    vertex 37.7488098866107 64.8076180101115 0.0
  endloop
endfacet
facet normal 0.0 0.0 -1.0
  outer loop
    vertex 24.8297796269427 64.9443907261001 0.0
    vertex 37.7488098866107 64.8076180101115 0.0
    vertex 28.4948080651714 63.792552088155 0.0
  endloop
endfacet
facet normal 0.0 0.0 -1.0
  outer loop
    vertex 28.4948080651714 63.792552088155 0.0
    vertex 37.7488098866107 64.8076180101115 0.0
    vertex 29.5243568985085 63.4689873066326 0.0
  endloop
endfacet
facet normal 0.0 0.0 -1.0
  outer loop
    vertex 29.5243568985085 63.4689873066326 0.0
    vertex 37.7488098866107 64.8076180101115 0.0
    vertex 44.9453215211718 53.6648681481515 0.0
  endloop
endfacet
facet normal 0.0 0.0 -1.0
  outer loop
    vertex 44.9453215211718 53.6648681481515 0.0
    vertex 37.7488098866107 64.8076180101115 0.0
    vertex 53.2359961898994 52.829241047634 0.0
  endloop
endfacet
facet normal 0.0 0.0 -1.0
  outer loop
    vertex 44.9453215211718 53.6648681481515 0.0
    vertex 53.2359961898994 52.829241047634 0.0
    vertex 57.303336757823 40.2035769107617 0.0
  endloop
endfacet
facet normal 0.0 0.0 -1.0
  outer loop
    vertex 57.303336757823 40.2035769107617 0.0
    vertex 53.2359961898994 52.829241047634 0.0
    vertex 65.0952373294898 37.2506386122091 0.0
  endloop
endfacet
facet normal 0.0 0.0 -1.0
  outer loop
    vertex 57.303336757823 40.2035769107617 0.0
    vertex 65.0952373294898 37.2506386122091 0.0
    vertex 63.4799246320329 28.3653135328754 0.0
  endloop
endfacet
facet normal 0.0 0.0 -1.0
  outer loop
    vertex 63.4799246320329 28.3653135328754 0.0
    vertex 65.0952373294898 37.2506386122091 0.0
    vertex 65.2570181822223 24.9592741592387 0.0
  endloop
endfacet
facet normal 0.0 0.0 -1.0
  outer loop
    vertex 65.2570181822223 24.9592741592387 0.0
    vertex 65.0952373294898 37.2506386122091 0.0
    vertex 72.5183456200414 19.133466714953 0.0
  endloop
endfacet
facet normal 0.0 0.0 -1.0
  outer loop
    vertex 65.2570181822223 24.9592741592387 0.0
    vertex 72.5183456200414 19.133466714953 0.0
    vertex 65.75622429267 24.0024783464557 0.0
  endloop
endfacet
facet normal 0.0 0.0 -1.0
  outer loop
    vertex 65.75622429267 24.0024783464557 0.0
    vertex 72.5183456200414 19.133466714953 0.0
    vertex 69.7279338092702 6.16565054880965 0.0
  endloop
endfacet
facet normal 0.0 0.0 -1.0
  outer loop
    vertex 69.7279338092702 6.16565054880965 0.0
    vertex 72.5183456200414 19.133466714953 0.0
    vertex 72.3694629048524 -19.6891045724074 0.0
  endloop
endfacet
facet normal 0.0 0.0 -1.0
  outer loop
    vertex 72.3694629048524 -19.6891045724074 0.0
    vertex 72.5183456200414 19.133466714953 0.0
    vertex 74.9994484988198 -0.287619319378308 0.0
  endloop
endfacet
facet normal 0.0 0.0 -1.0
  outer loop
    vertex -72.3694629048524 19.6891045724074 0.0
    vertex -72.5183456200414 -19.133466714953 0.0
    vertex -74.9994484988198 0.287619319378339 0.0
  endloop
endfacet
facet normal 0.0 0.0 -1.0
  outer loop
    vertex -72.5183456200414 -19.133466714953 0.0
    vertex -72.3694629048524 19.6891045724074 0.0
    vertex -69.7279338092702 -6.16565054880968 0.0
  endloop
endfacet
facet normal 0.0 0.0 -1.0
  outer loop
    vertex -72.5183456200414 -19.133466714953 0.0
    vertex -69.7279338092702 -6.16565054880968 0.0
    vertex -65.0952373294898 -37.2506386122091 0.0
  endloop
endfacet
facet normal 0.0 0.0 -1.0
  outer loop
    vertex -65.0952373294898 -37.2506386122091 0.0
    vertex -69.7279338092702 -6.16565054880968 0.0
    vertex -65.75622429267 -24.0024783464557 0.0
  endloop
endfacet
facet normal 0.0 0.0 -1.0
  outer loop
    vertex -65.0952373294898 -37.2506386122091 0.0
    vertex -65.75622429267 -24.0024783464557 0.0
    vertex -65.2570181822223 -24.9592741592387 0.0
  endloop
endfacet
facet normal 0.0 0.0 -1.0
  outer loop
    vertex -65.0952373294898 -37.2506386122091 0.0
    vertex -65.2570181822223 -24.9592741592387 0.0
    vertex -63.4799246320329 -28.3653135328754 0.0
  endloop
endfacet
facet normal 0.0 0.0 -1.0
  outer loop
    vertex -65.0952373294898 -37.2506386122091 0.0
    vertex -63.4799246320329 -28.3653135328754 0.0
    vertex -53.2359961898994 -52.829241047634 0.0
  endloop
endfacet
facet normal 0.0 0.0 -1.0
  outer loop
    vertex -53.2359961898994 -52.829241047634 0.0
    vertex -63.4799246320329 -28.3653135328754 0.0
    vertex -57.303336757823 -40.2035769107617 0.0
  endloop
endfacet
facet normal 0.0 0.0 -1.0
  outer loop
    vertex -53.2359961898994 -52.829241047634 0.0
    vertex -57.303336757823 -40.2035769107617 0.0
    vertex -44.9453215211718 -53.6648681481516 0.0
  endloop
endfacet
facet normal 0.0 0.0 -1.0
  outer loop
    vertex -53.2359961898994 -52.829241047634 0.0
    vertex -44.9453215211718 -53.6648681481516 0.0
    vertex -37.7488098866107 -64.8076180101114 0.0
  endloop
endfacet
facet normal 0.0 0.0 -1.0
  outer loop
    vertex -37.7488098866107 -64.8076180101114 0.0
    vertex -44.9453215211718 -53.6648681481516 0.0
    vertex -29.5243568985085 -63.4689873066327 0.0
  endloop
endfacet
facet normal 0.0 0.0 -1.0
  outer loop
    vertex -37.7488098866107 -64.8076180101114 0.0
    vertex -29.5243568985085 -63.4689873066327 0.0
    vertex -19.6891045724074 -72.3694629048524 0.0
  endloop
endfacet
facet normal 0.0 0.0 -1.0
  outer loop
    vertex -19.6891045724074 -72.3694629048524 0.0
    vertex -29.5243568985085 -63.4689873066327 0.0
    vertex -28.4948080651714 -63.7925520881551 0.0
  endloop
endfacet
facet normal 0.0 0.0 -1.0
  outer loop
    vertex -19.6891045724074 -72.3694629048524 0.0
    vertex -28.4948080651714 -63.7925520881551 0.0
    vertex -24.8297796269426 -64.9443907261001 0.0
  endloop
endfacet
facet normal 0.0 0.0 -1.0
  outer loop
    vertex -19.6891045724074 -72.3694629048524 0.0
    vertex -24.8297796269426 -64.9443907261001 0.0
    vertex -12.0913561445184 -68.9477998676275 0.0
  endloop
endfacet
facet normal 0.0 0.0 -1.0
  outer loop
    vertex -19.6891045724074 -72.3694629048524 0.0
    vertex -12.0913561445184 -68.9477998676275 0.0
    vertex -0.28761931937835 -74.9994484988198 0.0
  endloop
endfacet
facet normal 0.0 0.0 -1.0
  outer loop
    vertex -0.28761931937835 -74.9994484988198 0.0
    vertex -12.0913561445184 -68.9477998676275 0.0
    vertex 0.0 -69.4644714933369 0.0
  endloop
endfacet
facet normal 0.0 0.0 -1.0
  outer loop
    vertex -0.28761931937835 -74.9994484988198 0.0
    vertex 0.0 -69.4644714933369 0.0
    vertex 19.133466714953 -72.5183456200415 0.0
  endloop
endfacet
facet normal 0.0 0.0 -1.0
  outer loop
    vertex 19.133466714953 -72.5183456200415 0.0
    vertex 0.0 -69.4644714933369 0.0
    vertex 6.16565054880968 -69.7279338092702 0.0
  endloop
endfacet
facet normal 0.0 0.0 -1.0
  outer loop
    vertex 19.133466714953 -72.5183456200415 0.0
    vertex 6.16565054880968 -69.7279338092702 0.0
    vertex 24.0024783464557 -65.75622429267 0.0
  endloop
endfacet
facet normal 0.0 0.0 -1.0
  outer loop
    vertex 19.133466714953 -72.5183456200415 0.0
    vertex 24.0024783464557 -65.75622429267 0.0
    vertex 37.2506386122091 -65.0952373294898 0.0
  endloop
endfacet
facet normal 0.0 0.0 -1.0
  outer loop
    vertex 37.2506386122091 -65.0952373294898 0.0
    vertex 24.0024783464557 -65.75622429267 0.0
    vertex 24.9592741592387 -65.2570181822223 0.0
  endloop
endfacet
facet normal 0.0 0.0 -1.0
  outer loop
    vertex 37.2506386122091 -65.0952373294898 0.0
    vertex 24.9592741592387 -65.2570181822223 0.0
    vertex 28.3653135328754 -63.4799246320329 0.0
  endloop
endfacet
facet normal 0.0 0.0 -1.0
  outer loop
    vertex 37.2506386122091 -65.0952373294898 0.0
    vertex 28.3653135328754 -63.4799246320329 0.0
    vertex 40.2035769107617 -57.303336757823 0.0
  endloop
endfacet
facet normal 0.0 0.0 -1.0
  outer loop
    vertex 37.2506386122091 -65.0952373294898 0.0
    vertex 40.2035769107617 -57.303336757823 0.0
    vertex 52.829241047634 -53.2359961898994 0.0
  endloop
endfacet
facet normal 0.0 0.0 -1.0
  outer loop
    vertex 52.829241047634 -53.2359961898994 0.0
    vertex 40.2035769107617 -57.303336757823 0.0
    vertex 53.6648681481515 -44.9453215211718 0.0
  endloop
endfacet
facet normal 0.0 0.0 -1.0
  outer loop
    vertex 52.829241047634 -53.2359961898994 0.0
    vertex 53.6648681481515 -44.9453215211718 0.0
    vertex 64.8076180101114 -37.7488098866107 0.0
  endloop
endfacet
facet normal 0.0 0.0 -1.0
  outer loop
    vertex 64.8076180101114 -37.7488098866107 0.0
    vertex 53.6648681481515 -44.9453215211718 0.0
    vertex 63.4689873066327 -29.5243568985085 0.0
  endloop
endfacet
facet normal 0.0 0.0 -1.0
  outer loop
    vertex 64.8076180101114 -37.7488098866107 0.0
    vertex 63.4689873066327 -29.5243568985085 0.0
    vertex 63.7925520881551 -28.4948080651714 0.0
  endloop
endfacet
facet normal 0.0 0.0 -1.0
  outer loop
    vertex 64.8076180101114 -37.7488098866107 0.0
    vertex 63.7925520881551 -28.4948080651714 0.0
    vertex 64.9443907261001 -24.8297796269427 0.0
  endloop
endfacet
facet normal 0.0 0.0 -1.0
  outer loop
    vertex 64.8076180101114 -37.7488098866107 0.0
    vertex 64.9443907261001 -24.8297796269427 0.0
    vertex 72.3694629048524 -19.6891045724074 0.0
  endloop
endfacet
facet normal 0.0 0.0 -1.0
  outer loop
    vertex 72.3694629048524 -19.6891045724074 0.0
    vertex 64.9443907261001 -24.8297796269427 0.0
    vertex 68.9477998676275 -12.0913561445185 0.0
  endloop
endfacet
facet normal 0.0 0.0 -1.0
  outer loop
    vertex 72.3694629048524 -19.6891045724074 0.0
    vertex 68.9477998676275 -12.0913561445185 0.0
    vertex 69.7279338092702 6.16565054880965 0.0
  endloop
endfacet
facet normal -0.0 -0.0 1.0
  outer loop
    vertex -72.5183456200414 -19.133466714953 3.0
    vertex -72.3694629048524 19.6891045724074 3.0
    vertex -74.9994484988198 0.287619319378339 3.0
  endloop
endfacet
facet normal -0.0 -0.0 1.0
  outer loop
    vertex -72.3694629048524 19.6891045724074 3.0
    vertex -72.5183456200414 -19.133466714953 3.0
    vertex -69.7279338092702 -6.16565054880968 3.0
  endloop
endfacet
facet normal -0.0 -0.0 1.0
  outer loop
    vertex -69.7279338092702 -6.16565054880968 3.0
    vertex -72.5183456200414 -19.133466714953 3.0
    vertex -65.0952373294898 -37.2506386122091 3.0
  endloop
endfacet
facet normal -0.0 -0.0 1.0
  outer loop
    vertex -69.7279338092702 -6.16565054880968 3.0
    vertex -65.0952373294898 -37.2506386122091 3.0
    vertex -65.75622429267 -24.0024783464557 3.0
  endloop
endfacet
facet normal -0.0 -0.0 1.0
  outer loop
    vertex -65.75622429267 -24.0024783464557 3.0
    vertex -65.0952373294898 -37.2506386122091 3.0
    vertex -65.2570181822223 -24.9592741592387 3.0
  endloop
endfacet
facet normal -0.0 -0.0 1.0
  outer loop
    vertex -65.2570181822223 -24.9592741592387 3.0
    vertex -65.0952373294898 -37.2506386122091 3.0
    vertex -63.4799246320329 -28.3653135328754 3.0
  endloop
endfacet
facet normal -0.0 -0.0 1.0
  outer loop
    vertex -65.2570181822223 -24.9592741592387 3.0
    vertex -63.4799246320329 -28.3653135328754 3.0
    vertex -5.0 7.45074277985925e-017 3.0
  endloop
endfacet
facet normal -0.0 -0.0 1.0
  outer loop
    vertex -5.0 7.45074277985925e-017 3.0
    vertex -63.4799246320329 -28.3653135328754 3.0
    vertex -3.53553390593274 -3.53553390593274 3.0
  endloop
endfacet
facet normal -0.0 -0.0 1.0
  outer loop
    vertex -5.0 7.45074277985925e-017 3.0
    vertex -3.53553390593274 -3.53553390593274 3.0
    vertex -3.53553390593274 3.53553390593274 3.0
  endloop
endfacet
facet normal -0.0 -0.0 1.0
  outer loop
    vertex -3.53553390593274 3.53553390593274 3.0
    vertex -24.9592741592387 65.2570181822223 3.0
    vertex -28.3653135328754 63.4799246320328 3.0
  endloop
endfacet
facet normal -0.0 -0.0 1.0
  outer loop
    vertex -24.9592741592387 65.2570181822223 3.0
    vertex -3.53553390593274 3.53553390593274 3.0
    vertex -2.31654271988246e-016 5.0 3.0
  endloop
endfacet
facet normal -0.0 -0.0 1.0
  outer loop
    vertex -2.31654271988246e-016 5.0 3.0
    vertex -3.53553390593274 3.53553390593274 3.0
    vertex -3.53553390593274 -3.53553390593274 3.0
  endloop
endfacet
facet normal -0.0 -0.0 1.0
  outer loop
    vertex -72.3694629048524 19.6891045724074 3.0
    vertex -68.9477998676275 12.0913561445184 3.0
    vertex -64.8076180101114 37.7488098866107 3.0
  endloop
endfacet
facet normal -0.0 -0.0 1.0
  outer loop
    vertex -68.9477998676275 12.0913561445184 3.0
    vertex -72.3694629048524 19.6891045724074 3.0
    vertex -69.7279338092702 -6.16565054880968 3.0
  endloop
endfacet
facet normal -0.0 -0.0 1.0
  outer loop
    vertex -64.8076180101114 37.7488098866107 3.0
    vertex -68.9477998676275 12.0913561445184 3.0
    vertex -64.9443907261001 24.8297796269427 3.0
  endloop
endfacet
facet normal -0.0 -0.0 1.0
  outer loop
    vertex -64.8076180101114 37.7488098866107 3.0
    vertex -64.9443907261001 24.8297796269427 3.0
    vertex -63.7925520881551 28.4948080651714 3.0
  endloop
endfacet
facet normal -0.0 -0.0 1.0
  outer loop
    vertex -63.7925520881551 28.4948080651714 3.0
    vertex -64.9443907261001 24.8297796269427 3.0
    vertex -5.0 7.45074277985925e-017 3.0
  endloop
endfacet
facet normal -0.0 -0.0 1.0
  outer loop
    vertex -63.7925520881551 28.4948080651714 3.0
    vertex -5.0 7.45074277985925e-017 3.0
    vertex -3.53553390593274 3.53553390593274 3.0
  endloop
endfacet
facet normal -0.0 -0.0 1.0
  outer loop
    vertex -24.8297796269426 -64.9443907261001 3.0
    vertex -3.53553390593274 -3.53553390593274 3.0
    vertex -28.4948080651714 -63.7925520881551 3.0
  endloop
endfacet
facet normal -0.0 -0.0 1.0
  outer loop
    vertex -3.53553390593274 -3.53553390593274 3.0
    vertex -24.8297796269426 -64.9443907261001 3.0
    vertex 8.43977671561922e-016 -5.0 3.0
  endloop
endfacet
facet normal -0.0 -0.0 1.0
  outer loop
    vertex -3.53553390593274 -3.53553390593274 3.0
    vertex 8.43977671561922e-016 -5.0 3.0
    vertex -2.31654271988246e-016 5.0 3.0
  endloop
endfacet
facet normal -0.0 -0.0 1.0
  outer loop
    vertex -2.31654271988246e-016 5.0 3.0
    vertex 8.43977671561922e-016 -5.0 3.0
    vertex 24.8297796269427 64.9443907261001 3.0
  endloop
endfacet
facet normal -0.0 -0.0 1.0
  outer loop
    vertex 24.8297796269427 64.9443907261001 3.0
    vertex 8.43977671561922e-016 -5.0 3.0
    vertex 3.53553390593274 3.53553390593274 3.0
  endloop
endfacet
facet normal -0.0 -0.0 1.0
  outer loop
    vertex 24.8297796269427 64.9443907261001 3.0
    vertex 3.53553390593274 3.53553390593274 3.0
    vertex 28.4948080651714 63.792552088155 3.0
  endloop
endfacet
facet normal -0.0 -0.0 1.0
  outer loop
    vertex -53.2359961898994 -52.829241047634 3.0
    vertex -63.4799246320329 -28.3653135328754 3.0
    vertex -65.0952373294898 -37.2506386122091 3.0
  endloop
endfacet
facet normal -0.0 -0.0 1.0
  outer loop
    vertex -63.4799246320329 -28.3653135328754 3.0
    vertex -53.2359961898994 -52.829241047634 3.0
    vertex -57.303336757823 -40.2035769107617 3.0
  endloop
endfacet
facet normal -0.0 -0.0 1.0
  outer loop
    vertex -57.303336757823 -40.2035769107617 3.0
    vertex -53.2359961898994 -52.829241047634 3.0
    vertex -44.9453215211718 -53.6648681481516 3.0
  endloop
endfacet
facet normal -0.0 -0.0 1.0
  outer loop
    vertex -44.9453215211718 -53.6648681481516 3.0
    vertex -53.2359961898994 -52.829241047634 3.0
    vertex -37.7488098866107 -64.8076180101114 3.0
  endloop
endfacet
facet normal -0.0 -0.0 1.0
  outer loop
    vertex -44.9453215211718 -53.6648681481516 3.0
    vertex -37.7488098866107 -64.8076180101114 3.0
    vertex -29.5243568985085 -63.4689873066327 3.0
  endloop
endfacet
facet normal -0.0 -0.0 1.0
  outer loop
    vertex -29.5243568985085 -63.4689873066327 3.0
    vertex -37.7488098866107 -64.8076180101114 3.0
    vertex -19.6891045724074 -72.3694629048524 3.0
  endloop
endfacet
facet normal -0.0 -0.0 1.0
  outer loop
    vertex -29.5243568985085 -63.4689873066327 3.0
    vertex -19.6891045724074 -72.3694629048524 3.0
    vertex -28.4948080651714 -63.7925520881551 3.0
  endloop
endfacet
facet normal -0.0 -0.0 1.0
  outer loop
    vertex -28.4948080651714 -63.7925520881551 3.0
    vertex -19.6891045724074 -72.3694629048524 3.0
    vertex -24.8297796269426 -64.9443907261001 3.0
  endloop
endfacet
facet normal -0.0 -0.0 1.0
  outer loop
    vertex -24.8297796269426 -64.9443907261001 3.0
    vertex -19.6891045724074 -72.3694629048524 3.0
    vertex -12.0913561445184 -68.9477998676275 3.0
  endloop
endfacet
facet normal -0.0 -0.0 1.0
  outer loop
    vertex -12.0913561445184 -68.9477998676275 3.0
    vertex -19.6891045724074 -72.3694629048524 3.0
    vertex -0.28761931937835 -74.9994484988198 3.0
  endloop
endfacet
facet normal -0.0 -0.0 1.0
  outer loop
    vertex -12.0913561445184 -68.9477998676275 3.0
    vertex -0.28761931937835 -74.9994484988198 3.0
    vertex 0.0 -69.4644714933369 3.0
  endloop
endfacet
facet normal -0.0 -0.0 1.0
  outer loop
    vertex 0.0 -69.4644714933369 3.0
    vertex -0.28761931937835 -74.9994484988198 3.0
    vertex 19.133466714953 -72.5183456200415 3.0
  endloop
endfacet
facet normal -0.0 -0.0 1.0
  outer loop
    vertex 0.0 -69.4644714933369 3.0
    vertex 19.133466714953 -72.5183456200415 3.0
    vertex 6.16565054880968 -69.7279338092702 3.0
  endloop
endfacet
facet normal -0.0 -0.0 1.0
  outer loop
    vertex 6.16565054880968 -69.7279338092702 3.0
    vertex 19.133466714953 -72.5183456200415 3.0
    vertex 24.0024783464557 -65.75622429267 3.0
  endloop
endfacet
facet normal -0.0 -0.0 1.0
  outer loop
    vertex 24.0024783464557 -65.75622429267 3.0
    vertex 19.133466714953 -72.5183456200415 3.0
    vertex 37.2506386122091 -65.0952373294898 3.0
  endloop
endfacet
facet normal -0.0 -0.0 1.0
  outer loop
    vertex 24.0024783464557 -65.75622429267 3.0
    vertex 37.2506386122091 -65.0952373294898 3.0
    vertex 24.9592741592387 -65.2570181822223 3.0
  endloop
endfacet
facet normal -0.0 -0.0 1.0
  outer loop
    vertex 24.9592741592387 -65.2570181822223 3.0
    vertex 37.2506386122091 -65.0952373294898 3.0
    vertex 28.3653135328754 -63.4799246320329 3.0
  endloop
endfacet
facet normal -0.0 -0.0 1.0
  outer loop
    vertex 28.3653135328754 -63.4799246320329 3.0
    vertex 37.2506386122091 -65.0952373294898 3.0
    vertex 40.2035769107617 -57.303336757823 3.0
  endloop
endfacet
facet normal -0.0 -0.0 1.0
  outer loop
    vertex 40.2035769107617 -57.303336757823 3.0
    vertex 37.2506386122091 -65.0952373294898 3.0
    vertex 52.829241047634 -53.2359961898994 3.0
  endloop
endfacet
facet normal -0.0 -0.0 1.0
  outer loop
    vertex 40.2035769107617 -57.303336757823 3.0
    vertex 52.829241047634 -53.2359961898994 3.0
    vertex 53.6648681481515 -44.9453215211718 3.0
  endloop
endfacet
facet normal -0.0 -0.0 1.0
  outer loop
    vertex 53.6648681481515 -44.9453215211718 3.0
    vertex 52.829241047634 -53.2359961898994 3.0
    vertex 64.8076180101114 -37.7488098866107 3.0
  endloop
endfacet
facet normal -0.0 -0.0 1.0
  outer loop
    vertex 53.6648681481515 -44.9453215211718 3.0
    vertex 64.8076180101114 -37.7488098866107 3.0
    vertex 63.4689873066327 -29.5243568985085 3.0
  endloop
endfacet
facet normal -0.0 -0.0 1.0
  outer loop
    vertex 63.4689873066327 -29.5243568985085 3.0
    vertex 64.8076180101114 -37.7488098866107 3.0
    vertex 63.7925520881551 -28.4948080651714 3.0
  endloop
endfacet
facet normal -0.0 -0.0 1.0
  outer loop
    vertex 63.7925520881551 -28.4948080651714 3.0
    vertex 5.0 5.37815971775084e-016 3.0
    vertex 3.53553390593274 -3.53553390593274 3.0
  endloop
endfacet
facet normal -0.0 -0.0 1.0
  outer loop
    vertex 5.0 5.37815971775084e-016 3.0
    vertex 63.7925520881551 -28.4948080651714 3.0
    vertex 64.9443907261001 -24.8297796269427 3.0
  endloop
endfacet
facet normal -0.0 -0.0 1.0
  outer loop
    vertex 64.9443907261001 -24.8297796269427 3.0
    vertex 63.7925520881551 -28.4948080651714 3.0
    vertex 64.8076180101114 -37.7488098866107 3.0
  endloop
endfacet
facet normal -0.0 -0.0 1.0
  outer loop
    vertex 64.9443907261001 -24.8297796269427 3.0
    vertex 64.8076180101114 -37.7488098866107 3.0
    vertex 72.3694629048524 -19.6891045724074 3.0
  endloop
endfacet
facet normal -0.0 -0.0 1.0
  outer loop
    vertex 64.9443907261001 -24.8297796269427 3.0
    vertex 72.3694629048524 -19.6891045724074 3.0
    vertex 68.9477998676275 -12.0913561445185 3.0
  endloop
endfacet
facet normal -0.0 -0.0 1.0
  outer loop
    vertex 68.9477998676275 -12.0913561445185 3.0
    vertex 72.3694629048524 -19.6891045724074 3.0
    vertex 69.7279338092702 6.16565054880965 3.0
  endloop
endfacet
facet normal -0.0 -0.0 1.0
  outer loop
    vertex 3.53553390593274 3.53553390593274 3.0
    vertex 5.0 5.37815971775084e-016 3.0
    vertex 63.4799246320329 28.3653135328754 3.0
  endloop
endfacet
facet normal -0.0 -0.0 1.0
  outer loop
    vertex 5.0 5.37815971775084e-016 3.0
    vertex 3.53553390593274 3.53553390593274 3.0
    vertex 3.53553390593274 -3.53553390593274 3.0
  endloop
endfacet
facet normal -0.0 -0.0 1.0
  outer loop
    vertex 63.4799246320329 28.3653135328754 3.0
    vertex 5.0 5.37815971775084e-016 3.0
    vertex 65.2570181822223 24.9592741592387 3.0
  endloop
endfacet
facet normal -0.0 -0.0 1.0
  outer loop
    vertex 63.4799246320329 28.3653135328754 3.0
    vertex 65.2570181822223 24.9592741592387 3.0
    vertex 65.0952373294898 37.2506386122091 3.0
  endloop
endfacet
facet normal -0.0 -0.0 1.0
  outer loop
    vertex 65.0952373294898 37.2506386122091 3.0
    vertex 65.2570181822223 24.9592741592387 3.0
    vertex 72.5183456200414 19.133466714953 3.0
  endloop
endfacet
facet normal -0.0 -0.0 1.0
  outer loop
    vertex 72.5183456200414 19.133466714953 3.0
    vertex 65.2570181822223 24.9592741592387 3.0
    vertex 65.75622429267 24.0024783464557 3.0
  endloop
endfacet
facet normal -0.0 -0.0 1.0
  outer loop
    vertex 72.5183456200414 19.133466714953 3.0
    vertex 65.75622429267 24.0024783464557 3.0
    vertex 69.7279338092702 6.16565054880965 3.0
  endloop
endfacet
facet normal -0.0 -0.0 1.0
  outer loop
    vertex 72.5183456200414 19.133466714953 3.0
    vertex 69.7279338092702 6.16565054880965 3.0
    vertex 72.3694629048524 -19.6891045724074 3.0
  endloop
endfacet
facet normal -0.0 -0.0 1.0
  outer loop
    vertex 72.5183456200414 19.133466714953 3.0
    vertex 72.3694629048524 -19.6891045724074 3.0
    vertex 74.9994484988198 -0.287619319378308 3.0
  endloop
endfacet
facet normal -0.0 -0.0 1.0
  outer loop
    vertex -64.8076180101114 37.7488098866107 3.0
    vertex -63.4689873066326 29.5243568985085 3.0
    vertex -52.829241047634 53.2359961898994 3.0
  endloop
endfacet
facet normal -0.0 -0.0 1.0
  outer loop
    vertex -63.4689873066326 29.5243568985085 3.0
    vertex -64.8076180101114 37.7488098866107 3.0
    vertex -63.7925520881551 28.4948080651714 3.0
  endloop
endfacet
facet normal -0.0 -0.0 1.0
  outer loop
    vertex -52.829241047634 53.2359961898994 3.0
    vertex -63.4689873066326 29.5243568985085 3.0
    vertex -53.6648681481515 44.9453215211718 3.0
  endloop
endfacet
facet normal -0.0 -0.0 1.0
  outer loop
    vertex -52.829241047634 53.2359961898994 3.0
    vertex -53.6648681481515 44.9453215211718 3.0
    vertex -40.2035769107617 57.303336757823 3.0
  endloop
endfacet
facet normal -0.0 -0.0 1.0
  outer loop
    vertex -52.829241047634 53.2359961898994 3.0
    vertex -40.2035769107617 57.303336757823 3.0
    vertex -37.2506386122091 65.0952373294898 3.0
  endloop
endfacet
facet normal -0.0 -0.0 1.0
  outer loop
    vertex -37.2506386122091 65.0952373294898 3.0
    vertex -40.2035769107617 57.303336757823 3.0
    vertex -28.3653135328754 63.4799246320328 3.0
  endloop
endfacet
facet normal -0.0 -0.0 1.0
  outer loop
    vertex -37.2506386122091 65.0952373294898 3.0
    vertex -28.3653135328754 63.4799246320328 3.0
    vertex -19.133466714953 72.5183456200414 3.0
  endloop
endfacet
facet normal -0.0 -0.0 1.0
  outer loop
    vertex -19.133466714953 72.5183456200414 3.0
    vertex -28.3653135328754 63.4799246320328 3.0
    vertex -24.9592741592387 65.2570181822223 3.0
  endloop
endfacet
facet normal -0.0 -0.0 1.0
  outer loop
    vertex -19.133466714953 72.5183456200414 3.0
    vertex -24.9592741592387 65.2570181822223 3.0
    vertex -24.0024783464557 65.75622429267 3.0
  endloop
endfacet
facet normal -0.0 -0.0 1.0
  outer loop
    vertex -19.133466714953 72.5183456200414 3.0
    vertex -24.0024783464557 65.75622429267 3.0
    vertex -6.16565054880965 69.7279338092702 3.0
  endloop
endfacet
facet normal -0.0 -0.0 1.0
  outer loop
    vertex -19.133466714953 72.5183456200414 3.0
    vertex -6.16565054880965 69.7279338092702 3.0
    vertex 0.287619319378322 74.9994484988198 3.0
  endloop
endfacet
facet normal -0.0 -0.0 1.0
  outer loop
    vertex 0.287619319378322 74.9994484988198 3.0
    vertex -6.16565054880965 69.7279338092702 3.0
    vertex 1.40998324127395e-015 69.4644714933369 3.0
  endloop
endfacet
facet normal -0.0 -0.0 1.0
  outer loop
    vertex 0.287619319378322 74.9994484988198 3.0
    vertex 1.40998324127395e-015 69.4644714933369 3.0
    vertex 12.0913561445185 68.9477998676275 3.0
  endloop
endfacet
facet normal -0.0 -0.0 1.0
  outer loop
    vertex 0.287619319378322 74.9994484988198 3.0
    vertex 12.0913561445185 68.9477998676275 3.0
    vertex 19.6891045724074 72.3694629048524 3.0
  endloop
endfacet
facet normal -0.0 -0.0 1.0
  outer loop
    vertex 19.6891045724074 72.3694629048524 3.0
    vertex 12.0913561445185 68.9477998676275 3.0
    vertex 24.8297796269427 64.9443907261001 3.0
  endloop
endfacet
facet normal -0.0 -0.0 1.0
  outer loop
    vertex 19.6891045724074 72.3694629048524 3.0
    vertex 24.8297796269427 64.9443907261001 3.0
    vertex 37.7488098866107 64.8076180101115 3.0
  endloop
endfacet
facet normal -0.0 -0.0 1.0
  outer loop
    vertex 37.7488098866107 64.8076180101115 3.0
    vertex 24.8297796269427 64.9443907261001 3.0
    vertex 28.4948080651714 63.792552088155 3.0
  endloop
endfacet
facet normal -0.0 -0.0 1.0
  outer loop
    vertex 37.7488098866107 64.8076180101115 3.0
    vertex 28.4948080651714 63.792552088155 3.0
    vertex 29.5243568985085 63.4689873066326 3.0
  endloop
endfacet
facet normal -0.0 -0.0 1.0
  outer loop
    vertex 37.7488098866107 64.8076180101115 3.0
    vertex 29.5243568985085 63.4689873066326 3.0
    vertex 44.9453215211718 53.6648681481515 3.0
  endloop
endfacet
facet normal -0.0 -0.0 1.0
  outer loop
    vertex 37.7488098866107 64.8076180101115 3.0
    vertex 44.9453215211718 53.6648681481515 3.0
    vertex 53.2359961898994 52.829241047634 3.0
  endloop
endfacet
facet normal -0.0 -0.0 1.0
  outer loop
    vertex 53.2359961898994 52.829241047634 3.0
    vertex 44.9453215211718 53.6648681481515 3.0
    vertex 57.303336757823 40.2035769107617 3.0
  endloop
endfacet
facet normal -0.0 -0.0 1.0
  outer loop
    vertex 53.2359961898994 52.829241047634 3.0
    vertex 57.303336757823 40.2035769107617 3.0
    vertex 65.0952373294898 37.2506386122091 3.0
  endloop
endfacet
facet normal -0.0 -0.0 1.0
  outer loop
    vertex 65.0952373294898 37.2506386122091 3.0
    vertex 57.303336757823 40.2035769107617 3.0
    vertex 63.4799246320329 28.3653135328754 3.0
  endloop
endfacet
facet normal -0.0 -0.0 1.0
  outer loop
    vertex 8.43977671561922e-016 -5.0 3.0
    vertex 3.53553390593274 -3.53553390593274 3.0
    vertex 3.53553390593274 3.53553390593274 3.0
  endloop
endfacet
facet normal -0.0 -0.0 1.0
  outer loop
    vertex 3.53553390593274 -3.53553390593274 3.0
    vertex 8.43977671561922e-016 -5.0 3.0
    vertex 24.9592741592387 -65.2570181822223 3.0
  endloop
endfacet
facet normal -0.0 -0.0 1.0
  outer loop
    vertex 3.53553390593274 -3.53553390593274 3.0
    vertex 24.9592741592387 -65.2570181822223 3.0
    vertex 28.3653135328754 -63.4799246320329 3.0
  endloop
endfacet
facet normal 0.964926172064698 -0.262521394298766 0.0
  outer loop
    vertex 72.3694629048524 -19.6891045724074 0.0
    vertex 64.8076180101114 -37.7488098866107 3.0
    vertex 64.8076180101114 -37.7488098866107 0.0
  endloop
endfacet
facet normal 0.864101573468153 -0.503317465154809 0.0
  outer loop
    vertex 64.8076180101114 -37.7488098866107 3.0
    vertex 72.3694629048524 -19.6891045724074 0.0
    vertex 72.3694629048524 -19.6891045724074 3.0
  endloop
endfacet
facet normal 0.864101573468153 -0.503317465154809 0.0
  outer loop
    vertex 64.8076180101114 -37.7488098866107 0.0
    vertex 52.829241047634 -53.2359961898994 3.0
    vertex 52.829241047634 -53.2359961898994 0.0
  endloop
endfacet
facet normal 0.70438988063512 -0.709813282531992 0.0
  outer loop
    vertex 52.829241047634 -53.2359961898994 3.0
    vertex 64.8076180101114 -37.7488098866107 0.0
    vertex 64.8076180101114 -37.7488098866107 3.0
  endloop
endfacet
facet normal 0.70438988063512 -0.709813282531992 0.0
  outer loop
    vertex 52.829241047634 -53.2359961898994 3.0
    vertex 37.2506386122091 -65.0952373294898 0.0
    vertex 52.829241047634 -53.2359961898994 0.0
  endloop
endfacet
facet normal 0.496675181496121 -0.86793649772653 0.0
  outer loop
    vertex 37.2506386122091 -65.0952373294898 0.0
    vertex 52.829241047634 -53.2359961898994 3.0
    vertex 37.2506386122091 -65.0952373294898 3.0
  endloop
endfacet
facet normal 0.496675181496121 -0.86793649772653 0.0
  outer loop
    vertex 37.2506386122091 -65.0952373294898 3.0
    vertex 19.133466714953 -72.5183456200415 0.0
    vertex 37.2506386122091 -65.0952373294898 0.0
  endloop
endfacet
facet normal 0.255112889532707 -0.966911274933886 0.0
  outer loop
    vertex 19.133466714953 -72.5183456200415 0.0
    vertex 37.2506386122091 -65.0952373294898 3.0
    vertex 19.133466714953 -72.5183456200415 3.0
  endloop
endfacet
facet normal 0.255112889532707 -0.966911274933886 0.0
  outer loop
    vertex 19.133466714953 -72.5183456200415 3.0
    vertex -0.28761931937835 -74.9994484988198 0.0
    vertex 19.133466714953 -72.5183456200415 0.0
  endloop
endfacet
facet normal -0.00383492425837787 -0.99999264665093 0.0
  outer loop
    vertex -0.28761931937835 -74.9994484988198 0.0
    vertex 19.133466714953 -72.5183456200415 3.0
    vertex -0.28761931937835 -74.9994484988198 3.0
  endloop
endfacet
facet normal -0.00383492425837787 -0.99999264665093 0.0
  outer loop
    vertex -0.28761931937835 -74.9994484988198 3.0
    vertex -19.6891045724074 -72.3694629048524 0.0
    vertex -0.28761931937835 -74.9994484988198 0.0
  endloop
endfacet
facet normal -0.262521394298766 -0.964926172064698 0.0
  outer loop
    vertex -19.6891045724074 -72.3694629048524 0.0
    vertex -0.28761931937835 -74.9994484988198 3.0
    vertex -19.6891045724074 -72.3694629048524 3.0
  endloop
endfacet
facet normal -0.262521394298766 -0.964926172064698 0.0
  outer loop
    vertex -19.6891045724074 -72.3694629048524 3.0
    vertex -37.7488098866107 -64.8076180101114 0.0
    vertex -19.6891045724074 -72.3694629048524 0.0
  endloop
endfacet
facet normal -0.50331746515481 -0.864101573468152 0.0
  outer loop
    vertex -37.7488098866107 -64.8076180101114 0.0
    vertex -19.6891045724074 -72.3694629048524 3.0
    vertex -37.7488098866107 -64.8076180101114 3.0
  endloop
endfacet
facet normal -0.50331746515481 -0.864101573468152 0.0
  outer loop
    vertex -37.7488098866107 -64.8076180101114 3.0
    vertex -53.2359961898994 -52.829241047634 0.0
    vertex -37.7488098866107 -64.8076180101114 0.0
  endloop
endfacet
facet normal -0.709813282531992 -0.70438988063512 0.0
  outer loop
    vertex -53.2359961898994 -52.829241047634 0.0
    vertex -37.7488098866107 -64.8076180101114 3.0
    vertex -53.2359961898994 -52.829241047634 3.0
  endloop
endfacet
facet normal -0.86793649772653 -0.496675181496121 0.0
  outer loop
    vertex -65.0952373294898 -37.2506386122091 3.0
    vertex -53.2359961898994 -52.829241047634 0.0
    vertex -53.2359961898994 -52.829241047634 3.0
  endloop
endfacet
facet normal -0.709813282531992 -0.70438988063512 0.0
  outer loop
    vertex -53.2359961898994 -52.829241047634 0.0
    vertex -65.0952373294898 -37.2506386122091 3.0
    vertex -65.0952373294898 -37.2506386122091 0.0
  endloop
endfacet
facet normal -0.966911274933886 -0.255112889532707 0.0
  outer loop
    vertex -72.5183456200414 -19.133466714953 3.0
    vertex -65.0952373294898 -37.2506386122091 0.0
    vertex -65.0952373294898 -37.2506386122091 3.0
  endloop
endfacet
facet normal -0.86793649772653 -0.496675181496121 0.0
  outer loop
    vertex -65.0952373294898 -37.2506386122091 0.0
    vertex -72.5183456200414 -19.133466714953 3.0
    vertex -72.5183456200414 -19.133466714953 0.0
  endloop
endfacet
facet normal -0.99999264665093 0.00383492425837794 0.0
  outer loop
    vertex -74.9994484988198 0.287619319378339 3.0
    vertex -72.5183456200414 -19.133466714953 0.0
    vertex -72.5183456200414 -19.133466714953 3.0
  endloop
endfacet
facet normal -0.966911274933886 -0.255112889532707 0.0
  outer loop
    vertex -72.5183456200414 -19.133466714953 0.0
    vertex -74.9994484988198 0.287619319378339 3.0
    vertex -74.9994484988198 0.287619319378339 0.0
  endloop
endfacet
facet normal -0.964926172064698 0.262521394298766 0.0
  outer loop
    vertex -72.3694629048524 19.6891045724074 3.0
    vertex -74.9994484988198 0.287619319378339 0.0
    vertex -74.9994484988198 0.287619319378339 3.0
  endloop
endfacet
facet normal -0.99999264665093 0.00383492425837794 0.0
  outer loop
    vertex -74.9994484988198 0.287619319378339 0.0
    vertex -72.3694629048524 19.6891045724074 3.0
    vertex -72.3694629048524 19.6891045724074 0.0
  endloop
endfacet
facet normal -0.864101573468153 0.503317465154809 0.0
  outer loop
    vertex -64.8076180101114 37.7488098866107 3.0
    vertex -72.3694629048524 19.6891045724074 0.0
    vertex -72.3694629048524 19.6891045724074 3.0
  endloop
endfacet
facet normal -0.964926172064698 0.262521394298766 0.0
  outer loop
    vertex -72.3694629048524 19.6891045724074 0.0
    vertex -64.8076180101114 37.7488098866107 3.0
    vertex -64.8076180101114 37.7488098866107 0.0
  endloop
endfacet
facet normal -0.704389880635121 0.709813282531991 0.0
  outer loop
    vertex -52.829241047634 53.2359961898994 3.0
    vertex -64.8076180101114 37.7488098866107 0.0
    vertex -64.8076180101114 37.7488098866107 3.0
  endloop
endfacet
facet normal -0.864101573468153 0.503317465154809 0.0
  outer loop
    vertex -64.8076180101114 37.7488098866107 0.0
    vertex -52.829241047634 53.2359961898994 3.0
    vertex -52.829241047634 53.2359961898994 0.0
  endloop
endfacet
facet normal -0.704389880635121 0.709813282531991 0.0
  outer loop
    vertex -52.829241047634 53.2359961898994 3.0
    vertex -37.2506386122091 65.0952373294898 0.0
    vertex -52.829241047634 53.2359961898994 0.0
  endloop
endfacet
facet normal -0.496675181496121 0.86793649772653 0.0
  outer loop
    vertex -37.2506386122091 65.0952373294898 0.0
    vertex -52.829241047634 53.2359961898994 3.0
    vertex -37.2506386122091 65.0952373294898 3.0
  endloop
endfacet
facet normal -0.496675181496121 0.86793649772653 0.0
  outer loop
    vertex -37.2506386122091 65.0952373294898 3.0
    vertex -19.133466714953 72.5183456200414 0.0
    vertex -37.2506386122091 65.0952373294898 0.0
  endloop
endfacet
facet normal -0.255112889532707 0.966911274933886 0.0
  outer loop
    vertex -19.133466714953 72.5183456200414 0.0
    vertex -37.2506386122091 65.0952373294898 3.0
    vertex -19.133466714953 72.5183456200414 3.0
  endloop
endfacet
facet normal -0.255112889532707 0.966911274933886 0.0
  outer loop
    vertex -19.133466714953 72.5183456200414 3.0
    vertex 0.287619319378322 74.9994484988198 0.0
    vertex -19.133466714953 72.5183456200414 0.0
  endloop
endfacet
facet normal 0.00383492425837724 0.99999264665093 0.0
  outer loop
    vertex 0.287619319378322 74.9994484988198 0.0
    vertex -19.133466714953 72.5183456200414 3.0
    vertex 0.287619319378322 74.9994484988198 3.0
  endloop
endfacet
facet normal 0.00383492425837724 0.99999264665093 0.0
  outer loop
    vertex 0.287619319378322 74.9994484988198 3.0
    vertex 19.6891045724074 72.3694629048524 0.0
    vertex 0.287619319378322 74.9994484988198 0.0
  endloop
endfacet
facet normal 0.262521394298766 0.964926172064698 0.0
  outer loop
    vertex 19.6891045724074 72.3694629048524 0.0
    vertex 0.287619319378322 74.9994484988198 3.0
    vertex 19.6891045724074 72.3694629048524 3.0
  endloop
endfacet
facet normal 0.262521394298766 0.964926172064698 0.0
  outer loop
    vertex 19.6891045724074 72.3694629048524 3.0
    vertex 37.7488098866107 64.8076180101115 0.0
    vertex 19.6891045724074 72.3694629048524 0.0
  endloop
endfacet
facet normal 0.503317465154809 0.864101573468153 0.0
  outer loop
    vertex 37.7488098866107 64.8076180101115 0.0
    vertex 19.6891045724074 72.3694629048524 3.0
    vertex 37.7488098866107 64.8076180101115 3.0
  endloop
endfacet
facet normal 0.503317465154809 0.864101573468153 0.0
  outer loop
    vertex 37.7488098866107 64.8076180101115 3.0
    vertex 53.2359961898994 52.829241047634 0.0
    vertex 37.7488098866107 64.8076180101115 0.0
  endloop
endfacet
facet normal 0.709813282531992 0.70438988063512 0.0
  outer loop
    vertex 53.2359961898994 52.829241047634 0.0
    vertex 37.7488098866107 64.8076180101115 3.0
    vertex 53.2359961898994 52.829241047634 3.0
  endloop
endfacet
facet normal 0.709813282531992 0.70438988063512 0.0
  outer loop
    vertex 53.2359961898994 52.829241047634 0.0
    vertex 65.0952373294898 37.2506386122091 3.0
    vertex 65.0952373294898 37.2506386122091 0.0
  endloop
endfacet
facet normal 0.86793649772653 0.496675181496121 0.0
  outer loop
    vertex 65.0952373294898 37.2506386122091 3.0
    vertex 53.2359961898994 52.829241047634 0.0
    vertex 53.2359961898994 52.829241047634 3.0
  endloop
endfacet
facet normal 0.86793649772653 0.496675181496121 0.0
  outer loop
    vertex 65.0952373294898 37.2506386122091 0.0
    vertex 72.5183456200414 19.133466714953 3.0
    vertex 72.5183456200414 19.133466714953 0.0
  endloop
endfacet
facet normal 0.966911274933886 0.255112889532707 0.0
  outer loop
    vertex 72.5183456200414 19.133466714953 3.0
    vertex 65.0952373294898 37.2506386122091 0.0
    vertex 65.0952373294898 37.2506386122091 3.0
  endloop
endfacet
facet normal 0.966911274933886 0.255112889532707 0.0
  outer loop
    vertex 72.5183456200414 19.133466714953 0.0
    vertex 74.9994484988198 -0.287619319378308 3.0
    vertex 74.9994484988198 -0.287619319378308 0.0
  endloop
endfacet
facet normal 0.99999264665093 -0.00383492425837755 0.0
  outer loop
    vertex 74.9994484988198 -0.287619319378308 3.0
    vertex 72.5183456200414 19.133466714953 0.0
    vertex 72.5183456200414 19.133466714953 3.0
  endloop
endfacet
facet normal 0.99999264665093 -0.00383492425837755 0.0
  outer loop
    vertex 74.9994484988198 -0.287619319378308 0.0
    vertex 72.3694629048524 -19.6891045724074 3.0
    vertex 72.3694629048524 -19.6891045724074 0.0
  endloop
endfacet
facet normal 0.964926172064698 -0.262521394298766 0.0
  outer loop
    vertex 72.3694629048524 -19.6891045724074 3.0
    vertex 74.9994484988198 -0.287619319378308 0.0
    vertex 74.9994484988198 -0.287619319378308 3.0
  endloop
endfacet
facet normal 0.0 0.0 -1.0
  outer loop
    vertex 3.53553390593274 -3.53553390593274 0.0
    vertex 24.9592741592387 -65.2570181822223 0.0
    vertex 8.43977671561922e-016 -5.0 0.0
  endloop
endfacet
facet normal 0.0 0.0 -1.0
  outer loop
    vertex 24.9592741592387 -65.2570181822223 0.0
    vertex 3.53553390593274 -3.53553390593274 0.0
    vertex 28.3653135328754 -63.4799246320329 0.0
  endloop
endfacet
facet normal 0.0 0.0 -1.0
  outer loop
    vertex -3.53553390593274 3.53553390593274 0.0
    vertex -3.53553390593274 -3.53553390593274 0.0
    vertex -5.0 7.45074277985925e-017 0.0
  endloop
endfacet
facet normal 0.0 0.0 -1.0
  outer loop
    vertex -3.53553390593274 -3.53553390593274 0.0
    vertex -3.53553390593274 3.53553390593274 0.0
    vertex -2.31654271988246e-016 5.0 0.0
  endloop
endfacet
facet normal 0.0 0.0 -1.0
  outer loop
    vertex -3.53553390593274 -3.53553390593274 0.0
    vertex -2.31654271988246e-016 5.0 0.0
    vertex 8.43977671561922e-016 -5.0 0.0
  endloop
endfacet
facet normal 0.0 0.0 -1.0
  outer loop
    vertex 8.43977671561922e-016 -5.0 0.0
    vertex -2.31654271988246e-016 5.0 0.0
    vertex 3.53553390593274 3.53553390593274 0.0
  endloop
endfacet
facet normal 0.0 0.0 -1.0
  outer loop
    vertex 8.43977671561922e-016 -5.0 0.0
    vertex 3.53553390593274 3.53553390593274 0.0
    vertex 3.53553390593274 -3.53553390593274 0.0
  endloop
endfacet
facet normal 0.0 0.0 -1.0
  outer loop
    vertex 3.53553390593274 -3.53553390593274 0.0
    vertex 3.53553390593274 3.53553390593274 0.0
    vertex 5.0 5.37815971775084e-016 0.0
  endloop
endfacet
facet normal 0.0 0.0 -1.0
  outer loop
    vertex -3.53553390593274 -3.53553390593274 0.0
    vertex -24.8297796269426 -64.9443907261001 0.0
    vertex -28.4948080651714 -63.7925520881551 0.0
  endloop
endfacet
facet normal 0.0 0.0 -1.0
  outer loop
    vertex -24.8297796269426 -64.9443907261001 0.0
    vertex -3.53553390593274 -3.53553390593274 0.0
    vertex 8.43977671561922e-016 -5.0 0.0
  endloop
endfacet
facet normal 0.0 0.0 -1.0
  outer loop
    vertex -5.0 7.45074277985925e-017 0.0
    vertex -63.4799246320329 -28.3653135328754 0.0
    vertex -65.2570181822223 -24.9592741592387 0.0
  endloop
endfacet
facet normal 0.0 0.0 -1.0
  outer loop
    vertex -63.4799246320329 -28.3653135328754 0.0
    vertex -5.0 7.45074277985925e-017 0.0
    vertex -3.53553390593274 -3.53553390593274 0.0
  endloop
endfacet
facet normal 0.0 0.0 -1.0
  outer loop
    vertex -63.7925520881551 28.4948080651714 0.0
    vertex -5.0 7.45074277985925e-017 0.0
    vertex -64.9443907261001 24.8297796269427 0.0
  endloop
endfacet
facet normal 0.0 0.0 -1.0
  outer loop
    vertex -5.0 7.45074277985925e-017 0.0
    vertex -63.7925520881551 28.4948080651714 0.0
    vertex -3.53553390593274 3.53553390593274 0.0
  endloop
endfacet
facet normal 0.0 0.0 -1.0
  outer loop
    vertex -24.9592741592387 65.2570181822223 0.0
    vertex -3.53553390593274 3.53553390593274 0.0
    vertex -28.3653135328754 63.4799246320328 0.0
  endloop
endfacet
facet normal 0.0 0.0 -1.0
  outer loop
    vertex -3.53553390593274 3.53553390593274 0.0
    vertex -24.9592741592387 65.2570181822223 0.0
    vertex -2.31654271988246e-016 5.0 0.0
  endloop
endfacet
facet normal 0.0 0.0 -1.0
  outer loop
    vertex 24.8297796269427 64.9443907261001 0.0
    vertex 3.53553390593274 3.53553390593274 0.0
    vertex -2.31654271988246e-016 5.0 0.0
  endloop
endfacet
facet normal 0.0 0.0 -1.0
  outer loop
    vertex 3.53553390593274 3.53553390593274 0.0
    vertex 24.8297796269427 64.9443907261001 0.0
    vertex 28.4948080651714 63.792552088155 0.0
  endloop
endfacet
facet normal 0.0 0.0 -1.0
  outer loop
    vertex 63.4799246320329 28.3653135328754 0.0
    vertex 5.0 5.37815971775084e-016 0.0
    vertex 3.53553390593274 3.53553390593274 0.0
  endloop
endfacet
facet normal 0.0 0.0 -1.0
  outer loop
    vertex 5.0 5.37815971775084e-016 0.0
    vertex 63.4799246320329 28.3653135328754 0.0
    vertex 65.2570181822223 24.9592741592387 0.0
  endloop
endfacet
facet normal 0.0 0.0 -1.0
  outer loop
    vertex 5.0 5.37815971775084e-016 0.0
    vertex 63.7925520881551 -28.4948080651714 0.0
    vertex 3.53553390593274 -3.53553390593274 0.0
  endloop
endfacet
facet normal 0.0 0.0 -1.0
  outer loop
    vertex 63.7925520881551 -28.4948080651714 0.0
    vertex 5.0 5.37815971775084e-016 0.0
    vertex 64.9443907261001 -24.8297796269427 0.0
  endloop
endfacet
facet normal 0.923879532511287 0.38268343236509 0.0
  outer loop
    vertex 3.53553390593274 -3.53553390593274 0.0
    vertex 28.3653135328754 -63.4799246320329 3.0
    vertex 28.3653135328754 -63.4799246320329 0.0
  endloop
endfacet
facet normal 0.923879532511287 0.38268343236509 0.0
  outer loop
    vertex 28.3653135328754 -63.4799246320329 3.0
    vertex 3.53553390593274 -3.53553390593274 0.0
    vertex 3.53553390593274 -3.53553390593274 3.0
  endloop
endfacet
facet normal -0.38268343236509 -0.923879532511287 -0.0
  outer loop
    vertex 63.7925520881551 -28.4948080651714 3.0
    vertex 3.53553390593274 -3.53553390593274 0.0
    vertex 63.7925520881551 -28.4948080651714 0.0
  endloop
endfacet
facet normal -0.38268343236509 -0.923879532511287 -0.0
  outer loop
    vertex 3.53553390593274 -3.53553390593274 0.0
    vertex 63.7925520881551 -28.4948080651714 3.0
    vertex 3.53553390593274 -3.53553390593274 3.0
  endloop
endfacet
facet normal -0.953995760078119 0.29982009564566 -0.0
  outer loop
    vertex 63.7925520881551 -28.4948080651714 3.0
    vertex 63.4689873066327 -29.5243568985085 0.0
    vertex 63.4689873066327 -29.5243568985085 3.0
  endloop
endfacet
facet normal -0.906699818666177 0.421776527121557 0.0
  outer loop
    vertex 63.4689873066327 -29.5243568985085 0.0
    vertex 63.7925520881551 -28.4948080651714 3.0
    vertex 63.7925520881551 -28.4948080651714 0.0
  endloop
endfacet
facet normal -0.906699818666177 0.421776527121557 0.0
  outer loop
    vertex 63.4689873066327 -29.5243568985085 3.0
    vertex 53.6648681481515 -44.9453215211718 0.0
    vertex 53.6648681481515 -44.9453215211718 3.0
  endloop
endfacet
facet normal -0.766640973545022 0.642076021731026 0.0
  outer loop
    vertex 53.6648681481515 -44.9453215211718 0.0
    vertex 63.4689873066327 -29.5243568985085 3.0
    vertex 63.4689873066327 -29.5243568985085 0.0
  endloop
endfacet
facet normal -0.574336813010882 0.818619096540328 0.0
  outer loop
    vertex 40.2035769107617 -57.303336757823 3.0
    vertex 53.6648681481515 -44.9453215211718 0.0
    vertex 40.2035769107617 -57.303336757823 0.0
  endloop
endfacet
facet normal -0.766640973545022 0.642076021731026 0.0
  outer loop
    vertex 53.6648681481515 -44.9453215211718 0.0
    vertex 40.2035769107617 -57.303336757823 3.0
    vertex 53.6648681481515 -44.9453215211718 3.0
  endloop
endfacet
facet normal -0.462572048407424 0.886581693941489 -0.0
  outer loop
    vertex 28.3653135328754 -63.4799246320329 3.0
    vertex 40.2035769107617 -57.303336757823 0.0
    vertex 28.3653135328754 -63.4799246320329 0.0
  endloop
endfacet
facet normal -0.574336813010882 0.818619096540328 0.0
  outer loop
    vertex 40.2035769107617 -57.303336757823 0.0
    vertex 28.3653135328754 -63.4799246320329 3.0
    vertex 40.2035769107617 -57.303336757823 3.0
  endloop
endfacet
facet normal 0.299820095645642 0.953995760078124 0.0
  outer loop
    vertex -24.8297796269426 -64.9443907261001 3.0
    vertex -12.0913561445184 -68.9477998676275 0.0
    vertex -24.8297796269426 -64.9443907261001 0.0
  endloop
endfacet
facet normal 0.172733659207406 0.984968569537536 0.0
  outer loop
    vertex -12.0913561445184 -68.9477998676275 0.0
    vertex -24.8297796269426 -64.9443907261001 3.0
    vertex -12.0913561445184 -68.9477998676275 3.0
  endloop
endfacet
facet normal 0.923879532511287 -0.38268343236509 -0.0
  outer loop
    vertex 8.43977671561922e-016 -5.0 0.0
    vertex -24.8297796269426 -64.9443907261001 3.0
    vertex -24.8297796269426 -64.9443907261001 0.0
  endloop
endfacet
facet normal 0.923879532511287 -0.38268343236509 -0.0
  outer loop
    vertex -24.8297796269426 -64.9443907261001 3.0
    vertex 8.43977671561922e-016 -5.0 0.0
    vertex 8.43977671561922e-016 -5.0 3.0
  endloop
endfacet
facet normal -0.923879532511287 -0.38268343236509 -0.0
  outer loop
    vertex 8.43977671561922e-016 -5.0 3.0
    vertex 24.9592741592387 -65.2570181822223 0.0
    vertex 24.9592741592387 -65.2570181822223 3.0
  endloop
endfacet
facet normal -0.923879532511287 -0.38268343236509 -0.0
  outer loop
    vertex 24.9592741592387 -65.2570181822223 0.0
    vertex 8.43977671561922e-016 -5.0 3.0
    vertex 8.43977671561922e-016 -5.0 0.0
  endloop
endfacet
facet normal -0.342892547806506 0.93937463275243 0.0
  outer loop
    vertex 24.0024783464557 -65.75622429267 3.0
    vertex 24.9592741592387 -65.2570181822223 0.0
    vertex 24.0024783464557 -65.75622429267 0.0
  endloop
endfacet
facet normal -0.462572048407415 0.886581693941493 -0.0
  outer loop
    vertex 24.9592741592387 -65.2570181822223 0.0
    vertex 24.0024783464557 -65.75622429267 3.0
    vertex 24.9592741592387 -65.2570181822223 3.0
  endloop
endfacet
facet normal -0.0880807221258526 0.996113340132431 0.0
  outer loop
    vertex 6.16565054880968 -69.7279338092702 3.0
    vertex 24.0024783464557 -65.75622429267 0.0
    vertex 6.16565054880968 -69.7279338092702 0.0
  endloop
endfacet
facet normal -0.342892547806506 0.93937463275243 0.0
  outer loop
    vertex 24.0024783464557 -65.75622429267 0.0
    vertex 6.16565054880968 -69.7279338092702 3.0
    vertex 24.0024783464557 -65.75622429267 3.0
  endloop
endfacet
facet normal 0.0426917019693119 0.999088293687281 0.0
  outer loop
    vertex 0.0 -69.4644714933369 3.0
    vertex 6.16565054880968 -69.7279338092702 0.0
    vertex 0.0 -69.4644714933369 0.0
  endloop
endfacet
facet normal -0.0880807221258526 0.996113340132431 0.0
  outer loop
    vertex 6.16565054880968 -69.7279338092702 0.0
    vertex 0.0 -69.4644714933369 3.0
    vertex 6.16565054880968 -69.7279338092702 3.0
  endloop
endfacet
facet normal 0.172733659207406 0.984968569537536 0.0
  outer loop
    vertex -12.0913561445184 -68.9477998676275 3.0
    vertex 0.0 -69.4644714933369 0.0
    vertex -12.0913561445184 -68.9477998676275 0.0
  endloop
endfacet
facet normal 0.0426917019693124 0.999088293687281 0.0
  outer loop
    vertex 0.0 -69.4644714933369 0.0
    vertex -12.0913561445184 -68.9477998676275 3.0
    vertex 0.0 -69.4644714933369 3.0
  endloop
endfacet
facet normal 0.886581693941489 0.462572048407424 0.0
  outer loop
    vertex -63.4799246320329 -28.3653135328754 0.0
    vertex -57.303336757823 -40.2035769107617 3.0
    vertex -57.303336757823 -40.2035769107617 0.0
  endloop
endfacet
facet normal 0.818619096540328 0.574336813010882 0.0
  outer loop
    vertex -57.303336757823 -40.2035769107617 3.0
    vertex -63.4799246320329 -28.3653135328754 0.0
    vertex -63.4799246320329 -28.3653135328754 3.0
  endloop
endfacet
facet normal 0.38268343236509 -0.923879532511287 -0.0
  outer loop
    vertex -3.53553390593274 -3.53553390593274 3.0
    vertex -63.4799246320329 -28.3653135328754 0.0
    vertex -3.53553390593274 -3.53553390593274 0.0
  endloop
endfacet
facet normal 0.38268343236509 -0.923879532511287 -0.0
  outer loop
    vertex -63.4799246320329 -28.3653135328754 0.0
    vertex -3.53553390593274 -3.53553390593274 3.0
    vertex -63.4799246320329 -28.3653135328754 3.0
  endloop
endfacet
facet normal -0.923879532511287 0.38268343236509 -0.0
  outer loop
    vertex -3.53553390593274 -3.53553390593274 3.0
    vertex -28.4948080651714 -63.7925520881551 0.0
    vertex -28.4948080651714 -63.7925520881551 3.0
  endloop
endfacet
facet normal -0.923879532511287 0.38268343236509 -0.0
  outer loop
    vertex -28.4948080651714 -63.7925520881551 0.0
    vertex -3.53553390593274 -3.53553390593274 3.0
    vertex -3.53553390593274 -3.53553390593274 0.0
  endloop
endfacet
facet normal 0.421776527121551 0.90669981866618 0.0
  outer loop
    vertex -29.5243568985085 -63.4689873066327 3.0
    vertex -28.4948080651714 -63.7925520881551 0.0
    vertex -29.5243568985085 -63.4689873066327 0.0
  endloop
endfacet
facet normal 0.299820095645647 0.953995760078123 0.0
  outer loop
    vertex -28.4948080651714 -63.7925520881551 0.0
    vertex -29.5243568985085 -63.4689873066327 3.0
    vertex -28.4948080651714 -63.7925520881551 3.0
  endloop
endfacet
facet normal 0.642076021731026 0.766640973545022 0.0
  outer loop
    vertex -44.9453215211718 -53.6648681481516 3.0
    vertex -29.5243568985085 -63.4689873066327 0.0
    vertex -44.9453215211718 -53.6648681481516 0.0
  endloop
endfacet
facet normal 0.421776527121551 0.90669981866618 0.0
  outer loop
    vertex -29.5243568985085 -63.4689873066327 0.0
    vertex -44.9453215211718 -53.6648681481516 3.0
    vertex -29.5243568985085 -63.4689873066327 3.0
  endloop
endfacet
facet normal 0.818619096540328 0.574336813010882 0.0
  outer loop
    vertex -57.303336757823 -40.2035769107617 0.0
    vertex -44.9453215211718 -53.6648681481516 3.0
    vertex -44.9453215211718 -53.6648681481516 0.0
  endloop
endfacet
facet normal 0.642076021731026 0.766640973545022 0.0
  outer loop
    vertex -44.9453215211718 -53.6648681481516 3.0
    vertex -57.303336757823 -40.2035769107617 0.0
    vertex -57.303336757823 -40.2035769107617 3.0
  endloop
endfacet
facet normal 0.953995760078124 -0.299820095645644 -0.0
  outer loop
    vertex -64.9443907261001 24.8297796269427 0.0
    vertex -68.9477998676275 12.0913561445184 3.0
    vertex -68.9477998676275 12.0913561445184 0.0
  endloop
endfacet
facet normal 0.984968569537536 -0.172733659207406 0.0
  outer loop
    vertex -68.9477998676275 12.0913561445184 3.0
    vertex -64.9443907261001 24.8297796269427 0.0
    vertex -64.9443907261001 24.8297796269427 3.0
  endloop
endfacet
facet normal -0.38268343236509 -0.923879532511287 -0.0
  outer loop
    vertex -5.0 7.45074277985925e-017 3.0
    vertex -64.9443907261001 24.8297796269427 0.0
    vertex -5.0 7.45074277985925e-017 0.0
  endloop
endfacet
facet normal -0.38268343236509 -0.923879532511287 -0.0
  outer loop
    vertex -64.9443907261001 24.8297796269427 0.0
    vertex -5.0 7.45074277985925e-017 3.0
    vertex -64.9443907261001 24.8297796269427 3.0
  endloop
endfacet
facet normal -0.38268343236509 0.923879532511287 -0.0
  outer loop
    vertex -65.2570181822223 -24.9592741592387 3.0
    vertex -5.0 7.45074277985925e-017 0.0
    vertex -65.2570181822223 -24.9592741592387 0.0
  endloop
endfacet
facet normal -0.38268343236509 0.923879532511287 -0.0
  outer loop
    vertex -5.0 7.45074277985925e-017 0.0
    vertex -65.2570181822223 -24.9592741592387 3.0
    vertex -5.0 7.45074277985925e-017 3.0
  endloop
endfacet
facet normal 0.939374632752429 0.34289254780651 0.0
  outer loop
    vertex -65.75622429267 -24.0024783464557 0.0
    vertex -65.2570181822223 -24.9592741592387 3.0
    vertex -65.2570181822223 -24.9592741592387 0.0
  endloop
endfacet
facet normal 0.88658169394149 0.462572048407422 0.0
  outer loop
    vertex -65.2570181822223 -24.9592741592387 3.0
    vertex -65.75622429267 -24.0024783464557 0.0
    vertex -65.75622429267 -24.0024783464557 3.0
  endloop
endfacet
facet normal 0.996113340132431 0.0880807221258524 0.0
  outer loop
    vertex -69.7279338092702 -6.16565054880968 0.0
    vertex -65.75622429267 -24.0024783464557 3.0
    vertex -65.75622429267 -24.0024783464557 0.0
  endloop
endfacet
facet normal 0.939374632752429 0.34289254780651 0.0
  outer loop
    vertex -65.75622429267 -24.0024783464557 3.0
    vertex -69.7279338092702 -6.16565054880968 0.0
    vertex -69.7279338092702 -6.16565054880968 3.0
  endloop
endfacet
facet normal 0.984968569537536 -0.172733659207406 0.0
  outer loop
    vertex -68.9477998676275 12.0913561445184 0.0
    vertex -69.7279338092702 -6.16565054880968 3.0
    vertex -69.7279338092702 -6.16565054880968 0.0
  endloop
endfacet
facet normal 0.996113340132431 0.0880807221258524 0.0
  outer loop
    vertex -69.7279338092702 -6.16565054880968 3.0
    vertex -68.9477998676275 12.0913561445184 0.0
    vertex -68.9477998676275 12.0913561445184 3.0
  endloop
endfacet
facet normal 0.462572048407422 -0.88658169394149 -0.0
  outer loop
    vertex -28.3653135328754 63.4799246320328 3.0
    vertex -40.2035769107617 57.303336757823 0.0
    vertex -28.3653135328754 63.4799246320328 0.0
  endloop
endfacet
facet normal 0.574336813010882 -0.818619096540329 0.0
  outer loop
    vertex -40.2035769107617 57.303336757823 0.0
    vertex -28.3653135328754 63.4799246320328 3.0
    vertex -40.2035769107617 57.303336757823 3.0
  endloop
endfacet
facet normal -0.923879532511287 -0.38268343236509 -0.0
  outer loop
    vertex -28.3653135328754 63.4799246320328 3.0
    vertex -3.53553390593274 3.53553390593274 0.0
    vertex -3.53553390593274 3.53553390593274 3.0
  endloop
endfacet
facet normal -0.923879532511287 -0.38268343236509 -0.0
  outer loop
    vertex -3.53553390593274 3.53553390593274 0.0
    vertex -28.3653135328754 63.4799246320328 3.0
    vertex -28.3653135328754 63.4799246320328 0.0
  endloop
endfacet
facet normal 0.38268343236509 0.923879532511287 0.0
  outer loop
    vertex -63.7925520881551 28.4948080651714 3.0
    vertex -3.53553390593274 3.53553390593274 0.0
    vertex -63.7925520881551 28.4948080651714 0.0
  endloop
endfacet
facet normal 0.38268343236509 0.923879532511287 0.0
  outer loop
    vertex -3.53553390593274 3.53553390593274 0.0
    vertex -63.7925520881551 28.4948080651714 3.0
    vertex -3.53553390593274 3.53553390593274 3.0
  endloop
endfacet
facet normal 0.906699818666177 -0.421776527121557 0.0
  outer loop
    vertex -63.4689873066326 29.5243568985085 0.0
    vertex -63.7925520881551 28.4948080651714 3.0
    vertex -63.7925520881551 28.4948080651714 0.0
  endloop
endfacet
facet normal 0.953995760078119 -0.299820095645659 -0.0
  outer loop
    vertex -63.7925520881551 28.4948080651714 3.0
    vertex -63.4689873066326 29.5243568985085 0.0
    vertex -63.4689873066326 29.5243568985085 3.0
  endloop
endfacet
facet normal 0.766640973545022 -0.642076021731026 0.0
  outer loop
    vertex -53.6648681481515 44.9453215211718 0.0
    vertex -63.4689873066326 29.5243568985085 3.0
    vertex -63.4689873066326 29.5243568985085 0.0
  endloop
endfacet
facet normal 0.906699818666177 -0.421776527121557 0.0
  outer loop
    vertex -63.4689873066326 29.5243568985085 3.0
    vertex -53.6648681481515 44.9453215211718 0.0
    vertex -53.6648681481515 44.9453215211718 3.0
  endloop
endfacet
facet normal 0.574336813010882 -0.818619096540329 0.0
  outer loop
    vertex -40.2035769107617 57.303336757823 3.0
    vertex -53.6648681481515 44.9453215211718 0.0
    vertex -40.2035769107617 57.303336757823 0.0
  endloop
endfacet
facet normal 0.766640973545022 -0.642076021731026 0.0
  outer loop
    vertex -53.6648681481515 44.9453215211718 0.0
    vertex -40.2035769107617 57.303336757823 3.0
    vertex -53.6648681481515 44.9453215211718 3.0
  endloop
endfacet
facet normal -0.299820095645644 -0.953995760078124 -0.0
  outer loop
    vertex 24.8297796269427 64.9443907261001 3.0
    vertex 12.0913561445185 68.9477998676275 0.0
    vertex 24.8297796269427 64.9443907261001 0.0
  endloop
endfacet
facet normal -0.172733659207407 -0.984968569537536 0.0
  outer loop
    vertex 12.0913561445185 68.9477998676275 0.0
    vertex 24.8297796269427 64.9443907261001 3.0
    vertex 12.0913561445185 68.9477998676275 3.0
  endloop
endfacet
facet normal -0.923879532511287 0.38268343236509 -0.0
  outer loop
    vertex 24.8297796269427 64.9443907261001 3.0
    vertex -2.31654271988246e-016 5.0 0.0
    vertex -2.31654271988246e-016 5.0 3.0
  endloop
endfacet
facet normal -0.923879532511287 0.38268343236509 -0.0
  outer loop
    vertex -2.31654271988246e-016 5.0 0.0
    vertex 24.8297796269427 64.9443907261001 3.0
    vertex 24.8297796269427 64.9443907261001 0.0
  endloop
endfacet
facet normal 0.923879532511287 0.38268343236509 0.0
  outer loop
    vertex -24.9592741592387 65.2570181822223 0.0
    vertex -2.31654271988246e-016 5.0 3.0
    vertex -2.31654271988246e-016 5.0 0.0
  endloop
endfacet
facet normal 0.923879532511287 0.38268343236509 0.0
  outer loop
    vertex -2.31654271988246e-016 5.0 3.0
    vertex -24.9592741592387 65.2570181822223 0.0
    vertex -24.9592741592387 65.2570181822223 3.0
  endloop
endfacet
facet normal 0.342892547806504 -0.939374632752431 0.0
  outer loop
    vertex -24.0024783464557 65.75622429267 3.0
    vertex -24.9592741592387 65.2570181822223 0.0
    vertex -24.0024783464557 65.75622429267 0.0
  endloop
endfacet
facet normal 0.462572048407412 -0.886581693941495 -0.0
  outer loop
    vertex -24.9592741592387 65.2570181822223 0.0
    vertex -24.0024783464557 65.75622429267 3.0
    vertex -24.9592741592387 65.2570181822223 3.0
  endloop
endfacet
facet normal 0.0880807221258531 -0.996113340132431 0.0
  outer loop
    vertex -6.16565054880965 69.7279338092702 3.0
    vertex -24.0024783464557 65.75622429267 0.0
    vertex -6.16565054880965 69.7279338092702 0.0
  endloop
endfacet
facet normal 0.342892547806504 -0.939374632752431 0.0
  outer loop
    vertex -24.0024783464557 65.75622429267 0.0
    vertex -6.16565054880965 69.7279338092702 3.0
    vertex -24.0024783464557 65.75622429267 3.0
  endloop
endfacet
facet normal -0.0426917019693102 -0.999088293687281 -0.0
  outer loop
    vertex 1.40998324127395e-015 69.4644714933369 3.0
    vertex -6.16565054880965 69.7279338092702 0.0
    vertex 1.40998324127395e-015 69.4644714933369 0.0
  endloop
endfacet
facet normal 0.0880807221258531 -0.996113340132431 0.0
  outer loop
    vertex -6.16565054880965 69.7279338092702 0.0
    vertex 1.40998324127395e-015 69.4644714933369 3.0
    vertex -6.16565054880965 69.7279338092702 3.0
  endloop
endfacet
facet normal -0.172733659207407 -0.984968569537536 0.0
  outer loop
    vertex 12.0913561445185 68.9477998676275 3.0
    vertex 1.40998324127395e-015 69.4644714933369 0.0
    vertex 12.0913561445185 68.9477998676275 0.0
  endloop
endfacet
facet normal -0.0426917019693133 -0.999088293687281 -0.0
  outer loop
    vertex 1.40998324127395e-015 69.4644714933369 0.0
    vertex 12.0913561445185 68.9477998676275 3.0
    vertex 1.40998324127395e-015 69.4644714933369 3.0
  endloop
endfacet
facet normal -0.818619096540328 -0.574336813010882 0.0
  outer loop
    vertex 57.303336757823 40.2035769107617 3.0
    vertex 63.4799246320329 28.3653135328754 0.0
    vertex 63.4799246320329 28.3653135328754 3.0
  endloop
endfacet
facet normal -0.88658169394149 -0.462572048407422 -0.0
  outer loop
    vertex 63.4799246320329 28.3653135328754 0.0
    vertex 57.303336757823 40.2035769107617 3.0
    vertex 57.303336757823 40.2035769107617 0.0
  endloop
endfacet
facet normal -0.38268343236509 0.923879532511287 -0.0
  outer loop
    vertex 3.53553390593274 3.53553390593274 3.0
    vertex 63.4799246320329 28.3653135328754 0.0
    vertex 3.53553390593274 3.53553390593274 0.0
  endloop
endfacet
facet normal -0.38268343236509 0.923879532511287 -0.0
  outer loop
    vertex 63.4799246320329 28.3653135328754 0.0
    vertex 3.53553390593274 3.53553390593274 3.0
    vertex 63.4799246320329 28.3653135328754 3.0
  endloop
endfacet
facet normal 0.923879532511287 -0.38268343236509 -0.0
  outer loop
    vertex 28.4948080651714 63.792552088155 0.0
    vertex 3.53553390593274 3.53553390593274 3.0
    vertex 3.53553390593274 3.53553390593274 0.0
  endloop
endfacet
facet normal 0.923879532511287 -0.38268343236509 -0.0
  outer loop
    vertex 3.53553390593274 3.53553390593274 3.0
    vertex 28.4948080651714 63.792552088155 0.0
    vertex 28.4948080651714 63.792552088155 3.0
  endloop
endfacet
facet normal -0.421776527121549 -0.906699818666181 0.0
  outer loop
    vertex 29.5243568985085 63.4689873066326 3.0
    vertex 28.4948080651714 63.792552088155 0.0
    vertex 29.5243568985085 63.4689873066326 0.0
  endloop
endfacet
facet normal -0.299820095645643 -0.953995760078124 -0.0
  outer loop
    vertex 28.4948080651714 63.792552088155 0.0
    vertex 29.5243568985085 63.4689873066326 3.0
    vertex 28.4948080651714 63.792552088155 3.0
  endloop
endfacet
facet normal -0.642076021731026 -0.766640973545022 0.0
  outer loop
    vertex 44.9453215211718 53.6648681481515 3.0
    vertex 29.5243568985085 63.4689873066326 0.0
    vertex 44.9453215211718 53.6648681481515 0.0
  endloop
endfacet
facet normal -0.421776527121549 -0.906699818666181 0.0
  outer loop
    vertex 29.5243568985085 63.4689873066326 0.0
    vertex 44.9453215211718 53.6648681481515 3.0
    vertex 29.5243568985085 63.4689873066326 3.0
  endloop
endfacet
facet normal -0.642076021731026 -0.766640973545022 0.0
  outer loop
    vertex 44.9453215211718 53.6648681481515 3.0
    vertex 57.303336757823 40.2035769107617 0.0
    vertex 57.303336757823 40.2035769107617 3.0
  endloop
endfacet
facet normal -0.818619096540328 -0.574336813010882 0.0
  outer loop
    vertex 57.303336757823 40.2035769107617 0.0
    vertex 44.9453215211718 53.6648681481515 3.0
    vertex 44.9453215211718 53.6648681481515 0.0
  endloop
endfacet
facet normal -0.984968569537536 0.172733659207406 0.0
  outer loop
    vertex 68.9477998676275 -12.0913561445185 3.0
    vertex 64.9443907261001 -24.8297796269427 0.0
    vertex 64.9443907261001 -24.8297796269427 3.0
  endloop
endfacet
facet normal -0.953995760078124 0.299820095645642 -0.0
  outer loop
    vertex 64.9443907261001 -24.8297796269427 0.0
    vertex 68.9477998676275 -12.0913561445185 3.0
    vertex 68.9477998676275 -12.0913561445185 0.0
  endloop
endfacet
facet normal 0.38268343236509 0.923879532511287 0.0
  outer loop
    vertex 5.0 5.37815971775084e-016 3.0
    vertex 64.9443907261001 -24.8297796269427 0.0
    vertex 5.0 5.37815971775084e-016 0.0
  endloop
endfacet
facet normal 0.38268343236509 0.923879532511287 0.0
  outer loop
    vertex 64.9443907261001 -24.8297796269427 0.0
    vertex 5.0 5.37815971775084e-016 3.0
    vertex 64.9443907261001 -24.8297796269427 3.0
  endloop
endfacet
facet normal 0.38268343236509 -0.923879532511287 -0.0
  outer loop
    vertex 65.2570181822223 24.9592741592387 3.0
    vertex 5.0 5.37815971775084e-016 0.0
    vertex 65.2570181822223 24.9592741592387 0.0
  endloop
endfacet
facet normal 0.38268343236509 -0.923879532511287 -0.0
  outer loop
    vertex 5.0 5.37815971775084e-016 0.0
    vertex 65.2570181822223 24.9592741592387 3.0
    vertex 5.0 5.37815971775084e-016 3.0
  endloop
endfacet
facet normal -0.886581693941498 -0.462572048407406 -0.0
  outer loop
    vertex 65.2570181822223 24.9592741592387 3.0
    vertex 65.75622429267 24.0024783464557 0.0
    vertex 65.75622429267 24.0024783464557 3.0
  endloop
endfacet
facet normal -0.939374632752432 -0.342892547806501 0.0
  outer loop
    vertex 65.75622429267 24.0024783464557 0.0
    vertex 65.2570181822223 24.9592741592387 3.0
    vertex 65.2570181822223 24.9592741592387 0.0
  endloop
endfacet
facet normal -0.939374632752432 -0.342892547806501 0.0
  outer loop
    vertex 65.75622429267 24.0024783464557 3.0
    vertex 69.7279338092702 6.16565054880965 0.0
    vertex 69.7279338092702 6.16565054880965 3.0
  endloop
endfacet
facet normal -0.996113340132431 -0.0880807221258523 0.0
  outer loop
    vertex 69.7279338092702 6.16565054880965 0.0
    vertex 65.75622429267 24.0024783464557 3.0
    vertex 65.75622429267 24.0024783464557 0.0
  endloop
endfacet
facet normal -0.996113340132431 -0.0880807221258523 0.0
  outer loop
    vertex 69.7279338092702 6.16565054880965 3.0
    vertex 68.9477998676275 -12.0913561445185 0.0
    vertex 68.9477998676275 -12.0913561445185 3.0
  endloop
endfacet
facet normal -0.984968569537536 0.172733659207406 0.0
  outer loop
    vertex 68.9477998676275 -12.0913561445185 0.0
    vertex 69.7279338092702 6.16565054880965 3.0
    vertex 69.7279338092702 6.16565054880965 0.0
  endloop
endfacet
endsolid testlunzi
