solid testlevel
facet normal 0.0 0.0 -1.0
  outer loop
    vertex -149.608552173162 -10.8296406519414 0.0
    vertex -140.136843803292 37.2379511903088 0.0
    vertex -144.999687612887 -0.300985324038081 0.0
  endloop
endfacet
facet normal 0.0 0.0 -1.0
  outer loop
    vertex -140.136843803292 37.2379511903088 0.0
    vertex -149.608552173162 -10.8296406519414 0.0
    vertex -134.979627131339 65.4255321681432 0.0
  endloop
endfacet
facet normal 0.0 0.0 -1.0
  outer loop
    vertex -140.136843803292 37.2379511903088 0.0
    vertex -134.979627131339 65.4255321681432 0.0
    vertex -125.723905675587 72.23918286966 0.0
  endloop
endfacet
facet normal 0.0 0.0 -1.0
  outer loop
    vertex -125.723905675587 72.23918286966 0.0
    vertex -134.979627131339 65.4255321681432 0.0
    vertex -102.743091144668 102.317433617338 0.0
  endloop
endfacet
facet normal 0.0 0.0 -1.0
  outer loop
    vertex -102.743091144668 102.317433617338 0.0
    vertex -134.979627131339 65.4255321681432 0.0
    vertex -84.1830200050191 124.149986479397 0.0
  endloop
endfacet
facet normal 0.0 0.0 -1.0
  outer loop
    vertex -102.743091144668 102.317433617338 0.0
    vertex -84.1830200050191 124.149986479397 0.0
    vertex -72.7605047432266 125.422920351549 0.0
  endloop
endfacet
facet normal 0.0 0.0 -1.0
  outer loop
    vertex -72.7605047432266 125.422920351549 0.0
    vertex -84.1830200050191 124.149986479397 0.0
    vertex -37.8194101859535 139.981042334977 0.0
  endloop
endfacet
facet normal 0.0 0.0 -1.0
  outer loop
    vertex -37.8194101859535 139.981042334977 0.0
    vertex -84.1830200050191 124.149986479397 0.0
    vertex -10.8296406519415 149.608552173162 0.0
  endloop
endfacet
facet normal 0.0 0.0 -1.0
  outer loop
    vertex -37.8194101859535 139.981042334977 0.0
    vertex -10.8296406519415 149.608552173162 0.0
    vertex -0.300985324038092 144.999687612887 0.0
  endloop
endfacet
facet normal 0.0 0.0 -1.0
  outer loop
    vertex -0.300985324038092 144.999687612887 0.0
    vertex -10.8296406519415 149.608552173162 0.0
    vertex 37.2379511903087 140.136843803292 0.0
  endloop
endfacet
facet normal 0.0 0.0 -1.0
  outer loop
    vertex 37.2379511903087 140.136843803292 0.0
    vertex -10.8296406519415 149.608552173162 0.0
    vertex 65.4255321681432 134.979627131339 0.0
  endloop
endfacet
facet normal 0.0 0.0 -1.0
  outer loop
    vertex 37.2379511903087 140.136843803292 0.0
    vertex 65.4255321681432 134.979627131339 0.0
    vertex 72.23918286966 125.723905675587 0.0
  endloop
endfacet
facet normal 0.0 0.0 -1.0
  outer loop
    vertex 72.23918286966 125.723905675587 0.0
    vertex 65.4255321681432 134.979627131339 0.0
    vertex 102.317433617338 102.743091144668 0.0
  endloop
endfacet
facet normal 0.0 0.0 -1.0
  outer loop
    vertex 102.317433617338 102.743091144668 0.0
    vertex 65.4255321681432 134.979627131339 0.0
    vertex 124.149986479397 84.1830200050191 0.0
  endloop
endfacet
facet normal 0.0 0.0 -1.0
  outer loop
    vertex 102.317433617338 102.743091144668 0.0
    vertex 124.149986479397 84.1830200050191 0.0
    vertex 125.422920351549 72.7605047432266 0.0
  endloop
endfacet
facet normal 0.0 0.0 -1.0
  outer loop
    vertex 125.422920351549 72.7605047432266 0.0
    vertex 124.149986479397 84.1830200050191 0.0
    vertex 139.981042334977 37.8194101859535 0.0
  endloop
endfacet
facet normal 0.0 0.0 -1.0
  outer loop
    vertex 139.981042334977 37.8194101859535 0.0
    vertex 124.149986479397 84.1830200050191 0.0
    vertex 149.608552173162 10.8296406519415 0.0
  endloop
endfacet
facet normal 0.0 0.0 -1.0
  outer loop
    vertex 139.981042334977 37.8194101859535 0.0
    vertex 149.608552173162 10.8296406519415 0.0
    vertex 144.999687612887 0.300985324038104 0.0
  endloop
endfacet
facet normal 0.0 0.0 -1.0
  outer loop
    vertex -149.608552173162 -10.8296406519414 0.0
    vertex -139.981042334977 -37.8194101859535 0.0
    vertex -124.149986479397 -84.1830200050191 0.0
  endloop
endfacet
facet normal 0.0 0.0 -1.0
  outer loop
    vertex -139.981042334977 -37.8194101859535 0.0
    vertex -149.608552173162 -10.8296406519414 0.0
    vertex -144.999687612887 -0.300985324038081 0.0
  endloop
endfacet
facet normal 0.0 0.0 -1.0
  outer loop
    vertex -124.149986479397 -84.1830200050191 0.0
    vertex -139.981042334977 -37.8194101859535 0.0
    vertex -125.422920351549 -72.7605047432265 0.0
  endloop
endfacet
facet normal 0.0 0.0 -1.0
  outer loop
    vertex -124.149986479397 -84.1830200050191 0.0
    vertex -125.422920351549 -72.7605047432265 0.0
    vertex -102.317433617338 -102.743091144668 0.0
  endloop
endfacet
facet normal 0.0 0.0 -1.0
  outer loop
    vertex -124.149986479397 -84.1830200050191 0.0
    vertex -102.317433617338 -102.743091144668 0.0
    vertex -65.4255321681432 -134.979627131339 0.0
  endloop
endfacet
facet normal 0.0 0.0 -1.0
  outer loop
    vertex -65.4255321681432 -134.979627131339 0.0
    vertex -102.317433617338 -102.743091144668 0.0
    vertex -72.23918286966 -125.723905675587 0.0
  endloop
endfacet
facet normal 0.0 0.0 -1.0
  outer loop
    vertex -65.4255321681432 -134.979627131339 0.0
    vertex -72.23918286966 -125.723905675587 0.0
    vertex -37.2379511903088 -140.136843803292 0.0
  endloop
endfacet
facet normal 0.0 0.0 -1.0
  outer loop
    vertex -65.4255321681432 -134.979627131339 0.0
    vertex -37.2379511903088 -140.136843803292 0.0
    vertex 10.8296406519414 -149.608552173162 0.0
  endloop
endfacet
facet normal 0.0 0.0 -1.0
  outer loop
    vertex 10.8296406519414 -149.608552173162 0.0
    vertex -37.2379511903088 -140.136843803292 0.0
    vertex 0.300985324038002 -144.999687612887 0.0
  endloop
endfacet
facet normal 0.0 0.0 -1.0
  outer loop
    vertex 10.8296406519414 -149.608552173162 0.0
    vertex 0.300985324038002 -144.999687612887 0.0
    vertex 37.8194101859535 -139.981042334977 0.0
  endloop
endfacet
facet normal 0.0 0.0 -1.0
  outer loop
    vertex 10.8296406519414 -149.608552173162 0.0
    vertex 37.8194101859535 -139.981042334977 0.0
    vertex 84.1830200050191 -124.149986479397 0.0
  endloop
endfacet
facet normal 0.0 0.0 -1.0
  outer loop
    vertex 84.1830200050191 -124.149986479397 0.0
    vertex 37.8194101859535 -139.981042334977 0.0
    vertex 72.7605047432265 -125.422920351549 0.0
  endloop
endfacet
facet normal 0.0 0.0 -1.0
  outer loop
    vertex 84.1830200050191 -124.149986479397 0.0
    vertex 72.7605047432265 -125.422920351549 0.0
    vertex 102.743091144668 -102.317433617338 0.0
  endloop
endfacet
facet normal 0.0 0.0 -1.0
  outer loop
    vertex 84.1830200050191 -124.149986479397 0.0
    vertex 102.743091144668 -102.317433617338 0.0
    vertex 134.979627131339 -65.4255321681431 0.0
  endloop
endfacet
facet normal 0.0 0.0 -1.0
  outer loop
    vertex 134.979627131339 -65.4255321681431 0.0
    vertex 102.743091144668 -102.317433617338 0.0
    vertex 125.723905675587 -72.23918286966 0.0
  endloop
endfacet
facet normal 0.0 0.0 -1.0
  outer loop
    vertex 134.979627131339 -65.4255321681431 0.0
    vertex 125.723905675587 -72.23918286966 0.0
    vertex 140.136843803292 -37.2379511903087 0.0
  endloop
endfacet
facet normal 0.0 0.0 -1.0
  outer loop
    vertex 134.979627131339 -65.4255321681431 0.0
    vertex 140.136843803292 -37.2379511903087 0.0
    vertex 149.608552173162 10.8296406519415 0.0
  endloop
endfacet
facet normal 0.0 0.0 -1.0
  outer loop
    vertex 149.608552173162 10.8296406519415 0.0
    vertex 140.136843803292 -37.2379511903087 0.0
    vertex 144.999687612887 0.300985324038104 0.0
  endloop
endfacet
facet normal -0.0 -0.0 1.0
  outer loop
    vertex -149.608552173162 -10.8296406519414 2.0
    vertex -139.981042334977 -37.8194101859535 2.0
    vertex -144.999687612887 -0.300985324038081 2.0
  endloop
endfacet
facet normal -0.0 -0.0 1.0
  outer loop
    vertex -139.981042334977 -37.8194101859535 2.0
    vertex -149.608552173162 -10.8296406519414 2.0
    vertex -124.149986479397 -84.1830200050191 2.0
  endloop
endfacet
facet normal -0.0 -0.0 1.0
  outer loop
    vertex -139.981042334977 -37.8194101859535 2.0
    vertex -124.149986479397 -84.1830200050191 2.0
    vertex -125.422920351549 -72.7605047432265 2.0
  endloop
endfacet
facet normal -0.0 -0.0 1.0
  outer loop
    vertex -125.422920351549 -72.7605047432265 2.0
    vertex -124.149986479397 -84.1830200050191 2.0
    vertex -102.317433617338 -102.743091144668 2.0
  endloop
endfacet
facet normal -0.0 -0.0 1.0
  outer loop
    vertex -102.317433617338 -102.743091144668 2.0
    vertex -124.149986479397 -84.1830200050191 2.0
    vertex -65.4255321681432 -134.979627131339 2.0
  endloop
endfacet
facet normal -0.0 -0.0 1.0
  outer loop
    vertex -102.317433617338 -102.743091144668 2.0
    vertex -65.4255321681432 -134.979627131339 2.0
    vertex -72.23918286966 -125.723905675587 2.0
  endloop
endfacet
facet normal -0.0 -0.0 1.0
  outer loop
    vertex -72.23918286966 -125.723905675587 2.0
    vertex -65.4255321681432 -134.979627131339 2.0
    vertex -37.2379511903088 -140.136843803292 2.0
  endloop
endfacet
facet normal -0.0 -0.0 1.0
  outer loop
    vertex -37.2379511903088 -140.136843803292 2.0
    vertex -65.4255321681432 -134.979627131339 2.0
    vertex 10.8296406519414 -149.608552173162 2.0
  endloop
endfacet
facet normal -0.0 -0.0 1.0
  outer loop
    vertex -37.2379511903088 -140.136843803292 2.0
    vertex 10.8296406519414 -149.608552173162 2.0
    vertex 0.300985324038002 -144.999687612887 2.0
  endloop
endfacet
facet normal -0.0 -0.0 1.0
  outer loop
    vertex 0.300985324038002 -144.999687612887 2.0
    vertex 10.8296406519414 -149.608552173162 2.0
    vertex 37.8194101859535 -139.981042334977 2.0
  endloop
endfacet
facet normal -0.0 -0.0 1.0
  outer loop
    vertex 37.8194101859535 -139.981042334977 2.0
    vertex 10.8296406519414 -149.608552173162 2.0
    vertex 84.1830200050191 -124.149986479397 2.0
  endloop
endfacet
facet normal -0.0 -0.0 1.0
  outer loop
    vertex 37.8194101859535 -139.981042334977 2.0
    vertex 84.1830200050191 -124.149986479397 2.0
    vertex 72.7605047432265 -125.422920351549 2.0
  endloop
endfacet
facet normal -0.0 -0.0 1.0
  outer loop
    vertex 72.7605047432265 -125.422920351549 2.0
    vertex 84.1830200050191 -124.149986479397 2.0
    vertex 102.743091144668 -102.317433617338 2.0
  endloop
endfacet
facet normal -0.0 -0.0 1.0
  outer loop
    vertex 102.743091144668 -102.317433617338 2.0
    vertex 84.1830200050191 -124.149986479397 2.0
    vertex 134.979627131339 -65.4255321681431 2.0
  endloop
endfacet
facet normal -0.0 -0.0 1.0
  outer loop
    vertex 102.743091144668 -102.317433617338 2.0
    vertex 134.979627131339 -65.4255321681431 2.0
    vertex 125.723905675587 -72.23918286966 2.0
  endloop
endfacet
facet normal -0.0 -0.0 1.0
  outer loop
    vertex 125.723905675587 -72.23918286966 2.0
    vertex 134.979627131339 -65.4255321681431 2.0
    vertex 140.136843803292 -37.2379511903087 2.0
  endloop
endfacet
facet normal -0.0 -0.0 1.0
  outer loop
    vertex 140.136843803292 -37.2379511903087 2.0
    vertex 134.979627131339 -65.4255321681431 2.0
    vertex 149.608552173162 10.8296406519415 2.0
  endloop
endfacet
facet normal -0.0 -0.0 1.0
  outer loop
    vertex 140.136843803292 -37.2379511903087 2.0
    vertex 149.608552173162 10.8296406519415 2.0
    vertex 144.999687612887 0.300985324038104 2.0
  endloop
endfacet
facet normal -0.0 -0.0 1.0
  outer loop
    vertex -149.608552173162 -10.8296406519414 2.0
    vertex -140.136843803292 37.2379511903088 2.0
    vertex -134.979627131339 65.4255321681432 2.0
  endloop
endfacet
facet normal -0.0 -0.0 1.0
  outer loop
    vertex -140.136843803292 37.2379511903088 2.0
    vertex -149.608552173162 -10.8296406519414 2.0
    vertex -144.999687612887 -0.300985324038081 2.0
  endloop
endfacet
facet normal -0.0 -0.0 1.0
  outer loop
    vertex -134.979627131339 65.4255321681432 2.0
    vertex -140.136843803292 37.2379511903088 2.0
    vertex -125.723905675587 72.23918286966 2.0
  endloop
endfacet
facet normal -0.0 -0.0 1.0
  outer loop
    vertex -134.979627131339 65.4255321681432 2.0
    vertex -125.723905675587 72.23918286966 2.0
    vertex -102.743091144668 102.317433617338 2.0
  endloop
endfacet
facet normal -0.0 -0.0 1.0
  outer loop
    vertex -134.979627131339 65.4255321681432 2.0
    vertex -102.743091144668 102.317433617338 2.0
    vertex -84.1830200050191 124.149986479397 2.0
  endloop
endfacet
facet normal -0.0 -0.0 1.0
  outer loop
    vertex -84.1830200050191 124.149986479397 2.0
    vertex -102.743091144668 102.317433617338 2.0
    vertex -72.7605047432266 125.422920351549 2.0
  endloop
endfacet
facet normal -0.0 -0.0 1.0
  outer loop
    vertex -84.1830200050191 124.149986479397 2.0
    vertex -72.7605047432266 125.422920351549 2.0
    vertex -37.8194101859535 139.981042334977 2.0
  endloop
endfacet
facet normal -0.0 -0.0 1.0
  outer loop
    vertex -84.1830200050191 124.149986479397 2.0
    vertex -37.8194101859535 139.981042334977 2.0
    vertex -10.8296406519415 149.608552173162 2.0
  endloop
endfacet
facet normal -0.0 -0.0 1.0
  outer loop
    vertex -10.8296406519415 149.608552173162 2.0
    vertex -37.8194101859535 139.981042334977 2.0
    vertex -0.300985324038092 144.999687612887 2.0
  endloop
endfacet
facet normal -0.0 -0.0 1.0
  outer loop
    vertex -10.8296406519415 149.608552173162 2.0
    vertex -0.300985324038092 144.999687612887 2.0
    vertex 37.2379511903087 140.136843803292 2.0
  endloop
endfacet
facet normal -0.0 -0.0 1.0
  outer loop
    vertex -10.8296406519415 149.608552173162 2.0
    vertex 37.2379511903087 140.136843803292 2.0
    vertex 65.4255321681432 134.979627131339 2.0
  endloop
endfacet
facet normal -0.0 -0.0 1.0
  outer loop
    vertex 65.4255321681432 134.979627131339 2.0
    vertex 37.2379511903087 140.136843803292 2.0
    vertex 72.23918286966 125.723905675587 2.0
  endloop
endfacet
facet normal -0.0 -0.0 1.0
  outer loop
    vertex 65.4255321681432 134.979627131339 2.0
    vertex 72.23918286966 125.723905675587 2.0
    vertex 102.317433617338 102.743091144668 2.0
  endloop
endfacet
facet normal -0.0 -0.0 1.0
  outer loop
    vertex 65.4255321681432 134.979627131339 2.0
    vertex 102.317433617338 102.743091144668 2.0
    vertex 124.149986479397 84.1830200050191 2.0
  endloop
endfacet
facet normal -0.0 -0.0 1.0
  outer loop
    vertex 124.149986479397 84.1830200050191 2.0
    vertex 102.317433617338 102.743091144668 2.0
    vertex 125.422920351549 72.7605047432266 2.0
  endloop
endfacet
facet normal -0.0 -0.0 1.0
  outer loop
    vertex 124.149986479397 84.1830200050191 2.0
    vertex 125.422920351549 72.7605047432266 2.0
    vertex 139.981042334977 37.8194101859535 2.0
  endloop
endfacet
facet normal -0.0 -0.0 1.0
  outer loop
    vertex 124.149986479397 84.1830200050191 2.0
    vertex 139.981042334977 37.8194101859535 2.0
    vertex 149.608552173162 10.8296406519415 2.0
  endloop
endfacet
facet normal -0.0 -0.0 1.0
  outer loop
    vertex 149.608552173162 10.8296406519415 2.0
    vertex 139.981042334977 37.8194101859535 2.0
    vertex 144.999687612887 0.300985324038104 2.0
  endloop
endfacet
facet normal 0.756312894052972 -0.654210062815621 0.0
  outer loop
    vertex 134.979627131339 -65.4255321681431 0.0
    vertex 84.1830200050191 -124.149986479397 2.0
    vertex 84.1830200050191 -124.149986479397 0.0
  endloop
endfacet
facet normal 0.756312894052972 -0.654210062815621 0.0
  outer loop
    vertex 84.1830200050191 -124.149986479397 2.0
    vertex 134.979627131339 -65.4255321681431 0.0
    vertex 134.979627131339 -65.4255321681431 2.0
  endloop
endfacet
facet normal 0.327881148051791 -0.944718980836227 0.0
  outer loop
    vertex 84.1830200050191 -124.149986479397 2.0
    vertex 10.8296406519414 -149.608552173162 0.0
    vertex 84.1830200050191 -124.149986479397 0.0
  endloop
endfacet
facet normal 0.327881148051791 -0.944718980836227 0.0
  outer loop
    vertex 10.8296406519414 -149.608552173162 0.0
    vertex 84.1830200050191 -124.149986479397 2.0
    vertex 10.8296406519414 -149.608552173162 2.0
  endloop
endfacet
facet normal -0.188406086783255 -0.982091210867412 -0.0
  outer loop
    vertex 10.8296406519414 -149.608552173162 2.0
    vertex -65.4255321681432 -134.979627131339 0.0
    vertex 10.8296406519414 -149.608552173162 0.0
  endloop
endfacet
facet normal -0.188406086783255 -0.982091210867412 -0.0
  outer loop
    vertex -65.4255321681432 -134.979627131339 0.0
    vertex 10.8296406519414 -149.608552173162 2.0
    vertex -65.4255321681432 -134.979627131339 2.0
  endloop
endfacet
facet normal -0.654210062815621 -0.756312894052972 -0.0
  outer loop
    vertex -65.4255321681432 -134.979627131339 2.0
    vertex -124.149986479397 -84.1830200050191 0.0
    vertex -65.4255321681432 -134.979627131339 0.0
  endloop
endfacet
facet normal -0.654210062815621 -0.756312894052972 -0.0
  outer loop
    vertex -124.149986479397 -84.1830200050191 0.0
    vertex -65.4255321681432 -134.979627131339 2.0
    vertex -124.149986479397 -84.1830200050191 2.0
  endloop
endfacet
facet normal -0.944718980836227 -0.327881148051791 -0.0
  outer loop
    vertex -149.608552173162 -10.8296406519414 2.0
    vertex -124.149986479397 -84.1830200050191 0.0
    vertex -124.149986479397 -84.1830200050191 2.0
  endloop
endfacet
facet normal -0.944718980836227 -0.327881148051791 -0.0
  outer loop
    vertex -124.149986479397 -84.1830200050191 0.0
    vertex -149.608552173162 -10.8296406519414 2.0
    vertex -149.608552173162 -10.8296406519414 0.0
  endloop
endfacet
facet normal -0.982091210867413 0.188406086783255 0.0
  outer loop
    vertex -134.979627131339 65.4255321681432 2.0
    vertex -149.608552173162 -10.8296406519414 0.0
    vertex -149.608552173162 -10.8296406519414 2.0
  endloop
endfacet
facet normal -0.982091210867413 0.188406086783255 0.0
  outer loop
    vertex -149.608552173162 -10.8296406519414 0.0
    vertex -134.979627131339 65.4255321681432 2.0
    vertex -134.979627131339 65.4255321681432 0.0
  endloop
endfacet
facet normal -0.756312894052972 0.654210062815621 0.0
  outer loop
    vertex -84.1830200050191 124.149986479397 2.0
    vertex -134.979627131339 65.4255321681432 0.0
    vertex -134.979627131339 65.4255321681432 2.0
  endloop
endfacet
facet normal -0.756312894052972 0.654210062815621 0.0
  outer loop
    vertex -134.979627131339 65.4255321681432 0.0
    vertex -84.1830200050191 124.149986479397 2.0
    vertex -84.1830200050191 124.149986479397 0.0
  endloop
endfacet
facet normal -0.327881148051791 0.944718980836227 0.0
  outer loop
    vertex -84.1830200050191 124.149986479397 2.0
    vertex -10.8296406519415 149.608552173162 0.0
    vertex -84.1830200050191 124.149986479397 0.0
  endloop
endfacet
facet normal -0.327881148051791 0.944718980836227 0.0
  outer loop
    vertex -10.8296406519415 149.608552173162 0.0
    vertex -84.1830200050191 124.149986479397 2.0
    vertex -10.8296406519415 149.608552173162 2.0
  endloop
endfacet
facet normal 0.188406086783255 0.982091210867413 0.0
  outer loop
    vertex -10.8296406519415 149.608552173162 2.0
    vertex 65.4255321681432 134.979627131339 0.0
    vertex -10.8296406519415 149.608552173162 0.0
  endloop
endfacet
facet normal 0.188406086783255 0.982091210867413 0.0
  outer loop
    vertex 65.4255321681432 134.979627131339 0.0
    vertex -10.8296406519415 149.608552173162 2.0
    vertex 65.4255321681432 134.979627131339 2.0
  endloop
endfacet
facet normal 0.654210062815621 0.756312894052972 0.0
  outer loop
    vertex 65.4255321681432 134.979627131339 2.0
    vertex 124.149986479397 84.1830200050191 0.0
    vertex 65.4255321681432 134.979627131339 0.0
  endloop
endfacet
facet normal 0.654210062815621 0.756312894052972 0.0
  outer loop
    vertex 124.149986479397 84.1830200050191 0.0
    vertex 65.4255321681432 134.979627131339 2.0
    vertex 124.149986479397 84.1830200050191 2.0
  endloop
endfacet
facet normal 0.944718980836227 0.327881148051792 0.0
  outer loop
    vertex 124.149986479397 84.1830200050191 0.0
    vertex 149.608552173162 10.8296406519415 2.0
    vertex 149.608552173162 10.8296406519415 0.0
  endloop
endfacet
facet normal 0.944718980836227 0.327881148051792 0.0
  outer loop
    vertex 149.608552173162 10.8296406519415 2.0
    vertex 124.149986479397 84.1830200050191 0.0
    vertex 124.149986479397 84.1830200050191 2.0
  endloop
endfacet
facet normal 0.982091210867413 -0.188406086783255 0.0
  outer loop
    vertex 149.608552173162 10.8296406519415 0.0
    vertex 134.979627131339 -65.4255321681431 2.0
    vertex 134.979627131339 -65.4255321681431 0.0
  endloop
endfacet
facet normal 0.982091210867413 -0.188406086783255 0.0
  outer loop
    vertex 134.979627131339 -65.4255321681431 2.0
    vertex 149.608552173162 10.8296406519415 0.0
    vertex 149.608552173162 10.8296406519415 2.0
  endloop
endfacet
facet normal -0.867061418452322 0.498201261170069 0.0
  outer loop
    vertex 125.723905675587 -72.23918286966 2.0
    vertex 102.743091144668 -102.317433617338 0.0
    vertex 102.743091144668 -102.317433617338 2.0
  endloop
endfacet
facet normal -0.708573042377021 0.705637473223023 0.0
  outer loop
    vertex 102.743091144668 -102.317433617338 0.0
    vertex 125.723905675587 -72.23918286966 2.0
    vertex 125.723905675587 -72.23918286966 0.0
  endloop
endfacet
facet normal -0.966460991746839 0.256813456484888 0.0
  outer loop
    vertex 140.136843803292 -37.2379511903087 2.0
    vertex 125.723905675587 -72.23918286966 0.0
    vertex 125.723905675587 -72.23918286966 2.0
  endloop
endfacet
facet normal -0.867061418452322 0.498201261170069 0.0
  outer loop
    vertex 125.723905675587 -72.23918286966 0.0
    vertex 140.136843803292 -37.2379511903087 2.0
    vertex 140.136843803292 -37.2379511903087 0.0
  endloop
endfacet
facet normal -0.999997845606115 -0.00207576085543524 0.0
  outer loop
    vertex 144.999687612887 0.300985324038104 2.0
    vertex 140.136843803292 -37.2379511903087 0.0
    vertex 140.136843803292 -37.2379511903087 2.0
  endloop
endfacet
facet normal -0.966460991746839 0.256813456484888 0.0
  outer loop
    vertex 140.136843803292 -37.2379511903087 0.0
    vertex 144.999687612887 0.300985324038104 2.0
    vertex 144.999687612887 0.300985324038104 0.0
  endloop
endfacet
facet normal -0.96538649886191 -0.260823518523817 0.0
  outer loop
    vertex 139.981042334977 37.8194101859535 2.0
    vertex 144.999687612887 0.300985324038104 0.0
    vertex 144.999687612887 0.300985324038104 2.0
  endloop
endfacet
facet normal -0.999997845606115 -0.00207576085543524 0.0
  outer loop
    vertex 144.999687612887 0.300985324038104 0.0
    vertex 139.981042334977 37.8194101859535 2.0
    vertex 139.981042334977 37.8194101859535 0.0
  endloop
endfacet
facet normal -0.864985657596887 -0.501796584436045 0.0
  outer loop
    vertex 125.422920351549 72.7605047432266 2.0
    vertex 139.981042334977 37.8194101859535 0.0
    vertex 139.981042334977 37.8194101859535 2.0
  endloop
endfacet
facet normal -0.96538649886191 -0.260823518523817 0.0
  outer loop
    vertex 139.981042334977 37.8194101859535 0.0
    vertex 125.422920351549 72.7605047432266 2.0
    vertex 125.422920351549 72.7605047432266 0.0
  endloop
endfacet
facet normal -0.705637473223022 -0.708573042377022 0.0
  outer loop
    vertex 102.317433617338 102.743091144668 2.0
    vertex 125.422920351549 72.7605047432266 0.0
    vertex 125.422920351549 72.7605047432266 2.0
  endloop
endfacet
facet normal -0.864985657596887 -0.501796584436045 0.0
  outer loop
    vertex 125.422920351549 72.7605047432266 0.0
    vertex 102.317433617338 102.743091144668 2.0
    vertex 102.317433617338 102.743091144668 0.0
  endloop
endfacet
facet normal -0.705637473223022 -0.708573042377022 0.0
  outer loop
    vertex 102.317433617338 102.743091144668 2.0
    vertex 72.23918286966 125.723905675587 0.0
    vertex 102.317433617338 102.743091144668 0.0
  endloop
endfacet
facet normal -0.498201261170069 -0.867061418452322 0.0
  outer loop
    vertex 72.23918286966 125.723905675587 0.0
    vertex 102.317433617338 102.743091144668 2.0
    vertex 72.23918286966 125.723905675587 2.0
  endloop
endfacet
facet normal -0.498201261170069 -0.867061418452322 0.0
  outer loop
    vertex 72.23918286966 125.723905675587 2.0
    vertex 37.2379511903087 140.136843803292 0.0
    vertex 72.23918286966 125.723905675587 0.0
  endloop
endfacet
facet normal -0.256813456484888 -0.96646099174684 0.0
  outer loop
    vertex 37.2379511903087 140.136843803292 0.0
    vertex 72.23918286966 125.723905675587 2.0
    vertex 37.2379511903087 140.136843803292 2.0
  endloop
endfacet
facet normal -0.256813456484888 -0.96646099174684 0.0
  outer loop
    vertex 37.2379511903087 140.136843803292 2.0
    vertex -0.300985324038092 144.999687612887 0.0
    vertex 37.2379511903087 140.136843803292 0.0
  endloop
endfacet
facet normal 0.00207576085543524 -0.999997845606115 0.0
  outer loop
    vertex -0.300985324038092 144.999687612887 0.0
    vertex 37.2379511903087 140.136843803292 2.0
    vertex -0.300985324038092 144.999687612887 2.0
  endloop
endfacet
facet normal 0.00207576085543524 -0.999997845606115 0.0
  outer loop
    vertex -0.300985324038092 144.999687612887 2.0
    vertex -37.8194101859535 139.981042334977 0.0
    vertex -0.300985324038092 144.999687612887 0.0
  endloop
endfacet
facet normal 0.260823518523817 -0.96538649886191 0.0
  outer loop
    vertex -37.8194101859535 139.981042334977 0.0
    vertex -0.300985324038092 144.999687612887 2.0
    vertex -37.8194101859535 139.981042334977 2.0
  endloop
endfacet
facet normal 0.260823518523817 -0.96538649886191 0.0
  outer loop
    vertex -37.8194101859535 139.981042334977 2.0
    vertex -72.7605047432266 125.422920351549 0.0
    vertex -37.8194101859535 139.981042334977 0.0
  endloop
endfacet
facet normal 0.501796584436045 -0.864985657596887 0.0
  outer loop
    vertex -72.7605047432266 125.422920351549 0.0
    vertex -37.8194101859535 139.981042334977 2.0
    vertex -72.7605047432266 125.422920351549 2.0
  endloop
endfacet
facet normal 0.501796584436045 -0.864985657596887 0.0
  outer loop
    vertex -72.7605047432266 125.422920351549 2.0
    vertex -102.743091144668 102.317433617338 0.0
    vertex -72.7605047432266 125.422920351549 0.0
  endloop
endfacet
facet normal 0.708573042377022 -0.705637473223022 0.0
  outer loop
    vertex -102.743091144668 102.317433617338 0.0
    vertex -72.7605047432266 125.422920351549 2.0
    vertex -102.743091144668 102.317433617338 2.0
  endloop
endfacet
facet normal 0.708573042377022 -0.705637473223022 0.0
  outer loop
    vertex -102.743091144668 102.317433617338 0.0
    vertex -125.723905675587 72.23918286966 2.0
    vertex -125.723905675587 72.23918286966 0.0
  endloop
endfacet
facet normal 0.867061418452322 -0.498201261170069 0.0
  outer loop
    vertex -125.723905675587 72.23918286966 2.0
    vertex -102.743091144668 102.317433617338 0.0
    vertex -102.743091144668 102.317433617338 2.0
  endloop
endfacet
facet normal 0.867061418452322 -0.498201261170069 0.0
  outer loop
    vertex -125.723905675587 72.23918286966 0.0
    vertex -140.136843803292 37.2379511903088 2.0
    vertex -140.136843803292 37.2379511903088 0.0
  endloop
endfacet
facet normal 0.96646099174684 -0.256813456484888 0.0
  outer loop
    vertex -140.136843803292 37.2379511903088 2.0
    vertex -125.723905675587 72.23918286966 0.0
    vertex -125.723905675587 72.23918286966 2.0
  endloop
endfacet
facet normal 0.96646099174684 -0.256813456484888 0.0
  outer loop
    vertex -140.136843803292 37.2379511903088 0.0
    vertex -144.999687612887 -0.300985324038081 2.0
    vertex -144.999687612887 -0.300985324038081 0.0
  endloop
endfacet
facet normal 0.999997845606115 0.00207576085543447 0.0
  outer loop
    vertex -144.999687612887 -0.300985324038081 2.0
    vertex -140.136843803292 37.2379511903088 0.0
    vertex -140.136843803292 37.2379511903088 2.0
  endloop
endfacet
facet normal 0.999997845606115 0.00207576085543447 0.0
  outer loop
    vertex -144.999687612887 -0.300985324038081 0.0
    vertex -139.981042334977 -37.8194101859535 2.0
    vertex -139.981042334977 -37.8194101859535 0.0
  endloop
endfacet
facet normal 0.96538649886191 0.260823518523817 0.0
  outer loop
    vertex -139.981042334977 -37.8194101859535 2.0
    vertex -144.999687612887 -0.300985324038081 0.0
    vertex -144.999687612887 -0.300985324038081 2.0
  endloop
endfacet
facet normal 0.96538649886191 0.260823518523817 0.0
  outer loop
    vertex -139.981042334977 -37.8194101859535 0.0
    vertex -125.422920351549 -72.7605047432265 2.0
    vertex -125.422920351549 -72.7605047432265 0.0
  endloop
endfacet
facet normal 0.864985657596887 0.501796584436045 0.0
  outer loop
    vertex -125.422920351549 -72.7605047432265 2.0
    vertex -139.981042334977 -37.8194101859535 0.0
    vertex -139.981042334977 -37.8194101859535 2.0
  endloop
endfacet
facet normal 0.864985657596887 0.501796584436045 0.0
  outer loop
    vertex -125.422920351549 -72.7605047432265 0.0
    vertex -102.317433617338 -102.743091144668 2.0
    vertex -102.317433617338 -102.743091144668 0.0
  endloop
endfacet
facet normal 0.705637473223023 0.708573042377021 0.0
  outer loop
    vertex -102.317433617338 -102.743091144668 2.0
    vertex -125.422920351549 -72.7605047432265 0.0
    vertex -125.422920351549 -72.7605047432265 2.0
  endloop
endfacet
facet normal 0.705637473223023 0.708573042377021 0.0
  outer loop
    vertex -102.317433617338 -102.743091144668 2.0
    vertex -72.23918286966 -125.723905675587 0.0
    vertex -102.317433617338 -102.743091144668 0.0
  endloop
endfacet
facet normal 0.498201261170069 0.867061418452322 0.0
  outer loop
    vertex -72.23918286966 -125.723905675587 0.0
    vertex -102.317433617338 -102.743091144668 2.0
    vertex -72.23918286966 -125.723905675587 2.0
  endloop
endfacet
facet normal 0.498201261170069 0.867061418452322 0.0
  outer loop
    vertex -72.23918286966 -125.723905675587 2.0
    vertex -37.2379511903088 -140.136843803292 0.0
    vertex -72.23918286966 -125.723905675587 0.0
  endloop
endfacet
facet normal 0.256813456484889 0.966460991746839 0.0
  outer loop
    vertex -37.2379511903088 -140.136843803292 0.0
    vertex -72.23918286966 -125.723905675587 2.0
    vertex -37.2379511903088 -140.136843803292 2.0
  endloop
endfacet
facet normal 0.256813456484889 0.966460991746839 0.0
  outer loop
    vertex -37.2379511903088 -140.136843803292 2.0
    vertex 0.300985324038002 -144.999687612887 0.0
    vertex -37.2379511903088 -140.136843803292 0.0
  endloop
endfacet
facet normal -0.00207576085543443 0.999997845606115 0.0
  outer loop
    vertex 0.300985324038002 -144.999687612887 0.0
    vertex -37.2379511903088 -140.136843803292 2.0
    vertex 0.300985324038002 -144.999687612887 2.0
  endloop
endfacet
facet normal -0.00207576085543443 0.999997845606115 0.0
  outer loop
    vertex 0.300985324038002 -144.999687612887 2.0
    vertex 37.8194101859535 -139.981042334977 0.0
    vertex 0.300985324038002 -144.999687612887 0.0
  endloop
endfacet
facet normal -0.260823518523818 0.96538649886191 0.0
  outer loop
    vertex 37.8194101859535 -139.981042334977 0.0
    vertex 0.300985324038002 -144.999687612887 2.0
    vertex 37.8194101859535 -139.981042334977 2.0
  endloop
endfacet
facet normal -0.260823518523818 0.96538649886191 0.0
  outer loop
    vertex 37.8194101859535 -139.981042334977 2.0
    vertex 72.7605047432265 -125.422920351549 0.0
    vertex 37.8194101859535 -139.981042334977 0.0
  endloop
endfacet
facet normal -0.501796584436045 0.864985657596887 0.0
  outer loop
    vertex 72.7605047432265 -125.422920351549 0.0
    vertex 37.8194101859535 -139.981042334977 2.0
    vertex 72.7605047432265 -125.422920351549 2.0
  endloop
endfacet
facet normal -0.501796584436045 0.864985657596887 0.0
  outer loop
    vertex 72.7605047432265 -125.422920351549 2.0
    vertex 102.743091144668 -102.317433617338 0.0
    vertex 72.7605047432265 -125.422920351549 0.0
  endloop
endfacet
facet normal -0.708573042377021 0.705637473223023 0.0
  outer loop
    vertex 102.743091144668 -102.317433617338 0.0
    vertex 72.7605047432265 -125.422920351549 2.0
    vertex 102.743091144668 -102.317433617338 2.0
  endloop
endfacet
endsolid testlevel
