solid OpenSCAD_Model
  facet normal 0.939693 0.34202 0
    outer loop
      vertex 2.6 0 2.5
      vertex 1.99172 1.67125 -2.5
      vertex 1.99172 1.67125 2.5
    endloop
  endfacet
  facet normal 0.939693 0.34202 0
    outer loop
      vertex 1.99172 1.67125 -2.5
      vertex 2.6 0 2.5
      vertex 2.6 0 -2.5
    endloop
  endfacet
  facet normal -1 0 0
    outer loop
      vertex -2.4432 -0.889252 -2.5
      vertex -2.4432 0.889252 2.5
      vertex -2.4432 0.889252 -2.5
    endloop
  endfacet
  facet normal -1 -0 0
    outer loop
      vertex -2.4432 0.889252 2.5
      vertex -2.4432 -0.889252 -2.5
      vertex -2.4432 -0.889252 2.5
    endloop
  endfacet
  facet normal 0 0 -1
    outer loop
      vertex 1.6 0 -2.5
      vertex 2.6 0 -2.5
      vertex 1.99172 -1.67125 -2.5
    endloop
  endfacet
  facet normal 0 0 -1
    outer loop
      vertex 2.6 0 -2.5
      vertex 1.6 0 -2.5
      vertex 1.99172 1.67125 -2.5
    endloop
  endfacet
  facet normal 0 0 -1
    outer loop
      vertex 1.99172 -1.67125 -2.5
      vertex 0.799999 -1.38564 -2.5
      vertex 1.6 0 -2.5
    endloop
  endfacet
  facet normal 0 0 -1
    outer loop
      vertex 0.451485 -2.5605 -2.5
      vertex 0.799999 -1.38564 -2.5
      vertex 1.99172 -1.67125 -2.5
    endloop
  endfacet
  facet normal 0 0 -1
    outer loop
      vertex 0.451485 -2.5605 -2.5
      vertex -0.799999 -1.38564 -2.5
      vertex 0.799999 -1.38564 -2.5
    endloop
  endfacet
  facet normal 0 0 -1
    outer loop
      vertex -1.3 -2.25167 -2.5
      vertex -0.799999 -1.38564 -2.5
      vertex 0.451485 -2.5605 -2.5
    endloop
  endfacet
  facet normal 0 0 -1
    outer loop
      vertex -2.4432 -0.889252 -2.5
      vertex -0.799999 -1.38564 -2.5
      vertex -1.3 -2.25167 -2.5
    endloop
  endfacet
  facet normal 0 0 -1
    outer loop
      vertex -0.799999 -1.38564 -2.5
      vertex -2.4432 -0.889252 -2.5
      vertex -1.6 0 -2.5
    endloop
  endfacet
  facet normal 0 0 -1
    outer loop
      vertex 0.799999 1.38564 -2.5
      vertex 1.99172 1.67125 -2.5
      vertex 1.6 0 -2.5
    endloop
  endfacet
  facet normal 0 0 -1
    outer loop
      vertex 0.799999 1.38564 -2.5
      vertex 0.451485 2.5605 -2.5
      vertex 1.99172 1.67125 -2.5
    endloop
  endfacet
  facet normal 0 0 -1
    outer loop
      vertex -0.799999 1.38564 -2.5
      vertex 0.451485 2.5605 -2.5
      vertex 0.799999 1.38564 -2.5
    endloop
  endfacet
  facet normal 0 0 -1
    outer loop
      vertex -0.799999 1.38564 -2.5
      vertex -1.3 2.25167 -2.5
      vertex 0.451485 2.5605 -2.5
    endloop
  endfacet
  facet normal 0 0 -1
    outer loop
      vertex -2.4432 0.889252 -2.5
      vertex -0.799999 1.38564 -2.5
      vertex -1.6 0 -2.5
    endloop
  endfacet
  facet normal 0 0 -1
    outer loop
      vertex -2.4432 0.889252 -2.5
      vertex -1.6 0 -2.5
      vertex -2.4432 -0.889252 -2.5
    endloop
  endfacet
  facet normal -0 0 -1
    outer loop
      vertex -0.799999 1.38564 -2.5
      vertex -2.4432 0.889252 -2.5
      vertex -1.3 2.25167 -2.5
    endloop
  endfacet
  facet normal -0.173649 0.984808 0
    outer loop
      vertex 0.451485 2.5605 -2.5
      vertex -1.3 2.25167 2.5
      vertex 0.451485 2.5605 2.5
    endloop
  endfacet
  facet normal -0.173649 0.984808 0
    outer loop
      vertex -1.3 2.25167 2.5
      vertex 0.451485 2.5605 -2.5
      vertex -1.3 2.25167 -2.5
    endloop
  endfacet
  facet normal 0.5 0.866025 -0
    outer loop
      vertex 1.99172 1.67125 -2.5
      vertex 0.451485 2.5605 2.5
      vertex 1.99172 1.67125 2.5
    endloop
  endfacet
  facet normal 0.5 0.866025 0
    outer loop
      vertex 0.451485 2.5605 2.5
      vertex 1.99172 1.67125 -2.5
      vertex 0.451485 2.5605 -2.5
    endloop
  endfacet
  facet normal 0 0 1
    outer loop
      vertex 1.6 0 2.5
      vertex 2.6 0 2.5
      vertex 1.99172 1.67125 2.5
    endloop
  endfacet
  facet normal 0 0 1
    outer loop
      vertex 2.6 0 2.5
      vertex 1.6 0 2.5
      vertex 1.99172 -1.67125 2.5
    endloop
  endfacet
  facet normal 0 0 1
    outer loop
      vertex 1.99172 1.67125 2.5
      vertex 0.799999 1.38564 2.5
      vertex 1.6 0 2.5
    endloop
  endfacet
  facet normal 0 0 1
    outer loop
      vertex 0.451485 2.5605 2.5
      vertex 0.799999 1.38564 2.5
      vertex 1.99172 1.67125 2.5
    endloop
  endfacet
  facet normal 0 0 1
    outer loop
      vertex 0.451485 2.5605 2.5
      vertex -0.799999 1.38564 2.5
      vertex 0.799999 1.38564 2.5
    endloop
  endfacet
  facet normal -0 0 1
    outer loop
      vertex -1.3 2.25167 2.5
      vertex -0.799999 1.38564 2.5
      vertex 0.451485 2.5605 2.5
    endloop
  endfacet
  facet normal 0 0 1
    outer loop
      vertex -2.4432 0.889252 2.5
      vertex -0.799999 1.38564 2.5
      vertex -1.3 2.25167 2.5
    endloop
  endfacet
  facet normal 0 0 1
    outer loop
      vertex -0.799999 1.38564 2.5
      vertex -2.4432 0.889252 2.5
      vertex -1.6 0 2.5
    endloop
  endfacet
  facet normal -0 0 1
    outer loop
      vertex 0.799999 -1.38564 2.5
      vertex 1.99172 -1.67125 2.5
      vertex 1.6 0 2.5
    endloop
  endfacet
  facet normal 0 0 1
    outer loop
      vertex 0.799999 -1.38564 2.5
      vertex 0.451485 -2.5605 2.5
      vertex 1.99172 -1.67125 2.5
    endloop
  endfacet
  facet normal -0 0 1
    outer loop
      vertex -0.799999 -1.38564 2.5
      vertex 0.451485 -2.5605 2.5
      vertex 0.799999 -1.38564 2.5
    endloop
  endfacet
  facet normal 0 0 1
    outer loop
      vertex -0.799999 -1.38564 2.5
      vertex -1.3 -2.25167 2.5
      vertex 0.451485 -2.5605 2.5
    endloop
  endfacet
  facet normal -0 0 1
    outer loop
      vertex -2.4432 -0.889252 2.5
      vertex -0.799999 -1.38564 2.5
      vertex -1.6 0 2.5
    endloop
  endfacet
  facet normal 0 0 1
    outer loop
      vertex -2.4432 -0.889252 2.5
      vertex -1.6 0 2.5
      vertex -2.4432 0.889252 2.5
    endloop
  endfacet
  facet normal 0 0 1
    outer loop
      vertex -0.799999 -1.38564 2.5
      vertex -2.4432 -0.889252 2.5
      vertex -1.3 -2.25167 2.5
    endloop
  endfacet
  facet normal -0.766044 0.642788 0
    outer loop
      vertex -2.4432 0.889252 -2.5
      vertex -1.3 2.25167 2.5
      vertex -1.3 2.25167 -2.5
    endloop
  endfacet
  facet normal -0.766044 0.642788 0
    outer loop
      vertex -1.3 2.25167 2.5
      vertex -2.4432 0.889252 -2.5
      vertex -2.4432 0.889252 2.5
    endloop
  endfacet
  facet normal 0.5 -0.866025 0
    outer loop
      vertex 0.451485 -2.5605 -2.5
      vertex 1.99172 -1.67125 2.5
      vertex 0.451485 -2.5605 2.5
    endloop
  endfacet
  facet normal 0.5 -0.866025 0
    outer loop
      vertex 1.99172 -1.67125 2.5
      vertex 0.451485 -2.5605 -2.5
      vertex 1.99172 -1.67125 -2.5
    endloop
  endfacet
  facet normal -0.766044 -0.642788 0
    outer loop
      vertex -1.3 -2.25167 -2.5
      vertex -2.4432 -0.889252 2.5
      vertex -2.4432 -0.889252 -2.5
    endloop
  endfacet
  facet normal -0.766044 -0.642788 0
    outer loop
      vertex -2.4432 -0.889252 2.5
      vertex -1.3 -2.25167 -2.5
      vertex -1.3 -2.25167 2.5
    endloop
  endfacet
  facet normal 0.939693 -0.34202 0
    outer loop
      vertex 1.99172 -1.67125 2.5
      vertex 2.6 0 -2.5
      vertex 2.6 0 2.5
    endloop
  endfacet
  facet normal 0.939693 -0.34202 0
    outer loop
      vertex 2.6 0 -2.5
      vertex 1.99172 -1.67125 2.5
      vertex 1.99172 -1.67125 -2.5
    endloop
  endfacet
  facet normal -0.173649 -0.984808 0
    outer loop
      vertex -1.3 -2.25167 -2.5
      vertex 0.451485 -2.5605 2.5
      vertex -1.3 -2.25167 2.5
    endloop
  endfacet
  facet normal -0.173649 -0.984808 -0
    outer loop
      vertex 0.451485 -2.5605 2.5
      vertex -1.3 -2.25167 -2.5
      vertex 0.451485 -2.5605 -2.5
    endloop
  endfacet
  facet normal -0.866025 -0.5 0
    outer loop
      vertex 1.6 0 -2.5
      vertex 0.799999 1.38564 2.5
      vertex 0.799999 1.38564 -2.5
    endloop
  endfacet
  facet normal -0.866025 -0.5 0
    outer loop
      vertex 0.799999 1.38564 2.5
      vertex 1.6 0 -2.5
      vertex 1.6 0 2.5
    endloop
  endfacet
  facet normal 0.866025 -0.5 0
    outer loop
      vertex -1.6 0 2.5
      vertex -0.799999 1.38564 -2.5
      vertex -0.799999 1.38564 2.5
    endloop
  endfacet
  facet normal 0.866025 -0.5 0
    outer loop
      vertex -0.799999 1.38564 -2.5
      vertex -1.6 0 2.5
      vertex -1.6 0 -2.5
    endloop
  endfacet
  facet normal 0 -1 0
    outer loop
      vertex -0.799999 1.38564 -2.5
      vertex 0.799999 1.38564 2.5
      vertex -0.799999 1.38564 2.5
    endloop
  endfacet
  facet normal 0 -1 -0
    outer loop
      vertex 0.799999 1.38564 2.5
      vertex -0.799999 1.38564 -2.5
      vertex 0.799999 1.38564 -2.5
    endloop
  endfacet
  facet normal 0.866025 0.5 0
    outer loop
      vertex -0.799999 -1.38564 2.5
      vertex -1.6 0 -2.5
      vertex -1.6 0 2.5
    endloop
  endfacet
  facet normal 0.866025 0.5 0
    outer loop
      vertex -1.6 0 -2.5
      vertex -0.799999 -1.38564 2.5
      vertex -0.799999 -1.38564 -2.5
    endloop
  endfacet
  facet normal 0 1 -0
    outer loop
      vertex 0.799999 -1.38564 -2.5
      vertex -0.799999 -1.38564 2.5
      vertex 0.799999 -1.38564 2.5
    endloop
  endfacet
  facet normal 0 1 0
    outer loop
      vertex -0.799999 -1.38564 2.5
      vertex 0.799999 -1.38564 -2.5
      vertex -0.799999 -1.38564 -2.5
    endloop
  endfacet
  facet normal -0.866025 0.5 0
    outer loop
      vertex 0.799999 -1.38564 -2.5
      vertex 1.6 0 2.5
      vertex 1.6 0 -2.5
    endloop
  endfacet
  facet normal -0.866025 0.5 0
    outer loop
      vertex 1.6 0 2.5
      vertex 0.799999 -1.38564 -2.5
      vertex 0.799999 -1.38564 2.5
    endloop
  endfacet
endsolid OpenSCAD_Model
