<svg xmlns="http://www.w3.org/2000/svg" version="1.1" width="432.7mm" height="412.7mm" viewBox = " 0 0 1533.190237 1462.3240369999999" >
<!-- Front--> 
<g transform="translate(22.5000185, 22.5000185) " > 
<polygon style="stroke:#000000; fill:none; stroke-width:0.90000074" points="13.464578, 0 79.724475, 0 79.724475, 13.464578 114.094582, 13.464578 114.094582, 39.330741 109.6654445, 39.330741 109.6654445, 48.18901600000001 114.094582, 48.18901600000001 114.094582, 57.047291 125.078843, 57.047291 125.078843, 48.18901600000001 129.5079805, 48.18901600000001 129.5079805, 39.330741 125.078843, 39.330741 125.078843, 13.464578 159.44895, 13.464578 159.44895, 0 216.14191, 0 216.14191, 13.464578 272.83487, 13.464578 272.83487, 0 329.52783, 0 329.52783, 13.464578 386.22078999999997, 13.464578 386.22078999999997, 0 442.91374999999994, 0 442.91374999999994, 13.464578 477.28385699999995, 13.464578 477.28385699999995, 39.330741 472.85471949999993, 39.330741 472.85471949999993, 48.18901600000001 477.28385699999995, 48.18901600000001 477.28385699999995, 57.047291 488.2681179999999, 57.047291 488.2681179999999, 48.18901600000001 492.6972554999999, 48.18901600000001 492.6972554999999, 39.330741 488.2681179999999, 39.330741 488.2681179999999, 13.464578 522.6382249999999, 13.464578 522.6382249999999, 0 588.8981220000001, 0 588.8981220000001, 77.95282 602.3627, 77.95282 602.3627, 110.37410650000001 589.2524530000001, 110.37410650000001 589.2524530000001, 123.4843535 602.3627, 123.4843535 602.3627, 155.90564 588.8981220000001, 155.90564 588.8981220000001, 212.5986 602.3627, 212.5986 602.3627, 269.29156 588.8981220000001, 269.29156 588.8981220000001, 325.98452 602.3627, 325.98452 602.3627, 382.67748 588.8981220000001, 382.67748 588.8981220000001, 439.37044 602.3627, 439.37044 602.3627, 496.0634 588.8981220000001, 496.0634 588.8981220000001, 552.7563600000001 602.3627, 552.7563600000001 602.3627, 585.1776465 589.2524530000001, 585.1776465 589.2524530000001, 598.2878935000001 602.3627, 598.2878935000001 602.3627, 630.7091800000001 588.8981220000001, 630.7091800000001 588.898122, 708.662 522.6382249999999, 708.662 522.6382249999999, 695.1974220000001 488.2681179999999, 695.1974220000001 488.2681179999999, 669.331259 492.6972554999999, 669.331259 492.6972554999999, 660.4729840000001 488.2681179999999, 660.4729840000001 488.2681179999999, 651.6147090000001 477.28385699999995, 651.6147090000001 477.28385699999995, 660.4729840000001 472.85471949999993, 660.4729840000001 472.85471949999993, 669.331259 477.28385699999995, 669.331259 477.28385699999995, 695.1974220000001 442.91374999999994, 695.1974220000001 442.91374999999994, 708.662 386.22078999999997, 708.662 386.22078999999997, 695.1974220000001 329.52783, 695.1974220000001 329.52783, 708.662 272.83487, 708.662 272.83487, 695.1974220000001 216.14191, 695.1974220000001 216.14191, 708.662 159.44895, 708.662 159.44895, 695.1974220000001 125.078843, 695.1974220000001 125.078843, 669.331259 129.5079805, 669.331259 129.5079805, 660.4729840000001 125.078843, 660.4729840000001 125.078843, 651.6147090000001 114.094582, 651.6147090000001 114.094582, 660.4729840000001 109.6654445, 660.4729840000001 109.6654445, 669.331259 114.094582, 669.331259 114.094582, 695.1974220000001 79.724475, 695.1974220000001 79.724475, 708.662 13.464578, 708.662 13.464578, 630.7091800000001 0, 630.7091800000001 0, 598.2878935000001 13.110247000000001, 598.2878935000001 13.110247000000001, 585.1776465 0, 585.1776465 0, 552.7563600000001 13.464578, 552.7563600000001 13.464578, 496.0634 0, 496.0634 0, 439.37044 13.464578, 439.37044 13.464578, 382.67748 0, 382.67748 0, 325.98452 13.464578, 325.98452 13.464578, 269.29156 0, 269.29156 0, 212.5986 13.464578, 212.5986 13.464578, 155.90564 0, 155.90564 0, 123.4843535 13.110247000000001, 123.4843535 13.110247000000001, 110.37410650000001 0, 110.37410650000001 0, 77.95282 13.464578, 77.95282 "/> 
 
 <g transform="scale(0.02197267431640625)" ><g transform="translate(-2423.5,819)" ><path transform="translate(13707.08661417323, 16125.984251968506)rotate(180) scale(-1, 1)" stroke-width="0" fill="#000000" d="M827 1331c-160.667 0 -287.498 -53.501 -380.498 -160.501s-139.5 -253.5 -139.5 -439.5c0 -191.333 44.833 -339.166 134.5 -443.499s217.5 -156.5 383.5 -156.5c102 0 218.333 18.333 349 55v-149c-101.333 -38 -226.333 -57 -375 -57 c-215.333 0 -381.5 65.333 -498.5 196s-175.5 316.334 -175.5 557.001c0 150.667 28.167 282.667 84.5 396s137.666 200.666 243.999 261.999s231.5 92 375.5 92c153.333 0 287.333 -28 402 -84l-72 -146c-110.667 52 -221.334 78 -332.001 78z"/>
<path transform="translate(14999.08661417323, 16125.984251968506)rotate(180) scale(-1, 1)" stroke-width="0" fill="#000000" d="M1305 1462v-946.001c0 -166.667 -50.333 -297.667 -151 -393s-239 -143 -415 -143s-312.167 48 -408.5 144s-144.5 228 -144.5 396v942h170v-954c0 -122 33.333 -215.667 100 -281s164.667 -98 294 -98c123.333 0 218.333 32.833 285 98.5s100 159.834 100 282.501v952 h170z"/>
<path transform="translate(16490.08661417323, 16125.984251968506)rotate(180) scale(-1, 1)" stroke-width="0" fill="#000000" d="M1368 745c0 -241.333 -65.5 -425.833 -196.5 -553.5s-319.5 -191.5 -565.5 -191.5h-405v1462h448c227.333 0 404 -63 530 -189s189 -302 189 -528zM1188 739c0 190.667 -47.832 334.333 -143.499 431s-237.834 145 -426.501 145h-247v-1168h207 c202.667 0 355 49.833 457 149.5s153 247.167 153 442.5z"/>
<path transform="translate(17983.08661417323, 16125.984251968506)rotate(180) scale(-1, 1)" stroke-width="0" fill="#000000" d="M201 0v1462h170v-1462h-170z"/>
</g></g> 
</g>
<!-- Back--> 
<g transform="translate(624.8627185, 22.5000185) " > 
<polygon style="stroke:#000000; fill:none; stroke-width:0.90000074" points="13.464578, 0 79.724475, 0 79.724475, 13.464578 114.094582, 13.464578 114.094582, 39.330741 109.6654445, 39.330741 109.6654445, 48.18901600000001 114.094582, 48.18901600000001 114.094582, 57.047291 125.078843, 57.047291 125.078843, 48.18901600000001 129.5079805, 48.18901600000001 129.5079805, 39.330741 125.078843, 39.330741 125.078843, 13.464578 159.44895, 13.464578 159.44895, 0 216.14191, 0 216.14191, 13.464578 272.83487, 13.464578 272.83487, 0 329.52783, 0 329.52783, 13.464578 386.22078999999997, 13.464578 386.22078999999997, 0 442.91374999999994, 0 442.91374999999994, 13.464578 477.28385699999995, 13.464578 477.28385699999995, 39.330741 472.85471949999993, 39.330741 472.85471949999993, 48.18901600000001 477.28385699999995, 48.18901600000001 477.28385699999995, 57.047291 488.2681179999999, 57.047291 488.2681179999999, 48.18901600000001 492.6972554999999, 48.18901600000001 492.6972554999999, 39.330741 488.2681179999999, 39.330741 488.2681179999999, 13.464578 522.6382249999999, 13.464578 522.6382249999999, 0 588.8981220000001, 0 588.8981220000001, 77.95282 602.3627, 77.95282 602.3627, 110.37410650000001 589.2524530000001, 110.37410650000001 589.2524530000001, 123.4843535 602.3627, 123.4843535 602.3627, 155.90564 588.8981220000001, 155.90564 588.8981220000001, 212.5986 602.3627, 212.5986 602.3627, 269.29156 588.8981220000001, 269.29156 588.8981220000001, 325.98452 602.3627, 325.98452 602.3627, 382.67748 588.8981220000001, 382.67748 588.8981220000001, 439.37044 602.3627, 439.37044 602.3627, 496.0634 588.8981220000001, 496.0634 588.8981220000001, 552.7563600000001 602.3627, 552.7563600000001 602.3627, 585.1776465 589.2524530000001, 585.1776465 589.2524530000001, 598.2878935000001 602.3627, 598.2878935000001 602.3627, 630.7091800000001 588.8981220000001, 630.7091800000001 588.898122, 708.662 522.6382249999999, 708.662 522.6382249999999, 695.1974220000001 488.2681179999999, 695.1974220000001 488.2681179999999, 669.331259 492.6972554999999, 669.331259 492.6972554999999, 660.4729840000001 488.2681179999999, 660.4729840000001 488.2681179999999, 651.6147090000001 477.28385699999995, 651.6147090000001 477.28385699999995, 660.4729840000001 472.85471949999993, 660.4729840000001 472.85471949999993, 669.331259 477.28385699999995, 669.331259 477.28385699999995, 695.1974220000001 442.91374999999994, 695.1974220000001 442.91374999999994, 708.662 386.22078999999997, 708.662 386.22078999999997, 695.1974220000001 329.52783, 695.1974220000001 329.52783, 708.662 272.83487, 708.662 272.83487, 695.1974220000001 216.14191, 695.1974220000001 216.14191, 708.662 159.44895, 708.662 159.44895, 695.1974220000001 125.078843, 695.1974220000001 125.078843, 669.331259 129.5079805, 669.331259 129.5079805, 660.4729840000001 125.078843, 660.4729840000001 125.078843, 651.6147090000001 114.094582, 651.6147090000001 114.094582, 660.4729840000001 109.6654445, 660.4729840000001 109.6654445, 669.331259 114.094582, 669.331259 114.094582, 695.1974220000001 79.724475, 695.1974220000001 79.724475, 708.662 13.464578, 708.662 13.464578, 630.7091800000001 0, 630.7091800000001 0, 598.2878935000001 13.110247000000001, 598.2878935000001 13.110247000000001, 585.1776465 0, 585.1776465 0, 552.7563600000001 13.464578, 552.7563600000001 13.464578, 496.0634 0, 496.0634 0, 439.37044 13.464578, 439.37044 13.464578, 382.67748 0, 382.67748 0, 325.98452 13.464578, 325.98452 13.464578, 269.29156 0, 269.29156 0, 212.5986 13.464578, 212.5986 13.464578, 155.90564 0, 155.90564 0, 123.4843535 13.110247000000001, 123.4843535 13.110247000000001, 110.37410650000001 0, 110.37410650000001 0, 77.95282 13.464578, 77.95282 "/> 
</g>
<!-- Left--> 
<g transform="translate(1227.2254185000002, 22.5000185) " > 
<polygon style="stroke:#000000; fill:none; stroke-width:0.90000074" points="0, 13.464578 56.69296, 13.464578 56.69296, 0 113.38592, 0 113.38592, 13.464578 136.24026949999998, 13.464578 136.24026949999998, 39.330741 131.811132, 39.330741 131.811132, 48.18901600000001 136.24026949999998, 48.18901600000001 136.24026949999998, 57.047291 147.2245305, 57.047291 147.2245305, 48.18901600000001 151.65366799999998, 48.18901600000001 151.65366799999998, 39.330741 147.2245305, 39.330741 147.2245305, 13.464578 170.07888, 13.464578 170.07888, 0 226.77184, 0 226.77184, 13.464578 283.46479999999997, 13.464578 283.46479999999997, 77.95282 270.00022199999995, 77.95282 270.00022199999995, 111.4370995 244.13405899999995, 111.4370995 244.13405899999995, 107.007962 235.27578399999993, 107.007962 235.27578399999993, 111.4370995 226.41750899999994, 111.4370995 226.41750899999994, 122.4213605 235.27578399999993, 122.4213605 235.27578399999993, 126.850498 244.13405899999995, 126.850498 244.13405899999995, 122.4213605 270.00022199999995, 122.4213605 270.00022199999995, 155.90564 283.46479999999997, 155.90564 283.46479999999997, 212.5986 270.00022199999995, 212.5986 270.00022199999995, 269.29156 283.46479999999997, 269.29156 283.46479999999997, 325.98452 270.00022199999995, 325.98452 270.00022199999995, 382.67748 283.46479999999997, 382.67748 283.46479999999997, 439.37044 270.00022199999995, 439.37044 270.00022199999995, 496.0634 283.46479999999997, 496.0634 283.46479999999997, 552.7563600000001 270.00022199999995, 552.7563600000001 270.00022199999995, 586.2406395 244.13405899999995, 586.2406395 244.13405899999995, 581.811502 235.27578399999993, 581.811502 235.27578399999993, 586.2406395 226.41750899999994, 586.2406395 226.41750899999994, 597.2249005000001 235.27578399999993, 597.2249005000001 235.27578399999993, 601.6540380000001 244.13405899999995, 601.6540380000001 244.13405899999995, 597.2249005000001 270.00022199999995, 597.2249005000001 270.00022199999995, 630.7091800000001 283.46479999999997, 630.7091800000001 283.46479999999997, 695.1974220000001 226.77184, 695.1974220000001 226.77184, 708.662 170.07888, 708.662 170.07888, 695.1974220000001 147.2245305, 695.1974220000001 147.2245305, 669.331259 151.65366799999998, 669.331259 151.65366799999998, 660.4729840000001 147.2245305, 660.4729840000001 147.2245305, 651.6147090000001 136.24026949999998, 651.6147090000001 136.24026949999998, 660.4729840000001 131.811132, 660.4729840000001 131.811132, 669.331259 136.24026949999998, 669.331259 136.24026949999998, 695.1974220000001 113.38592, 695.1974220000001 113.38592, 708.662 56.69296, 708.662 56.69296, 695.1974220000001 0, 695.1974220000001 0, 630.7091800000001 13.464578, 630.7091800000001 13.464578, 597.2249005000001 39.330741, 597.2249005000001 39.330741, 601.6540380000001 48.18901600000001, 601.6540380000001 48.18901600000001, 597.2249005000001 57.047291, 597.2249005000001 57.047291, 586.2406395 48.18901600000001, 586.2406395 48.18901600000001, 581.811502 39.330741, 581.811502 39.330741, 586.2406395 13.464578, 586.2406395 13.464578, 552.7563600000001 0, 552.7563600000001 0, 496.0634 13.464578, 496.0634 13.464578, 439.37044 0, 439.37044 0, 382.67748 13.464578, 382.67748 13.464578, 325.98452 0, 325.98452 0, 269.29156 13.464578, 269.29156 13.464578, 212.5986 0, 212.5986 0, 155.90564 13.464578, 155.90564 13.464578, 122.4213605 39.330741, 122.4213605 39.330741, 126.850498 48.18901600000001, 126.850498 48.18901600000001, 122.4213605 57.047291, 122.4213605 57.047291, 111.4370995 48.18901600000001, 111.4370995 48.18901600000001, 107.007962 39.330741, 107.007962 39.330741, 111.4370995 13.464578, 111.4370995 13.464578, 77.95282 0, 77.95282 "/> 
</g>
<!-- Right--> 
<g transform="translate(1227.2254185000002, 731.1620184999999) " > 
<polygon style="stroke:#000000; fill:none; stroke-width:0.90000074" points="0, 13.464578 56.69296, 13.464578 56.69296, 0 113.38592, 0 113.38592, 13.464578 136.24026949999998, 13.464578 136.24026949999998, 39.330741 131.811132, 39.330741 131.811132, 48.18901600000001 136.24026949999998, 48.18901600000001 136.24026949999998, 57.047291 147.2245305, 57.047291 147.2245305, 48.18901600000001 151.65366799999998, 48.18901600000001 151.65366799999998, 39.330741 147.2245305, 39.330741 147.2245305, 13.464578 170.07888, 13.464578 170.07888, 0 226.77184, 0 226.77184, 13.464578 283.46479999999997, 13.464578 283.46479999999997, 77.95282 270.00022199999995, 77.95282 270.00022199999995, 111.4370995 244.13405899999995, 111.4370995 244.13405899999995, 107.007962 235.27578399999993, 107.007962 235.27578399999993, 111.4370995 226.41750899999994, 111.4370995 226.41750899999994, 122.4213605 235.27578399999993, 122.4213605 235.27578399999993, 126.850498 244.13405899999995, 126.850498 244.13405899999995, 122.4213605 270.00022199999995, 122.4213605 270.00022199999995, 155.90564 283.46479999999997, 155.90564 283.46479999999997, 212.5986 270.00022199999995, 212.5986 270.00022199999995, 269.29156 283.46479999999997, 269.29156 283.46479999999997, 325.98452 270.00022199999995, 325.98452 270.00022199999995, 382.67748 283.46479999999997, 382.67748 283.46479999999997, 439.37044 270.00022199999995, 439.37044 270.00022199999995, 496.0634 283.46479999999997, 496.0634 283.46479999999997, 552.7563600000001 270.00022199999995, 552.7563600000001 270.00022199999995, 586.2406395 244.13405899999995, 586.2406395 244.13405899999995, 581.811502 235.27578399999993, 581.811502 235.27578399999993, 586.2406395 226.41750899999994, 586.2406395 226.41750899999994, 597.2249005000001 235.27578399999993, 597.2249005000001 235.27578399999993, 601.6540380000001 244.13405899999995, 601.6540380000001 244.13405899999995, 597.2249005000001 270.00022199999995, 597.2249005000001 270.00022199999995, 630.7091800000001 283.46479999999997, 630.7091800000001 283.46479999999997, 695.1974220000001 226.77184, 695.1974220000001 226.77184, 708.662 170.07888, 708.662 170.07888, 695.1974220000001 147.2245305, 695.1974220000001 147.2245305, 669.331259 151.65366799999998, 669.331259 151.65366799999998, 660.4729840000001 147.2245305, 660.4729840000001 147.2245305, 651.6147090000001 136.24026949999998, 651.6147090000001 136.24026949999998, 660.4729840000001 131.811132, 660.4729840000001 131.811132, 669.331259 136.24026949999998, 669.331259 136.24026949999998, 695.1974220000001 113.38592, 695.1974220000001 113.38592, 708.662 56.69296, 708.662 56.69296, 695.1974220000001 0, 695.1974220000001 0, 630.7091800000001 13.464578, 630.7091800000001 13.464578, 597.2249005000001 39.330741, 597.2249005000001 39.330741, 601.6540380000001 48.18901600000001, 601.6540380000001 48.18901600000001, 597.2249005000001 57.047291, 597.2249005000001 57.047291, 586.2406395 48.18901600000001, 586.2406395 48.18901600000001, 581.811502 39.330741, 581.811502 39.330741, 586.2406395 13.464578, 586.2406395 13.464578, 552.7563600000001 0, 552.7563600000001 0, 496.0634 13.464578, 496.0634 13.464578, 439.37044 0, 439.37044 0, 382.67748 13.464578, 382.67748 13.464578, 325.98452 0, 325.98452 0, 269.29156 13.464578, 269.29156 13.464578, 212.5986 0, 212.5986 0, 155.90564 13.464578, 155.90564 13.464578, 122.4213605 39.330741, 122.4213605 39.330741, 126.850498 48.18901600000001, 126.850498 48.18901600000001, 122.4213605 57.047291, 122.4213605 57.047291, 111.4370995 48.18901600000001, 111.4370995 48.18901600000001, 107.007962 39.330741, 107.007962 39.330741, 111.4370995 13.464578, 111.4370995 13.464578, 77.95282 0, 77.95282 "/> 
</g>
<!-- Top--> 
<g transform="translate(22.5000185, 731.1620184999999) " > 
<polygon style="stroke:#000000; fill:none; stroke-width:0.90000074" points="0, 13.464578 79.724475, 13.464578 79.724475, 0 113.031589, 0 113.031589, 13.110247000000001 126.14183600000001, 13.110247000000001 126.14183600000001, 0 159.44895, 0 159.44895, 13.464578 216.14191, 13.464578 216.14191, 0 272.83487, 0 272.83487, 13.464578 329.52783, 13.464578 329.52783, 0 386.22078999999997, 0 386.22078999999997, 13.464578 442.91374999999994, 13.464578 442.91374999999994, 0 476.22086399999995, 0 476.22086399999995, 13.110247000000001 489.3311109999999, 13.110247000000001 489.3311109999999, 0 522.6382249999999, 0 522.6382249999999, 13.464578 602.3627, 13.464578 602.3627, 56.69296 588.8981220000001, 56.69296 588.8981220000001, 113.38592 602.3627, 113.38592 602.3627, 135.17727649999998 589.2524530000001, 135.17727649999998 589.2524530000001, 148.2875235 602.3627, 148.2875235 602.3627, 170.07888 588.8981220000001, 170.07888 588.8981220000001, 226.77184 602.3627, 226.77184 602.3626999999999, 270.00022199999995 522.6382249999999, 270.00022199999995 522.6382249999999, 283.46479999999997 489.3311109999999, 283.46479999999997 489.3311109999999, 270.35455299999995 476.22086399999995, 270.35455299999995 476.22086399999995, 283.46479999999997 442.91374999999994, 283.46479999999997 442.91374999999994, 270.00022199999995 386.22078999999997, 270.00022199999995 386.22078999999997, 283.46479999999997 329.52783, 283.46479999999997 329.52783, 270.00022199999995 272.83487, 270.00022199999995 272.83487, 283.46479999999997 216.14191, 283.46479999999997 216.14191, 270.00022199999995 159.44895, 270.00022199999995 159.44895, 283.46479999999997 126.14183600000001, 283.46479999999997 126.14183600000001, 270.35455299999995 113.031589, 270.35455299999995 113.031589, 283.46479999999997 79.724475, 283.46479999999997 79.724475, 270.00022199999995 0, 270.00022199999995 0, 226.77184 13.464578, 226.77184 13.464578, 170.07888 0, 170.07888 0, 148.2875235 13.110247000000001, 148.2875235 13.110247000000001, 135.17727649999998 0, 135.17727649999998 0, 113.38592 13.464578, 113.38592 13.464578, 56.69296 0, 56.69296 "/> 
 <circle cx="301.18135" cy="141.73239999999998" r="70.86619999999999" style="stroke:#000000;stroke-width:0.90000074;fill:none" /> 
</g>
<!-- Bottom--> 
<g transform="translate(624.8627185, 731.1620184999999) " > 
<polygon style="stroke:#000000; fill:none; stroke-width:0.90000074" points="0, 13.464578 79.724475, 13.464578 79.724475, 0 113.031589, 0 113.031589, 13.110247000000001 126.14183600000001, 13.110247000000001 126.14183600000001, 0 159.44895, 0 159.44895, 13.464578 216.14191, 13.464578 216.14191, 0 272.83487, 0 272.83487, 13.464578 329.52783, 13.464578 329.52783, 0 386.22078999999997, 0 386.22078999999997, 13.464578 442.91374999999994, 13.464578 442.91374999999994, 0 476.22086399999995, 0 476.22086399999995, 13.110247000000001 489.3311109999999, 13.110247000000001 489.3311109999999, 0 522.6382249999999, 0 522.6382249999999, 13.464578 602.3627, 13.464578 602.3627, 56.69296 588.8981220000001, 56.69296 588.8981220000001, 113.38592 602.3627, 113.38592 602.3627, 135.17727649999998 589.2524530000001, 135.17727649999998 589.2524530000001, 148.2875235 602.3627, 148.2875235 602.3627, 170.07888 588.8981220000001, 170.07888 588.8981220000001, 226.77184 602.3627, 226.77184 602.3626999999999, 270.00022199999995 522.6382249999999, 270.00022199999995 522.6382249999999, 283.46479999999997 489.3311109999999, 283.46479999999997 489.3311109999999, 270.35455299999995 476.22086399999995, 270.35455299999995 476.22086399999995, 283.46479999999997 442.91374999999994, 283.46479999999997 442.91374999999994, 270.00022199999995 386.22078999999997, 270.00022199999995 386.22078999999997, 283.46479999999997 329.52783, 283.46479999999997 329.52783, 270.00022199999995 272.83487, 270.00022199999995 272.83487, 283.46479999999997 216.14191, 283.46479999999997 216.14191, 270.00022199999995 159.44895, 270.00022199999995 159.44895, 283.46479999999997 126.14183600000001, 283.46479999999997 126.14183600000001, 270.35455299999995 113.031589, 270.35455299999995 113.031589, 283.46479999999997 79.724475, 283.46479999999997 79.724475, 270.00022199999995 0, 270.00022199999995 0, 226.77184 13.464578, 226.77184 13.464578, 170.07888 0, 170.07888 0, 148.2875235 13.110247000000001, 148.2875235 13.110247000000001, 135.17727649999998 0, 135.17727649999998 0, 113.38592 13.464578, 113.38592 13.464578, 56.69296 0, 56.69296 "/> 
 <circle cx="301.18135" cy="141.73239999999998" r="70.86619999999999" style="stroke:#000000;stroke-width:0.90000074;fill:none" /> 
</g></svg>