solid CATIA STL
  facet normal  0.000000e+000  -0.000000e+000 -1.000000e+000
    outer loop
      vertex -1.000000e+002 -5.773503e+001  0.000000e+000
      vertex  8.267949e+001 -4.773503e+001  0.000000e+000
      vertex  1.000000e+002 -5.773503e+001  0.000000e+000
    endloop
  endfacet
  facet normal  2.099062e-031 -3.834556e-030 -1.000000e+000
    outer loop
      vertex  8.267949e+001 -4.773503e+001  0.000000e+000
      vertex -1.000000e+002 -5.773503e+001  0.000000e+000
      vertex -8.267949e+001 -4.773503e+001 -3.470988e-029
    endloop
  endfacet
  facet normal -3.005963e-030  1.735493e-030 -9.999999e-001
    outer loop
      vertex -8.267949e+001 -4.773503e+001 -3.470988e-029
      vertex -1.000000e+002 -5.773503e+001  0.000000e+000
      vertex  0.000000e+000  1.154701e+002  0.000000e+000
    endloop
  endfacet
  facet normal  1.042681e-030 -3.155443e-031 -1.000000e+000
    outer loop
      vertex -8.267949e+001 -4.773503e+001 -3.470988e-029
      vertex  0.000000e+000  1.154701e+002  0.000000e+000
      vertex  4.263256e-014  9.547005e+001  6.310887e-030
    endloop
  endfacet
  facet normal -5.465389e-031 -3.155444e-031 -1.000000e+000
    outer loop
      vertex  4.263256e-014  9.547005e+001  6.310887e-030
      vertex  0.000000e+000  1.154701e+002  0.000000e+000
      vertex  1.000000e+002 -5.773503e+001  0.000000e+000
    endloop
  endfacet
  facet normal  3.816476e-032  6.610331e-032 -1.000000e+000
    outer loop
      vertex  4.263256e-014  9.547005e+001  6.310887e-030
      vertex  1.000000e+002 -5.773503e+001  0.000000e+000
      vertex  8.267949e+001 -4.773503e+001  0.000000e+000
    endloop
  endfacet
  facet normal  0.000000e+000  0.000000e+000  9.999999e-001
    outer loop
      vertex -8.763187e+001 -5.059429e+001  5.000000e+000
      vertex  8.763187e+001 -5.059429e+001  5.000000e+000
      vertex  8.267949e+001 -4.773503e+001  5.000000e+000
    endloop
  endfacet
  facet normal  0.000000e+000  0.000000e+000  9.999999e-001
    outer loop
      vertex -8.763187e+001 -5.059429e+001  5.000000e+000
      vertex  8.267949e+001 -4.773503e+001  5.000000e+000
      vertex -8.267949e+001 -4.773503e+001  5.000000e+000
    endloop
  endfacet
  facet normal  0.000000e+000  -0.000000e+000  1.000000e+000
    outer loop
      vertex -8.763187e+001 -5.059429e+001  5.000000e+000
      vertex -8.267949e+001 -4.773503e+001  5.000000e+000
      vertex  4.083683e-014  9.547005e+001  5.000000e+000
    endloop
  endfacet
  facet normal  0.000000e+000  -0.000000e+000  9.999999e-001
    outer loop
      vertex -8.763187e+001 -5.059429e+001  5.000000e+000
      vertex  4.083683e-014  9.547005e+001  5.000000e+000
      vertex  6.394885e-014  1.011886e+002  5.000000e+000
    endloop
  endfacet
  facet normal  0.000000e+000  0.000000e+000  1.000000e+000
    outer loop
      vertex  4.083683e-014  9.547005e+001  5.000000e+000
      vertex  8.267949e+001 -4.773503e+001  5.000000e+000
      vertex  6.394885e-014  1.011886e+002  5.000000e+000
    endloop
  endfacet
  facet normal  0.000000e+000  0.000000e+000  9.999999e-001
    outer loop
      vertex  6.394885e-014  1.011886e+002  5.000000e+000
      vertex  8.267949e+001 -4.773503e+001  5.000000e+000
      vertex  8.763187e+001 -5.059429e+001  5.000000e+000
    endloop
  endfacet
  facet normal  0.000000e+000  1.000000e+000  0.000000e+000
    outer loop
      vertex -8.267949e+001 -4.773503e+001  5.000000e+000
      vertex  8.267949e+001 -4.773503e+001  5.000000e+000
      vertex -8.267949e+001 -4.773503e+001 -3.470988e-029
    endloop
  endfacet
  facet normal  0.000000e+000  1.000000e+000  0.000000e+000
    outer loop
      vertex -8.267949e+001 -4.773503e+001 -3.470988e-029
      vertex  8.267949e+001 -4.773503e+001  5.000000e+000
      vertex  8.267949e+001 -4.773503e+001  0.000000e+000
    endloop
  endfacet
  facet normal -8.660254e-001 -5.000000e-001  0.000000e+000
    outer loop
      vertex  8.267949e+001 -4.773503e+001  5.000000e+000
      vertex  4.083683e-014  9.547005e+001  5.000000e+000
      vertex  8.267949e+001 -4.773503e+001  0.000000e+000
    endloop
  endfacet
  facet normal -8.660254e-001 -5.000000e-001  0.000000e+000
    outer loop
      vertex  8.267949e+001 -4.773503e+001  0.000000e+000
      vertex  4.083683e-014  9.547005e+001  5.000000e+000
      vertex  4.263256e-014  9.547005e+001  6.310887e-030
    endloop
  endfacet
  facet normal  8.660254e-001 -5.000000e-001  0.000000e+000
    outer loop
      vertex  4.083683e-014  9.547005e+001  5.000000e+000
      vertex -8.267949e+001 -4.773503e+001  5.000000e+000
      vertex  4.263256e-014  9.547005e+001  6.310887e-030
    endloop
  endfacet
  facet normal  8.660254e-001 -5.000000e-001  0.000000e+000
    outer loop
      vertex  4.263256e-014  9.547005e+001  6.310887e-030
      vertex -8.267949e+001 -4.773503e+001  5.000000e+000
      vertex -8.267949e+001 -4.773503e+001 -3.470988e-029
    endloop
  endfacet
  facet normal -7.777059e-008 -9.396927e-001  3.420202e-001
    outer loop
      vertex  4.973799e-014 -7.105427e-015  1.586257e+002
      vertex -1.000000e+002 -5.773503e+001  0.000000e+000
      vertex -8.596246e+001 -5.499887e+001  7.517541e+000
    endloop
  endfacet
  facet normal  3.618812e-007 -9.396926e-001  3.420201e-001
    outer loop
      vertex  4.973799e-014 -7.105427e-015  1.586257e+002
      vertex -8.596246e+001 -5.499887e+001  7.517541e+000
      vertex -1.421085e-014 -5.368418e+000  1.438761e+002
    endloop
  endfacet
  facet normal -4.975870e-007 -9.396927e-001  3.420199e-001
    outer loop
      vertex  4.973799e-014 -7.105427e-015  1.586257e+002
      vertex -1.421085e-014 -5.368418e+000  1.438761e+002
      vertex  8.596246e+001 -5.499887e+001  7.517541e+000
    endloop
  endfacet
  facet normal  9.721323e-008 -9.396927e-001  3.420202e-001
    outer loop
      vertex  4.973799e-014 -7.105427e-015  1.586257e+002
      vertex  8.596246e+001 -5.499887e+001  7.517541e+000
      vertex  1.000000e+002 -5.773503e+001  0.000000e+000
    endloop
  endfacet
  facet normal  0.000000e+000 -9.396927e-001  3.420201e-001
    outer loop
      vertex -1.000000e+002 -5.773503e+001  0.000000e+000
      vertex  1.000000e+002 -5.773503e+001  0.000000e+000
      vertex -8.596246e+001 -5.499887e+001  7.517541e+000
    endloop
  endfacet
  facet normal  0.000000e+000 -9.396927e-001  3.420201e-001
    outer loop
      vertex -8.596246e+001 -5.499887e+001  7.517541e+000
      vertex  1.000000e+002 -5.773503e+001  0.000000e+000
      vertex  8.596246e+001 -5.499887e+001  7.517541e+000
    endloop
  endfacet
  facet normal  4.444614e-008  9.396926e-001 -3.420201e-001
    outer loop
      vertex  4.263256e-014 -1.421085e-014  1.440067e+002
      vertex  8.763187e+001 -5.059429e+001  5.000000e+000
      vertex  8.596246e+001 -5.030040e+001  5.807440e+000
    endloop
  endfacet
  facet normal  2.899784e-006  9.396924e-001 -3.420208e-001
    outer loop
      vertex  4.263256e-014 -1.421085e-014  1.440067e+002
      vertex  8.596246e+001 -5.030040e+001  5.807440e+000
      vertex -9.394704e-013 -6.699548e-001  1.421660e+002
    endloop
  endfacet
  facet normal -3.670032e-006  9.396934e-001 -3.420181e-001
    outer loop
      vertex  4.263256e-014 -1.421085e-014  1.440067e+002
      vertex -9.394704e-013 -6.699548e-001  1.421660e+002
      vertex -8.596246e+001 -5.030040e+001  5.807440e+000
    endloop
  endfacet
  facet normal -6.666920e-008  9.396926e-001 -3.420201e-001
    outer loop
      vertex  4.263256e-014 -1.421085e-014  1.440067e+002
      vertex -8.596246e+001 -5.030040e+001  5.807440e+000
      vertex -8.763187e+001 -5.059429e+001  5.000000e+000
    endloop
  endfacet
  facet normal  0.000000e+000  9.396926e-001 -3.420202e-001
    outer loop
      vertex -8.763187e+001 -5.059429e+001  5.000000e+000
      vertex -8.596246e+001 -5.030040e+001  5.807440e+000
      vertex  8.763187e+001 -5.059429e+001  5.000000e+000
    endloop
  endfacet
  facet normal  0.000000e+000  9.396926e-001 -3.420202e-001
    outer loop
      vertex  8.763187e+001 -5.059429e+001  5.000000e+000
      vertex -8.596246e+001 -5.030040e+001  5.807440e+000
      vertex  8.596246e+001 -5.030040e+001  5.807440e+000
    endloop
  endfacet
  facet normal -8.603658e-001 -1.743193e-001 -4.789400e-001
    outer loop
      vertex -9.394704e-013 -6.699548e-001  1.421660e+002
      vertex  8.596246e+001 -5.030040e+001  5.807440e+000
      vertex -1.421085e-014 -5.368418e+000  1.438761e+002
    endloop
  endfacet
  facet normal -8.603656e-001 -1.743214e-001 -4.789395e-001
    outer loop
      vertex -1.421085e-014 -5.368418e+000  1.438761e+002
      vertex  8.596246e+001 -5.030040e+001  5.807440e+000
      vertex  8.596246e+001 -5.499887e+001  7.517541e+000
    endloop
  endfacet
  facet normal  -0.000000e+000  3.420201e-001  9.396926e-001
    outer loop
      vertex  8.596246e+001 -5.030040e+001  5.807440e+000
      vertex -8.596246e+001 -5.030040e+001  5.807440e+000
      vertex  8.596246e+001 -5.499887e+001  7.517541e+000
    endloop
  endfacet
  facet normal  0.000000e+000  3.420201e-001  9.396926e-001
    outer loop
      vertex  8.596246e+001 -5.499887e+001  7.517541e+000
      vertex -8.596246e+001 -5.030040e+001  5.807440e+000
      vertex -8.596246e+001 -5.499887e+001  7.517541e+000
    endloop
  endfacet
  facet normal  8.603655e-001 -1.743214e-001 -4.789397e-001
    outer loop
      vertex -8.596246e+001 -5.030040e+001  5.807440e+000
      vertex -9.394704e-013 -6.699548e-001  1.421660e+002
      vertex -8.596246e+001 -5.499887e+001  7.517541e+000
    endloop
  endfacet
  facet normal  8.603655e-001 -1.743193e-001 -4.789404e-001
    outer loop
      vertex -8.596246e+001 -5.499887e+001  7.517541e+000
      vertex -9.394704e-013 -6.699548e-001  1.421660e+002
      vertex -1.421085e-014 -5.368418e+000  1.438761e+002
    endloop
  endfacet
  facet normal -8.137977e-001  4.698463e-001  3.420201e-001
    outer loop
      vertex  4.973799e-014 -7.105427e-015  1.586257e+002
      vertex  0.000000e+000  1.154701e+002  0.000000e+000
      vertex -4.649186e+000  1.019451e+002  7.517541e+000
    endloop
  endfacet
  facet normal -8.137978e-001  4.698461e-001  3.420200e-001
    outer loop
      vertex  4.973799e-014 -7.105427e-015  1.586257e+002
      vertex -4.649186e+000  1.019451e+002  7.517541e+000
      vertex -4.649186e+000  2.684209e+000  1.438761e+002
    endloop
  endfacet
  facet normal -8.137975e-001  4.698468e-001  3.420199e-001
    outer loop
      vertex  4.973799e-014 -7.105427e-015  1.586257e+002
      vertex -4.649186e+000  2.684209e+000  1.438761e+002
      vertex -9.061164e+001 -4.694624e+001  7.517541e+000
    endloop
  endfacet
  facet normal -8.137977e-001  4.698466e-001  3.420201e-001
    outer loop
      vertex  4.973799e-014 -7.105427e-015  1.586257e+002
      vertex -9.061164e+001 -4.694624e+001  7.517541e+000
      vertex -1.000000e+002 -5.773503e+001  0.000000e+000
    endloop
  endfacet
  facet normal -8.137975e-001  4.698462e-001  3.420208e-001
    outer loop
      vertex  0.000000e+000  1.154701e+002  0.000000e+000
      vertex -1.000000e+002 -5.773503e+001  0.000000e+000
      vertex -4.649186e+000  1.019451e+002  7.517541e+000
    endloop
  endfacet
  facet normal -8.137975e-001  4.698462e-001  3.420207e-001
    outer loop
      vertex -4.649186e+000  1.019451e+002  7.517541e+000
      vertex -1.000000e+002 -5.773503e+001  0.000000e+000
      vertex -9.061164e+001 -4.694624e+001  7.517541e+000
    endloop
  endfacet
  facet normal  8.137982e-001 -4.698448e-001 -3.420210e-001
    outer loop
      vertex  4.263256e-014 -1.421085e-014  1.440067e+002
      vertex -8.763187e+001 -5.059429e+001  5.000000e+000
      vertex -8.654266e+001 -4.929547e+001  5.807440e+000
    endloop
  endfacet
  facet normal  8.137968e-001 -4.698470e-001 -3.420214e-001
    outer loop
      vertex  4.263256e-014 -1.421085e-014  1.440067e+002
      vertex -8.654266e+001 -4.929547e+001  5.807440e+000
      vertex -5.801979e-001  3.349774e-001  1.421660e+002
    endloop
  endfacet
  facet normal  8.138002e-001 -4.698435e-001 -3.420181e-001
    outer loop
      vertex  4.263256e-014 -1.421085e-014  1.440067e+002
      vertex -5.801979e-001  3.349774e-001  1.421660e+002
      vertex -5.801979e-001  9.959587e+001  5.807440e+000
    endloop
  endfacet
  facet normal  8.137989e-001 -4.698451e-001 -3.420192e-001
    outer loop
      vertex  4.263256e-014 -1.421085e-014  1.440067e+002
      vertex -5.801979e-001  9.959587e+001  5.807440e+000
      vertex  6.394885e-014  1.011886e+002  5.000000e+000
    endloop
  endfacet
  facet normal  8.137971e-001 -4.698459e-001 -3.420222e-001
    outer loop
      vertex  6.394885e-014  1.011886e+002  5.000000e+000
      vertex -5.801979e-001  9.959587e+001  5.807440e+000
      vertex -8.763187e+001 -5.059429e+001  5.000000e+000
    endloop
  endfacet
  facet normal  8.137983e-001 -4.698466e-001 -3.420181e-001
    outer loop
      vertex -8.763187e+001 -5.059429e+001  5.000000e+000
      vertex -5.801979e-001  9.959587e+001  5.807440e+000
      vertex -8.654266e+001 -4.929547e+001  5.807440e+000
    endloop
  endfacet
  facet normal  2.961983e-001 -1.710102e-001  9.396925e-001
    outer loop
      vertex -8.654266e+001 -4.929547e+001  5.807440e+000
      vertex -5.801979e-001  9.959587e+001  5.807440e+000
      vertex -9.061164e+001 -4.694624e+001  7.517541e+000
    endloop
  endfacet
  facet normal  2.961983e-001 -1.710102e-001  9.396925e-001
    outer loop
      vertex -9.061164e+001 -4.694624e+001  7.517541e+000
      vertex -5.801979e-001  9.959587e+001  5.807440e+000
      vertex -4.649186e+000  1.019451e+002  7.517541e+000
    endloop
  endfacet
  facet normal -5.811492e-001 -6.579381e-001 -4.789397e-001
    outer loop
      vertex -5.801979e-001  9.959587e+001  5.807440e+000
      vertex -5.801979e-001  3.349774e-001  1.421660e+002
      vertex -4.649186e+000  1.019451e+002  7.517541e+000
    endloop
  endfacet
  facet normal -5.811484e-001 -6.579385e-001 -4.789401e-001
    outer loop
      vertex -4.649186e+000  1.019451e+002  7.517541e+000
      vertex -5.801979e-001  3.349774e-001  1.421660e+002
      vertex -4.649186e+000  2.684209e+000  1.438761e+002
    endloop
  endfacet
  facet normal  2.792178e-001  8.322582e-001 -4.789402e-001
    outer loop
      vertex -5.801979e-001  3.349774e-001  1.421660e+002
      vertex -8.654266e+001 -4.929547e+001  5.807440e+000
      vertex -4.649186e+000  2.684209e+000  1.438761e+002
    endloop
  endfacet
  facet normal  2.792162e-001  8.322592e-001 -4.789395e-001
    outer loop
      vertex -4.649186e+000  2.684209e+000  1.438761e+002
      vertex -8.654266e+001 -4.929547e+001  5.807440e+000
      vertex -9.061164e+001 -4.694624e+001  7.517541e+000
    endloop
  endfacet
  facet normal -8.137988e-001 -4.698451e-001 -3.420192e-001
    outer loop
      vertex  4.263256e-014 -1.421085e-014  1.440067e+002
      vertex  6.394885e-014  1.011886e+002  5.000000e+000
      vertex  5.801979e-001  9.959587e+001  5.807440e+000
    endloop
  endfacet
  facet normal -8.138000e-001 -4.698437e-001 -3.420183e-001
    outer loop
      vertex  4.263256e-014 -1.421085e-014  1.440067e+002
      vertex  5.801979e-001  9.959587e+001  5.807440e+000
      vertex  5.801979e-001  3.349774e-001  1.421660e+002
    endloop
  endfacet
  facet normal -8.137965e-001 -4.698499e-001 -3.420181e-001
    outer loop
      vertex  4.263256e-014 -1.421085e-014  1.440067e+002
      vertex  5.801979e-001  3.349774e-001  1.421660e+002
      vertex  8.654266e+001 -4.929547e+001  5.807440e+000
    endloop
  endfacet
  facet normal -8.137982e-001 -4.698448e-001 -3.420210e-001
    outer loop
      vertex  4.263256e-014 -1.421085e-014  1.440067e+002
      vertex  8.654266e+001 -4.929547e+001  5.807440e+000
      vertex  8.763187e+001 -5.059429e+001  5.000000e+000
    endloop
  endfacet
  facet normal -8.137984e-001 -4.698467e-001 -3.420181e-001
    outer loop
      vertex  8.763187e+001 -5.059429e+001  5.000000e+000
      vertex  8.654266e+001 -4.929547e+001  5.807440e+000
      vertex  6.394885e-014  1.011886e+002  5.000000e+000
    endloop
  endfacet
  facet normal -8.137971e-001 -4.698460e-001 -3.420222e-001
    outer loop
      vertex  6.394885e-014  1.011886e+002  5.000000e+000
      vertex  8.654266e+001 -4.929547e+001  5.807440e+000
      vertex  5.801979e-001  9.959587e+001  5.807440e+000
    endloop
  endfacet
  facet normal  8.137977e-001  4.698465e-001  3.420200e-001
    outer loop
      vertex  4.973799e-014 -7.105427e-015  1.586257e+002
      vertex  1.000000e+002 -5.773503e+001  0.000000e+000
      vertex  9.061164e+001 -4.694624e+001  7.517541e+000
    endloop
  endfacet
  facet normal  8.137974e-001  4.698472e-001  3.420197e-001
    outer loop
      vertex  4.973799e-014 -7.105427e-015  1.586257e+002
      vertex  9.061164e+001 -4.694624e+001  7.517541e+000
      vertex  4.649186e+000  2.684209e+000  1.438761e+002
    endloop
  endfacet
  facet normal  8.137980e-001  4.698459e-001  3.420199e-001
    outer loop
      vertex  4.973799e-014 -7.105427e-015  1.586257e+002
      vertex  4.649186e+000  2.684209e+000  1.438761e+002
      vertex  4.649186e+000  1.019451e+002  7.517541e+000
    endloop
  endfacet
  facet normal  8.137977e-001  4.698463e-001  3.420202e-001
    outer loop
      vertex  4.973799e-014 -7.105427e-015  1.586257e+002
      vertex  4.649186e+000  1.019451e+002  7.517541e+000
      vertex  0.000000e+000  1.154701e+002  0.000000e+000
    endloop
  endfacet
  facet normal  8.137977e-001  4.698463e-001  3.420202e-001
    outer loop
      vertex  1.000000e+002 -5.773503e+001  0.000000e+000
      vertex  0.000000e+000  1.154701e+002  0.000000e+000
      vertex  9.061164e+001 -4.694624e+001  7.517541e+000
    endloop
  endfacet
  facet normal  8.137977e-001  4.698463e-001  3.420200e-001
    outer loop
      vertex  9.061164e+001 -4.694624e+001  7.517541e+000
      vertex  0.000000e+000  1.154701e+002  0.000000e+000
      vertex  4.649186e+000  1.019451e+002  7.517541e+000
    endloop
  endfacet
  facet normal -2.961983e-001 -1.710102e-001  9.396925e-001
    outer loop
      vertex  5.801979e-001  9.959587e+001  5.807440e+000
      vertex  8.654266e+001 -4.929547e+001  5.807440e+000
      vertex  4.649186e+000  1.019451e+002  7.517541e+000
    endloop
  endfacet
  facet normal -2.961983e-001 -1.710102e-001  9.396925e-001
    outer loop
      vertex  4.649186e+000  1.019451e+002  7.517541e+000
      vertex  8.654266e+001 -4.929547e+001  5.807440e+000
      vertex  9.061164e+001 -4.694624e+001  7.517541e+000
    endloop
  endfacet
  facet normal -2.792167e-001  8.322589e-001 -4.789396e-001
    outer loop
      vertex  8.654266e+001 -4.929547e+001  5.807440e+000
      vertex  5.801979e-001  3.349774e-001  1.421660e+002
      vertex  9.061164e+001 -4.694624e+001  7.517541e+000
    endloop
  endfacet
  facet normal -2.792177e-001  8.322580e-001 -4.789405e-001
    outer loop
      vertex  9.061164e+001 -4.694624e+001  7.517541e+000
      vertex  5.801979e-001  3.349774e-001  1.421660e+002
      vertex  4.649186e+000  2.684209e+000  1.438761e+002
    endloop
  endfacet
  facet normal  5.811483e-001 -6.579385e-001 -4.789400e-001
    outer loop
      vertex  5.801979e-001  3.349774e-001  1.421660e+002
      vertex  5.801979e-001  9.959587e+001  5.807440e+000
      vertex  4.649186e+000  2.684209e+000  1.438761e+002
    endloop
  endfacet
  facet normal  5.811499e-001 -6.579376e-001 -4.789394e-001
    outer loop
      vertex  4.649186e+000  2.684209e+000  1.438761e+002
      vertex  5.801979e-001  9.959587e+001  5.807440e+000
      vertex  4.649186e+000  1.019451e+002  7.517541e+000
    endloop
  endfacet
endsolid CATIA STL
