solid OpenSCAD_Model
  facet normal -1 0 0
    outer loop
      vertex -8.5 -4.5 0
      vertex -8.5 -4.5 7.5
      vertex -8.5 4.5 0
    endloop
  endfacet
  facet normal -1 0 0
    outer loop
      vertex -8.5 4.5 0
      vertex -8.5 -4.5 7.5
      vertex -8.5 4.5 7.5
    endloop
  endfacet
  facet normal 0 -1 0
    outer loop
      vertex -4.125 -4.5 4.41747
      vertex -8.5 -4.5 0
      vertex 8.5 -4.5 0
    endloop
  endfacet
  facet normal 0 -1 0
    outer loop
      vertex -7.5 -4.5 15
      vertex -3.03109 -4.5 8.75
      vertex -3.38074 -4.5 9.59413
    endloop
  endfacet
  facet normal 0 -1 0
    outer loop
      vertex -4.75 -4.5 6.75
      vertex -4.125 -4.5 6.58253
      vertex 0 -4.5 7
    endloop
  endfacet
  facet normal 0 -1 0
    outer loop
      vertex 8.5 -4.5 7.5
      vertex 7.5 -4.5 7.5
      vertex 8.5 -4.5 0
    endloop
  endfacet
  facet normal 0 -1 0
    outer loop
      vertex -7.5 -4.5 15
      vertex -3.5 -4.5 10.5
      vertex -3.5 -4.5 15
    endloop
  endfacet
  facet normal 0 -1 0
    outer loop
      vertex 7.5 -4.5 15
      vertex 3.5 -4.5 10.5
      vertex 7.5 -4.5 7.5
    endloop
  endfacet
  facet normal 0 -1 0
    outer loop
      vertex 3.5 -4.5 10.5
      vertex 3.38074 -4.5 9.59413
      vertex 7.5 -4.5 7.5
    endloop
  endfacet
  facet normal 0 -1 0
    outer loop
      vertex 3.38074 -4.5 9.59413
      vertex 3.03109 -4.5 8.75
      vertex 7.5 -4.5 7.5
    endloop
  endfacet
  facet normal 0 -1 0
    outer loop
      vertex -5.83253 -4.5 6.125
      vertex -5.375 -4.5 6.58253
      vertex -8.5 -4.5 7.5
    endloop
  endfacet
  facet normal 0 -1 0
    outer loop
      vertex 3.03109 -4.5 8.75
      vertex 2.47487 -4.5 8.02513
      vertex 7.5 -4.5 7.5
    endloop
  endfacet
  facet normal 0 -1 0
    outer loop
      vertex 4.75 -4.5 6.75
      vertex 5.375 -4.5 6.58253
      vertex 7.5 -4.5 7.5
    endloop
  endfacet
  facet normal 0 -1 0
    outer loop
      vertex 4.125 -4.5 4.41747
      vertex 0.905867 -4.5 7.11926
      vertex 8.5 -4.5 0
    endloop
  endfacet
  facet normal 0 -1 0
    outer loop
      vertex 0.905867 -4.5 7.11926
      vertex 0 -4.5 7
      vertex 8.5 -4.5 0
    endloop
  endfacet
  facet normal 0 -1 0
    outer loop
      vertex -0.905867 -4.5 7.11926
      vertex -8.5 -4.5 7.5
      vertex 0 -4.5 7
    endloop
  endfacet
  facet normal 0 -1 0
    outer loop
      vertex -3.03109 -4.5 8.75
      vertex -7.5 -4.5 7.5
      vertex -2.47487 -4.5 8.02513
    endloop
  endfacet
  facet normal 0 -1 0
    outer loop
      vertex -7.5 -4.5 15
      vertex -3.38074 -4.5 9.59413
      vertex -3.5 -4.5 10.5
    endloop
  endfacet
  facet normal 0 -1 0
    outer loop
      vertex 2.47487 -4.5 8.02513
      vertex 1.75 -4.5 7.46891
      vertex 7.5 -4.5 7.5
    endloop
  endfacet
  facet normal 0 -1 0
    outer loop
      vertex -1.75 -4.5 7.46891
      vertex -7.5 -4.5 7.5
      vertex -8.5 -4.5 7.5
    endloop
  endfacet
  facet normal 0 -1 0
    outer loop
      vertex -3.66747 -4.5 4.875
      vertex -4.125 -4.5 4.41747
      vertex 8.5 -4.5 0
    endloop
  endfacet
  facet normal 0 -1 0
    outer loop
      vertex -0.905867 -4.5 7.11926
      vertex -1.75 -4.5 7.46891
      vertex -8.5 -4.5 7.5
    endloop
  endfacet
  facet normal 0 -1 0
    outer loop
      vertex -8.5 -4.5 7.5
      vertex -8.5 -4.5 0
      vertex -6 -4.5 5.5
    endloop
  endfacet
  facet normal 0 -1 0
    outer loop
      vertex 3.5 -4.5 5.5
      vertex 3.66747 -4.5 6.125
      vertex 1.75 -4.5 7.46891
    endloop
  endfacet
  facet normal 0 -1 0
    outer loop
      vertex -8.5 -4.5 7.5
      vertex -6 -4.5 5.5
      vertex -5.83253 -4.5 6.125
    endloop
  endfacet
  facet normal 0 -1 0
    outer loop
      vertex -3.5 -4.5 5.5
      vertex -3.66747 -4.5 4.875
      vertex 8.5 -4.5 0
    endloop
  endfacet
  facet normal 0 -1 0
    outer loop
      vertex -4.75 -4.5 6.75
      vertex -8.5 -4.5 7.5
      vertex -5.375 -4.5 6.58253
    endloop
  endfacet
  facet normal 0 -1 0
    outer loop
      vertex -3.66747 -4.5 6.125
      vertex -3.5 -4.5 5.5
      vertex 8.5 -4.5 0
    endloop
  endfacet
  facet normal 0 -1 0
    outer loop
      vertex 0 -4.5 7
      vertex -8.5 -4.5 7.5
      vertex -4.75 -4.5 6.75
    endloop
  endfacet
  facet normal 0 -1 0
    outer loop
      vertex 0 -4.5 7
      vertex -4.125 -4.5 6.58253
      vertex 8.5 -4.5 0
    endloop
  endfacet
  facet normal 0 -1 0
    outer loop
      vertex -4.125 -4.5 6.58253
      vertex -3.66747 -4.5 6.125
      vertex 8.5 -4.5 0
    endloop
  endfacet
  facet normal 0 -1 0
    outer loop
      vertex -4.75 -4.5 4.25
      vertex -8.5 -4.5 0
      vertex -4.125 -4.5 4.41747
    endloop
  endfacet
  facet normal 0 -1 0
    outer loop
      vertex -5.375 -4.5 4.41747
      vertex -8.5 -4.5 0
      vertex -4.75 -4.5 4.25
    endloop
  endfacet
  facet normal 0 -1 0
    outer loop
      vertex -5.83253 -4.5 4.875
      vertex -8.5 -4.5 0
      vertex -5.375 -4.5 4.41747
    endloop
  endfacet
  facet normal 0 -1 0
    outer loop
      vertex -6 -4.5 5.5
      vertex -8.5 -4.5 0
      vertex -5.83253 -4.5 4.875
    endloop
  endfacet
  facet normal 0 -1 0
    outer loop
      vertex 1.75 -4.5 7.46891
      vertex 0.905867 -4.5 7.11926
      vertex 3.5 -4.5 5.5
    endloop
  endfacet
  facet normal 0 -1 0
    outer loop
      vertex 4.75 -4.5 4.25
      vertex 4.125 -4.5 4.41747
      vertex 8.5 -4.5 0
    endloop
  endfacet
  facet normal 0 -1 0
    outer loop
      vertex 4.125 -4.5 6.58253
      vertex 1.75 -4.5 7.46891
      vertex 3.66747 -4.5 6.125
    endloop
  endfacet
  facet normal 0 -1 0
    outer loop
      vertex 7.5 -4.5 7.5
      vertex 1.75 -4.5 7.46891
      vertex 4.125 -4.5 6.58253
    endloop
  endfacet
  facet normal 0 -1 0
    outer loop
      vertex 6 -4.5 5.5
      vertex 5.83253 -4.5 4.875
      vertex 8.5 -4.5 0
    endloop
  endfacet
  facet normal 0 -1 0
    outer loop
      vertex 7.5 -4.5 7.5
      vertex 4.125 -4.5 6.58253
      vertex 4.75 -4.5 6.75
    endloop
  endfacet
  facet normal 0 -1 0
    outer loop
      vertex 5.375 -4.5 4.41747
      vertex 4.75 -4.5 4.25
      vertex 8.5 -4.5 0
    endloop
  endfacet
  facet normal 0 -1 0
    outer loop
      vertex 7.5 -4.5 7.5
      vertex 5.83253 -4.5 6.125
      vertex 8.5 -4.5 0
    endloop
  endfacet
  facet normal 0 -1 0
    outer loop
      vertex 7.5 -4.5 7.5
      vertex 5.375 -4.5 6.58253
      vertex 5.83253 -4.5 6.125
    endloop
  endfacet
  facet normal 0 -1 0
    outer loop
      vertex 5.83253 -4.5 6.125
      vertex 6 -4.5 5.5
      vertex 8.5 -4.5 0
    endloop
  endfacet
  facet normal 0 -1 0
    outer loop
      vertex 5.83253 -4.5 4.875
      vertex 5.375 -4.5 4.41747
      vertex 8.5 -4.5 0
    endloop
  endfacet
  facet normal 0 -1 0
    outer loop
      vertex 3.66747 -4.5 4.875
      vertex 0.905867 -4.5 7.11926
      vertex 4.125 -4.5 4.41747
    endloop
  endfacet
  facet normal 0 -1 0
    outer loop
      vertex 3.5 -4.5 5.5
      vertex 0.905867 -4.5 7.11926
      vertex 3.66747 -4.5 4.875
    endloop
  endfacet
  facet normal 0 -1 0
    outer loop
      vertex 3.5 -4.5 15
      vertex 3.5 -4.5 10.5
      vertex 7.5 -4.5 15
    endloop
  endfacet
  facet normal 0 -1 0
    outer loop
      vertex -1.75 -4.5 7.46891
      vertex -2.47487 -4.5 8.02513
      vertex -7.5 -4.5 7.5
    endloop
  endfacet
  facet normal 0 -1 0
    outer loop
      vertex -7.5 -4.5 15
      vertex -7.5 -4.5 7.5
      vertex -3.03109 -4.5 8.75
    endloop
  endfacet
  facet normal 0 0 -1
    outer loop
      vertex -8.5 -4.5 0
      vertex -8.5 4.5 0
      vertex 8.5 -4.5 0
    endloop
  endfacet
  facet normal 0 0 -1
    outer loop
      vertex 8.5 -4.5 0
      vertex -8.5 4.5 0
      vertex -2.25 4.5 0
    endloop
  endfacet
  facet normal 0 0 -1
    outer loop
      vertex 8.5 -4.5 0
      vertex -2.25 4.5 0
      vertex -2.25 6.5 0
    endloop
  endfacet
  facet normal 0 0 -1
    outer loop
      vertex 2.25 4.5 0
      vertex -2.25 6.5 0
      vertex 2.25 6.5 0
    endloop
  endfacet
  facet normal 0 0 -1
    outer loop
      vertex 8.5 -4.5 0
      vertex -2.25 6.5 0
      vertex 2.25 4.5 0
    endloop
  endfacet
  facet normal 0 0 -1
    outer loop
      vertex 8.5 4.5 0
      vertex 8.5 -4.5 0
      vertex 2.25 4.5 0
    endloop
  endfacet
  facet normal 0 1 0
    outer loop
      vertex -8.5 4.5 0
      vertex -8.5 4.5 7.5
      vertex -2.25 4.5 0
    endloop
  endfacet
  facet normal 0 1 0
    outer loop
      vertex -5.83253 4.5 4.875
      vertex -8.5 4.5 7.5
      vertex -7.5 4.5 7.5
    endloop
  endfacet
  facet normal 0 1 0
    outer loop
      vertex -5.83253 4.5 6.125
      vertex -7.5 4.5 7.5
      vertex -7.5 4.5 15
    endloop
  endfacet
  facet normal 0 1 0
    outer loop
      vertex -3.66747 4.5 6.125
      vertex -7.5 4.5 15
      vertex -2.25 4.5 15
    endloop
  endfacet
  facet normal 0 1 0
    outer loop
      vertex -6 4.5 5.5
      vertex -7.5 4.5 7.5
      vertex -5.83253 4.5 6.125
    endloop
  endfacet
  facet normal 0 1 0
    outer loop
      vertex -5.375 4.5 6.58253
      vertex -5.83253 4.5 6.125
      vertex -7.5 4.5 15
    endloop
  endfacet
  facet normal 0 1 0
    outer loop
      vertex -2.25 4.5 0
      vertex -8.5 4.5 7.5
      vertex -5.83253 4.5 4.875
    endloop
  endfacet
  facet normal 0 1 0
    outer loop
      vertex -4.75 4.5 4.25
      vertex -2.25 4.5 0
      vertex -5.375 4.5 4.41747
    endloop
  endfacet
  facet normal 0 1 0
    outer loop
      vertex -2.25 4.5 0
      vertex -5.83253 4.5 4.875
      vertex -5.375 4.5 4.41747
    endloop
  endfacet
  facet normal 0 1 0
    outer loop
      vertex -4.125 4.5 4.41747
      vertex -2.25 4.5 0
      vertex -4.75 4.5 4.25
    endloop
  endfacet
  facet normal 0 1 0
    outer loop
      vertex -5.375 4.5 6.58253
      vertex -7.5 4.5 15
      vertex -4.75 4.5 6.75
    endloop
  endfacet
  facet normal 0 1 0
    outer loop
      vertex -3.66747 4.5 4.875
      vertex -2.25 4.5 0
      vertex -4.125 4.5 4.41747
    endloop
  endfacet
  facet normal 0 1 0
    outer loop
      vertex -3.66747 4.5 6.125
      vertex -2.25 4.5 15
      vertex -3.5 4.5 5.5
    endloop
  endfacet
  facet normal 0 1 0
    outer loop
      vertex -2.25 4.5 0
      vertex -3.66747 4.5 4.875
      vertex -3.5 4.5 5.5
    endloop
  endfacet
  facet normal 0 1 0
    outer loop
      vertex -2.25 4.5 0
      vertex -3.5 4.5 5.5
      vertex -2.25 4.5 15
    endloop
  endfacet
  facet normal 0 1 0
    outer loop
      vertex -4.125 4.5 6.58253
      vertex -7.5 4.5 15
      vertex -3.66747 4.5 6.125
    endloop
  endfacet
  facet normal 0 1 0
    outer loop
      vertex -4.75 4.5 6.75
      vertex -7.5 4.5 15
      vertex -4.125 4.5 6.58253
    endloop
  endfacet
  facet normal 0 1 0
    outer loop
      vertex -5.83253 4.5 4.875
      vertex -7.5 4.5 7.5
      vertex -6 4.5 5.5
    endloop
  endfacet
  facet normal 0 0 1
    outer loop
      vertex -8.5 4.5 7.5
      vertex -8.5 -4.5 7.5
      vertex -7.5 -4.5 7.5
    endloop
  endfacet
  facet normal 0 0 1
    outer loop
      vertex -7.5 4.5 7.5
      vertex -8.5 4.5 7.5
      vertex -7.5 -4.5 7.5
    endloop
  endfacet
  facet normal -1 0 0
    outer loop
      vertex -7.5 -4.5 7.5
      vertex -7.5 -4.5 15
      vertex -7.5 4.5 7.5
    endloop
  endfacet
  facet normal -1 0 0
    outer loop
      vertex -7.5 4.5 7.5
      vertex -7.5 -4.5 15
      vertex -7.5 4.5 15
    endloop
  endfacet
  facet normal 0 0 1
    outer loop
      vertex -7.5 4.5 15
      vertex -7.5 -4.5 15
      vertex -3.5 -4.5 15
    endloop
  endfacet
  facet normal 0 0 1
    outer loop
      vertex 3.5 0.9 15
      vertex -7.5 4.5 15
      vertex -3.5 0.9 15
    endloop
  endfacet
  facet normal 0 0 1
    outer loop
      vertex -3.5 0.9 15
      vertex -7.5 4.5 15
      vertex -3.5 -4.5 15
    endloop
  endfacet
  facet normal 0 0 1
    outer loop
      vertex 2.25 4.5 15
      vertex -2.25 4.5 15
      vertex 3.5 0.9 15
    endloop
  endfacet
  facet normal 0 0 1
    outer loop
      vertex 7.5 -4.5 15
      vertex 3.5 0.9 15
      vertex 3.5 -4.5 15
    endloop
  endfacet
  facet normal 0 0 1
    outer loop
      vertex 7.5 4.5 15
      vertex 3.5 0.9 15
      vertex 7.5 -4.5 15
    endloop
  endfacet
  facet normal 0 0 1
    outer loop
      vertex -2.25 4.5 15
      vertex -7.5 4.5 15
      vertex 3.5 0.9 15
    endloop
  endfacet
  facet normal 0 0 1
    outer loop
      vertex 7.5 4.5 15
      vertex 2.25 4.5 15
      vertex 3.5 0.9 15
    endloop
  endfacet
  facet normal 0 0 1
    outer loop
      vertex 2.25 6.5 15
      vertex -2.25 4.5 15
      vertex 2.25 4.5 15
    endloop
  endfacet
  facet normal 0 0 1
    outer loop
      vertex -2.25 6.5 15
      vertex -2.25 4.5 15
      vertex 2.25 6.5 15
    endloop
  endfacet
  facet normal 1 0 0
    outer loop
      vertex -3.5 0.9 10.5
      vertex -3.5 0.9 15
      vertex -3.5 -4.5 15
    endloop
  endfacet
  facet normal 1 0 0
    outer loop
      vertex -3.5 -4.5 10.5
      vertex -3.5 0.9 10.5
      vertex -3.5 -4.5 15
    endloop
  endfacet
  facet normal 0.991445 2.89827e-017 0.130527
    outer loop
      vertex -3.38074 -4.5 9.59413
      vertex -3.38074 0.9 9.59413
      vertex -3.5 0.9 10.5
    endloop
  endfacet
  facet normal 0.991445 2.89827e-017 0.130527
    outer loop
      vertex -3.5 -4.5 10.5
      vertex -3.38074 -4.5 9.59413
      vertex -3.5 0.9 10.5
    endloop
  endfacet
  facet normal 0.92388 8.49727e-017 0.382683
    outer loop
      vertex -3.03109 -4.5 8.75
      vertex -3.03109 0.9 8.75
      vertex -3.38074 0.9 9.59413
    endloop
  endfacet
  facet normal 0.92388 8.49727e-017 0.382683
    outer loop
      vertex -3.38074 -4.5 9.59413
      vertex -3.03109 -4.5 8.75
      vertex -3.38074 0.9 9.59413
    endloop
  endfacet
  facet normal 0.793354 1.35172e-016 0.608761
    outer loop
      vertex -2.47487 -4.5 8.02513
      vertex -2.47487 0.9 8.02513
      vertex -3.03109 0.9 8.75
    endloop
  endfacet
  facet normal 0.793354 1.35172e-016 0.608761
    outer loop
      vertex -3.03109 -4.5 8.75
      vertex -2.47487 -4.5 8.02513
      vertex -3.03109 0.9 8.75
    endloop
  endfacet
  facet normal 0.608761 1.7616e-016 0.793354
    outer loop
      vertex -1.75 -4.5 7.46891
      vertex -1.75 0.9 7.46891
      vertex -2.47487 0.9 8.02513
    endloop
  endfacet
  facet normal 0.608761 1.7616e-016 0.793354
    outer loop
      vertex -2.47487 -4.5 8.02513
      vertex -1.75 -4.5 7.46891
      vertex -2.47487 0.9 8.02513
    endloop
  endfacet
  facet normal 0.382683 2.05142e-016 0.92388
    outer loop
      vertex -0.905867 -4.5 7.11926
      vertex -0.905867 0.9 7.11926
      vertex -1.75 0.9 7.46891
    endloop
  endfacet
  facet normal 0.382683 2.05142e-016 0.92388
    outer loop
      vertex -1.75 -4.5 7.46891
      vertex -0.905867 -4.5 7.11926
      vertex -1.75 0.9 7.46891
    endloop
  endfacet
  facet normal 0.130527 2.20145e-016 0.991445
    outer loop
      vertex 0 -4.5 7
      vertex 0 0.9 7
      vertex -0.905867 0.9 7.11926
    endloop
  endfacet
  facet normal 0.130527 2.20145e-016 0.991445
    outer loop
      vertex -0.905867 -4.5 7.11926
      vertex 0 -4.5 7
      vertex -0.905867 0.9 7.11926
    endloop
  endfacet
  facet normal -0.130527 2.20145e-016 0.991445
    outer loop
      vertex 0.905867 -4.5 7.11926
      vertex 0.905867 0.9 7.11926
      vertex 0 0.9 7
    endloop
  endfacet
  facet normal -0.130527 2.20145e-016 0.991445
    outer loop
      vertex 0 -4.5 7
      vertex 0.905867 -4.5 7.11926
      vertex 0 0.9 7
    endloop
  endfacet
  facet normal -0.382683 2.05142e-016 0.92388
    outer loop
      vertex 1.75 -4.5 7.46891
      vertex 1.75 0.9 7.46891
      vertex 0.905867 0.9 7.11926
    endloop
  endfacet
  facet normal -0.382683 2.05142e-016 0.92388
    outer loop
      vertex 0.905867 -4.5 7.11926
      vertex 1.75 -4.5 7.46891
      vertex 0.905867 0.9 7.11926
    endloop
  endfacet
  facet normal -0.608761 1.7616e-016 0.793354
    outer loop
      vertex 2.47487 -4.5 8.02513
      vertex 2.47487 0.9 8.02513
      vertex 1.75 0.9 7.46891
    endloop
  endfacet
  facet normal -0.608761 1.7616e-016 0.793354
    outer loop
      vertex 1.75 -4.5 7.46891
      vertex 2.47487 -4.5 8.02513
      vertex 1.75 0.9 7.46891
    endloop
  endfacet
  facet normal -0.793354 1.35172e-016 0.608761
    outer loop
      vertex 3.03109 0.9 8.75
      vertex 2.47487 0.9 8.02513
      vertex 3.03109 -4.5 8.75
    endloop
  endfacet
  facet normal -0.793354 1.35172e-016 0.608761
    outer loop
      vertex 3.03109 -4.5 8.75
      vertex 2.47487 0.9 8.02513
      vertex 2.47487 -4.5 8.02513
    endloop
  endfacet
  facet normal -0.92388 8.49727e-017 0.382683
    outer loop
      vertex 3.38074 0.9 9.59413
      vertex 3.03109 0.9 8.75
      vertex 3.38074 -4.5 9.59413
    endloop
  endfacet
  facet normal -0.92388 8.49727e-017 0.382683
    outer loop
      vertex 3.38074 -4.5 9.59413
      vertex 3.03109 0.9 8.75
      vertex 3.03109 -4.5 8.75
    endloop
  endfacet
  facet normal -0.991445 2.89827e-017 0.130527
    outer loop
      vertex 3.5 0.9 10.5
      vertex 3.38074 0.9 9.59413
      vertex 3.5 -4.5 10.5
    endloop
  endfacet
  facet normal -0.991445 2.89827e-017 0.130527
    outer loop
      vertex 3.5 -4.5 10.5
      vertex 3.38074 0.9 9.59413
      vertex 3.38074 -4.5 9.59413
    endloop
  endfacet
  facet normal -1 0 0
    outer loop
      vertex 3.5 0.9 15
      vertex 3.5 0.9 10.5
      vertex 3.5 -4.5 15
    endloop
  endfacet
  facet normal -1 0 0
    outer loop
      vertex 3.5 -4.5 15
      vertex 3.5 0.9 10.5
      vertex 3.5 -4.5 10.5
    endloop
  endfacet
  facet normal 1 0 0
    outer loop
      vertex 7.5 -4.5 15
      vertex 7.5 -4.5 7.5
      vertex 7.5 4.5 7.5
    endloop
  endfacet
  facet normal 1 0 0
    outer loop
      vertex 7.5 4.5 15
      vertex 7.5 -4.5 15
      vertex 7.5 4.5 7.5
    endloop
  endfacet
  facet normal 0 0 1
    outer loop
      vertex 7.5 4.5 7.5
      vertex 7.5 -4.5 7.5
      vertex 8.5 -4.5 7.5
    endloop
  endfacet
  facet normal 0 0 1
    outer loop
      vertex 8.5 4.5 7.5
      vertex 7.5 4.5 7.5
      vertex 8.5 -4.5 7.5
    endloop
  endfacet
  facet normal 1 0 0
    outer loop
      vertex 8.5 -4.5 7.5
      vertex 8.5 -4.5 0
      vertex 8.5 4.5 0
    endloop
  endfacet
  facet normal 1 0 0
    outer loop
      vertex 8.5 4.5 7.5
      vertex 8.5 -4.5 7.5
      vertex 8.5 4.5 0
    endloop
  endfacet
  facet normal 0.965926 -5.74693e-017 0.258819
    outer loop
      vertex -6 -4.5 5.5
      vertex -5.83253 -4.5 4.875
      vertex -5.83253 4.5 4.875
    endloop
  endfacet
  facet normal 0.965926 -5.74693e-017 0.258819
    outer loop
      vertex -6 4.5 5.5
      vertex -6 -4.5 5.5
      vertex -5.83253 4.5 4.875
    endloop
  endfacet
  facet normal 0.965926 5.74693e-017 -0.258819
    outer loop
      vertex -5.83253 4.5 6.125
      vertex -5.83253 -4.5 6.125
      vertex -6 -4.5 5.5
    endloop
  endfacet
  facet normal 0.965926 5.74693e-017 -0.258819
    outer loop
      vertex -6 4.5 5.5
      vertex -5.83253 4.5 6.125
      vertex -6 -4.5 5.5
    endloop
  endfacet
  facet normal 0.707107 -1.57009e-016 0.707107
    outer loop
      vertex -5.83253 -4.5 4.875
      vertex -5.375 -4.5 4.41747
      vertex -5.375 4.5 4.41747
    endloop
  endfacet
  facet normal 0.707107 -1.57009e-016 0.707107
    outer loop
      vertex -5.83253 4.5 4.875
      vertex -5.83253 -4.5 4.875
      vertex -5.375 4.5 4.41747
    endloop
  endfacet
  facet normal 0.258819 -2.14479e-016 0.965926
    outer loop
      vertex -5.375 -4.5 4.41747
      vertex -4.75 -4.5 4.25
      vertex -4.75 4.5 4.25
    endloop
  endfacet
  facet normal 0.258819 -2.14479e-016 0.965926
    outer loop
      vertex -5.375 4.5 4.41747
      vertex -5.375 -4.5 4.41747
      vertex -4.75 4.5 4.25
    endloop
  endfacet
  facet normal -0.258819 -2.14479e-016 0.965926
    outer loop
      vertex -4.75 -4.5 4.25
      vertex -4.125 -4.5 4.41747
      vertex -4.125 4.5 4.41747
    endloop
  endfacet
  facet normal -0.258819 -2.14479e-016 0.965926
    outer loop
      vertex -4.75 4.5 4.25
      vertex -4.75 -4.5 4.25
      vertex -4.125 4.5 4.41747
    endloop
  endfacet
  facet normal -0.707107 -1.57009e-016 0.707107
    outer loop
      vertex -3.66747 -4.5 4.875
      vertex -3.66747 4.5 4.875
      vertex -4.125 -4.5 4.41747
    endloop
  endfacet
  facet normal -0.707107 -1.57009e-016 0.707107
    outer loop
      vertex -4.125 -4.5 4.41747
      vertex -3.66747 4.5 4.875
      vertex -4.125 4.5 4.41747
    endloop
  endfacet
  facet normal -0.965926 -5.74693e-017 0.258819
    outer loop
      vertex -3.5 -4.5 5.5
      vertex -3.5 4.5 5.5
      vertex -3.66747 -4.5 4.875
    endloop
  endfacet
  facet normal -0.965926 -5.74693e-017 0.258819
    outer loop
      vertex -3.66747 -4.5 4.875
      vertex -3.5 4.5 5.5
      vertex -3.66747 4.5 4.875
    endloop
  endfacet
  facet normal -0.965926 5.74693e-017 -0.258819
    outer loop
      vertex -3.5 -4.5 5.5
      vertex -3.66747 -4.5 6.125
      vertex -3.5 4.5 5.5
    endloop
  endfacet
  facet normal -0.965926 5.74693e-017 -0.258819
    outer loop
      vertex -3.5 4.5 5.5
      vertex -3.66747 -4.5 6.125
      vertex -3.66747 4.5 6.125
    endloop
  endfacet
  facet normal -0.707107 1.57009e-016 -0.707107
    outer loop
      vertex -3.66747 -4.5 6.125
      vertex -4.125 -4.5 6.58253
      vertex -3.66747 4.5 6.125
    endloop
  endfacet
  facet normal -0.707107 1.57009e-016 -0.707107
    outer loop
      vertex -3.66747 4.5 6.125
      vertex -4.125 -4.5 6.58253
      vertex -4.125 4.5 6.58253
    endloop
  endfacet
  facet normal -0.258819 2.14479e-016 -0.965926
    outer loop
      vertex -4.125 -4.5 6.58253
      vertex -4.75 -4.5 6.75
      vertex -4.125 4.5 6.58253
    endloop
  endfacet
  facet normal -0.258819 2.14479e-016 -0.965926
    outer loop
      vertex -4.125 4.5 6.58253
      vertex -4.75 -4.5 6.75
      vertex -4.75 4.5 6.75
    endloop
  endfacet
  facet normal 0.258819 2.14479e-016 -0.965926
    outer loop
      vertex -4.75 -4.5 6.75
      vertex -5.375 -4.5 6.58253
      vertex -4.75 4.5 6.75
    endloop
  endfacet
  facet normal 0.258819 2.14479e-016 -0.965926
    outer loop
      vertex -4.75 4.5 6.75
      vertex -5.375 -4.5 6.58253
      vertex -5.375 4.5 6.58253
    endloop
  endfacet
  facet normal 0.707107 1.57009e-016 -0.707107
    outer loop
      vertex -5.375 4.5 6.58253
      vertex -5.375 -4.5 6.58253
      vertex -5.83253 -4.5 6.125
    endloop
  endfacet
  facet normal 0.707107 1.57009e-016 -0.707107
    outer loop
      vertex -5.83253 4.5 6.125
      vertex -5.375 4.5 6.58253
      vertex -5.83253 -4.5 6.125
    endloop
  endfacet
  facet normal 0.965926 5.74693e-017 -0.258819
    outer loop
      vertex 3.66747 4.5 6.125
      vertex 3.66747 -4.5 6.125
      vertex 3.5 -4.5 5.5
    endloop
  endfacet
  facet normal 0.965926 5.74693e-017 -0.258819
    outer loop
      vertex 3.5 4.5 5.5
      vertex 3.66747 4.5 6.125
      vertex 3.5 -4.5 5.5
    endloop
  endfacet
  facet normal 0.965926 -5.74693e-017 0.258819
    outer loop
      vertex 3.5 -4.5 5.5
      vertex 3.66747 -4.5 4.875
      vertex 3.66747 4.5 4.875
    endloop
  endfacet
  facet normal 0.965926 -5.74693e-017 0.258819
    outer loop
      vertex 3.5 4.5 5.5
      vertex 3.5 -4.5 5.5
      vertex 3.66747 4.5 4.875
    endloop
  endfacet
  facet normal 0.707107 -1.57009e-016 0.707107
    outer loop
      vertex 3.66747 -4.5 4.875
      vertex 4.125 -4.5 4.41747
      vertex 4.125 4.5 4.41747
    endloop
  endfacet
  facet normal 0.707107 -1.57009e-016 0.707107
    outer loop
      vertex 3.66747 4.5 4.875
      vertex 3.66747 -4.5 4.875
      vertex 4.125 4.5 4.41747
    endloop
  endfacet
  facet normal 0.258819 -2.14479e-016 0.965926
    outer loop
      vertex 4.125 -4.5 4.41747
      vertex 4.75 -4.5 4.25
      vertex 4.75 4.5 4.25
    endloop
  endfacet
  facet normal 0.258819 -2.14479e-016 0.965926
    outer loop
      vertex 4.125 4.5 4.41747
      vertex 4.125 -4.5 4.41747
      vertex 4.75 4.5 4.25
    endloop
  endfacet
  facet normal -0.258819 -2.14479e-016 0.965926
    outer loop
      vertex 4.75 -4.5 4.25
      vertex 5.375 -4.5 4.41747
      vertex 5.375 4.5 4.41747
    endloop
  endfacet
  facet normal -0.258819 -2.14479e-016 0.965926
    outer loop
      vertex 4.75 4.5 4.25
      vertex 4.75 -4.5 4.25
      vertex 5.375 4.5 4.41747
    endloop
  endfacet
  facet normal -0.707107 -1.57009e-016 0.707107
    outer loop
      vertex 5.83253 -4.5 4.875
      vertex 5.83253 4.5 4.875
      vertex 5.375 -4.5 4.41747
    endloop
  endfacet
  facet normal -0.707107 -1.57009e-016 0.707107
    outer loop
      vertex 5.375 -4.5 4.41747
      vertex 5.83253 4.5 4.875
      vertex 5.375 4.5 4.41747
    endloop
  endfacet
  facet normal -0.965926 -5.74693e-017 0.258819
    outer loop
      vertex 6 -4.5 5.5
      vertex 6 4.5 5.5
      vertex 5.83253 -4.5 4.875
    endloop
  endfacet
  facet normal -0.965926 -5.74693e-017 0.258819
    outer loop
      vertex 5.83253 -4.5 4.875
      vertex 6 4.5 5.5
      vertex 5.83253 4.5 4.875
    endloop
  endfacet
  facet normal -0.965926 5.74693e-017 -0.258819
    outer loop
      vertex 6 -4.5 5.5
      vertex 5.83253 -4.5 6.125
      vertex 6 4.5 5.5
    endloop
  endfacet
  facet normal -0.965926 5.74693e-017 -0.258819
    outer loop
      vertex 6 4.5 5.5
      vertex 5.83253 -4.5 6.125
      vertex 5.83253 4.5 6.125
    endloop
  endfacet
  facet normal -0.707107 1.57009e-016 -0.707107
    outer loop
      vertex 5.83253 -4.5 6.125
      vertex 5.375 -4.5 6.58253
      vertex 5.83253 4.5 6.125
    endloop
  endfacet
  facet normal -0.707107 1.57009e-016 -0.707107
    outer loop
      vertex 5.83253 4.5 6.125
      vertex 5.375 -4.5 6.58253
      vertex 5.375 4.5 6.58253
    endloop
  endfacet
  facet normal -0.258819 2.14479e-016 -0.965926
    outer loop
      vertex 5.375 -4.5 6.58253
      vertex 4.75 -4.5 6.75
      vertex 5.375 4.5 6.58253
    endloop
  endfacet
  facet normal -0.258819 2.14479e-016 -0.965926
    outer loop
      vertex 5.375 4.5 6.58253
      vertex 4.75 -4.5 6.75
      vertex 4.75 4.5 6.75
    endloop
  endfacet
  facet normal 0.258819 2.14479e-016 -0.965926
    outer loop
      vertex 4.75 -4.5 6.75
      vertex 4.125 -4.5 6.58253
      vertex 4.75 4.5 6.75
    endloop
  endfacet
  facet normal 0.258819 2.14479e-016 -0.965926
    outer loop
      vertex 4.75 4.5 6.75
      vertex 4.125 -4.5 6.58253
      vertex 4.125 4.5 6.58253
    endloop
  endfacet
  facet normal 0.707107 1.57009e-016 -0.707107
    outer loop
      vertex 4.125 4.5 6.58253
      vertex 4.125 -4.5 6.58253
      vertex 3.66747 -4.5 6.125
    endloop
  endfacet
  facet normal 0.707107 1.57009e-016 -0.707107
    outer loop
      vertex 3.66747 4.5 6.125
      vertex 4.125 4.5 6.58253
      vertex 3.66747 -4.5 6.125
    endloop
  endfacet
  facet normal 0 1 0
    outer loop
      vertex 5.83253 4.5 6.125
      vertex 2.25 4.5 15
      vertex 8.5 4.5 0
    endloop
  endfacet
  facet normal 0 1 0
    outer loop
      vertex 7.5 4.5 7.5
      vertex 2.25 4.5 15
      vertex 7.5 4.5 15
    endloop
  endfacet
  facet normal 0 1 0
    outer loop
      vertex 8.5 4.5 0
      vertex 2.25 4.5 15
      vertex 7.5 4.5 7.5
    endloop
  endfacet
  facet normal 0 1 0
    outer loop
      vertex 3.66747 4.5 4.875
      vertex 2.25 4.5 0
      vertex 3.5 4.5 5.5
    endloop
  endfacet
  facet normal 0 1 0
    outer loop
      vertex 3.5 4.5 5.5
      vertex 2.25 4.5 15
      vertex 3.66747 4.5 6.125
    endloop
  endfacet
  facet normal 0 1 0
    outer loop
      vertex 2.25 4.5 0
      vertex 2.25 4.5 15
      vertex 3.5 4.5 5.5
    endloop
  endfacet
  facet normal 0 1 0
    outer loop
      vertex 5.375 4.5 4.41747
      vertex 8.5 4.5 0
      vertex 4.75 4.5 4.25
    endloop
  endfacet
  facet normal 0 1 0
    outer loop
      vertex 2.25 4.5 0
      vertex 3.66747 4.5 4.875
      vertex 8.5 4.5 0
    endloop
  endfacet
  facet normal 0 1 0
    outer loop
      vertex 3.66747 4.5 4.875
      vertex 4.125 4.5 4.41747
      vertex 8.5 4.5 0
    endloop
  endfacet
  facet normal 0 1 0
    outer loop
      vertex 4.125 4.5 4.41747
      vertex 4.75 4.5 4.25
      vertex 8.5 4.5 0
    endloop
  endfacet
  facet normal 0 1 0
    outer loop
      vertex 5.375 4.5 6.58253
      vertex 2.25 4.5 15
      vertex 5.83253 4.5 6.125
    endloop
  endfacet
  facet normal 0 1 0
    outer loop
      vertex 4.125 4.5 6.58253
      vertex 2.25 4.5 15
      vertex 4.75 4.5 6.75
    endloop
  endfacet
  facet normal 0 1 0
    outer loop
      vertex 5.375 4.5 4.41747
      vertex 5.83253 4.5 4.875
      vertex 8.5 4.5 0
    endloop
  endfacet
  facet normal 0 1 0
    outer loop
      vertex 4.75 4.5 6.75
      vertex 2.25 4.5 15
      vertex 5.375 4.5 6.58253
    endloop
  endfacet
  facet normal 0 1 0
    outer loop
      vertex 5.83253 4.5 4.875
      vertex 6 4.5 5.5
      vertex 8.5 4.5 0
    endloop
  endfacet
  facet normal 0 1 0
    outer loop
      vertex 6 4.5 5.5
      vertex 5.83253 4.5 6.125
      vertex 8.5 4.5 0
    endloop
  endfacet
  facet normal 0 1 0
    outer loop
      vertex 3.66747 4.5 6.125
      vertex 2.25 4.5 15
      vertex 4.125 4.5 6.58253
    endloop
  endfacet
  facet normal 0 1 0
    outer loop
      vertex 8.5 4.5 7.5
      vertex 8.5 4.5 0
      vertex 7.5 4.5 7.5
    endloop
  endfacet
  facet normal 1 0 0
    outer loop
      vertex 2.25 5.16205 9.20096
      vertex 2.25 4.5 0
      vertex 2.25 6.5 0
    endloop
  endfacet
  facet normal 1 0 0
    outer loop
      vertex 2.25 6.5 6.77472
      vertex 2.25 6.30725 7.09238
      vertex 2.25 6.5 0
    endloop
  endfacet
  facet normal 1 0 0
    outer loop
      vertex 2.25 6.30725 7.09238
      vertex 2.25 5.60482 8.25
      vertex 2.25 6.5 0
    endloop
  endfacet
  facet normal 1 0 0
    outer loop
      vertex 2.25 5.60482 8.25
      vertex 2.25 5.37516 8.74325
      vertex 2.25 6.5 0
    endloop
  endfacet
  facet normal 1 0 0
    outer loop
      vertex 2.25 5.0312 9.64803
      vertex 2.25 4.5 0
      vertex 2.25 5.16205 9.20096
    endloop
  endfacet
  facet normal 1 0 0
    outer loop
      vertex 2.25 4.95829 9.89711
      vertex 2.25 4.5 0
      vertex 2.25 5.0312 9.64803
    endloop
  endfacet
  facet normal 1 0 0
    outer loop
      vertex 2.25 4.9378 10.8976
      vertex 2.25 4.95829 11.1029
      vertex 2.25 4.5 15
    endloop
  endfacet
  facet normal 1 0 0
    outer loop
      vertex 2.25 4.91696 10.3111
      vertex 2.25 4.5 0
      vertex 2.25 4.95829 9.89711
    endloop
  endfacet
  facet normal 1 0 0
    outer loop
      vertex 2.25 4.95829 11.1029
      vertex 2.25 5.07416 11.4988
      vertex 2.25 4.5 15
    endloop
  endfacet
  facet normal 1 0 0
    outer loop
      vertex 2.25 4.8981 10.5
      vertex 2.25 4.5 0
      vertex 2.25 4.91696 10.3111
    endloop
  endfacet
  facet normal 1 0 0
    outer loop
      vertex 2.25 4.5 15
      vertex 2.25 4.5 0
      vertex 2.25 4.8981 10.5
    endloop
  endfacet
  facet normal 1 0 0
    outer loop
      vertex 2.25 5.16205 11.799
      vertex 2.25 4.5 15
      vertex 2.25 5.07416 11.4988
    endloop
  endfacet
  facet normal 1 0 0
    outer loop
      vertex 2.25 5.60482 12.75
      vertex 2.25 4.5 15
      vertex 2.25 5.35101 12.2049
    endloop
  endfacet
  facet normal 1 0 0
    outer loop
      vertex 2.25 5.85788 13.1671
      vertex 2.25 4.5 15
      vertex 2.25 5.60482 12.75
    endloop
  endfacet
  facet normal 1 0 0
    outer loop
      vertex 2.25 6.5 14.2253
      vertex 2.25 4.5 15
      vertex 2.25 5.85788 13.1671
    endloop
  endfacet
  facet normal 1 0 0
    outer loop
      vertex 2.25 6.5 15
      vertex 2.25 4.5 15
      vertex 2.25 6.5 14.2253
    endloop
  endfacet
  facet normal 1 0 0
    outer loop
      vertex 2.25 5.16205 11.799
      vertex 2.25 5.35101 12.2049
      vertex 2.25 4.5 15
    endloop
  endfacet
  facet normal 1 0 0
    outer loop
      vertex 2.25 5.37516 8.74325
      vertex 2.25 5.16205 9.20096
      vertex 2.25 6.5 0
    endloop
  endfacet
  facet normal 1 0 0
    outer loop
      vertex 2.25 4.8981 10.5
      vertex 2.25 4.9378 10.8976
      vertex 2.25 4.5 15
    endloop
  endfacet
  facet normal 0 1 0
    outer loop
      vertex -2.25 6.5 0
      vertex -2.25 6.5 6.77472
      vertex 2.25 6.5 0
    endloop
  endfacet
  facet normal 0 1 0
    outer loop
      vertex 2.25 6.5 0
      vertex -2.25 6.5 6.77472
      vertex -2.18125 6.5 6.72196
    endloop
  endfacet
  facet normal 0 1 0
    outer loop
      vertex 2.25 6.5 0
      vertex -2.18125 6.5 6.72196
      vertex -1.97323 6.5 6.6358
    endloop
  endfacet
  facet normal 0 1 0
    outer loop
      vertex 2.25 6.5 0
      vertex -1.97323 6.5 6.6358
      vertex -1.1291 6.5 6.28615
    endloop
  endfacet
  facet normal 0 1 0
    outer loop
      vertex -1.1291 6.5 6.28615
      vertex -0.905867 6.5 6.25676
      vertex 2.25 6.5 0
    endloop
  endfacet
  facet normal 0 1 0
    outer loop
      vertex -0.905867 6.5 6.25676
      vertex 0 6.5 6.1375
      vertex 2.25 6.5 0
    endloop
  endfacet
  facet normal 0 1 0
    outer loop
      vertex 0 6.5 6.1375
      vertex 0.223231 6.5 6.16689
      vertex 2.25 6.5 0
    endloop
  endfacet
  facet normal 0 1 0
    outer loop
      vertex 2.25 6.5 0
      vertex 0.223231 6.5 6.16689
      vertex 1.1291 6.5 6.28615
    endloop
  endfacet
  facet normal 0 1 0
    outer loop
      vertex 1.1291 6.5 6.28615
      vertex 1.33712 6.5 6.37231
      vertex 2.25 6.5 0
    endloop
  endfacet
  facet normal 0 1 0
    outer loop
      vertex 1.33712 6.5 6.37231
      vertex 2.18125 6.5 6.72196
      vertex 2.25 6.5 0
    endloop
  endfacet
  facet normal 0 1 0
    outer loop
      vertex 2.18125 6.5 6.72196
      vertex 2.25 6.5 6.77472
      vertex 2.25 6.5 0
    endloop
  endfacet
  facet normal -1 0 0
    outer loop
      vertex -2.25 4.9378 10.1024
      vertex -2.25 4.5 0
      vertex -2.25 4.8981 10.5
    endloop
  endfacet
  facet normal -1 0 0
    outer loop
      vertex -2.25 6.5 14.2253
      vertex -2.25 4.5 15
      vertex -2.25 6.5 15
    endloop
  endfacet
  facet normal -1 0 0
    outer loop
      vertex -2.25 6.30725 13.9076
      vertex -2.25 4.5 15
      vertex -2.25 6.5 14.2253
    endloop
  endfacet
  facet normal -1 0 0
    outer loop
      vertex -2.25 5.60482 12.75
      vertex -2.25 4.5 15
      vertex -2.25 6.30725 13.9076
    endloop
  endfacet
  facet normal -1 0 0
    outer loop
      vertex -2.25 5.37516 12.2567
      vertex -2.25 4.5 15
      vertex -2.25 5.60482 12.75
    endloop
  endfacet
  facet normal -1 0 0
    outer loop
      vertex -2.25 5.16205 11.799
      vertex -2.25 4.5 15
      vertex -2.25 5.37516 12.2567
    endloop
  endfacet
  facet normal -1 0 0
    outer loop
      vertex -2.25 5.0312 11.352
      vertex -2.25 4.5 15
      vertex -2.25 5.16205 11.799
    endloop
  endfacet
  facet normal -1 0 0
    outer loop
      vertex -2.25 4.91696 10.6889
      vertex -2.25 4.5 15
      vertex -2.25 4.95829 11.1029
    endloop
  endfacet
  facet normal -1 0 0
    outer loop
      vertex -2.25 4.8981 10.5
      vertex -2.25 4.5 15
      vertex -2.25 4.91696 10.6889
    endloop
  endfacet
  facet normal -1 0 0
    outer loop
      vertex -2.25 4.5 0
      vertex -2.25 4.5 15
      vertex -2.25 4.8981 10.5
    endloop
  endfacet
  facet normal -1 0 0
    outer loop
      vertex -2.25 5.07416 9.50125
      vertex -2.25 6.5 0
      vertex -2.25 4.95829 9.89711
    endloop
  endfacet
  facet normal -1 0 0
    outer loop
      vertex -2.25 4.5 0
      vertex -2.25 4.9378 10.1024
      vertex -2.25 4.95829 9.89711
    endloop
  endfacet
  facet normal -1 0 0
    outer loop
      vertex -2.25 4.5 0
      vertex -2.25 4.95829 9.89711
      vertex -2.25 6.5 0
    endloop
  endfacet
  facet normal -1 0 0
    outer loop
      vertex -2.25 5.35101 8.79511
      vertex -2.25 6.5 0
      vertex -2.25 5.16205 9.20096
    endloop
  endfacet
  facet normal -1 0 0
    outer loop
      vertex -2.25 5.07416 9.50125
      vertex -2.25 5.16205 9.20096
      vertex -2.25 6.5 0
    endloop
  endfacet
  facet normal -1 0 0
    outer loop
      vertex -2.25 5.85788 7.83295
      vertex -2.25 6.5 0
      vertex -2.25 5.60482 8.25
    endloop
  endfacet
  facet normal -1 0 0
    outer loop
      vertex -2.25 6.5 6.77472
      vertex -2.25 6.5 0
      vertex -2.25 5.85788 7.83295
    endloop
  endfacet
  facet normal -1 0 0
    outer loop
      vertex -2.25 4.95829 11.1029
      vertex -2.25 4.5 15
      vertex -2.25 5.0312 11.352
    endloop
  endfacet
  facet normal -1 0 0
    outer loop
      vertex -2.25 5.60482 8.25
      vertex -2.25 6.5 0
      vertex -2.25 5.35101 8.79511
    endloop
  endfacet
  facet normal 0 1 0
    outer loop
      vertex -2.25 6.5 14.2253
      vertex -2.25 6.5 15
      vertex -2.18125 6.5 14.278
    endloop
  endfacet
  facet normal 0 1 0
    outer loop
      vertex 0 6.5 14.8625
      vertex -2.25 6.5 15
      vertex 2.25 6.5 15
    endloop
  endfacet
  facet normal 0 1 0
    outer loop
      vertex 2.25 6.5 15
      vertex 2.25 6.5 14.2253
      vertex 2.18125 6.5 14.278
    endloop
  endfacet
  facet normal 0 1 0
    outer loop
      vertex 2.25 6.5 15
      vertex 2.18125 6.5 14.278
      vertex 1.97323 6.5 14.3642
    endloop
  endfacet
  facet normal 0 1 0
    outer loop
      vertex 2.25 6.5 15
      vertex 1.97323 6.5 14.3642
      vertex 1.1291 6.5 14.7139
    endloop
  endfacet
  facet normal 0 1 0
    outer loop
      vertex 2.25 6.5 15
      vertex 1.1291 6.5 14.7139
      vertex 0.905866 6.5 14.7432
    endloop
  endfacet
  facet normal 0 1 0
    outer loop
      vertex -0.223232 6.5 14.8331
      vertex -2.25 6.5 15
      vertex 0 6.5 14.8625
    endloop
  endfacet
  facet normal 0 1 0
    outer loop
      vertex -1.1291 6.5 14.7139
      vertex -2.25 6.5 15
      vertex -0.223232 6.5 14.8331
    endloop
  endfacet
  facet normal 0 1 0
    outer loop
      vertex -1.33712 6.5 14.6277
      vertex -2.25 6.5 15
      vertex -1.1291 6.5 14.7139
    endloop
  endfacet
  facet normal 0 1 0
    outer loop
      vertex -2.18125 6.5 14.278
      vertex -2.25 6.5 15
      vertex -1.33712 6.5 14.6277
    endloop
  endfacet
  facet normal 0 1 0
    outer loop
      vertex 0 6.5 14.8625
      vertex 2.25 6.5 15
      vertex 0.905866 6.5 14.7432
    endloop
  endfacet
  facet normal 0 -1 2.22045e-016
    outer loop
      vertex -3.38074 0.9 9.59413
      vertex -3.03109 0.9 8.75
      vertex -2.47487 0.9 8.02513
    endloop
  endfacet
  facet normal 0 -1 2.22045e-016
    outer loop
      vertex -0.905867 0.9 7.11926
      vertex -3.38074 0.9 9.59413
      vertex -1.75 0.9 7.46891
    endloop
  endfacet
  facet normal 0 -1 2.22045e-016
    outer loop
      vertex -1.75 0.9 7.46891
      vertex -3.38074 0.9 9.59413
      vertex -2.47487 0.9 8.02513
    endloop
  endfacet
  facet normal 0 -1 2.22045e-016
    outer loop
      vertex 0 0.9 7
      vertex -3.38074 0.9 9.59413
      vertex -0.905867 0.9 7.11926
    endloop
  endfacet
  facet normal 0 -1 2.22045e-016
    outer loop
      vertex 0.905867 0.9 7.11926
      vertex -3.38074 0.9 9.59413
      vertex 0 0.9 7
    endloop
  endfacet
  facet normal 0 -1 2.22045e-016
    outer loop
      vertex 1.75 0.9 7.46891
      vertex -3.38074 0.9 9.59413
      vertex 0.905867 0.9 7.11926
    endloop
  endfacet
  facet normal 0 -1 2.22045e-016
    outer loop
      vertex 2.47487 0.9 8.02513
      vertex -3.38074 0.9 9.59413
      vertex 1.75 0.9 7.46891
    endloop
  endfacet
  facet normal 0 -1 2.22045e-016
    outer loop
      vertex 0 0.9 8.775
      vertex -3.38074 0.9 9.59413
      vertex 2.47487 0.9 8.02513
    endloop
  endfacet
  facet normal 0 -1 2.22045e-016
    outer loop
      vertex -0.8625 0.9 9.00611
      vertex -1.49389 0.9 9.6375
      vertex -3.38074 0.9 9.59413
    endloop
  endfacet
  facet normal 0 -1 2.22045e-016
    outer loop
      vertex -3.5 0.9 10.5
      vertex -3.38074 0.9 9.59413
      vertex -3.5 0.9 15
    endloop
  endfacet
  facet normal 0 -1 2.22045e-016
    outer loop
      vertex 1.49389 0.9 9.6375
      vertex 0.8625 0.9 9.00611
      vertex 3.03109 0.9 8.75
    endloop
  endfacet
  facet normal 0 -1 2.22045e-016
    outer loop
      vertex 0 0.9 12.225
      vertex 0.8625 0.9 11.9939
      vertex 3.5 0.9 15
    endloop
  endfacet
  facet normal 0 -1 2.22045e-016
    outer loop
      vertex -3.5 0.9 15
      vertex -3.38074 0.9 9.59413
      vertex -1.49389 0.9 11.3625
    endloop
  endfacet
  facet normal 0 -1 2.22045e-016
    outer loop
      vertex -3.5 0.9 15
      vertex -0.8625 0.9 11.9939
      vertex 3.5 0.9 15
    endloop
  endfacet
  facet normal 0 -1 2.22045e-016
    outer loop
      vertex -3.5 0.9 15
      vertex -1.49389 0.9 11.3625
      vertex -0.8625 0.9 11.9939
    endloop
  endfacet
  facet normal 0 -1 2.22045e-016
    outer loop
      vertex 1.725 0.9 10.5
      vertex 1.49389 0.9 9.6375
      vertex 3.5 0.9 10.5
    endloop
  endfacet
  facet normal 0 -1 2.22045e-016
    outer loop
      vertex -0.8625 0.9 11.9939
      vertex 0 0.9 12.225
      vertex 3.5 0.9 15
    endloop
  endfacet
  facet normal 0 -1 2.22045e-016
    outer loop
      vertex 3.5 0.9 15
      vertex 0.8625 0.9 11.9939
      vertex 3.5 0.9 10.5
    endloop
  endfacet
  facet normal 0 -1 2.22045e-016
    outer loop
      vertex 0.8625 0.9 11.9939
      vertex 1.49389 0.9 11.3625
      vertex 3.5 0.9 10.5
    endloop
  endfacet
  facet normal 0 -1 2.22045e-016
    outer loop
      vertex 1.49389 0.9 11.3625
      vertex 1.725 0.9 10.5
      vertex 3.5 0.9 10.5
    endloop
  endfacet
  facet normal 0 -1 2.22045e-016
    outer loop
      vertex 3.5 0.9 10.5
      vertex 1.49389 0.9 9.6375
      vertex 3.38074 0.9 9.59413
    endloop
  endfacet
  facet normal 0 -1 2.22045e-016
    outer loop
      vertex 3.03109 0.9 8.75
      vertex 0.8625 0.9 9.00611
      vertex 2.47487 0.9 8.02513
    endloop
  endfacet
  facet normal 0 -1 2.22045e-016
    outer loop
      vertex 0.8625 0.9 9.00611
      vertex 0 0.9 8.775
      vertex 2.47487 0.9 8.02513
    endloop
  endfacet
  facet normal 0 -1 2.22045e-016
    outer loop
      vertex -0.8625 0.9 9.00611
      vertex -3.38074 0.9 9.59413
      vertex 0 0.9 8.775
    endloop
  endfacet
  facet normal 0 -1 2.22045e-016
    outer loop
      vertex -1.725 0.9 10.5
      vertex -1.49389 0.9 11.3625
      vertex -3.38074 0.9 9.59413
    endloop
  endfacet
  facet normal 0 -1 2.22045e-016
    outer loop
      vertex 1.49389 0.9 9.6375
      vertex 3.03109 0.9 8.75
      vertex 3.38074 0.9 9.59413
    endloop
  endfacet
  facet normal 0 -1 2.22045e-016
    outer loop
      vertex -1.49389 0.9 9.6375
      vertex -1.725 0.9 10.5
      vertex -3.38074 0.9 9.59413
    endloop
  endfacet
  facet normal -0.369832 0.794308 -0.481975
    outer loop
      vertex 0.8625 4.5 11.9939
      vertex 2.18125 6.5 14.278
      vertex 2.25 5.85788 13.1671
    endloop
  endfacet
  facet normal -0.369832 0.794308 -0.481975
    outer loop
      vertex 2.25 5.85788 13.1671
      vertex 2.18125 6.5 14.278
      vertex 2.25 6.5 14.2253
    endloop
  endfacet
  facet normal -0.369833 0.794308 -0.481974
    outer loop
      vertex 0.8625 4.5 11.9939
      vertex 2.25 5.85788 13.1671
      vertex 1.21976 4.5 11.7198
    endloop
  endfacet
  facet normal -0.369833 0.794308 -0.481974
    outer loop
      vertex 1.21976 4.5 11.7198
      vertex 2.25 5.85788 13.1671
      vertex 2.25 5.60482 12.75
    endloop
  endfacet
  facet normal -0.481975 0.794308 -0.369832
    outer loop
      vertex 2.25 5.35101 12.2049
      vertex 1.21976 4.5 11.7198
      vertex 2.25 5.60482 12.75
    endloop
  endfacet
  facet normal -0.481974 0.794307 -0.369833
    outer loop
      vertex 1.21976 4.5 11.7198
      vertex 2.25 5.35101 12.2049
      vertex 1.49389 4.5 11.3625
    endloop
  endfacet
  facet normal -0.481974 0.794307 -0.369833
    outer loop
      vertex 1.49389 4.5 11.3625
      vertex 2.25 5.35101 12.2049
      vertex 2.25 5.16205 11.799
    endloop
  endfacet
  facet normal -0.561272 0.794308 -0.232486
    outer loop
      vertex 2.25 5.07416 11.4988
      vertex 1.49389 4.5 11.3625
      vertex 2.25 5.16205 11.799
    endloop
  endfacet
  facet normal -0.561272 0.794308 -0.232486
    outer loop
      vertex 1.49389 4.5 11.3625
      vertex 2.25 5.07416 11.4988
      vertex 1.66622 4.5 10.9465
    endloop
  endfacet
  facet normal -0.561272 0.794308 -0.232486
    outer loop
      vertex 1.66622 4.5 10.9465
      vertex 2.25 5.07416 11.4988
      vertex 2.25 4.95829 11.1029
    endloop
  endfacet
  facet normal -0.602319 0.794308 -0.0792967
    outer loop
      vertex 2.25 4.9378 10.8976
      vertex 1.66622 4.5 10.9465
      vertex 2.25 4.95829 11.1029
    endloop
  endfacet
  facet normal -0.602319 0.794308 -0.0792968
    outer loop
      vertex 1.66622 4.5 10.9465
      vertex 2.25 4.9378 10.8976
      vertex 1.725 4.5 10.5
    endloop
  endfacet
  facet normal -0.602319 0.794308 -0.0792968
    outer loop
      vertex 1.725 4.5 10.5
      vertex 2.25 4.9378 10.8976
      vertex 2.25 4.8981 10.5
    endloop
  endfacet
  facet normal -0.602319 0.794308 0.0792967
    outer loop
      vertex 2.25 4.91696 10.3111
      vertex 1.725 4.5 10.5
      vertex 2.25 4.8981 10.5
    endloop
  endfacet
  facet normal -0.602318 0.794308 0.0792968
    outer loop
      vertex 1.66622 4.5 10.0535
      vertex 1.725 4.5 10.5
      vertex 2.25 4.95829 9.89711
    endloop
  endfacet
  facet normal -0.602318 0.794308 0.0792968
    outer loop
      vertex 2.25 4.95829 9.89711
      vertex 1.725 4.5 10.5
      vertex 2.25 4.91696 10.3111
    endloop
  endfacet
  facet normal -0.561271 0.794308 0.232486
    outer loop
      vertex 2.25 5.0312 9.64803
      vertex 1.66622 4.5 10.0535
      vertex 2.25 4.95829 9.89711
    endloop
  endfacet
  facet normal -0.561272 0.794308 0.232486
    outer loop
      vertex 1.49389 4.5 9.6375
      vertex 1.66622 4.5 10.0535
      vertex 2.25 5.16205 9.20096
    endloop
  endfacet
  facet normal -0.561272 0.794308 0.232486
    outer loop
      vertex 2.25 5.16205 9.20096
      vertex 1.66622 4.5 10.0535
      vertex 2.25 5.0312 9.64803
    endloop
  endfacet
  facet normal -0.481975 0.794308 0.369832
    outer loop
      vertex 2.25 5.37516 8.74325
      vertex 1.49389 4.5 9.6375
      vertex 2.25 5.16205 9.20096
    endloop
  endfacet
  facet normal -0.481974 0.794308 0.369833
    outer loop
      vertex 1.21976 4.5 9.28024
      vertex 1.49389 4.5 9.6375
      vertex 2.25 5.60482 8.25
    endloop
  endfacet
  facet normal -0.481974 0.794308 0.369833
    outer loop
      vertex 2.25 5.60482 8.25
      vertex 1.49389 4.5 9.6375
      vertex 2.25 5.37516 8.74325
    endloop
  endfacet
  facet normal -0.369832 0.794308 0.481975
    outer loop
      vertex 2.25 6.30725 7.09238
      vertex 1.21976 4.5 9.28024
      vertex 2.25 5.60482 8.25
    endloop
  endfacet
  facet normal -0.369833 0.794307 0.481974
    outer loop
      vertex 0.8625 4.5 9.00611
      vertex 1.21976 4.5 9.28024
      vertex 2.18125 6.5 6.72196
    endloop
  endfacet
  facet normal -0.369833 0.794307 0.481974
    outer loop
      vertex 2.18125 6.5 6.72196
      vertex 1.21976 4.5 9.28024
      vertex 2.25 6.30725 7.09238
    endloop
  endfacet
  facet normal -0.369833 0.794307 0.481974
    outer loop
      vertex 2.18125 6.5 6.72196
      vertex 2.25 6.30725 7.09238
      vertex 2.25 6.5 6.77472
    endloop
  endfacet
  facet normal -0.232486 0.794308 0.561272
    outer loop
      vertex 1.33712 6.5 6.37231
      vertex 0.8625 4.5 9.00611
      vertex 2.18125 6.5 6.72196
    endloop
  endfacet
  facet normal -0.232486 0.794308 0.561272
    outer loop
      vertex 0.446463 4.5 8.83378
      vertex 0.8625 4.5 9.00611
      vertex 1.1291 6.5 6.28615
    endloop
  endfacet
  facet normal -0.232486 0.794308 0.561272
    outer loop
      vertex 1.1291 6.5 6.28615
      vertex 0.8625 4.5 9.00611
      vertex 1.33712 6.5 6.37231
    endloop
  endfacet
  facet normal -0.0792967 0.794308 0.602319
    outer loop
      vertex 1.1291 6.5 6.28615
      vertex 0.223231 6.5 6.16689
      vertex 0.446463 4.5 8.83378
    endloop
  endfacet
  facet normal -0.0792968 0.794308 0.602319
    outer loop
      vertex 0 4.5 8.775
      vertex 0.446463 4.5 8.83378
      vertex 0 6.5 6.1375
    endloop
  endfacet
  facet normal -0.0792968 0.794308 0.602319
    outer loop
      vertex 0 6.5 6.1375
      vertex 0.446463 4.5 8.83378
      vertex 0.223231 6.5 6.16689
    endloop
  endfacet
  facet normal 0.0792967 0.794308 0.602319
    outer loop
      vertex 0 6.5 6.1375
      vertex -0.905867 6.5 6.25676
      vertex 0 4.5 8.775
    endloop
  endfacet
  facet normal 0.0792968 0.794308 0.602318
    outer loop
      vertex -1.1291 6.5 6.28615
      vertex -0.446463 4.5 8.83378
      vertex -0.905867 6.5 6.25676
    endloop
  endfacet
  facet normal 0.0792968 0.794308 0.602318
    outer loop
      vertex -0.905867 6.5 6.25676
      vertex -0.446463 4.5 8.83378
      vertex 0 4.5 8.775
    endloop
  endfacet
  facet normal 0.232486 0.794308 0.561271
    outer loop
      vertex -1.1291 6.5 6.28615
      vertex -1.97323 6.5 6.6358
      vertex -0.446463 4.5 8.83378
    endloop
  endfacet
  facet normal 0.232486 0.794308 0.561272
    outer loop
      vertex -2.18125 6.5 6.72196
      vertex -0.8625 4.5 9.00611
      vertex -1.97323 6.5 6.6358
    endloop
  endfacet
  facet normal 0.232486 0.794308 0.561272
    outer loop
      vertex -1.97323 6.5 6.6358
      vertex -0.8625 4.5 9.00611
      vertex -0.446463 4.5 8.83378
    endloop
  endfacet
  facet normal 0.369832 0.794308 0.481975
    outer loop
      vertex -2.25 5.85788 7.83295
      vertex -0.8625 4.5 9.00611
      vertex -2.25 6.5 6.77472
    endloop
  endfacet
  facet normal 0.369832 0.794308 0.481975
    outer loop
      vertex -2.25 6.5 6.77472
      vertex -0.8625 4.5 9.00611
      vertex -2.18125 6.5 6.72196
    endloop
  endfacet
  facet normal 0.369833 0.794308 0.481974
    outer loop
      vertex -2.25 5.60482 8.25
      vertex -1.21976 4.5 9.28024
      vertex -2.25 5.85788 7.83295
    endloop
  endfacet
  facet normal 0.369833 0.794308 0.481974
    outer loop
      vertex -2.25 5.85788 7.83295
      vertex -1.21976 4.5 9.28024
      vertex -0.8625 4.5 9.00611
    endloop
  endfacet
  facet normal 0.481975 0.794308 0.369832
    outer loop
      vertex -2.25 5.60482 8.25
      vertex -2.25 5.35101 8.79511
      vertex -1.21976 4.5 9.28024
    endloop
  endfacet
  facet normal 0.481974 0.794307 0.369833
    outer loop
      vertex -2.25 5.16205 9.20096
      vertex -1.49389 4.5 9.6375
      vertex -2.25 5.35101 8.79511
    endloop
  endfacet
  facet normal 0.481974 0.794307 0.369833
    outer loop
      vertex -2.25 5.35101 8.79511
      vertex -1.49389 4.5 9.6375
      vertex -1.21976 4.5 9.28024
    endloop
  endfacet
  facet normal 0.561272 0.794308 0.232486
    outer loop
      vertex -2.25 5.16205 9.20096
      vertex -2.25 5.07416 9.50125
      vertex -1.49389 4.5 9.6375
    endloop
  endfacet
  facet normal 0.561272 0.794308 0.232486
    outer loop
      vertex -2.25 4.95829 9.89711
      vertex -1.66622 4.5 10.0535
      vertex -2.25 5.07416 9.50125
    endloop
  endfacet
  facet normal 0.561272 0.794308 0.232486
    outer loop
      vertex -2.25 5.07416 9.50125
      vertex -1.66622 4.5 10.0535
      vertex -1.49389 4.5 9.6375
    endloop
  endfacet
  facet normal 0.602319 0.794308 0.0792967
    outer loop
      vertex -2.25 4.95829 9.89711
      vertex -2.25 4.9378 10.1024
      vertex -1.66622 4.5 10.0535
    endloop
  endfacet
  facet normal 0.602319 0.794308 0.0792968
    outer loop
      vertex -2.25 4.8981 10.5
      vertex -1.725 4.5 10.5
      vertex -2.25 4.9378 10.1024
    endloop
  endfacet
  facet normal 0.602319 0.794308 0.0792968
    outer loop
      vertex -2.25 4.9378 10.1024
      vertex -1.725 4.5 10.5
      vertex -1.66622 4.5 10.0535
    endloop
  endfacet
  facet normal 0.602319 0.794308 -0.0792967
    outer loop
      vertex -1.725 4.5 10.5
      vertex -2.25 4.8981 10.5
      vertex -2.25 4.91696 10.6889
    endloop
  endfacet
  facet normal 0.602318 0.794308 -0.0792968
    outer loop
      vertex -2.25 4.91696 10.6889
      vertex -2.25 4.95829 11.1029
      vertex -1.725 4.5 10.5
    endloop
  endfacet
  facet normal 0.602318 0.794308 -0.0792968
    outer loop
      vertex -1.725 4.5 10.5
      vertex -2.25 4.95829 11.1029
      vertex -1.66622 4.5 10.9465
    endloop
  endfacet
  facet normal 0.561271 0.794308 -0.232486
    outer loop
      vertex -1.66622 4.5 10.9465
      vertex -2.25 4.95829 11.1029
      vertex -2.25 5.0312 11.352
    endloop
  endfacet
  facet normal 0.561272 0.794308 -0.232486
    outer loop
      vertex -2.25 5.0312 11.352
      vertex -2.25 5.16205 11.799
      vertex -1.66622 4.5 10.9465
    endloop
  endfacet
  facet normal 0.561272 0.794308 -0.232486
    outer loop
      vertex -1.66622 4.5 10.9465
      vertex -2.25 5.16205 11.799
      vertex -1.49389 4.5 11.3625
    endloop
  endfacet
  facet normal 0.481975 0.794308 -0.369832
    outer loop
      vertex -1.49389 4.5 11.3625
      vertex -2.25 5.16205 11.799
      vertex -2.25 5.37516 12.2567
    endloop
  endfacet
  facet normal 0.481974 0.794308 -0.369833
    outer loop
      vertex -2.25 5.37516 12.2567
      vertex -2.25 5.60482 12.75
      vertex -1.49389 4.5 11.3625
    endloop
  endfacet
  facet normal 0.481974 0.794308 -0.369833
    outer loop
      vertex -1.49389 4.5 11.3625
      vertex -2.25 5.60482 12.75
      vertex -1.21976 4.5 11.7198
    endloop
  endfacet
  facet normal 0.369832 0.794308 -0.481975
    outer loop
      vertex -1.21976 4.5 11.7198
      vertex -2.25 5.60482 12.75
      vertex -2.25 6.30725 13.9076
    endloop
  endfacet
  facet normal 0.369833 0.794307 -0.481974
    outer loop
      vertex -2.25 6.30725 13.9076
      vertex -2.25 6.5 14.2253
      vertex -1.21976 4.5 11.7198
    endloop
  endfacet
  facet normal 0.369833 0.794307 -0.481974
    outer loop
      vertex -1.21976 4.5 11.7198
      vertex -2.25 6.5 14.2253
      vertex -2.18125 6.5 14.278
    endloop
  endfacet
  facet normal 0.369833 0.794307 -0.481974
    outer loop
      vertex -1.21976 4.5 11.7198
      vertex -2.18125 6.5 14.278
      vertex -0.8625 4.5 11.9939
    endloop
  endfacet
  facet normal 0.232486 0.794308 -0.561272
    outer loop
      vertex -0.8625 4.5 11.9939
      vertex -2.18125 6.5 14.278
      vertex -1.33712 6.5 14.6277
    endloop
  endfacet
  facet normal 0.232486 0.794308 -0.561272
    outer loop
      vertex -1.33712 6.5 14.6277
      vertex -1.1291 6.5 14.7139
      vertex -0.8625 4.5 11.9939
    endloop
  endfacet
  facet normal 0.232486 0.794308 -0.561272
    outer loop
      vertex -0.8625 4.5 11.9939
      vertex -1.1291 6.5 14.7139
      vertex -0.446463 4.5 12.1662
    endloop
  endfacet
  facet normal 0.0792967 0.794308 -0.602319
    outer loop
      vertex -0.446463 4.5 12.1662
      vertex -1.1291 6.5 14.7139
      vertex -0.223232 6.5 14.8331
    endloop
  endfacet
  facet normal 0.0792968 0.794308 -0.602319
    outer loop
      vertex -0.446463 4.5 12.1662
      vertex -0.223232 6.5 14.8331
      vertex 0 4.5 12.225
    endloop
  endfacet
  facet normal 0.0792968 0.794308 -0.602319
    outer loop
      vertex 0 4.5 12.225
      vertex -0.223232 6.5 14.8331
      vertex 0 6.5 14.8625
    endloop
  endfacet
  facet normal -0.0792967 0.794308 -0.602319
    outer loop
      vertex 0.905866 6.5 14.7432
      vertex 0 4.5 12.225
      vertex 0 6.5 14.8625
    endloop
  endfacet
  facet normal -0.0792968 0.794308 -0.602318
    outer loop
      vertex 0 4.5 12.225
      vertex 0.905866 6.5 14.7432
      vertex 0.446463 4.5 12.1662
    endloop
  endfacet
  facet normal -0.0792968 0.794308 -0.602318
    outer loop
      vertex 0.446463 4.5 12.1662
      vertex 0.905866 6.5 14.7432
      vertex 1.1291 6.5 14.7139
    endloop
  endfacet
  facet normal -0.232486 0.794308 -0.561271
    outer loop
      vertex 1.97323 6.5 14.3642
      vertex 0.446463 4.5 12.1662
      vertex 1.1291 6.5 14.7139
    endloop
  endfacet
  facet normal -0.232486 0.794308 -0.561272
    outer loop
      vertex 0.446463 4.5 12.1662
      vertex 1.97323 6.5 14.3642
      vertex 0.8625 4.5 11.9939
    endloop
  endfacet
  facet normal -0.232486 0.794308 -0.561272
    outer loop
      vertex 0.8625 4.5 11.9939
      vertex 1.97323 6.5 14.3642
      vertex 2.18125 6.5 14.278
    endloop
  endfacet
  facet normal 0.965926 -5.74693e-017 -0.258819
    outer loop
      vertex -1.725 4.5 10.5
      vertex -1.49389 4.5 11.3625
      vertex -1.49389 0.9 11.3625
    endloop
  endfacet
  facet normal 0.965926 -5.74693e-017 -0.258819
    outer loop
      vertex -1.725 0.9 10.5
      vertex -1.725 4.5 10.5
      vertex -1.49389 0.9 11.3625
    endloop
  endfacet
  facet normal 0.965926 5.74693e-017 0.258819
    outer loop
      vertex -1.49389 0.9 9.6375
      vertex -1.49389 4.5 9.6375
      vertex -1.725 4.5 10.5
    endloop
  endfacet
  facet normal 0.965926 5.74693e-017 0.258819
    outer loop
      vertex -1.725 0.9 10.5
      vertex -1.49389 0.9 9.6375
      vertex -1.725 4.5 10.5
    endloop
  endfacet
  facet normal 0.707107 1.57009e-016 0.707107
    outer loop
      vertex -0.8625 0.9 9.00611
      vertex -0.8625 4.5 9.00611
      vertex -1.49389 4.5 9.6375
    endloop
  endfacet
  facet normal 0.707107 1.57009e-016 0.707107
    outer loop
      vertex -1.49389 0.9 9.6375
      vertex -0.8625 0.9 9.00611
      vertex -1.49389 4.5 9.6375
    endloop
  endfacet
  facet normal 0.258819 2.14479e-016 0.965926
    outer loop
      vertex 0 0.9 8.775
      vertex 0 4.5 8.775
      vertex -0.8625 4.5 9.00611
    endloop
  endfacet
  facet normal 0.258819 2.14479e-016 0.965926
    outer loop
      vertex -0.8625 0.9 9.00611
      vertex 0 0.9 8.775
      vertex -0.8625 4.5 9.00611
    endloop
  endfacet
  facet normal -0.258819 2.14479e-016 0.965926
    outer loop
      vertex 0.8625 0.9 9.00611
      vertex 0.8625 4.5 9.00611
      vertex 0 4.5 8.775
    endloop
  endfacet
  facet normal -0.258819 2.14479e-016 0.965926
    outer loop
      vertex 0 0.9 8.775
      vertex 0.8625 0.9 9.00611
      vertex 0 4.5 8.775
    endloop
  endfacet
  facet normal -0.707107 1.57009e-016 0.707107
    outer loop
      vertex 1.49389 4.5 9.6375
      vertex 0.8625 4.5 9.00611
      vertex 1.49389 0.9 9.6375
    endloop
  endfacet
  facet normal -0.707107 1.57009e-016 0.707107
    outer loop
      vertex 1.49389 0.9 9.6375
      vertex 0.8625 4.5 9.00611
      vertex 0.8625 0.9 9.00611
    endloop
  endfacet
  facet normal -0.965926 5.74693e-017 0.258819
    outer loop
      vertex 1.725 4.5 10.5
      vertex 1.49389 4.5 9.6375
      vertex 1.725 0.9 10.5
    endloop
  endfacet
  facet normal -0.965926 5.74693e-017 0.258819
    outer loop
      vertex 1.725 0.9 10.5
      vertex 1.49389 4.5 9.6375
      vertex 1.49389 0.9 9.6375
    endloop
  endfacet
  facet normal -0.965926 -5.74693e-017 -0.258819
    outer loop
      vertex 1.725 4.5 10.5
      vertex 1.725 0.9 10.5
      vertex 1.49389 4.5 11.3625
    endloop
  endfacet
  facet normal -0.965926 -5.74693e-017 -0.258819
    outer loop
      vertex 1.49389 4.5 11.3625
      vertex 1.725 0.9 10.5
      vertex 1.49389 0.9 11.3625
    endloop
  endfacet
  facet normal -0.707107 -1.57009e-016 -0.707107
    outer loop
      vertex 1.49389 4.5 11.3625
      vertex 1.49389 0.9 11.3625
      vertex 0.8625 4.5 11.9939
    endloop
  endfacet
  facet normal -0.707107 -1.57009e-016 -0.707107
    outer loop
      vertex 0.8625 4.5 11.9939
      vertex 1.49389 0.9 11.3625
      vertex 0.8625 0.9 11.9939
    endloop
  endfacet
  facet normal -0.258819 -2.14479e-016 -0.965926
    outer loop
      vertex 0.8625 4.5 11.9939
      vertex 0.8625 0.9 11.9939
      vertex 0 4.5 12.225
    endloop
  endfacet
  facet normal -0.258819 -2.14479e-016 -0.965926
    outer loop
      vertex 0 4.5 12.225
      vertex 0.8625 0.9 11.9939
      vertex 0 0.9 12.225
    endloop
  endfacet
  facet normal 0.258819 -2.14479e-016 -0.965926
    outer loop
      vertex 0 4.5 12.225
      vertex 0 0.9 12.225
      vertex -0.8625 4.5 11.9939
    endloop
  endfacet
  facet normal 0.258819 -2.14479e-016 -0.965926
    outer loop
      vertex -0.8625 4.5 11.9939
      vertex 0 0.9 12.225
      vertex -0.8625 0.9 11.9939
    endloop
  endfacet
  facet normal 0.707107 -1.57009e-016 -0.707107
    outer loop
      vertex -1.49389 4.5 11.3625
      vertex -0.8625 4.5 11.9939
      vertex -0.8625 0.9 11.9939
    endloop
  endfacet
  facet normal 0.707107 -1.57009e-016 -0.707107
    outer loop
      vertex -1.49389 0.9 11.3625
      vertex -1.49389 4.5 11.3625
      vertex -0.8625 0.9 11.9939
    endloop
  endfacet
  facet normal 0 1 -2.22045e-016
    outer loop
      vertex 0.8625 4.5 11.9939
      vertex 0 4.5 12.225
      vertex 0.446463 4.5 12.1662
    endloop
  endfacet
  facet normal 0 1 -2.22045e-016
    outer loop
      vertex 1.49389 4.5 11.3625
      vertex 0.8625 4.5 11.9939
      vertex 1.21976 4.5 11.7198
    endloop
  endfacet
  facet normal 0 1 -2.22045e-016
    outer loop
      vertex 1.725 4.5 10.5
      vertex 1.49389 4.5 11.3625
      vertex 1.66622 4.5 10.9465
    endloop
  endfacet
  facet normal 0 1 -2.22045e-016
    outer loop
      vertex 1.66622 4.5 10.0535
      vertex 1.49389 4.5 9.6375
      vertex 1.725 4.5 10.5
    endloop
  endfacet
  facet normal 0 1 -2.22045e-016
    outer loop
      vertex 1.21976 4.5 9.28024
      vertex 0.8625 4.5 9.00611
      vertex 1.49389 4.5 9.6375
    endloop
  endfacet
  facet normal 0 1 -2.22045e-016
    outer loop
      vertex 0.446463 4.5 8.83378
      vertex 0 4.5 8.775
      vertex 0.8625 4.5 9.00611
    endloop
  endfacet
  facet normal 0 1 -2.22045e-016
    outer loop
      vertex -0.446463 4.5 8.83378
      vertex -0.8625 4.5 9.00611
      vertex 0 4.5 8.775
    endloop
  endfacet
  facet normal 0 1 -2.22045e-016
    outer loop
      vertex -1.21976 4.5 9.28024
      vertex -1.49389 4.5 9.6375
      vertex -0.8625 4.5 9.00611
    endloop
  endfacet
  facet normal 0 1 -2.22045e-016
    outer loop
      vertex -1.66622 4.5 10.0535
      vertex -1.725 4.5 10.5
      vertex -1.49389 4.5 9.6375
    endloop
  endfacet
  facet normal 0 1 -2.22045e-016
    outer loop
      vertex -1.49389 4.5 11.3625
      vertex -1.725 4.5 10.5
      vertex -1.66622 4.5 10.9465
    endloop
  endfacet
  facet normal 0 1 -2.22045e-016
    outer loop
      vertex -0.8625 4.5 11.9939
      vertex -1.49389 4.5 11.3625
      vertex -1.21976 4.5 11.7198
    endloop
  endfacet
  facet normal 0 1 -2.22045e-016
    outer loop
      vertex 0 4.5 12.225
      vertex -0.8625 4.5 11.9939
      vertex -0.446463 4.5 12.1662
    endloop
  endfacet
endsolid OpenSCAD_Model
